<svg width="370" height="236" viewBox="0 0 370 236" fill="none" xmlns="http://www.w3.org/2000/svg">
<rect width="370" height="236" rx="17" fill="white"/>
<rect x="29" width="307" height="55" fill="black"/>
<path d="M34 96.1591C33.1439 96.1591 32.4148 95.9261 31.8125 95.4602C31.2102 94.9905 30.75 94.3106 30.4318 93.4205C30.1136 92.5265 29.9545 91.447 29.9545 90.1818C29.9545 88.9242 30.1136 87.8504 30.4318 86.9602C30.7538 86.0663 31.2159 85.3845 31.8182 84.9148C32.4242 84.4413 33.1515 84.2045 34 84.2045C34.8485 84.2045 35.5739 84.4413 36.1761 84.9148C36.7822 85.3845 37.2443 86.0663 37.5625 86.9602C37.8845 87.8504 38.0455 88.9242 38.0455 90.1818C38.0455 91.447 37.8864 92.5265 37.5682 93.4205C37.25 94.3106 36.7898 94.9905 36.1875 95.4602C35.5852 95.9261 34.8561 96.1591 34 96.1591ZM34 94.9091C34.8485 94.9091 35.5076 94.5 35.9773 93.6818C36.447 92.8636 36.6818 91.697 36.6818 90.1818C36.6818 89.1742 36.5739 88.3163 36.358 87.608C36.1458 86.8996 35.839 86.3598 35.4375 85.9886C35.0398 85.6174 34.5606 85.4318 34 85.4318C33.1591 85.4318 32.5019 85.8466 32.0284 86.6761C31.5549 87.5019 31.3182 88.6705 31.3182 90.1818C31.3182 91.1894 31.4242 92.0455 31.6364 92.75C31.8485 93.4545 32.1534 93.9905 32.5511 94.358C32.9527 94.7254 33.4356 94.9091 34 94.9091ZM44 96.1591C43.1439 96.1591 42.4148 95.9261 41.8125 95.4602C41.2102 94.9905 40.75 94.3106 40.4318 93.4205C40.1136 92.5265 39.9545 91.447 39.9545 90.1818C39.9545 88.9242 40.1136 87.8504 40.4318 86.9602C40.7538 86.0663 41.2159 85.3845 41.8182 84.9148C42.4242 84.4413 43.1515 84.2045 44 84.2045C44.8485 84.2045 45.5739 84.4413 46.1761 84.9148C46.7822 85.3845 47.2443 86.0663 47.5625 86.9602C47.8845 87.8504 48.0455 88.9242 48.0455 90.1818C48.0455 91.447 47.8864 92.5265 47.5682 93.4205C47.25 94.3106 46.7898 94.9905 46.1875 95.4602C45.5852 95.9261 44.8561 96.1591 44 96.1591ZM44 94.9091C44.8485 94.9091 45.5076 94.5 45.9773 93.6818C46.447 92.8636 46.6818 91.697 46.6818 90.1818C46.6818 89.1742 46.5739 88.3163 46.358 87.608C46.1458 86.8996 45.839 86.3598 45.4375 85.9886C45.0398 85.6174 44.5606 85.4318 44 85.4318C43.1591 85.4318 42.5019 85.8466 42.0284 86.6761C41.5549 87.5019 41.3182 88.6705 41.3182 90.1818C41.3182 91.1894 41.4242 92.0455 41.6364 92.75C41.8485 93.4545 42.1534 93.9905 42.5511 94.358C42.9527 94.7254 43.4356 94.9091 44 94.9091ZM54 96.1591C53.1439 96.1591 52.4148 95.9261 51.8125 95.4602C51.2102 94.9905 50.75 94.3106 50.4318 93.4205C50.1136 92.5265 49.9545 91.447 49.9545 90.1818C49.9545 88.9242 50.1136 87.8504 50.4318 86.9602C50.7538 86.0663 51.2159 85.3845 51.8182 84.9148C52.4242 84.4413 53.1515 84.2045 54 84.2045C54.8485 84.2045 55.5739 84.4413 56.1761 84.9148C56.7822 85.3845 57.2443 86.0663 57.5625 86.9602C57.8845 87.8504 58.0455 88.9242 58.0455 90.1818C58.0455 91.447 57.8864 92.5265 57.5682 93.4205C57.25 94.3106 56.7898 94.9905 56.1875 95.4602C55.5852 95.9261 54.8561 96.1591 54 96.1591ZM54 94.9091C54.8485 94.9091 55.5076 94.5 55.9773 93.6818C56.447 92.8636 56.6818 91.697 56.6818 90.1818C56.6818 89.1742 56.5739 88.3163 56.358 87.608C56.1458 86.8996 55.839 86.3598 55.4375 85.9886C55.0398 85.6174 54.5606 85.4318 54 85.4318C53.1591 85.4318 52.5019 85.8466 52.0284 86.6761C51.5549 87.5019 51.3182 88.6705 51.3182 90.1818C51.3182 91.1894 51.4242 92.0455 51.6364 92.75C51.8485 93.4545 52.1534 93.9905 52.5511 94.358C52.9527 94.7254 53.4356 94.9091 54 94.9091ZM64 96.1591C63.1439 96.1591 62.4148 95.9261 61.8125 95.4602C61.2102 94.9905 60.75 94.3106 60.4318 93.4205C60.1136 92.5265 59.9545 91.447 59.9545 90.1818C59.9545 88.9242 60.1136 87.8504 60.4318 86.9602C60.7538 86.0663 61.2159 85.3845 61.8182 84.9148C62.4242 84.4413 63.1515 84.2045 64 84.2045C64.8485 84.2045 65.5739 84.4413 66.1761 84.9148C66.7822 85.3845 67.2443 86.0663 67.5625 86.9602C67.8845 87.8504 68.0455 88.9242 68.0455 90.1818C68.0455 91.447 67.8864 92.5265 67.5682 93.4205C67.25 94.3106 66.7898 94.9905 66.1875 95.4602C65.5852 95.9261 64.8561 96.1591 64 96.1591ZM64 94.9091C64.8485 94.9091 65.5076 94.5 65.9773 93.6818C66.447 92.8636 66.6818 91.697 66.6818 90.1818C66.6818 89.1742 66.5739 88.3163 66.358 87.608C66.1458 86.8996 65.839 86.3598 65.4375 85.9886C65.0398 85.6174 64.5606 85.4318 64 85.4318C63.1591 85.4318 62.5019 85.8466 62.0284 86.6761C61.5549 87.5019 61.3182 88.6705 61.3182 90.1818C61.3182 91.1894 61.4242 92.0455 61.6364 92.75C61.8485 93.4545 62.1534 93.9905 62.5511 94.358C62.9527 94.7254 63.4356 94.9091 64 94.9091ZM74.2955 84.3636V96H72.8864V85.8409H72.8182L69.9773 87.7273V86.2955L72.8864 84.3636H74.2955ZM81.733 84.3636V96H80.3239V85.8409H80.2557L77.4148 87.7273V86.2955L80.3239 84.3636H81.733ZM89.1705 84.3636V96H87.7614V85.8409H87.6932L84.8523 87.7273V86.2955L87.7614 84.3636H89.1705ZM96.608 84.3636V96H95.1989V85.8409H95.1307L92.2898 87.7273V86.2955L95.1989 84.3636H96.608ZM99.9545 96V94.9773L103.795 90.7727C104.246 90.2803 104.617 89.8523 104.909 89.4886C105.201 89.1212 105.417 88.7765 105.557 88.4545C105.701 88.1288 105.773 87.7879 105.773 87.4318C105.773 87.0227 105.674 86.6686 105.477 86.3693C105.284 86.0701 105.019 85.839 104.682 85.6761C104.345 85.5133 103.966 85.4318 103.545 85.4318C103.098 85.4318 102.708 85.5246 102.375 85.7102C102.045 85.892 101.79 86.1477 101.608 86.4773C101.43 86.8068 101.341 87.1932 101.341 87.6364H100C100 86.9545 100.157 86.3561 100.472 85.8409C100.786 85.3258 101.214 84.9242 101.756 84.6364C102.301 84.3485 102.913 84.2045 103.591 84.2045C104.273 84.2045 104.877 84.3485 105.403 84.6364C105.93 84.9242 106.343 85.3125 106.642 85.8011C106.941 86.2898 107.091 86.8333 107.091 87.4318C107.091 87.8598 107.013 88.2784 106.858 88.6875C106.706 89.0928 106.441 89.5455 106.062 90.0455C105.688 90.5417 105.167 91.1477 104.5 91.8636L101.886 94.6591V94.75H107.295V96H99.9545ZM109.642 96V94.9773L113.483 90.7727C113.934 90.2803 114.305 89.8523 114.597 89.4886C114.888 89.1212 115.104 88.7765 115.244 88.4545C115.388 88.1288 115.46 87.7879 115.46 87.4318C115.46 87.0227 115.362 86.6686 115.165 86.3693C114.972 86.0701 114.706 85.839 114.369 85.6761C114.032 85.5133 113.653 85.4318 113.233 85.4318C112.786 85.4318 112.396 85.5246 112.062 85.7102C111.733 85.892 111.477 86.1477 111.295 86.4773C111.117 86.8068 111.028 87.1932 111.028 87.6364H109.688C109.688 86.9545 109.845 86.3561 110.159 85.8409C110.473 85.3258 110.902 84.9242 111.443 84.6364C111.989 84.3485 112.6 84.2045 113.278 84.2045C113.96 84.2045 114.564 84.3485 115.091 84.6364C115.617 84.9242 116.03 85.3125 116.33 85.8011C116.629 86.2898 116.778 86.8333 116.778 87.4318C116.778 87.8598 116.701 88.2784 116.545 88.6875C116.394 89.0928 116.129 89.5455 115.75 90.0455C115.375 90.5417 114.854 91.1477 114.188 91.8636L111.574 94.6591V94.75H116.983V96H109.642ZM119.33 96V94.9773L123.17 90.7727C123.621 90.2803 123.992 89.8523 124.284 89.4886C124.576 89.1212 124.792 88.7765 124.932 88.4545C125.076 88.1288 125.148 87.7879 125.148 87.4318C125.148 87.0227 125.049 86.6686 124.852 86.3693C124.659 86.0701 124.394 85.839 124.057 85.6761C123.72 85.5133 123.341 85.4318 122.92 85.4318C122.473 85.4318 122.083 85.5246 121.75 85.7102C121.42 85.892 121.165 86.1477 120.983 86.4773C120.805 86.8068 120.716 87.1932 120.716 87.6364H119.375C119.375 86.9545 119.532 86.3561 119.847 85.8409C120.161 85.3258 120.589 84.9242 121.131 84.6364C121.676 84.3485 122.288 84.2045 122.966 84.2045C123.648 84.2045 124.252 84.3485 124.778 84.6364C125.305 84.9242 125.718 85.3125 126.017 85.8011C126.316 86.2898 126.466 86.8333 126.466 87.4318C126.466 87.8598 126.388 88.2784 126.233 88.6875C126.081 89.0928 125.816 89.5455 125.438 90.0455C125.062 90.5417 124.542 91.1477 123.875 91.8636L121.261 94.6591V94.75H126.67V96H119.33ZM129.017 96V94.9773L132.858 90.7727C133.309 90.2803 133.68 89.8523 133.972 89.4886C134.263 89.1212 134.479 88.7765 134.619 88.4545C134.763 88.1288 134.835 87.7879 134.835 87.4318C134.835 87.0227 134.737 86.6686 134.54 86.3693C134.347 86.0701 134.081 85.839 133.744 85.6761C133.407 85.5133 133.028 85.4318 132.608 85.4318C132.161 85.4318 131.771 85.5246 131.438 85.7102C131.108 85.892 130.852 86.1477 130.67 86.4773C130.492 86.8068 130.403 87.1932 130.403 87.6364H129.062C129.062 86.9545 129.22 86.3561 129.534 85.8409C129.848 85.3258 130.277 84.9242 130.818 84.6364C131.364 84.3485 131.975 84.2045 132.653 84.2045C133.335 84.2045 133.939 84.3485 134.466 84.6364C134.992 84.9242 135.405 85.3125 135.705 85.8011C136.004 86.2898 136.153 86.8333 136.153 87.4318C136.153 87.8598 136.076 88.2784 135.92 88.6875C135.769 89.0928 135.504 89.5455 135.125 90.0455C134.75 90.5417 134.229 91.1477 133.562 91.8636L130.949 94.6591V94.75H136.358V96H129.017ZM142.636 96.1591C141.886 96.1591 141.218 96.0303 140.631 95.7727C140.047 95.5152 139.583 95.1572 139.239 94.6989C138.898 94.2367 138.712 93.7008 138.682 93.0909H140.114C140.144 93.4659 140.273 93.7898 140.5 94.0625C140.727 94.3314 141.025 94.5398 141.392 94.6875C141.759 94.8352 142.167 94.9091 142.614 94.9091C143.114 94.9091 143.557 94.822 143.943 94.6477C144.33 94.4735 144.633 94.2311 144.852 93.9205C145.072 93.6098 145.182 93.25 145.182 92.8409C145.182 92.4129 145.076 92.036 144.864 91.7102C144.652 91.3807 144.341 91.1231 143.932 90.9375C143.523 90.7519 143.023 90.6591 142.432 90.6591H141.5V89.4091H142.432C142.894 89.4091 143.299 89.3258 143.648 89.1591C144 88.9924 144.275 88.7576 144.472 88.4545C144.672 88.1515 144.773 87.7955 144.773 87.3864C144.773 86.9924 144.686 86.6496 144.511 86.358C144.337 86.0663 144.091 85.839 143.773 85.6761C143.458 85.5133 143.087 85.4318 142.659 85.4318C142.258 85.4318 141.879 85.5057 141.523 85.6534C141.17 85.7973 140.883 86.0076 140.659 86.2841C140.436 86.5568 140.314 86.8864 140.295 87.2727H138.932C138.955 86.6629 139.138 86.1288 139.483 85.6705C139.828 85.2083 140.278 84.8485 140.835 84.5909C141.396 84.3333 142.011 84.2045 142.682 84.2045C143.402 84.2045 144.019 84.3504 144.534 84.642C145.049 84.9299 145.445 85.3106 145.722 85.7841C145.998 86.2576 146.136 86.7689 146.136 87.3182C146.136 87.9735 145.964 88.5322 145.619 88.9943C145.278 89.4564 144.814 89.7765 144.227 89.9545V90.0455C144.962 90.1667 145.536 90.4792 145.949 90.983C146.362 91.483 146.568 92.1023 146.568 92.8409C146.568 93.4735 146.396 94.0417 146.051 94.5455C145.71 95.0455 145.244 95.4394 144.653 95.7273C144.063 96.0152 143.39 96.1591 142.636 96.1591ZM152.824 96.1591C152.074 96.1591 151.405 96.0303 150.818 95.7727C150.235 95.5152 149.771 95.1572 149.426 94.6989C149.085 94.2367 148.9 93.7008 148.869 93.0909H150.301C150.331 93.4659 150.46 93.7898 150.688 94.0625C150.915 94.3314 151.212 94.5398 151.58 94.6875C151.947 94.8352 152.354 94.9091 152.801 94.9091C153.301 94.9091 153.744 94.822 154.131 94.6477C154.517 94.4735 154.82 94.2311 155.04 93.9205C155.259 93.6098 155.369 93.25 155.369 92.8409C155.369 92.4129 155.263 92.036 155.051 91.7102C154.839 91.3807 154.528 91.1231 154.119 90.9375C153.71 90.7519 153.21 90.6591 152.619 90.6591H151.688V89.4091H152.619C153.081 89.4091 153.487 89.3258 153.835 89.1591C154.188 88.9924 154.462 88.7576 154.659 88.4545C154.86 88.1515 154.96 87.7955 154.96 87.3864C154.96 86.9924 154.873 86.6496 154.699 86.358C154.525 86.0663 154.278 85.839 153.96 85.6761C153.646 85.5133 153.275 85.4318 152.847 85.4318C152.445 85.4318 152.066 85.5057 151.71 85.6534C151.358 85.7973 151.07 86.0076 150.847 86.2841C150.623 86.5568 150.502 86.8864 150.483 87.2727H149.119C149.142 86.6629 149.326 86.1288 149.67 85.6705C150.015 85.2083 150.466 84.8485 151.023 84.5909C151.583 84.3333 152.199 84.2045 152.869 84.2045C153.589 84.2045 154.206 84.3504 154.722 84.642C155.237 84.9299 155.633 85.3106 155.909 85.7841C156.186 86.2576 156.324 86.7689 156.324 87.3182C156.324 87.9735 156.152 88.5322 155.807 88.9943C155.466 89.4564 155.002 89.7765 154.415 89.9545V90.0455C155.15 90.1667 155.723 90.4792 156.136 90.983C156.549 91.483 156.756 92.1023 156.756 92.8409C156.756 93.4735 156.583 94.0417 156.239 94.5455C155.898 95.0455 155.432 95.4394 154.841 95.7273C154.25 96.0152 153.578 96.1591 152.824 96.1591ZM163.011 96.1591C162.261 96.1591 161.593 96.0303 161.006 95.7727C160.422 95.5152 159.958 95.1572 159.614 94.6989C159.273 94.2367 159.087 93.7008 159.057 93.0909H160.489C160.519 93.4659 160.648 93.7898 160.875 94.0625C161.102 94.3314 161.4 94.5398 161.767 94.6875C162.134 94.8352 162.542 94.9091 162.989 94.9091C163.489 94.9091 163.932 94.822 164.318 94.6477C164.705 94.4735 165.008 94.2311 165.227 93.9205C165.447 93.6098 165.557 93.25 165.557 92.8409C165.557 92.4129 165.451 92.036 165.239 91.7102C165.027 91.3807 164.716 91.1231 164.307 90.9375C163.898 90.7519 163.398 90.6591 162.807 90.6591H161.875V89.4091H162.807C163.269 89.4091 163.674 89.3258 164.023 89.1591C164.375 88.9924 164.65 88.7576 164.847 88.4545C165.047 88.1515 165.148 87.7955 165.148 87.3864C165.148 86.9924 165.061 86.6496 164.886 86.358C164.712 86.0663 164.466 85.839 164.148 85.6761C163.833 85.5133 163.462 85.4318 163.034 85.4318C162.633 85.4318 162.254 85.5057 161.898 85.6534C161.545 85.7973 161.258 86.0076 161.034 86.2841C160.811 86.5568 160.689 86.8864 160.67 87.2727H159.307C159.33 86.6629 159.513 86.1288 159.858 85.6705C160.203 85.2083 160.653 84.8485 161.21 84.5909C161.771 84.3333 162.386 84.2045 163.057 84.2045C163.777 84.2045 164.394 84.3504 164.909 84.642C165.424 84.9299 165.82 85.3106 166.097 85.7841C166.373 86.2576 166.511 86.7689 166.511 87.3182C166.511 87.9735 166.339 88.5322 165.994 88.9943C165.653 89.4564 165.189 89.7765 164.602 89.9545V90.0455C165.337 90.1667 165.911 90.4792 166.324 90.983C166.737 91.483 166.943 92.1023 166.943 92.8409C166.943 93.4735 166.771 94.0417 166.426 94.5455C166.085 95.0455 165.619 95.4394 165.028 95.7273C164.438 96.0152 163.765 96.1591 163.011 96.1591ZM173.199 96.1591C172.449 96.1591 171.78 96.0303 171.193 95.7727C170.61 95.5152 170.146 95.1572 169.801 94.6989C169.46 94.2367 169.275 93.7008 169.244 93.0909H170.676C170.706 93.4659 170.835 93.7898 171.062 94.0625C171.29 94.3314 171.587 94.5398 171.955 94.6875C172.322 94.8352 172.729 94.9091 173.176 94.9091C173.676 94.9091 174.119 94.822 174.506 94.6477C174.892 94.4735 175.195 94.2311 175.415 93.9205C175.634 93.6098 175.744 93.25 175.744 92.8409C175.744 92.4129 175.638 92.036 175.426 91.7102C175.214 91.3807 174.903 91.1231 174.494 90.9375C174.085 90.7519 173.585 90.6591 172.994 90.6591H172.062V89.4091H172.994C173.456 89.4091 173.862 89.3258 174.21 89.1591C174.563 88.9924 174.837 88.7576 175.034 88.4545C175.235 88.1515 175.335 87.7955 175.335 87.3864C175.335 86.9924 175.248 86.6496 175.074 86.358C174.9 86.0663 174.653 85.839 174.335 85.6761C174.021 85.5133 173.65 85.4318 173.222 85.4318C172.82 85.4318 172.441 85.5057 172.085 85.6534C171.733 85.7973 171.445 86.0076 171.222 86.2841C170.998 86.5568 170.877 86.8864 170.858 87.2727H169.494C169.517 86.6629 169.701 86.1288 170.045 85.6705C170.39 85.2083 170.841 84.8485 171.398 84.5909C171.958 84.3333 172.574 84.2045 173.244 84.2045C173.964 84.2045 174.581 84.3504 175.097 84.642C175.612 84.9299 176.008 85.3106 176.284 85.7841C176.561 86.2576 176.699 86.7689 176.699 87.3182C176.699 87.9735 176.527 88.5322 176.182 88.9943C175.841 89.4564 175.377 89.7765 174.79 89.9545V90.0455C175.525 90.1667 176.098 90.4792 176.511 90.983C176.924 91.483 177.131 92.1023 177.131 92.8409C177.131 93.4735 176.958 94.0417 176.614 94.5455C176.273 95.0455 175.807 95.4394 175.216 95.7273C174.625 96.0152 173.953 96.1591 173.199 96.1591Z" fill="black"/>
<rect x="292.25" y="79.25" width="42.5" height="21.5" rx="10.75" stroke="black" stroke-width="2.5"/>
<line x1="314.194" y1="101.63" x2="327.194" y2="143.63" stroke="black" stroke-width="2.5"/>
<path d="M305.295 84.3636V96H303.886V85.8409H303.818L300.977 87.7273V86.2955L303.886 84.3636H305.295ZM308.642 96V94.9773L312.483 90.7727C312.934 90.2803 313.305 89.8523 313.597 89.4886C313.888 89.1212 314.104 88.7765 314.244 88.4545C314.388 88.1288 314.46 87.7879 314.46 87.4318C314.46 87.0227 314.362 86.6686 314.165 86.3693C313.972 86.0701 313.706 85.839 313.369 85.6761C313.032 85.5133 312.653 85.4318 312.233 85.4318C311.786 85.4318 311.396 85.5246 311.062 85.7102C310.733 85.892 310.477 86.1477 310.295 86.4773C310.117 86.8068 310.028 87.1932 310.028 87.6364H308.688C308.688 86.9545 308.845 86.3561 309.159 85.8409C309.473 85.3258 309.902 84.9242 310.443 84.6364C310.989 84.3485 311.6 84.2045 312.278 84.2045C312.96 84.2045 313.564 84.3485 314.091 84.6364C314.617 84.9242 315.03 85.3125 315.33 85.8011C315.629 86.2898 315.778 86.8333 315.778 87.4318C315.778 87.8598 315.701 88.2784 315.545 88.6875C315.394 89.0928 315.129 89.5455 314.75 90.0455C314.375 90.5417 313.854 91.1477 313.188 91.8636L310.574 94.6591V94.75H315.983V96H308.642ZM322.261 96.1591C321.511 96.1591 320.843 96.0303 320.256 95.7727C319.672 95.5152 319.208 95.1572 318.864 94.6989C318.523 94.2367 318.337 93.7008 318.307 93.0909H319.739C319.769 93.4659 319.898 93.7898 320.125 94.0625C320.352 94.3314 320.65 94.5398 321.017 94.6875C321.384 94.8352 321.792 94.9091 322.239 94.9091C322.739 94.9091 323.182 94.822 323.568 94.6477C323.955 94.4735 324.258 94.2311 324.477 93.9205C324.697 93.6098 324.807 93.25 324.807 92.8409C324.807 92.4129 324.701 92.036 324.489 91.7102C324.277 91.3807 323.966 91.1231 323.557 90.9375C323.148 90.7519 322.648 90.6591 322.057 90.6591H321.125V89.4091H322.057C322.519 89.4091 322.924 89.3258 323.273 89.1591C323.625 88.9924 323.9 88.7576 324.097 88.4545C324.297 88.1515 324.398 87.7955 324.398 87.3864C324.398 86.9924 324.311 86.6496 324.136 86.358C323.962 86.0663 323.716 85.839 323.398 85.6761C323.083 85.5133 322.712 85.4318 322.284 85.4318C321.883 85.4318 321.504 85.5057 321.148 85.6534C320.795 85.7973 320.508 86.0076 320.284 86.2841C320.061 86.5568 319.939 86.8864 319.92 87.2727H318.557C318.58 86.6629 318.763 86.1288 319.108 85.6705C319.453 85.2083 319.903 84.8485 320.46 84.5909C321.021 84.3333 321.636 84.2045 322.307 84.2045C323.027 84.2045 323.644 84.3504 324.159 84.642C324.674 84.9299 325.07 85.3106 325.347 85.7841C325.623 86.2576 325.761 86.7689 325.761 87.3182C325.761 87.9735 325.589 88.5322 325.244 88.9943C324.903 89.4564 324.439 89.7765 323.852 89.9545V90.0455C324.587 90.1667 325.161 90.4792 325.574 90.983C325.987 91.483 326.193 92.1023 326.193 92.8409C326.193 93.4735 326.021 94.0417 325.676 94.5455C325.335 95.0455 324.869 95.4394 324.278 95.7273C323.688 96.0152 323.015 96.1591 322.261 96.1591Z" fill="black"/>
<path d="M299.54 160.5C299.54 161.78 299.83 162.89 300.41 163.83C300.99 164.75 301.75 165.45 302.69 165.93C303.65 166.41 304.7 166.65 305.84 166.65C306.84 166.65 307.72 166.52 308.48 166.26C309.24 166 309.92 165.66 310.52 165.24C311.12 164.82 311.65 164.37 312.11 163.89V169.35C311.27 170.01 310.35 170.53 309.35 170.91C308.35 171.29 307.08 171.48 305.54 171.48C303.86 171.48 302.31 171.22 300.89 170.7C299.47 170.18 298.25 169.43 297.23 168.45C296.21 167.47 295.42 166.31 294.86 164.97C294.3 163.63 294.02 162.14 294.02 160.5C294.02 158.86 294.3 157.37 294.86 156.03C295.42 154.69 296.21 153.53 297.23 152.55C298.25 151.57 299.47 150.82 300.89 150.3C302.31 149.78 303.86 149.52 305.54 149.52C307.08 149.52 308.35 149.71 309.35 150.09C310.35 150.47 311.27 150.99 312.11 151.65V157.11C311.65 156.63 311.12 156.18 310.52 155.76C309.92 155.32 309.24 154.98 308.48 154.74C307.72 154.48 306.84 154.35 305.84 154.35C304.7 154.35 303.65 154.59 302.69 155.07C301.75 155.55 300.99 156.25 300.41 157.17C299.83 158.09 299.54 159.2 299.54 160.5ZM324.606 162.54L329.736 150H335.676L324.606 172.32L313.566 150H319.476L324.606 162.54ZM341.757 160.5C341.757 161.78 342.047 162.89 342.627 163.83C343.207 164.75 343.967 165.45 344.907 165.93C345.867 166.41 346.917 166.65 348.057 166.65C349.057 166.65 349.937 166.52 350.697 166.26C351.457 166 352.137 165.66 352.737 165.24C353.337 164.82 353.867 164.37 354.327 163.89V169.35C353.487 170.01 352.567 170.53 351.567 170.91C350.567 171.29 349.297 171.48 347.757 171.48C346.077 171.48 344.527 171.22 343.107 170.7C341.687 170.18 340.467 169.43 339.447 168.45C338.427 167.47 337.637 166.31 337.077 164.97C336.517 163.63 336.237 162.14 336.237 160.5C336.237 158.86 336.517 157.37 337.077 156.03C337.637 154.69 338.427 153.53 339.447 152.55C340.467 151.57 341.687 150.82 343.107 150.3C344.527 149.78 346.077 149.52 347.757 149.52C349.297 149.52 350.567 149.71 351.567 150.09C352.567 150.47 353.487 150.99 354.327 151.65V157.11C353.867 156.63 353.337 156.18 352.737 155.76C352.137 155.32 351.457 154.98 350.697 154.74C349.937 154.48 349.057 154.35 348.057 154.35C346.917 154.35 345.867 154.59 344.907 155.07C343.967 155.55 343.207 156.25 342.627 157.17C342.047 158.09 341.757 159.2 341.757 160.5Z" fill="black"/>
</svg>
