<svg width="39" height="35" viewBox="0 0 39 35" fill="none" xmlns="http://www.w3.org/2000/svg">
<path d="M13.9386 14.3544L15.9495 18.5H11.9277L13.9386 14.3544ZM38.6658 3.5V33.5C38.666 33.7558 38.6027 34.0074 38.482 34.2309C38.3613 34.4544 38.1872 34.6424 37.9762 34.7769C37.7652 34.9114 37.5244 34.9881 37.2766 34.9996C37.0288 35.011 36.7822 34.957 36.5604 34.8425L31.3931 32.1763L26.2258 34.8425C26.0238 34.9468 25.8009 35.0011 25.5749 35.0011C25.349 35.0011 25.1261 34.9468 24.924 34.8425L19.7567 32.1763L14.5895 34.8425C14.3874 34.9468 14.1645 35.0011 13.9386 35.0011C13.7126 35.0011 13.4897 34.9468 13.2877 34.8425L8.12038 32.1763L2.95311 34.8425C2.73127 34.957 2.48473 35.011 2.23691 34.9996C1.9891 34.9881 1.74825 34.9114 1.53726 34.7769C1.32627 34.6424 1.15215 34.4544 1.03145 34.2309C0.910747 34.0074 0.847479 33.7558 0.847657 33.5V3.5C0.847657 2.70435 1.15415 1.94129 1.69971 1.37868C2.24527 0.81607 2.98521 0.5 3.75675 0.5H35.7567C36.5283 0.5 37.2682 0.81607 37.8138 1.37868C38.3593 1.94129 38.6658 2.70435 38.6658 3.5ZM21.0586 22.3287L15.2404 10.3287C15.1197 10.0791 14.934 9.86915 14.7041 9.72238C14.4741 9.5756 14.209 9.49785 13.9386 9.49785C13.6681 9.49785 13.403 9.5756 13.1731 9.72238C12.9431 9.86915 12.7574 10.0791 12.6367 10.3287L6.81857 22.3287C6.73309 22.505 6.68212 22.697 6.66857 22.8936C6.65502 23.0902 6.67916 23.2877 6.7396 23.4746C6.80004 23.6616 6.89561 23.8345 7.02084 23.9834C7.14607 24.1323 7.29852 24.2544 7.46947 24.3425C7.64043 24.4307 7.82655 24.4832 8.01721 24.4972C8.20786 24.5112 8.39932 24.4863 8.58065 24.4239C8.76197 24.3616 8.92962 24.2631 9.07402 24.1339C9.21841 24.0048 9.33672 23.8475 9.4222 23.6713L10.4731 21.5H17.404L18.4549 23.6713C18.5404 23.8475 18.6587 24.0048 18.8031 24.1339C18.9475 24.2631 19.1152 24.3616 19.2965 24.4239C19.4778 24.4863 19.6693 24.5112 19.8599 24.4972C20.0506 24.4832 20.2367 24.4307 20.4077 24.3425C20.5786 24.2544 20.7311 24.1323 20.8563 23.9834C20.9815 23.8345 21.0771 23.6616 21.1375 23.4746C21.198 23.2877 21.2221 23.0902 21.2086 22.8936C21.195 22.697 21.144 22.505 21.0586 22.3287ZM34.3022 17C34.3022 16.6022 34.149 16.2206 33.8762 15.9393C33.6034 15.658 33.2334 15.5 32.8477 15.5H29.9386V12.5C29.9386 12.1022 29.7853 11.7206 29.5125 11.4393C29.2398 11.158 28.8698 11 28.484 11C28.0983 11 27.7283 11.158 27.4555 11.4393C27.1827 11.7206 27.0295 12.1022 27.0295 12.5V15.5H24.1204C23.7346 15.5 23.3646 15.658 23.0919 15.9393C22.8191 16.2206 22.6658 16.6022 22.6658 17C22.6658 17.3978 22.8191 17.7794 23.0919 18.0607C23.3646 18.342 23.7346 18.5 24.1204 18.5H27.0295V21.5C27.0295 21.8978 27.1827 22.2794 27.4555 22.5607C27.7283 22.842 28.0983 23 28.484 23C28.8698 23 29.2398 22.842 29.5125 22.5607C29.7853 22.2794 29.9386 21.8978 29.9386 21.5V18.5H32.8477C33.2334 18.5 33.6034 18.342 33.8762 18.0607C34.149 17.7794 34.3022 17.3978 34.3022 17Z" fill="white"/>
</svg>
