<svg width="50" height="50" viewBox="0 0 50 50" fill="none" xmlns="http://www.w3.org/2000/svg">
<rect y="-6.10352e-05" width="50" height="50" rx="7.93651" fill="white"/>
<g clip-path="url(#clip0_210_71)">
<path d="M41.2698 25.3968C41.2698 16.6304 33.9855 9.52374 25 9.52374C16.0145 9.52374 8.73016 16.6304 8.73016 25.3968C8.73016 33.3194 14.6798 39.8862 22.4578 41.0769V29.9851H18.3268V25.3968H22.4578V21.8997C22.4578 17.9216 24.8869 15.7241 28.6033 15.7241C30.3833 15.7241 32.2452 16.0342 32.2452 16.0342V19.9404H30.1936C28.1725 19.9404 27.5422 21.164 27.5422 22.4193V25.3968H32.0545L31.3332 29.9851H27.5422V41.0769C35.3202 39.8862 41.2698 33.3195 41.2698 25.3968Z" fill="#1877F2"/>
<path d="M31.3331 29.9851L32.0545 25.3968H27.5421V22.4194C27.5421 21.1639 28.1725 19.9405 30.1936 19.9405H32.2451V16.0342C32.2451 16.0342 30.3832 15.7242 28.6031 15.7242C24.8868 15.7242 22.4578 17.9216 22.4578 21.8998V25.3968H18.3268V29.9851H22.4578V41.077C23.2988 41.2055 24.1487 41.27 25 41.2698C25.8512 41.27 26.7011 41.2055 27.5421 41.077V29.9851H31.3331Z" fill="white"/>
</g>
<defs>
<clipPath id="clip0_210_71">
<rect width="32.5397" height="31.746" fill="white" transform="translate(8.73016 9.52374)"/>
</clipPath>
</defs>
</svg>
