<svg width="128" height="129" viewBox="0 0 128 129" fill="none" xmlns="http://www.w3.org/2000/svg">
<path d="M21.3337 21.6291H106.667C109.496 21.6291 112.209 22.7529 114.209 24.7533C116.21 26.7537 117.334 29.4668 117.334 32.2958V96.2958C117.334 99.1247 116.21 101.838 114.209 103.838C112.209 105.839 109.496 106.962 106.667 106.962H21.3337C18.5047 106.962 15.7916 105.839 13.7912 103.838C11.7908 101.838 10.667 99.1247 10.667 96.2958V32.2958C10.667 29.4668 11.7908 26.7537 13.7912 24.7533C15.7916 22.7529 18.5047 21.6291 21.3337 21.6291ZM21.3337 32.2958V48.2958H106.667V32.2958H21.3337ZM21.3337 58.9624V96.2958H106.667V58.9624H21.3337ZM32.0003 74.9624V85.6291H53.3337V74.9624H32.0003ZM64.0003 74.9624V85.6291H85.3337V74.9624H64.0003Z" fill="white"/>
</svg>
