<svg width="383" height="297" viewBox="0 0 383 297" fill="none" xmlns="http://www.w3.org/2000/svg">
<g filter="url(#filter0_d_435_3269)">
<rect x="17" y="13" width="349" height="263" rx="17" fill="#290A38"/>
</g>
<g clip-path="url(#clip0_435_3269)">
<path d="M64.8458 220.275H348.627" stroke="black"/>
<path d="M64.8458 70.6748V220.275" stroke="black"/>
<path d="M58.2641 220.275H64.8458" stroke="black"/>
<path d="M49.0293 225.157C48.3873 225.157 47.8404 224.983 47.3887 224.633C46.937 224.281 46.5918 223.771 46.3532 223.103C46.1146 222.433 45.9952 221.623 45.9952 220.674C45.9952 219.731 46.1146 218.926 46.3532 218.258C46.5947 217.588 46.9413 217.076 47.393 216.724C47.8475 216.369 48.393 216.191 49.0293 216.191C49.6657 216.191 50.2097 216.369 50.6614 216.724C51.116 217.076 51.4626 217.588 51.7012 218.258C51.9427 218.926 52.0634 219.731 52.0634 220.674C52.0634 221.623 51.9441 222.433 51.7055 223.103C51.4668 223.771 51.1217 224.281 50.67 224.633C50.2183 224.983 49.6714 225.157 49.0293 225.157ZM49.0293 224.22C49.6657 224.22 50.16 223.913 50.5123 223.299C50.8646 222.686 51.0407 221.811 51.0407 220.674C51.0407 219.919 50.9597 219.275 50.7978 218.744C50.6387 218.213 50.4086 217.808 50.1075 217.53C49.8092 217.251 49.4498 217.112 49.0293 217.112C48.3986 217.112 47.9058 217.423 47.5506 218.045C47.1955 218.665 47.018 219.541 47.018 220.674C47.018 221.43 47.0975 222.072 47.2566 222.601C47.4157 223.129 47.6444 223.531 47.9427 223.807C48.2438 224.082 48.606 224.22 49.0293 224.22Z" fill="white"/>
<path d="M58.2641 182.875H64.8458" stroke="black"/>
<path d="M39.7875 187.638L43.6909 179.916V179.848H39.1909V178.911H44.7818V179.899L40.8955 187.638H39.7875ZM49.0293 187.757C48.3873 187.757 47.8404 187.583 47.3887 187.233C46.937 186.881 46.5918 186.371 46.3532 185.703C46.1146 185.033 45.9952 184.223 45.9952 183.274C45.9952 182.331 46.1146 181.526 46.3532 180.858C46.5947 180.188 46.9413 179.676 47.393 179.324C47.8475 178.969 48.393 178.791 49.0293 178.791C49.6657 178.791 50.2097 178.969 50.6614 179.324C51.116 179.676 51.4626 180.188 51.7012 180.858C51.9427 181.526 52.0634 182.331 52.0634 183.274C52.0634 184.223 51.9441 185.033 51.7055 185.703C51.4668 186.371 51.1217 186.881 50.67 187.233C50.2182 187.583 49.6714 187.757 49.0293 187.757ZM49.0293 186.82C49.6657 186.82 50.16 186.513 50.5123 185.899C50.8646 185.286 51.0407 184.411 51.0407 183.274C51.0407 182.519 50.9597 181.875 50.7978 181.344C50.6387 180.813 50.4086 180.408 50.1075 180.129C49.8092 179.851 49.4498 179.712 49.0293 179.712C48.3986 179.712 47.9057 180.023 47.5506 180.645C47.1955 181.264 47.018 182.141 47.018 183.274C47.018 184.03 47.0975 184.672 47.2566 185.2C47.4157 185.729 47.6444 186.131 47.9427 186.406C48.2438 186.682 48.606 186.82 49.0293 186.82Z" fill="white"/>
<path d="M58.2641 145.475H64.8458" stroke="black"/>
<path d="M35.9736 141.511V150.238H34.9168V142.619H34.8656L32.7349 144.033V142.96L34.9168 141.511H35.9736ZM38.279 148.448V147.579L42.1142 141.511H42.7449V142.857H42.3187L39.421 147.443V147.511H44.5858V148.448H38.279ZM42.3869 150.238V148.184V147.779V141.511H43.3926V150.238H42.3869ZM49.0293 150.357C48.3873 150.357 47.8404 150.183 47.3887 149.833C46.937 149.481 46.5918 148.971 46.3532 148.303C46.1146 147.633 45.9952 146.823 45.9952 145.874C45.9952 144.931 46.1146 144.126 46.3532 143.458C46.5947 142.788 46.9413 142.276 47.393 141.924C47.8475 141.569 48.393 141.391 49.0293 141.391C49.6657 141.391 50.2097 141.569 50.6614 141.924C51.116 142.276 51.4626 142.788 51.7012 143.458C51.9427 144.126 52.0634 144.931 52.0634 145.874C52.0634 146.823 51.9441 147.633 51.7055 148.303C51.4668 148.971 51.1217 149.481 50.67 149.833C50.2182 150.183 49.6714 150.357 49.0293 150.357ZM49.0293 149.42C49.6657 149.42 50.16 149.113 50.5123 148.499C50.8646 147.886 51.0407 147.011 51.0407 145.874C51.0407 145.119 50.9597 144.475 50.7978 143.944C50.6387 143.413 50.4086 143.008 50.1075 142.73C49.8092 142.451 49.4498 142.312 49.0293 142.312C48.3986 142.312 47.9057 142.623 47.5506 143.245C47.1955 143.864 47.018 144.741 47.018 145.874C47.018 146.63 47.0975 147.272 47.2566 147.801C47.4157 148.329 47.6444 148.731 47.9427 149.007C48.2438 149.282 48.606 149.42 49.0293 149.42Z" fill="white"/>
<path d="M58.2641 108.075H64.8458" stroke="black"/>
<path d="M33.339 112.838V112.071L36.2197 108.918C36.5577 108.548 36.8361 108.227 37.0549 107.955C37.2736 107.679 37.4356 107.421 37.5407 107.179C37.6486 106.935 37.7026 106.679 37.7026 106.412C37.7026 106.105 37.6288 105.84 37.481 105.615C37.3361 105.391 37.1373 105.217 36.8844 105.095C36.6316 104.973 36.3475 104.912 36.0322 104.912C35.6969 104.912 35.4043 104.982 35.1543 105.121C34.9072 105.257 34.7154 105.449 34.579 105.696C34.4455 105.943 34.3788 106.233 34.3788 106.565H33.3731C33.3731 106.054 33.491 105.605 33.7268 105.219C33.9626 104.832 34.2836 104.531 34.6898 104.315C35.0989 104.099 35.5577 103.992 36.0663 103.992C36.5776 103.992 37.0307 104.099 37.4256 104.315C37.8205 104.531 38.1302 104.823 38.3546 105.189C38.579 105.555 38.6913 105.963 38.6913 106.412C38.6913 106.733 38.633 107.047 38.5165 107.354C38.4029 107.658 38.204 107.997 37.92 108.372C37.6387 108.744 37.2481 109.199 36.7481 109.736L34.7879 111.832V111.901H38.8447V112.838H33.339ZM43.6728 104.111V112.838H42.616V105.219H42.5648L40.4342 106.634V105.56L42.616 104.111H43.6728ZM49.0293 112.957C48.3873 112.957 47.8404 112.783 47.3887 112.433C46.937 112.081 46.5918 111.571 46.3532 110.903C46.1146 110.233 45.9952 109.423 45.9952 108.474C45.9952 107.531 46.1146 106.726 46.3532 106.058C46.5947 105.388 46.9413 104.876 47.393 104.524C47.8475 104.169 48.393 103.992 49.0293 103.992C49.6657 103.992 50.2097 104.169 50.6614 104.524C51.116 104.876 51.4626 105.388 51.7012 106.058C51.9427 106.726 52.0634 107.531 52.0634 108.474C52.0634 109.423 51.9441 110.233 51.7055 110.903C51.4668 111.571 51.1217 112.081 50.67 112.433C50.2182 112.783 49.6714 112.957 49.0293 112.957ZM49.0293 112.02C49.6657 112.02 50.16 111.713 50.5123 111.099C50.8646 110.486 51.0407 109.611 51.0407 108.474C51.0407 107.719 50.9597 107.075 50.7978 106.544C50.6387 106.013 50.4086 105.608 50.1075 105.33C49.8092 105.051 49.4498 104.912 49.0293 104.912C48.3986 104.912 47.9057 105.223 47.5506 105.845C47.1955 106.465 47.018 107.341 47.018 108.474C47.018 109.23 47.0975 109.872 47.2566 110.401C47.4157 110.929 47.6444 111.331 47.9427 111.607C48.2438 111.882 48.606 112.02 49.0293 112.02Z" fill="white"/>
<path d="M58.2641 70.6748H64.8458" stroke="black"/>
<path d="M31.5226 79.365V78.5979L34.4033 75.4445C34.7413 75.0752 35.0197 74.7542 35.2385 74.4815C35.4572 74.2059 35.6192 73.9474 35.7243 73.7059C35.8322 73.4616 35.8862 73.2059 35.8862 72.9389C35.8862 72.632 35.8124 72.3664 35.6646 72.142C35.5197 71.9175 35.3209 71.7443 35.068 71.6221C34.8152 71.4999 34.5311 71.4389 34.2158 71.4389C33.8805 71.4389 33.5879 71.5085 33.3379 71.6477C33.0908 71.784 32.899 71.9758 32.7626 72.2229C32.6291 72.4701 32.5624 72.7599 32.5624 73.0923H31.5567C31.5567 72.5809 31.6746 72.132 31.9104 71.7457C32.1462 71.3593 32.4672 71.0582 32.8734 70.8423C33.2825 70.6264 33.7413 70.5184 34.2499 70.5184C34.7612 70.5184 35.2143 70.6264 35.6092 70.8423C36.0041 71.0582 36.3138 71.3494 36.5382 71.7158C36.7626 72.0823 36.8749 72.49 36.8749 72.9389C36.8749 73.2599 36.8166 73.5738 36.7001 73.8806C36.5865 74.1846 36.3876 74.5241 36.1035 74.8991C35.8223 75.2712 35.4317 75.7258 34.9317 76.2627L32.9714 78.3593V78.4275H37.0283V79.365H31.5226ZM41.5837 79.4843C40.9984 79.4843 40.4814 79.3806 40.0325 79.1732C39.5865 78.963 39.2385 78.6746 38.9885 78.3082C38.7385 77.9389 38.6149 77.5184 38.6178 77.0468C38.6149 76.6775 38.6874 76.3366 38.8351 76.0241C38.9828 75.7087 39.1845 75.446 39.4402 75.2357C39.6987 75.0227 39.9871 74.8877 40.3053 74.8309V74.7798C39.8876 74.6718 39.5553 74.4374 39.3081 74.0766C39.0609 73.713 38.9388 73.2996 38.9416 72.8366C38.9388 72.3934 39.051 71.9971 39.2783 71.6477C39.5055 71.2982 39.818 71.0227 40.2158 70.821C40.6163 70.6193 41.0723 70.5184 41.5837 70.5184C42.0893 70.5184 42.5411 70.6193 42.9388 70.821C43.3365 71.0227 43.649 71.2982 43.8763 71.6477C44.1064 71.9971 44.2229 72.3934 44.2257 72.8366C44.2229 73.2996 44.0964 73.713 43.8464 74.0766C43.5993 74.4374 43.2712 74.6718 42.8621 74.7798V74.8309C43.1774 74.8877 43.4615 75.0227 43.7143 75.2357C43.9672 75.446 44.1689 75.7087 44.3195 76.0241C44.47 76.3366 44.5467 76.6775 44.5496 77.0468C44.5467 77.5184 44.4189 77.9389 44.166 78.3082C43.916 78.6746 43.568 78.963 43.122 79.1732C42.6788 79.3806 42.1661 79.4843 41.5837 79.4843ZM41.5837 78.5468C41.9786 78.5468 42.3195 78.4829 42.6064 78.355C42.8933 78.2272 43.1149 78.0468 43.2712 77.8139C43.4274 77.5809 43.507 77.3082 43.5098 76.9957C43.507 76.6661 43.4217 76.3749 43.2541 76.1221C43.0865 75.8693 42.8578 75.6704 42.568 75.5255C42.2811 75.3806 41.953 75.3082 41.5837 75.3082C41.2115 75.3082 40.8791 75.3806 40.5865 75.5255C40.2967 75.6704 40.068 75.8693 39.9004 76.1221C39.7357 76.3749 39.6547 76.6661 39.6575 76.9957C39.6547 77.3082 39.73 77.5809 39.8834 77.8139C40.0396 78.0468 40.2626 78.2272 40.5524 78.355C40.8422 78.4829 41.1859 78.5468 41.5837 78.5468ZM41.5837 74.4048C41.8962 74.4048 42.1732 74.3423 42.4146 74.2173C42.6589 74.0923 42.8507 73.9175 42.9899 73.6931C43.1291 73.4687 43.2001 73.2059 43.203 72.9048C43.2001 72.6093 43.1305 72.3522 42.9942 72.1335C42.8578 71.9119 42.6689 71.7414 42.4274 71.6221C42.1859 71.4999 41.9047 71.4389 41.5837 71.4389C41.257 71.4389 40.9714 71.4999 40.7271 71.6221C40.4828 71.7414 40.2939 71.9119 40.1604 72.1335C40.0268 72.3522 39.9615 72.6093 39.9643 72.9048C39.9615 73.2059 40.0283 73.4687 40.1646 73.6931C40.3038 73.9175 40.4956 74.0923 40.7399 74.2173C40.9842 74.3423 41.2655 74.4048 41.5837 74.4048ZM49.0293 79.4843C48.3873 79.4843 47.8404 79.3096 47.3887 78.9602C46.937 78.6079 46.5918 78.0979 46.3532 77.4303C46.1146 76.7599 45.9952 75.9502 45.9952 75.0014C45.9952 74.0582 46.1146 73.2528 46.3532 72.5852C46.5947 71.9147 46.9413 71.4033 47.393 71.0511C47.8475 70.696 48.393 70.5184 49.0293 70.5184C49.6657 70.5184 50.2097 70.696 50.6614 71.0511C51.116 71.4033 51.4626 71.9147 51.7012 72.5852C51.9427 73.2528 52.0634 74.0582 52.0634 75.0014C52.0634 75.9502 51.9441 76.7599 51.7055 77.4303C51.4668 78.0979 51.1217 78.6079 50.67 78.9602C50.2183 79.3096 49.6714 79.4843 49.0293 79.4843ZM49.0293 78.5468C49.6657 78.5468 50.16 78.24 50.5123 77.6264C50.8646 77.0127 51.0407 76.1377 51.0407 75.0014C51.0407 74.2457 50.9597 73.6022 50.7978 73.071C50.6387 72.5397 50.4086 72.1349 50.1075 71.8565C49.8092 71.5781 49.4498 71.4389 49.0293 71.4389C48.3986 71.4389 47.9058 71.7499 47.5506 72.3721C47.1955 72.9914 47.018 73.8678 47.018 75.0014C47.018 75.757 47.0975 76.3991 47.2566 76.9275C47.4157 77.4559 47.6444 77.8579 47.9427 78.1335C48.2438 78.409 48.606 78.5468 49.0293 78.5468Z" fill="white"/>
<path d="M64.8458 220.275H348.627" stroke="#CCCCCC"/>
<path d="M64.8458 182.875H348.627" stroke="#CCCCCC"/>
<path d="M64.8458 145.475H348.627" stroke="#CCCCCC"/>
<path d="M64.8458 108.075H348.627" stroke="#CCCCCC"/>
<path d="M64.8458 70.675H348.627" stroke="#CCCCCC"/>
<path d="M206.737 70.675V220.275" stroke="#CCCCCC"/>
<path d="M64.8458 70.675V220.275" stroke="#CCCCCC"/>
<path d="M348.627 70.675V220.275" stroke="#CCCCCC"/>
<path d="M93.224 156.161H148.272V220.275H93.224V156.161Z" fill="#BF72FF"/>
<path d="M150.17 71.2092H205.218V220.275H150.17V71.2092Z" fill="#F0B800"/>
<path d="M207.116 185.546H262.164V220.275H207.116V185.546Z" fill="#E6C8FF"/>
<path d="M264.062 172.189H319.11V220.275H264.062V172.189Z" fill="#EFD476"/>
</g>
<rect x="25.5" y="244.5" width="334" height="24" rx="12" stroke="#E6C8FF"/>
<rect x="48" y="253.019" width="8.10811" height="8.10811" fill="#BF72FF"/>
<path d="M59.5725 253.71H60.4816L62.6192 258.931H62.6929L64.8305 253.71H65.7396V260H65.027V255.221H64.9656L63 260H62.312L60.3464 255.221H60.285V260H59.5725V253.71ZM68.5567 260.111C68.2577 260.111 67.9864 260.054 67.7428 259.942C67.4991 259.827 67.3056 259.662 67.1623 259.447C67.019 259.23 66.9473 258.968 66.9473 258.661C66.9473 258.391 67.0006 258.172 67.107 258.004C67.2135 257.834 67.3558 257.701 67.5339 257.604C67.7121 257.508 67.9086 257.437 68.1236 257.389C68.3407 257.34 68.5587 257.301 68.7778 257.273C69.0644 257.236 69.2968 257.208 69.475 257.19C69.6551 257.169 69.7862 257.136 69.8681 257.088C69.952 257.041 69.994 256.959 69.994 256.843V256.818C69.994 256.515 69.9111 256.28 69.7452 256.112C69.5814 255.944 69.3327 255.86 68.9989 255.86C68.6529 255.86 68.3816 255.936 68.185 256.087C67.9885 256.239 67.8503 256.4 67.7704 256.572L67.0825 256.327C67.2053 256.04 67.3691 255.817 67.5739 255.657C67.7807 255.495 68.0059 255.383 68.2495 255.319C68.4952 255.254 68.7368 255.221 68.9744 255.221C69.1259 255.221 69.2999 255.24 69.4965 255.276C69.6951 255.311 69.8865 255.384 70.0708 255.494C70.2571 255.605 70.4117 255.772 70.5345 255.995C70.6574 256.218 70.7188 256.517 70.7188 256.892V260H69.994V259.361H69.9572C69.908 259.464 69.8261 259.573 69.7115 259.69C69.5968 259.807 69.4443 259.906 69.2538 259.988C69.0634 260.07 68.831 260.111 68.5567 260.111ZM68.6672 259.459C68.9539 259.459 69.1955 259.403 69.392 259.291C69.5907 259.178 69.7401 259.033 69.8404 258.854C69.9428 258.676 69.994 258.489 69.994 258.292V257.629C69.9633 257.666 69.8957 257.7 69.7913 257.73C69.6889 257.759 69.5702 257.785 69.435 257.807C69.302 257.828 69.1719 257.846 69.045 257.862C68.9201 257.877 68.8187 257.889 68.7409 257.899C68.5526 257.924 68.3765 257.964 68.2127 258.019C68.0509 258.072 67.9199 258.153 67.8196 258.262C67.7213 258.368 67.6721 258.514 67.6721 258.698C67.6721 258.95 67.7653 259.14 67.9516 259.269C68.14 259.396 68.3785 259.459 68.6672 259.459ZM74.0934 255.283V255.897H71.6486V255.283H74.0934ZM72.3612 254.152H73.086V258.649C73.086 258.853 73.1157 259.007 73.1751 259.109C73.2365 259.21 73.3143 259.277 73.4085 259.312C73.5047 259.345 73.6061 259.361 73.7125 259.361C73.7924 259.361 73.8579 259.357 73.9091 259.349C73.9603 259.339 74.0012 259.33 74.0319 259.324L74.1794 259.975C74.1302 259.994 74.0616 260.012 73.9736 260.031C73.8855 260.051 73.774 260.061 73.6388 260.061C73.4341 260.061 73.2334 260.017 73.0369 259.929C72.8423 259.841 72.6806 259.707 72.5516 259.527C72.4246 259.347 72.3612 259.12 72.3612 258.845V254.152ZM77.1109 260.098C76.6563 260.098 76.2642 259.998 75.9346 259.797C75.607 259.595 75.3541 259.312 75.176 258.95C74.9999 258.585 74.9119 258.161 74.9119 257.678C74.9119 257.195 74.9999 256.769 75.176 256.4C75.3541 256.03 75.6019 255.741 75.9192 255.534C76.2386 255.326 76.6113 255.221 77.0372 255.221C77.2829 255.221 77.5255 255.262 77.765 255.344C78.0046 255.426 78.2227 255.559 78.4192 255.743C78.6158 255.925 78.7724 256.167 78.8891 256.468C79.0058 256.769 79.0642 257.14 79.0642 257.58V257.887H75.4278V257.26H78.3271C78.3271 256.994 78.2739 256.757 78.1674 256.548C78.063 256.339 77.9135 256.174 77.719 256.053C77.5265 255.933 77.2992 255.872 77.0372 255.872C76.7485 255.872 76.4987 255.944 76.2878 256.087C76.0789 256.229 75.9182 256.413 75.8056 256.64C75.693 256.867 75.6367 257.111 75.6367 257.371V257.789C75.6367 258.145 75.6981 258.447 75.8209 258.695C75.9458 258.94 76.1189 259.128 76.34 259.257C76.5611 259.384 76.8181 259.447 77.1109 259.447C77.3013 259.447 77.4733 259.421 77.6268 259.367C77.7825 259.312 77.9166 259.23 78.0292 259.122C78.1418 259.011 78.2288 258.874 78.2902 258.71L78.9905 258.907C78.9168 259.144 78.7929 259.353 78.6189 259.533C78.4448 259.711 78.2298 259.851 77.9739 259.951C77.718 260.049 77.4303 260.098 77.1109 260.098ZM80.1668 260V255.283H80.867V256.02H80.9284C81.0267 255.768 81.1854 255.572 81.4045 255.433C81.6236 255.292 81.8867 255.221 82.1938 255.221C82.505 255.221 82.764 255.292 82.9708 255.433C83.1797 255.572 83.3424 255.768 83.4592 256.02H83.5083C83.6291 255.776 83.8103 255.583 84.0519 255.439C84.2935 255.294 84.5832 255.221 84.9211 255.221C85.3429 255.221 85.6879 255.353 85.9561 255.617C86.2243 255.879 86.3584 256.288 86.3584 256.843V260H85.6336V256.843C85.6336 256.495 85.5384 256.246 85.348 256.096C85.1576 255.947 84.9334 255.872 84.6754 255.872C84.3437 255.872 84.0867 255.973 83.9045 256.173C83.7223 256.372 83.6311 256.624 83.6311 256.929V260H82.894V256.769C82.894 256.501 82.807 256.285 82.633 256.121C82.4589 255.955 82.2347 255.872 81.9604 255.872C81.772 255.872 81.5959 255.922 81.4321 256.023C81.2704 256.123 81.1393 256.262 81.039 256.44C80.9407 256.617 80.8916 256.82 80.8916 257.052V260H80.1668ZM89.0719 260.111C88.7729 260.111 88.5016 260.054 88.258 259.942C88.0143 259.827 87.8208 259.662 87.6775 259.447C87.5342 259.23 87.4625 258.968 87.4625 258.661C87.4625 258.391 87.5158 258.172 87.6222 258.004C87.7287 257.834 87.871 257.701 88.0491 257.604C88.2273 257.508 88.4238 257.437 88.6388 257.389C88.8559 257.34 89.0739 257.301 89.293 257.273C89.5796 257.236 89.812 257.208 89.9902 257.19C90.1704 257.169 90.3014 257.136 90.3833 257.088C90.4672 257.041 90.5092 256.959 90.5092 256.843V256.818C90.5092 256.515 90.4263 256.28 90.2604 256.112C90.0966 255.944 89.8479 255.86 89.5141 255.86C89.1681 255.86 88.8968 255.936 88.7002 256.087C88.5037 256.239 88.3655 256.4 88.2856 256.572L87.5977 256.327C87.7205 256.04 87.8843 255.817 88.0891 255.657C88.2959 255.495 88.5211 255.383 88.7647 255.319C89.0104 255.254 89.252 255.221 89.4896 255.221C89.6411 255.221 89.8151 255.24 90.0117 255.276C90.2103 255.311 90.4017 255.384 90.586 255.494C90.7723 255.605 90.9269 255.772 91.0498 255.995C91.1726 256.218 91.234 256.517 91.234 256.892V260H90.5092V259.361H90.4724C90.4232 259.464 90.3413 259.573 90.2267 259.69C90.112 259.807 89.9595 259.906 89.769 259.988C89.5786 260.07 89.3462 260.111 89.0719 260.111ZM89.1824 259.459C89.4691 259.459 89.7107 259.403 89.9072 259.291C90.1059 259.178 90.2553 259.033 90.3557 258.854C90.458 258.676 90.5092 258.489 90.5092 258.292V257.629C90.4785 257.666 90.4109 257.7 90.3065 257.73C90.2041 257.759 90.0854 257.785 89.9502 257.807C89.8172 257.828 89.6871 257.846 89.5602 257.862C89.4353 257.877 89.3339 257.889 89.2561 257.899C89.0678 257.924 88.8917 257.964 88.7279 258.019C88.5661 258.072 88.4351 258.153 88.3348 258.262C88.2365 258.368 88.1873 258.514 88.1873 258.698C88.1873 258.95 88.2805 259.14 88.4668 259.269C88.6552 259.396 88.8937 259.459 89.1824 259.459ZM89.207 254.644L89.9564 253.219H90.8041L89.8458 254.644H89.207ZM94.6086 255.283V255.897H92.1638V255.283H94.6086ZM92.8764 254.152H93.6012V258.649C93.6012 258.853 93.6309 259.007 93.6903 259.109C93.7517 259.21 93.8295 259.277 93.9237 259.312C94.0199 259.345 94.1213 259.361 94.2277 259.361C94.3076 259.361 94.3731 259.357 94.4243 259.349C94.4755 259.339 94.5164 259.33 94.5471 259.324L94.6946 259.975C94.6454 259.994 94.5768 260.012 94.4888 260.031C94.4007 260.051 94.2892 260.061 94.154 260.061C93.9493 260.061 93.7486 260.017 93.5521 259.929C93.3575 259.841 93.1958 259.707 93.0668 259.527C92.9399 259.347 92.8764 259.12 92.8764 258.845V254.152ZM95.6989 260V255.283H96.4237V260H95.6989ZM96.0674 254.496C95.9261 254.496 95.8043 254.448 95.7019 254.352C95.6016 254.256 95.5514 254.14 95.5514 254.005C95.5514 253.87 95.6016 253.754 95.7019 253.658C95.8043 253.562 95.9261 253.514 96.0674 253.514C96.2087 253.514 96.3295 253.562 96.4298 253.658C96.5322 253.754 96.5834 253.87 96.5834 254.005C96.5834 254.14 96.5322 254.256 96.4298 254.352C96.3295 254.448 96.2087 254.496 96.0674 254.496ZM99.6677 260.098C99.2254 260.098 98.8446 259.994 98.5252 259.785C98.2058 259.576 97.9601 259.288 97.7881 258.922C97.6161 258.555 97.5301 258.137 97.5301 257.666C97.5301 257.187 97.6181 256.764 97.7942 256.397C97.9724 256.029 98.2201 255.741 98.5375 255.534C98.8569 255.326 99.2295 255.221 99.6554 255.221C99.9871 255.221 100.286 255.283 100.552 255.405C100.818 255.528 101.036 255.7 101.206 255.921C101.376 256.143 101.482 256.4 101.523 256.695H100.798C100.743 256.48 100.62 256.29 100.429 256.124C100.241 255.956 99.9871 255.872 99.6677 255.872C99.3851 255.872 99.1374 255.946 98.9244 256.093C98.7136 256.239 98.5487 256.445 98.43 256.711C98.3133 256.975 98.2549 257.285 98.2549 257.641C98.2549 258.006 98.3122 258.323 98.4269 258.593C98.5436 258.864 98.7074 259.074 98.9183 259.223C99.1312 259.372 99.381 259.447 99.6677 259.447C99.8561 259.447 100.027 259.414 100.181 259.349C100.334 259.283 100.464 259.189 100.571 259.066C100.677 258.943 100.753 258.796 100.798 258.624H101.523C101.482 258.903 101.38 259.153 101.219 259.377C101.059 259.598 100.847 259.774 100.583 259.905C100.321 260.034 100.016 260.098 99.6677 260.098ZM103.971 260.111C103.672 260.111 103.4 260.054 103.157 259.942C102.913 259.827 102.719 259.662 102.576 259.447C102.433 259.23 102.361 258.968 102.361 258.661C102.361 258.391 102.414 258.172 102.521 258.004C102.627 257.834 102.77 257.701 102.948 257.604C103.126 257.508 103.322 257.437 103.537 257.389C103.755 257.34 103.973 257.301 104.192 257.273C104.478 257.236 104.711 257.208 104.889 257.19C105.069 257.169 105.2 257.136 105.282 257.088C105.366 257.041 105.408 256.959 105.408 256.843V256.818C105.408 256.515 105.325 256.28 105.159 256.112C104.995 255.944 104.747 255.86 104.413 255.86C104.067 255.86 103.795 255.936 103.599 256.087C103.402 256.239 103.264 256.4 103.184 256.572L102.496 256.327C102.619 256.04 102.783 255.817 102.988 255.657C103.195 255.495 103.42 255.383 103.663 255.319C103.909 255.254 104.151 255.221 104.388 255.221C104.54 255.221 104.714 255.24 104.91 255.276C105.109 255.311 105.3 255.384 105.485 255.494C105.671 255.605 105.826 255.772 105.948 255.995C106.071 256.218 106.133 256.517 106.133 256.892V260H105.408V259.361H105.371C105.322 259.464 105.24 259.573 105.125 259.69C105.011 259.807 104.858 259.906 104.668 259.988C104.477 260.07 104.245 260.111 103.971 260.111ZM104.081 259.459C104.368 259.459 104.609 259.403 104.806 259.291C105.005 259.178 105.154 259.033 105.254 258.854C105.357 258.676 105.408 258.489 105.408 258.292V257.629C105.377 257.666 105.31 257.7 105.205 257.73C105.103 257.759 104.984 257.785 104.849 257.807C104.716 257.828 104.586 257.846 104.459 257.862C104.334 257.877 104.233 257.889 104.155 257.899C103.966 257.924 103.79 257.964 103.627 258.019C103.465 258.072 103.334 258.153 103.233 258.262C103.135 258.368 103.086 258.514 103.086 258.698C103.086 258.95 103.179 259.14 103.365 259.269C103.554 259.396 103.792 259.459 104.081 259.459Z" fill="white"/>
<rect x="124.099" y="252.753" width="8.25877" height="8.25877" fill="#F0B800"/>
<path d="M135.906 260V253.593H136.681V259.312H139.66V260H135.906ZM140.761 260V255.195H141.499V260H140.761ZM141.136 254.394C140.992 254.394 140.868 254.345 140.764 254.247C140.662 254.149 140.611 254.031 140.611 253.894C140.611 253.756 140.662 253.638 140.764 253.54C140.868 253.442 140.992 253.393 141.136 253.393C141.28 253.393 141.403 253.442 141.505 253.54C141.61 253.638 141.662 253.756 141.662 253.894C141.662 254.031 141.61 254.149 141.505 254.247C141.403 254.345 141.28 254.394 141.136 254.394ZM143.59 257.109V260H142.851V255.195H143.564V255.946H143.627C143.74 255.702 143.911 255.506 144.14 255.358C144.37 255.207 144.666 255.132 145.029 255.132C145.354 255.132 145.639 255.199 145.883 255.333C146.127 255.464 146.316 255.664 146.452 255.933C146.587 256.2 146.655 256.538 146.655 256.947V260H145.917V256.997C145.917 256.619 145.819 256.325 145.623 256.115C145.427 255.902 145.158 255.796 144.816 255.796C144.58 255.796 144.37 255.847 144.184 255.949C144 256.051 143.855 256.2 143.749 256.396C143.643 256.592 143.59 256.83 143.59 257.109ZM149.944 261.902C149.587 261.902 149.281 261.856 149.024 261.764C148.768 261.675 148.554 261.556 148.383 261.408C148.214 261.262 148.079 261.105 147.979 260.938L148.567 260.526C148.634 260.613 148.719 260.713 148.821 260.826C148.923 260.941 149.063 261.04 149.24 261.123C149.419 261.209 149.654 261.251 149.944 261.251C150.332 261.251 150.652 261.157 150.904 260.97C151.157 260.782 151.283 260.488 151.283 260.088V259.112H151.22C151.166 259.199 151.089 259.308 150.989 259.437C150.891 259.564 150.749 259.678 150.563 259.778C150.38 259.876 150.132 259.925 149.819 259.925C149.431 259.925 149.083 259.833 148.774 259.65C148.467 259.466 148.224 259.199 148.045 258.849C147.868 258.498 147.779 258.073 147.779 257.572C147.779 257.08 147.866 256.652 148.039 256.287C148.212 255.92 148.453 255.636 148.761 255.436C149.07 255.233 149.427 255.132 149.831 255.132C150.144 255.132 150.392 255.184 150.576 255.289C150.761 255.391 150.903 255.508 151.001 255.639C151.101 255.768 151.179 255.875 151.233 255.958H151.308V255.195H152.021V260.138C152.021 260.551 151.927 260.886 151.74 261.145C151.554 261.406 151.304 261.596 150.989 261.717C150.676 261.84 150.328 261.902 149.944 261.902ZM149.919 259.262C150.215 259.262 150.465 259.194 150.67 259.058C150.874 258.923 151.029 258.728 151.136 258.473C151.242 258.219 151.295 257.914 151.295 257.56C151.295 257.214 151.243 256.908 151.139 256.643C151.035 256.378 150.88 256.171 150.676 256.021C150.472 255.871 150.219 255.796 149.919 255.796C149.606 255.796 149.345 255.875 149.137 256.033C148.93 256.192 148.775 256.405 148.671 256.671C148.569 256.938 148.517 257.235 148.517 257.56C148.517 257.894 148.57 258.189 148.674 258.445C148.78 258.7 148.937 258.9 149.143 259.046C149.352 259.19 149.61 259.262 149.919 259.262ZM156.401 258.035V255.195H157.139V260H156.401V259.187H156.351C156.238 259.431 156.063 259.638 155.825 259.809C155.587 259.978 155.287 260.063 154.924 260.063C154.624 260.063 154.357 259.997 154.123 259.865C153.89 259.732 153.706 259.532 153.573 259.265C153.439 258.996 153.373 258.657 153.373 258.248V255.195H154.111V258.198C154.111 258.548 154.209 258.828 154.405 259.036C154.603 259.245 154.855 259.349 155.162 259.349C155.345 259.349 155.532 259.302 155.722 259.209C155.914 259.115 156.074 258.971 156.204 258.777C156.335 258.583 156.401 258.336 156.401 258.035ZM159.905 260.113C159.601 260.113 159.324 260.055 159.076 259.941C158.828 259.824 158.631 259.656 158.485 259.437C158.339 259.216 158.266 258.949 158.266 258.636C158.266 258.361 158.32 258.138 158.429 257.967C158.537 257.793 158.682 257.658 158.864 257.56C159.045 257.462 159.245 257.389 159.464 257.341C159.685 257.291 159.907 257.251 160.131 257.222C160.422 257.185 160.659 257.156 160.841 257.138C161.024 257.117 161.158 257.082 161.241 257.034C161.327 256.986 161.369 256.903 161.369 256.784V256.759C161.369 256.45 161.285 256.211 161.116 256.04C160.949 255.869 160.696 255.783 160.356 255.783C160.003 255.783 159.727 255.86 159.527 256.015C159.327 256.169 159.186 256.334 159.104 256.509L158.404 256.259C158.529 255.967 158.696 255.739 158.904 255.577C159.115 255.412 159.344 255.297 159.592 255.232C159.843 255.166 160.089 255.132 160.331 255.132C160.485 255.132 160.662 255.151 160.863 255.189C161.065 255.224 161.26 255.298 161.448 255.411C161.637 255.523 161.795 255.693 161.92 255.921C162.045 256.148 162.108 256.452 162.108 256.834V260H161.369V259.349H161.332C161.282 259.454 161.198 259.565 161.082 259.684C160.965 259.803 160.809 259.904 160.615 259.987C160.421 260.071 160.185 260.113 159.905 260.113ZM160.018 259.449C160.31 259.449 160.556 259.392 160.756 259.277C160.958 259.163 161.111 259.015 161.213 258.833C161.317 258.652 161.369 258.461 161.369 258.261V257.585C161.338 257.622 161.269 257.657 161.163 257.688C161.059 257.717 160.938 257.743 160.8 257.766C160.664 257.787 160.532 257.806 160.403 257.823C160.275 257.837 160.172 257.85 160.093 257.86C159.901 257.885 159.722 257.926 159.555 257.982C159.39 258.036 159.257 258.119 159.154 258.229C159.054 258.338 159.004 258.486 159.004 258.674C159.004 258.93 159.099 259.124 159.289 259.255C159.481 259.385 159.724 259.449 160.018 259.449ZM165.395 261.902C165.038 261.902 164.731 261.856 164.475 261.764C164.218 261.675 164.005 261.556 163.834 261.408C163.665 261.262 163.53 261.105 163.43 260.938L164.018 260.526C164.085 260.613 164.169 260.713 164.272 260.826C164.374 260.941 164.514 261.04 164.691 261.123C164.87 261.209 165.105 261.251 165.395 261.251C165.783 261.251 166.103 261.157 166.355 260.97C166.607 260.782 166.734 260.488 166.734 260.088V259.112H166.671C166.617 259.199 166.54 259.308 166.44 259.437C166.342 259.564 166.2 259.678 166.014 259.778C165.831 259.876 165.582 259.925 165.27 259.925C164.882 259.925 164.533 259.833 164.225 259.65C163.918 259.466 163.675 259.199 163.496 258.849C163.319 258.498 163.23 258.073 163.23 257.572C163.23 257.08 163.316 256.652 163.49 256.287C163.663 255.92 163.904 255.636 164.212 255.436C164.521 255.233 164.877 255.132 165.282 255.132C165.595 255.132 165.843 255.184 166.027 255.289C166.212 255.391 166.354 255.508 166.452 255.639C166.552 255.768 166.629 255.875 166.684 255.958H166.759V255.195H167.472V260.138C167.472 260.551 167.378 260.886 167.19 261.145C167.005 261.406 166.754 261.596 166.44 261.717C166.127 261.84 165.778 261.902 165.395 261.902ZM165.37 259.262C165.666 259.262 165.916 259.194 166.12 259.058C166.325 258.923 166.48 258.728 166.587 258.473C166.693 258.219 166.746 257.914 166.746 257.56C166.746 257.214 166.694 256.908 166.59 256.643C166.485 256.378 166.331 256.171 166.127 256.021C165.922 255.871 165.67 255.796 165.37 255.796C165.057 255.796 164.796 255.875 164.588 256.033C164.381 256.192 164.226 256.405 164.121 256.671C164.019 256.938 163.968 257.235 163.968 257.56C163.968 257.894 164.02 258.189 164.125 258.445C164.231 258.7 164.387 258.9 164.594 259.046C164.802 259.19 165.061 259.262 165.37 259.262ZM170.838 260.1C170.375 260.1 169.976 259.998 169.64 259.794C169.306 259.587 169.049 259.299 168.867 258.93C168.688 258.559 168.598 258.127 168.598 257.635C168.598 257.143 168.688 256.709 168.867 256.334C169.049 255.956 169.301 255.662 169.624 255.451C169.95 255.239 170.329 255.132 170.763 255.132C171.013 255.132 171.26 255.174 171.504 255.257C171.748 255.341 171.97 255.476 172.171 255.664C172.371 255.85 172.53 256.096 172.649 256.402C172.768 256.709 172.828 257.086 172.828 257.535V257.848H169.124V257.21H172.077C172.077 256.938 172.023 256.696 171.914 256.484C171.808 256.271 171.656 256.103 171.457 255.98C171.261 255.857 171.03 255.796 170.763 255.796C170.469 255.796 170.214 255.869 170 256.015C169.787 256.158 169.623 256.346 169.508 256.578C169.394 256.809 169.336 257.057 169.336 257.322V257.748C169.336 258.11 169.399 258.418 169.524 258.67C169.651 258.921 169.828 259.112 170.053 259.243C170.278 259.372 170.54 259.437 170.838 259.437C171.032 259.437 171.207 259.41 171.364 259.356C171.522 259.299 171.659 259.216 171.773 259.105C171.888 258.993 171.977 258.853 172.039 258.686L172.753 258.886C172.677 259.128 172.551 259.341 172.374 259.524C172.197 259.706 171.978 259.848 171.717 259.95C171.456 260.05 171.163 260.1 170.838 260.1ZM174.689 257.109V260H173.951V255.195H174.664V255.946H174.726C174.839 255.702 175.01 255.506 175.24 255.358C175.469 255.207 175.765 255.132 176.128 255.132C176.453 255.132 176.738 255.199 176.982 255.333C177.226 255.464 177.416 255.664 177.551 255.933C177.687 256.2 177.755 256.538 177.755 256.947V260H177.016V256.997C177.016 256.619 176.918 256.325 176.722 256.115C176.526 255.902 176.257 255.796 175.915 255.796C175.68 255.796 175.469 255.847 175.283 255.949C175.1 256.051 174.955 256.2 174.848 256.396C174.742 256.592 174.689 256.83 174.689 257.109ZM182.507 256.271L181.844 256.459C181.802 256.348 181.741 256.241 181.66 256.137C181.58 256.03 181.472 255.943 181.334 255.874C181.197 255.805 181.02 255.771 180.806 255.771C180.512 255.771 180.266 255.838 180.07 255.974C179.876 256.107 179.779 256.277 179.779 256.484C179.779 256.667 179.846 256.812 179.98 256.919C180.113 257.025 180.322 257.114 180.605 257.185L181.319 257.36C181.748 257.464 182.068 257.624 182.279 257.838C182.49 258.051 182.595 258.325 182.595 258.661C182.595 258.936 182.516 259.182 182.357 259.399C182.201 259.616 181.982 259.787 181.7 259.912C181.419 260.038 181.091 260.1 180.718 260.1C180.228 260.1 179.822 259.994 179.501 259.781C179.18 259.568 178.977 259.258 178.891 258.849L179.592 258.674C179.659 258.932 179.785 259.126 179.97 259.255C180.158 259.385 180.403 259.449 180.705 259.449C181.05 259.449 181.323 259.376 181.525 259.23C181.729 259.082 181.832 258.905 181.832 258.699C181.832 258.532 181.773 258.392 181.656 258.279C181.54 258.165 181.36 258.079 181.118 258.023L180.318 257.835C179.878 257.731 179.554 257.569 179.348 257.35C179.143 257.129 179.041 256.853 179.041 256.521C179.041 256.25 179.117 256.01 179.27 255.802C179.424 255.593 179.634 255.43 179.898 255.311C180.165 255.192 180.468 255.132 180.806 255.132C181.281 255.132 181.654 255.237 181.926 255.445C182.199 255.654 182.393 255.929 182.507 256.271Z" fill="white"/>
<rect x="200.099" y="251.879" width="8.63826" height="8.63826" fill="#E6C8FF"/>
<path d="M217.279 255.393H216.467C216.419 255.16 216.335 254.954 216.215 254.778C216.097 254.601 215.953 254.453 215.783 254.333C215.615 254.211 215.429 254.119 215.224 254.058C215.019 253.997 214.805 253.966 214.582 253.966C214.177 253.966 213.809 254.069 213.48 254.274C213.152 254.479 212.892 254.781 212.698 255.18C212.506 255.579 212.41 256.069 212.41 256.649C212.41 257.23 212.506 257.719 212.698 258.119C212.892 258.518 213.152 258.82 213.48 259.025C213.809 259.23 214.177 259.332 214.582 259.332C214.805 259.332 215.019 259.302 215.224 259.241C215.429 259.18 215.615 259.089 215.783 258.969C215.953 258.847 216.097 258.698 216.215 258.521C216.335 258.342 216.419 258.137 216.467 257.906H217.279C217.217 258.248 217.106 258.555 216.945 258.825C216.783 259.096 216.583 259.326 216.343 259.516C216.103 259.703 215.833 259.846 215.535 259.944C215.238 260.043 214.92 260.092 214.582 260.092C214.011 260.092 213.503 259.952 213.058 259.673C212.613 259.394 212.262 258.997 212.007 258.482C211.752 257.967 211.624 257.356 211.624 256.649C211.624 255.943 211.752 255.332 212.007 254.817C212.262 254.302 212.613 253.905 213.058 253.626C213.503 253.347 214.011 253.207 214.582 253.207C214.92 253.207 215.238 253.256 215.535 253.354C215.833 253.453 216.103 253.597 216.343 253.786C216.583 253.974 216.783 254.203 216.945 254.473C217.106 254.742 217.217 255.048 217.279 255.393ZM219.048 260.052C218.886 260.052 218.748 259.995 218.632 259.879C218.517 259.763 218.459 259.625 218.459 259.463C218.459 259.302 218.517 259.163 218.632 259.048C218.748 258.932 218.886 258.874 219.048 258.874C219.209 258.874 219.348 258.932 219.463 259.048C219.579 259.163 219.637 259.302 219.637 259.463C219.637 259.57 219.61 259.668 219.555 259.758C219.503 259.847 219.432 259.919 219.342 259.974C219.255 260.026 219.157 260.052 219.048 260.052ZM229.033 253.299V260H228.247L224.596 254.739H224.53V260H223.719V253.299H224.504L228.169 258.573H228.234V253.299H229.033ZM232.031 260.118C231.712 260.118 231.423 260.058 231.164 259.938C230.904 259.816 230.698 259.64 230.545 259.411C230.392 259.18 230.316 258.901 230.316 258.573C230.316 258.285 230.373 258.052 230.486 257.873C230.6 257.692 230.751 257.55 230.941 257.448C231.131 257.345 231.34 257.269 231.569 257.219C231.801 257.166 232.033 257.125 232.266 257.094C232.572 257.055 232.819 257.026 233.009 257.006C233.201 256.984 233.341 256.948 233.428 256.898C233.517 256.848 233.562 256.761 233.562 256.636V256.61C233.562 256.287 233.474 256.036 233.297 255.858C233.122 255.679 232.857 255.589 232.502 255.589C232.133 255.589 231.844 255.67 231.635 255.831C231.425 255.993 231.278 256.165 231.193 256.348L230.46 256.087C230.591 255.781 230.765 255.543 230.984 255.373C231.204 255.201 231.444 255.081 231.703 255.013C231.965 254.944 232.223 254.909 232.476 254.909C232.637 254.909 232.823 254.928 233.032 254.968C233.244 255.005 233.447 255.082 233.644 255.2C233.842 255.318 234.007 255.495 234.138 255.733C234.269 255.971 234.334 256.289 234.334 256.689V260H233.562V259.319H233.523C233.47 259.428 233.383 259.545 233.261 259.67C233.139 259.794 232.976 259.9 232.773 259.987C232.571 260.074 232.323 260.118 232.031 260.118ZM232.148 259.424C232.454 259.424 232.711 259.364 232.921 259.244C233.132 259.124 233.292 258.969 233.398 258.78C233.507 258.59 233.562 258.39 233.562 258.181V257.474C233.529 257.513 233.457 257.549 233.346 257.582C233.237 257.612 233.11 257.64 232.966 257.664C232.825 257.686 232.686 257.705 232.551 257.723C232.418 257.738 232.31 257.751 232.227 257.762C232.026 257.788 231.839 257.831 231.664 257.89C231.492 257.946 231.352 258.032 231.245 258.148C231.141 258.261 231.088 258.416 231.088 258.613C231.088 258.881 231.188 259.084 231.386 259.221C231.587 259.356 231.841 259.424 232.148 259.424ZM237.929 254.974V255.629H235.325V254.974H237.929ZM236.084 253.77H236.856V258.56C236.856 258.778 236.888 258.942 236.951 259.051C237.016 259.158 237.099 259.23 237.2 259.267C237.302 259.302 237.41 259.319 237.524 259.319C237.609 259.319 237.679 259.315 237.733 259.306C237.788 259.295 237.831 259.287 237.864 259.28L238.021 259.974C237.969 259.993 237.896 260.013 237.802 260.033C237.708 260.055 237.589 260.065 237.445 260.065C237.227 260.065 237.013 260.019 236.804 259.925C236.597 259.831 236.424 259.688 236.287 259.496C236.152 259.304 236.084 259.062 236.084 258.77V253.77ZM242.258 257.945V254.974H243.031V260H242.258V259.149H242.206C242.088 259.404 241.905 259.622 241.656 259.8C241.408 259.977 241.093 260.065 240.714 260.065C240.4 260.065 240.121 259.997 239.876 259.859C239.632 259.72 239.44 259.51 239.3 259.231C239.161 258.95 239.091 258.595 239.091 258.168V254.974H239.863V258.115C239.863 258.482 239.966 258.774 240.171 258.992C240.378 259.21 240.642 259.319 240.963 259.319C241.155 259.319 241.35 259.27 241.548 259.172C241.749 259.074 241.917 258.923 242.052 258.721C242.19 258.518 242.258 258.259 242.258 257.945ZM244.445 260V254.974H245.191V255.733H245.243C245.335 255.485 245.501 255.283 245.741 255.128C245.981 254.973 246.251 254.896 246.552 254.896C246.609 254.896 246.68 254.897 246.765 254.899C246.85 254.901 246.914 254.904 246.958 254.909V255.694C246.932 255.687 246.872 255.678 246.778 255.665C246.686 255.649 246.589 255.642 246.487 255.642C246.242 255.642 246.024 255.693 245.832 255.795C245.642 255.896 245.492 256.035 245.381 256.214C245.272 256.391 245.217 256.593 245.217 256.82V260H244.445ZM249.352 260.118C249.034 260.118 248.745 260.058 248.485 259.938C248.226 259.816 248.019 259.64 247.867 259.411C247.714 259.18 247.638 258.901 247.638 258.573C247.638 258.285 247.694 258.052 247.808 257.873C247.921 257.692 248.073 257.55 248.263 257.448C248.452 257.345 248.662 257.269 248.891 257.219C249.122 257.166 249.354 257.125 249.588 257.094C249.893 257.055 250.141 257.026 250.331 257.006C250.522 256.984 250.662 256.948 250.749 256.898C250.839 256.848 250.884 256.761 250.884 256.636V256.61C250.884 256.287 250.795 256.036 250.618 255.858C250.444 255.679 250.179 255.589 249.823 255.589C249.455 255.589 249.166 255.67 248.956 255.831C248.747 255.993 248.6 256.165 248.515 256.348L247.782 256.087C247.912 255.781 248.087 255.543 248.305 255.373C248.525 255.201 248.765 255.081 249.025 255.013C249.287 254.944 249.544 254.909 249.797 254.909C249.959 254.909 250.144 254.928 250.353 254.968C250.565 255.005 250.769 255.082 250.965 255.2C251.164 255.318 251.329 255.495 251.459 255.733C251.59 255.971 251.656 256.289 251.656 256.689V260H250.884V259.319H250.844C250.792 259.428 250.705 259.545 250.582 259.67C250.46 259.794 250.298 259.9 250.095 259.987C249.892 260.074 249.644 260.118 249.352 260.118ZM249.47 259.424C249.775 259.424 250.033 259.364 250.242 259.244C250.454 259.124 250.613 258.969 250.72 258.78C250.829 258.59 250.884 258.39 250.884 258.181V257.474C250.851 257.513 250.779 257.549 250.668 257.582C250.558 257.612 250.432 257.64 250.288 257.664C250.146 257.686 250.008 257.705 249.872 257.723C249.739 257.738 249.631 257.751 249.549 257.762C249.348 257.788 249.16 257.831 248.986 257.89C248.813 257.946 248.674 258.032 248.567 258.148C248.462 258.261 248.41 258.416 248.41 258.613C248.41 258.881 248.509 259.084 248.708 259.221C248.908 259.356 249.162 259.424 249.47 259.424ZM253.065 260V254.974H253.837V260H253.065ZM253.458 254.136C253.307 254.136 253.178 254.085 253.068 253.983C252.962 253.88 252.908 253.757 252.908 253.613C252.908 253.469 252.962 253.346 253.068 253.243C253.178 253.141 253.307 253.089 253.458 253.089C253.608 253.089 253.737 253.141 253.844 253.243C253.953 253.346 254.008 253.469 254.008 253.613C254.008 253.757 253.953 253.88 253.844 253.983C253.737 254.085 253.608 254.136 253.458 254.136ZM258.812 256.1L258.118 256.296C258.074 256.18 258.01 256.068 257.925 255.959C257.842 255.848 257.729 255.756 257.585 255.684C257.441 255.612 257.256 255.576 257.032 255.576C256.724 255.576 256.468 255.647 256.263 255.789C256.06 255.928 255.958 256.106 255.958 256.322C255.958 256.514 256.028 256.666 256.168 256.777C256.308 256.888 256.526 256.981 256.822 257.055L257.568 257.238C258.018 257.347 258.353 257.514 258.573 257.739C258.793 257.962 258.903 258.248 258.903 258.6C258.903 258.887 258.82 259.145 258.655 259.372C258.491 259.599 258.262 259.777 257.968 259.908C257.673 260.039 257.331 260.105 256.94 260.105C256.427 260.105 256.003 259.993 255.667 259.771C255.331 259.548 255.119 259.223 255.029 258.796L255.762 258.613C255.832 258.883 255.964 259.086 256.158 259.221C256.354 259.356 256.611 259.424 256.927 259.424C257.287 259.424 257.573 259.348 257.784 259.195C257.998 259.04 258.105 258.855 258.105 258.639C258.105 258.464 258.044 258.318 257.922 258.2C257.8 258.08 257.612 257.991 257.359 257.932L256.521 257.736C256.061 257.627 255.723 257.458 255.507 257.229C255.293 256.997 255.186 256.708 255.186 256.361C255.186 256.078 255.266 255.827 255.425 255.609C255.587 255.391 255.806 255.22 256.083 255.095C256.362 254.971 256.678 254.909 257.032 254.909C257.529 254.909 257.92 255.018 258.203 255.236C258.489 255.454 258.692 255.742 258.812 256.1Z" fill="white"/>
<rect x="276.099" y="251.879" width="8.63826" height="8.63826" fill="#EFD476"/>
<path d="M293.279 255.393H292.467C292.419 255.16 292.335 254.954 292.215 254.778C292.097 254.601 291.953 254.453 291.783 254.333C291.615 254.211 291.429 254.119 291.224 254.058C291.019 253.997 290.805 253.966 290.582 253.966C290.177 253.966 289.809 254.069 289.48 254.274C289.152 254.479 288.892 254.781 288.698 255.18C288.506 255.579 288.41 256.069 288.41 256.649C288.41 257.23 288.506 257.719 288.698 258.119C288.892 258.518 289.152 258.82 289.48 259.025C289.809 259.23 290.177 259.332 290.582 259.332C290.805 259.332 291.019 259.302 291.224 259.241C291.429 259.18 291.615 259.089 291.783 258.969C291.953 258.847 292.097 258.698 292.215 258.521C292.335 258.342 292.419 258.137 292.467 257.906H293.279C293.217 258.248 293.106 258.555 292.945 258.825C292.783 259.096 292.583 259.326 292.343 259.516C292.103 259.703 291.833 259.846 291.535 259.944C291.238 260.043 290.92 260.092 290.582 260.092C290.011 260.092 289.503 259.952 289.058 259.673C288.613 259.394 288.262 258.997 288.007 258.482C287.752 257.967 287.624 257.356 287.624 256.649C287.624 255.943 287.752 255.332 288.007 254.817C288.262 254.302 288.613 253.905 289.058 253.626C289.503 253.347 290.011 253.207 290.582 253.207C290.92 253.207 291.238 253.256 291.535 253.354C291.833 253.453 292.103 253.597 292.343 253.786C292.583 253.974 292.783 254.203 292.945 254.473C293.106 254.742 293.217 255.048 293.279 255.393ZM295.048 260.052C294.886 260.052 294.748 259.995 294.632 259.879C294.517 259.763 294.459 259.625 294.459 259.463C294.459 259.302 294.517 259.163 294.632 259.048C294.748 258.932 294.886 258.874 295.048 258.874C295.209 258.874 295.348 258.932 295.463 259.048C295.579 259.163 295.637 259.302 295.637 259.463C295.637 259.57 295.61 259.668 295.555 259.758C295.503 259.847 295.432 259.919 295.342 259.974C295.255 260.026 295.157 260.052 295.048 260.052ZM299.719 260V253.299H300.53V256.283H304.103V253.299H304.915V260H304.103V257.003H300.53V260H299.719ZM309.602 257.945V254.974H310.374V260H309.602V259.149H309.55C309.432 259.404 309.249 259.622 309 259.8C308.751 259.977 308.437 260.065 308.058 260.065C307.744 260.065 307.464 259.997 307.22 259.859C306.976 259.72 306.784 259.51 306.644 259.231C306.505 258.95 306.435 258.595 306.435 258.168V254.974H307.207V258.115C307.207 258.482 307.309 258.774 307.515 258.992C307.722 259.21 307.986 259.319 308.306 259.319C308.498 259.319 308.694 259.27 308.892 259.172C309.093 259.074 309.261 258.923 309.396 258.721C309.533 258.518 309.602 258.259 309.602 257.945ZM311.789 260V254.974H312.535V255.759H312.6C312.705 255.491 312.874 255.283 313.107 255.134C313.341 254.984 313.621 254.909 313.948 254.909C314.28 254.909 314.556 254.984 314.776 255.134C314.999 255.283 315.172 255.491 315.296 255.759H315.349C315.477 255.5 315.67 255.294 315.928 255.141C316.185 254.986 316.494 254.909 316.854 254.909C317.303 254.909 317.671 255.049 317.956 255.331C318.242 255.61 318.385 256.045 318.385 256.636V260H317.613V256.636C317.613 256.265 317.511 256 317.309 255.841C317.106 255.682 316.867 255.602 316.592 255.602C316.239 255.602 315.965 255.709 315.771 255.923C315.577 256.135 315.48 256.403 315.48 256.728V260H314.694V256.558C314.694 256.272 314.602 256.042 314.416 255.867C314.231 255.691 313.992 255.602 313.7 255.602C313.499 255.602 313.311 255.656 313.137 255.763C312.964 255.87 312.825 256.018 312.718 256.208C312.613 256.395 312.561 256.612 312.561 256.859V260H311.789ZM321.276 260.118C320.958 260.118 320.668 260.058 320.409 259.938C320.149 259.816 319.943 259.64 319.79 259.411C319.638 259.18 319.561 258.901 319.561 258.573C319.561 258.285 319.618 258.052 319.732 257.873C319.845 257.692 319.997 257.55 320.186 257.448C320.376 257.345 320.586 257.269 320.815 257.219C321.046 257.166 321.278 257.125 321.512 257.094C321.817 257.055 322.065 257.026 322.254 257.006C322.446 256.984 322.586 256.948 322.673 256.898C322.763 256.848 322.807 256.761 322.807 256.636V256.61C322.807 256.287 322.719 256.036 322.542 255.858C322.368 255.679 322.103 255.589 321.747 255.589C321.379 255.589 321.09 255.67 320.88 255.831C320.671 255.993 320.523 256.165 320.438 256.348L319.705 256.087C319.836 255.781 320.011 255.543 320.229 255.373C320.449 255.201 320.689 255.081 320.949 255.013C321.211 254.944 321.468 254.909 321.721 254.909C321.882 254.909 322.068 254.928 322.277 254.968C322.489 255.005 322.693 255.082 322.889 255.2C323.088 255.318 323.252 255.495 323.383 255.733C323.514 255.971 323.58 256.289 323.58 256.689V260H322.807V259.319H322.768C322.716 259.428 322.628 259.545 322.506 259.67C322.384 259.794 322.222 259.9 322.019 259.987C321.816 260.074 321.568 260.118 321.276 260.118ZM321.394 259.424C321.699 259.424 321.957 259.364 322.166 259.244C322.378 259.124 322.537 258.969 322.644 258.78C322.753 258.59 322.807 258.39 322.807 258.181V257.474C322.775 257.513 322.703 257.549 322.591 257.582C322.482 257.612 322.356 257.64 322.212 257.664C322.07 257.686 321.932 257.705 321.796 257.723C321.663 257.738 321.555 257.751 321.472 257.762C321.272 257.788 321.084 257.831 320.91 257.89C320.737 257.946 320.598 258.032 320.491 258.148C320.386 258.261 320.334 258.416 320.334 258.613C320.334 258.881 320.433 259.084 320.631 259.221C320.832 259.356 321.086 259.424 321.394 259.424ZM325.761 256.977V260H324.989V254.974H325.735V255.759H325.8C325.918 255.504 326.097 255.299 326.337 255.144C326.577 254.987 326.887 254.909 327.266 254.909C327.607 254.909 327.904 254.978 328.16 255.118C328.415 255.255 328.613 255.465 328.755 255.746C328.897 256.026 328.968 256.379 328.968 256.806V260H328.196V256.859C328.196 256.464 328.093 256.156 327.888 255.936C327.683 255.714 327.402 255.602 327.044 255.602C326.797 255.602 326.577 255.656 326.383 255.763C326.191 255.87 326.039 256.026 325.928 256.231C325.817 256.436 325.761 256.684 325.761 256.977ZM331.858 260.118C331.539 260.118 331.25 260.058 330.991 259.938C330.731 259.816 330.525 259.64 330.372 259.411C330.22 259.18 330.143 258.901 330.143 258.573C330.143 258.285 330.2 258.052 330.313 257.873C330.427 257.692 330.579 257.55 330.768 257.448C330.958 257.345 331.167 257.269 331.397 257.219C331.628 257.166 331.86 257.125 332.093 257.094C332.399 257.055 332.646 257.026 332.836 257.006C333.028 256.984 333.168 256.948 333.255 256.898C333.344 256.848 333.389 256.761 333.389 256.636V256.61C333.389 256.287 333.301 256.036 333.124 255.858C332.95 255.679 332.685 255.589 332.329 255.589C331.96 255.589 331.671 255.67 331.462 255.831C331.253 255.993 331.105 256.165 331.02 256.348L330.287 256.087C330.418 255.781 330.593 255.543 330.811 255.373C331.031 255.201 331.271 255.081 331.531 255.013C331.792 254.944 332.05 254.909 332.303 254.909C332.464 254.909 332.65 254.928 332.859 254.968C333.071 255.005 333.275 255.082 333.471 255.2C333.67 255.318 333.834 255.495 333.965 255.733C334.096 255.971 334.161 256.289 334.161 256.689V260H333.389V259.319H333.35C333.298 259.428 333.21 259.545 333.088 259.67C332.966 259.794 332.804 259.9 332.601 259.987C332.398 260.074 332.15 260.118 331.858 260.118ZM331.976 259.424C332.281 259.424 332.538 259.364 332.748 259.244C332.959 259.124 333.119 258.969 333.226 258.78C333.335 258.59 333.389 258.39 333.389 258.181V257.474C333.356 257.513 333.285 257.549 333.173 257.582C333.064 257.612 332.938 257.64 332.794 257.664C332.652 257.686 332.513 257.705 332.378 257.723C332.245 257.738 332.137 257.751 332.054 257.762C331.854 257.788 331.666 257.831 331.491 257.89C331.319 257.946 331.179 258.032 331.073 258.148C330.968 258.261 330.916 258.416 330.916 258.613C330.916 258.881 331.015 259.084 331.213 259.221C331.414 259.356 331.668 259.424 331.976 259.424ZM339.131 256.1L338.437 256.296C338.394 256.18 338.329 256.068 338.244 255.959C338.161 255.848 338.048 255.756 337.904 255.684C337.76 255.612 337.576 255.576 337.351 255.576C337.043 255.576 336.787 255.647 336.582 255.789C336.379 255.928 336.278 256.106 336.278 256.322C336.278 256.514 336.347 256.666 336.487 256.777C336.627 256.888 336.845 256.981 337.141 257.055L337.887 257.238C338.337 257.347 338.672 257.514 338.892 257.739C339.112 257.962 339.222 258.248 339.222 258.6C339.222 258.887 339.14 259.145 338.974 259.372C338.81 259.599 338.581 259.777 338.287 259.908C337.992 260.039 337.65 260.105 337.259 260.105C336.747 260.105 336.322 259.993 335.986 259.771C335.65 259.548 335.438 259.223 335.348 258.796L336.081 258.613C336.151 258.883 336.283 259.086 336.477 259.221C336.674 259.356 336.93 259.424 337.246 259.424C337.606 259.424 337.892 259.348 338.103 259.195C338.317 259.04 338.424 258.855 338.424 258.639C338.424 258.464 338.363 258.318 338.241 258.2C338.119 258.08 337.931 257.991 337.678 257.932L336.84 257.736C336.38 257.627 336.042 257.458 335.826 257.229C335.612 256.997 335.505 256.708 335.505 256.361C335.505 256.078 335.585 255.827 335.744 255.609C335.906 255.391 336.125 255.22 336.402 255.095C336.681 254.971 336.997 254.909 337.351 254.909C337.848 254.909 338.239 255.018 338.522 255.236C338.808 255.454 339.011 255.742 339.131 256.1Z" fill="white"/>
<path d="M37.74 24H44.01L37.41 34.23L44.46 45H38.19L34.35 38.01L30.39 45H24.12L31.32 34.23L24.87 24H31.14L34.38 30.09L37.74 24ZM46.7864 24H51.8564V45H46.7864V24ZM49.9664 28.17V24H54.0764C55.8564 24 57.3464 24.28 58.5464 24.84C59.7664 25.38 60.6864 26.16 61.3064 27.18C61.9264 28.2 62.2364 29.43 62.2364 30.87C62.2364 32.27 61.9264 33.49 61.3064 34.53C60.6864 35.55 59.7664 36.34 58.5464 36.9C57.3464 37.44 55.8564 37.71 54.0764 37.71H49.9664V33.54H54.0764C55.0964 33.54 55.8964 33.31 56.4764 32.85C57.0564 32.39 57.3464 31.73 57.3464 30.87C57.3464 29.99 57.0564 29.32 56.4764 28.86C55.8964 28.4 55.0964 28.17 54.0764 28.17H49.9664ZM78.642 34.5C78.642 35.74 78.882 36.84 79.362 37.8C79.862 38.74 80.552 39.48 81.432 40.02C82.332 40.56 83.382 40.83 84.582 40.83C85.762 40.83 86.792 40.56 87.672 40.02C88.572 39.48 89.262 38.74 89.742 37.8C90.242 36.84 90.492 35.74 90.492 34.5C90.492 33.26 90.252 32.17 89.772 31.23C89.292 30.27 88.612 29.52 87.732 28.98C86.852 28.44 85.802 28.17 84.582 28.17C83.382 28.17 82.332 28.44 81.432 28.98C80.552 29.52 79.862 30.27 79.362 31.23C78.882 32.17 78.642 33.26 78.642 34.5ZM73.272 34.5C73.272 32.88 73.552 31.4 74.112 30.06C74.692 28.72 75.492 27.56 76.512 26.58C77.532 25.6 78.732 24.85 80.112 24.33C81.492 23.79 82.982 23.52 84.582 23.52C86.202 23.52 87.692 23.79 89.052 24.33C90.432 24.85 91.632 25.6 92.652 26.58C93.672 27.56 94.462 28.72 95.022 30.06C95.582 31.4 95.862 32.88 95.862 34.5C95.862 36.12 95.582 37.61 95.022 38.97C94.482 40.33 93.702 41.51 92.682 42.51C91.682 43.51 90.492 44.29 89.112 44.85C87.732 45.39 86.222 45.66 84.582 45.66C82.922 45.66 81.402 45.39 80.022 44.85C78.642 44.29 77.442 43.51 76.422 42.51C75.422 41.51 74.642 40.33 74.082 38.97C73.542 37.61 73.272 36.12 73.272 34.5ZM103.161 21.6V45H98.6306V21.6H103.161ZM114.441 38.1C114.441 39.64 114.121 40.95 113.481 42.03C112.861 43.09 112.051 43.9 111.051 44.46C110.071 45.02 109.011 45.3 107.871 45.3C106.731 45.3 105.711 45.01 104.811 44.43C103.911 43.85 103.201 43.02 102.681 41.94C102.161 40.86 101.901 39.58 101.901 38.1C101.901 36.6 102.161 35.32 102.681 34.26C103.201 33.18 103.911 32.35 104.811 31.77C105.711 31.19 106.731 30.9 107.871 30.9C109.011 30.9 110.071 31.18 111.051 31.74C112.051 32.3 112.861 33.11 113.481 34.17C114.121 35.23 114.441 36.54 114.441 38.1ZM109.671 38.1C109.671 37.38 109.521 36.76 109.221 36.24C108.921 35.7 108.521 35.29 108.021 35.01C107.521 34.71 106.971 34.56 106.371 34.56C105.851 34.56 105.341 34.7 104.841 34.98C104.361 35.26 103.961 35.67 103.641 36.21C103.321 36.73 103.161 37.36 103.161 38.1C103.161 38.84 103.321 39.48 103.641 40.02C103.961 40.54 104.361 40.94 104.841 41.22C105.341 41.5 105.851 41.64 106.371 41.64C106.971 41.64 107.521 41.5 108.021 41.22C108.521 40.92 108.921 40.51 109.221 39.99C109.521 39.45 109.671 38.82 109.671 38.1ZM115.556 31.2H124.796V34.95H115.556V31.2ZM117.986 26.4H122.336V45H117.986V26.4ZM126.457 26.01C126.457 25.29 126.717 24.71 127.237 24.27C127.757 23.81 128.377 23.58 129.097 23.58C129.837 23.58 130.457 23.81 130.957 24.27C131.477 24.71 131.737 25.29 131.737 26.01C131.737 26.73 131.477 27.32 130.957 27.78C130.457 28.24 129.837 28.47 129.097 28.47C128.377 28.47 127.757 28.24 127.237 27.78C126.717 27.32 126.457 26.73 126.457 26.01ZM126.907 31.2H131.287V45H126.907V31.2ZM145.488 21.6H150.018V45H145.488V21.6ZM134.208 38.1C134.208 36.54 134.518 35.23 135.138 34.17C135.778 33.11 136.598 32.3 137.598 31.74C138.598 31.18 139.658 30.9 140.778 30.9C141.938 30.9 142.958 31.19 143.838 31.77C144.738 32.35 145.448 33.18 145.968 34.26C146.488 35.32 146.748 36.6 146.748 38.1C146.748 39.58 146.488 40.86 145.968 41.94C145.448 43.02 144.738 43.85 143.838 44.43C142.958 45.01 141.938 45.3 140.778 45.3C139.658 45.3 138.598 45.02 137.598 44.46C136.598 43.9 135.778 43.09 135.138 42.03C134.518 40.95 134.208 39.64 134.208 38.1ZM138.978 38.1C138.978 38.82 139.128 39.45 139.428 39.99C139.728 40.51 140.128 40.92 140.628 41.22C141.128 41.5 141.678 41.64 142.278 41.64C142.798 41.64 143.298 41.5 143.778 41.22C144.278 40.94 144.688 40.54 145.008 40.02C145.328 39.48 145.488 38.84 145.488 38.1C145.488 37.36 145.328 36.73 145.008 36.21C144.688 35.67 144.278 35.26 143.778 34.98C143.298 34.7 142.798 34.56 142.278 34.56C141.678 34.56 141.128 34.71 140.628 35.01C140.128 35.29 139.728 35.7 139.428 36.24C139.128 36.76 138.978 37.38 138.978 38.1ZM152.724 38.1C152.724 36.64 153.064 35.37 153.744 34.29C154.424 33.21 155.364 32.37 156.564 31.77C157.764 31.17 159.114 30.87 160.614 30.87C162.114 30.87 163.454 31.17 164.634 31.77C165.834 32.37 166.774 33.21 167.454 34.29C168.154 35.37 168.504 36.64 168.504 38.1C168.504 39.54 168.154 40.8 167.454 41.88C166.774 42.96 165.834 43.8 164.634 44.4C163.454 45 162.114 45.3 160.614 45.3C159.114 45.3 157.764 45 156.564 44.4C155.364 43.8 154.424 42.96 153.744 41.88C153.064 40.8 152.724 39.54 152.724 38.1ZM157.374 38.1C157.374 38.82 157.524 39.44 157.824 39.96C158.124 40.46 158.514 40.85 158.994 41.13C159.474 41.41 160.014 41.55 160.614 41.55C161.194 41.55 161.724 41.41 162.204 41.13C162.704 40.85 163.094 40.46 163.374 39.96C163.674 39.44 163.824 38.82 163.824 38.1C163.824 37.38 163.674 36.76 163.374 36.24C163.094 35.72 162.704 35.32 162.204 35.04C161.724 34.76 161.194 34.62 160.614 34.62C160.014 34.62 159.474 34.76 158.994 35.04C158.514 35.32 158.124 35.72 157.824 36.24C157.524 36.76 157.374 37.38 157.374 38.1Z" fill="white"/>
<rect opacity="0.5" x="203" y="21" width="153" height="33" rx="16.5" stroke="#BF72FF" stroke-width="2"/>
<path d="M320.63 32.6667V34.6667L330.259 42.6667L339.889 34.6667V32.6667H320.63ZM330.259 38.8934L325.974 35.3334H334.544L330.259 38.8934Z" fill="white"/>
<path d="M220.775 39.85C221.125 40.4833 221.517 41.0333 221.95 41.5C222.4 41.9667 222.883 42.325 223.4 42.575C223.933 42.825 224.492 42.95 225.075 42.95C225.692 42.95 226.2 42.8 226.6 42.5C227 42.1833 227.2 41.7583 227.2 41.225C227.2 40.775 227.083 40.4167 226.85 40.15C226.617 39.8667 226.242 39.6 225.725 39.35C225.208 39.1 224.525 38.8167 223.675 38.5C223.258 38.35 222.775 38.1417 222.225 37.875C221.692 37.6083 221.183 37.2667 220.7 36.85C220.217 36.4167 219.817 35.9 219.5 35.3C219.183 34.6833 219.025 33.9417 219.025 33.075C219.025 32.0417 219.292 31.15 219.825 30.4C220.375 29.65 221.108 29.0833 222.025 28.7C222.958 28.3 223.992 28.1 225.125 28.1C226.292 28.1 227.3 28.2917 228.15 28.675C229.017 29.0583 229.733 29.5417 230.3 30.125C230.867 30.7083 231.3 31.3 231.6 31.9L228.375 33.7C228.125 33.2833 227.833 32.925 227.5 32.625C227.183 32.3083 226.825 32.0667 226.425 31.9C226.042 31.7167 225.625 31.625 225.175 31.625C224.575 31.625 224.117 31.7583 223.8 32.025C223.483 32.275 223.325 32.5917 223.325 32.975C223.325 33.375 223.475 33.725 223.775 34.025C224.092 34.325 224.533 34.6 225.1 34.85C225.683 35.1 226.383 35.3667 227.2 35.65C227.817 35.8833 228.392 36.1583 228.925 36.475C229.458 36.775 229.925 37.1417 230.325 37.575C230.742 38.0083 231.067 38.5083 231.3 39.075C231.533 39.6417 231.65 40.2917 231.65 41.025C231.65 41.9083 231.467 42.7 231.1 43.4C230.75 44.0833 230.267 44.6583 229.65 45.125C229.05 45.5917 228.358 45.9417 227.575 46.175C226.808 46.425 226.017 46.55 225.2 46.55C224.067 46.55 223.008 46.35 222.025 45.95C221.058 45.5333 220.217 44.975 219.5 44.275C218.783 43.575 218.225 42.8083 217.825 41.975L220.775 39.85ZM239.95 46.25C238.617 46.25 237.458 46.0083 236.475 45.525C235.508 45.025 234.758 44.325 234.225 43.425C233.692 42.525 233.425 41.4667 233.425 40.25C233.425 39.0167 233.683 37.95 234.2 37.05C234.717 36.15 235.458 35.4583 236.425 34.975C237.408 34.4917 238.567 34.25 239.9 34.25C241.233 34.25 242.358 34.4833 243.275 34.95C244.192 35.4 244.892 36.0583 245.375 36.925C245.858 37.7917 246.1 38.8417 246.1 40.075C246.1 40.2583 246.1 40.4417 246.1 40.625C246.1 40.7917 246.083 40.9333 246.05 41.05H235.55V38.95H242.65L241.75 40.1C241.833 39.9833 241.9 39.8417 241.95 39.675C242.017 39.4917 242.05 39.3417 242.05 39.225C242.05 38.725 241.958 38.2917 241.775 37.925C241.592 37.5583 241.333 37.275 241 37.075C240.667 36.875 240.275 36.775 239.825 36.775C239.258 36.775 238.783 36.9 238.4 37.15C238.017 37.4 237.725 37.7833 237.525 38.3C237.342 38.8 237.242 39.4333 237.225 40.2C237.225 40.9 237.325 41.5 237.525 42C237.725 42.5 238.025 42.8833 238.425 43.15C238.825 43.4 239.317 43.525 239.9 43.525C240.567 43.525 241.133 43.4 241.6 43.15C242.083 42.9 242.467 42.525 242.75 42.025L246.125 42.85C245.525 43.9833 244.708 44.8333 243.675 45.4C242.658 45.9667 241.417 46.25 239.95 46.25ZM265.981 38.6V46H262.181V39C262.181 38.3 262.064 37.775 261.831 37.425C261.614 37.0583 261.248 36.875 260.731 36.875C260.398 36.875 260.098 36.9583 259.831 37.125C259.581 37.275 259.381 37.5083 259.231 37.825C259.098 38.1417 259.031 38.5333 259.031 39V46H255.231V39C255.231 38.3 255.114 37.775 254.881 37.425C254.664 37.0583 254.298 36.875 253.781 36.875C253.448 36.875 253.148 36.9583 252.881 37.125C252.631 37.275 252.431 37.5083 252.281 37.825C252.148 38.1417 252.081 38.5333 252.081 39V46H248.431V34.5H252.081V36.2C252.398 35.5833 252.831 35.1 253.381 34.75C253.948 34.4 254.623 34.225 255.406 34.225C256.306 34.225 257.023 34.3917 257.556 34.725C258.089 35.0417 258.473 35.5083 258.706 36.125C259.123 35.525 259.639 35.0583 260.256 34.725C260.873 34.3917 261.573 34.225 262.356 34.225C263.256 34.225 263.964 34.4 264.481 34.75C265.014 35.0833 265.398 35.575 265.631 36.225C265.864 36.875 265.981 37.6667 265.981 38.6ZM271.864 42.4C271.864 42.7 271.939 42.9583 272.089 43.175C272.239 43.375 272.439 43.5333 272.689 43.65C272.939 43.75 273.214 43.8 273.514 43.8C273.947 43.8 274.347 43.7083 274.714 43.525C275.081 43.3417 275.381 43.0667 275.614 42.7C275.847 42.3333 275.964 41.8833 275.964 41.35L276.364 42.85C276.364 43.5833 276.164 44.2083 275.764 44.725C275.364 45.225 274.847 45.6083 274.214 45.875C273.581 46.125 272.897 46.25 272.164 46.25C271.431 46.25 270.747 46.1167 270.114 45.85C269.497 45.5667 268.997 45.15 268.614 44.6C268.247 44.05 268.064 43.3833 268.064 42.6C268.064 41.5 268.456 40.6333 269.239 40C270.022 39.35 271.131 39.025 272.564 39.025C273.264 39.025 273.889 39.0917 274.439 39.225C275.006 39.3583 275.489 39.525 275.889 39.725C276.289 39.925 276.589 40.1333 276.789 40.35V42.025C276.389 41.725 275.922 41.5 275.389 41.35C274.872 41.1833 274.322 41.1 273.739 41.1C273.289 41.1 272.931 41.15 272.664 41.25C272.397 41.35 272.197 41.5 272.064 41.7C271.931 41.8833 271.864 42.1167 271.864 42.4ZM270.189 38.025L268.914 35.5C269.564 35.1833 270.347 34.8833 271.264 34.6C272.181 34.3167 273.181 34.175 274.264 34.175C275.281 34.175 276.189 34.325 276.989 34.625C277.789 34.9083 278.422 35.325 278.889 35.875C279.356 36.425 279.589 37.1 279.589 37.9V46H275.964V38.75C275.964 38.4667 275.914 38.225 275.814 38.025C275.731 37.8083 275.597 37.625 275.414 37.475C275.231 37.325 274.997 37.2167 274.714 37.15C274.447 37.0833 274.139 37.05 273.789 37.05C273.272 37.05 272.764 37.1083 272.264 37.225C271.781 37.3417 271.356 37.4833 270.989 37.65C270.622 37.8 270.356 37.925 270.189 38.025ZM289.89 39C289.89 38.3167 289.757 37.7917 289.49 37.425C289.24 37.0583 288.815 36.875 288.215 36.875C287.815 36.875 287.465 36.9583 287.165 37.125C286.865 37.2917 286.632 37.5333 286.465 37.85C286.299 38.1667 286.215 38.55 286.215 39V46H282.415V34.5H286.215V36.225C286.549 35.5917 286.999 35.1 287.565 34.75C288.149 34.4 288.865 34.225 289.715 34.225C291.149 34.225 292.19 34.6083 292.84 35.375C293.49 36.1417 293.815 37.2167 293.815 38.6V46H289.89V39ZM299.72 42.4C299.72 42.7 299.795 42.9583 299.945 43.175C300.095 43.375 300.295 43.5333 300.545 43.65C300.795 43.75 301.07 43.8 301.37 43.8C301.804 43.8 302.204 43.7083 302.57 43.525C302.937 43.3417 303.237 43.0667 303.47 42.7C303.704 42.3333 303.82 41.8833 303.82 41.35L304.22 42.85C304.22 43.5833 304.02 44.2083 303.62 44.725C303.22 45.225 302.704 45.6083 302.07 45.875C301.437 46.125 300.754 46.25 300.02 46.25C299.287 46.25 298.604 46.1167 297.97 45.85C297.354 45.5667 296.854 45.15 296.47 44.6C296.104 44.05 295.92 43.3833 295.92 42.6C295.92 41.5 296.312 40.6333 297.095 40C297.879 39.35 298.987 39.025 300.42 39.025C301.12 39.025 301.745 39.0917 302.295 39.225C302.862 39.3583 303.345 39.525 303.745 39.725C304.145 39.925 304.445 40.1333 304.645 40.35V42.025C304.245 41.725 303.779 41.5 303.245 41.35C302.729 41.1833 302.179 41.1 301.595 41.1C301.145 41.1 300.787 41.15 300.52 41.25C300.254 41.35 300.054 41.5 299.92 41.7C299.787 41.8833 299.72 42.1167 299.72 42.4ZM298.045 38.025L296.77 35.5C297.42 35.1833 298.204 34.8833 299.12 34.6C300.037 34.3167 301.037 34.175 302.12 34.175C303.137 34.175 304.045 34.325 304.845 34.625C305.645 34.9083 306.279 35.325 306.745 35.875C307.212 36.425 307.445 37.1 307.445 37.9V46H303.82V38.75C303.82 38.4667 303.77 38.225 303.67 38.025C303.587 37.8083 303.454 37.625 303.27 37.475C303.087 37.325 302.854 37.2167 302.57 37.15C302.304 37.0833 301.995 37.05 301.645 37.05C301.129 37.05 300.62 37.1083 300.12 37.225C299.637 37.3417 299.212 37.4833 298.845 37.65C298.479 37.8 298.212 37.925 298.045 38.025Z" fill="white"/>
<defs>
<filter id="filter0_d_435_3269" x="0.4" y="0.4" width="382.2" height="296.2" filterUnits="userSpaceOnUse" color-interpolation-filters="sRGB">
<feFlood flood-opacity="0" result="BackgroundImageFix"/>
<feColorMatrix in="SourceAlpha" type="matrix" values="0 0 0 0 0 0 0 0 0 0 0 0 0 0 0 0 0 0 127 0" result="hardAlpha"/>
<feMorphology radius="5" operator="dilate" in="SourceAlpha" result="effect1_dropShadow_435_3269"/>
<feOffset dy="4"/>
<feGaussianBlur stdDeviation="5.8"/>
<feComposite in2="hardAlpha" operator="out"/>
<feColorMatrix type="matrix" values="0 0 0 0 0 0 0 0 0 0 0 0 0 0 0 0 0 0 0.38 0"/>
<feBlend mode="normal" in2="BackgroundImageFix" result="effect1_dropShadow_435_3269"/>
<feBlend mode="normal" in="SourceGraphic" in2="effect1_dropShadow_435_3269" result="shape"/>
</filter>
<clipPath id="clip0_435_3269">
<rect width="317" height="187" fill="white" transform="translate(34 66)"/>
</clipPath>
</defs>
</svg>
