<svg width="613" height="393" viewBox="0 0 613 393" fill="none" xmlns="http://www.w3.org/2000/svg">
<path d="M565.583 189.77H68.5073C61.8445 189.77 56.424 184.464 56.424 177.94V11.8288C56.424 5.30635 61.8445 0 68.5073 0H565.583C572.245 0 577.666 5.30635 577.666 11.8288V177.94C577.666 184.464 572.245 189.77 565.583 189.77ZM68.5073 1.41025C62.639 1.41025 57.8646 6.08413 57.8646 11.8288V177.94C57.8646 183.685 62.639 188.36 68.5073 188.36H565.583C571.451 188.36 576.225 183.685 576.225 177.94V11.8288C576.225 6.08413 571.451 1.41025 565.583 1.41025H68.5073Z" fill="#3F3D56"/>
<path d="M613 388.212H0V389.399H613V388.212Z" fill="#E6E6E6"/>
<path d="M613 327.572H0V328.758H613V327.572Z" fill="#E6E6E6"/>
<path d="M279.361 195.879C279.802 201.294 283.013 205.461 286.533 205.187C290.054 204.912 292.55 200.299 292.109 194.882C291.963 192.716 291.289 190.615 290.144 188.756L287.983 165.834L277.016 167.056L280.311 189.523C279.481 191.537 279.155 193.716 279.361 195.879Z" fill="#FFB6B6"/>
<path d="M266.261 88.9399C266.261 88.9399 276.512 83.6275 281.71 91.5662C286.908 99.5048 290.496 185.363 290.496 185.363L276.088 186.869L273.357 126.367L266.261 88.9399Z" fill="#E6E6E6"/>
<path d="M244.984 323.092L253.331 323.091L257.301 291.576L244.983 291.577L244.984 323.092Z" fill="#FFB6B6"/>
<path d="M273.58 322.907C273.84 323.335 273.977 324.718 273.977 325.216C273.977 326.748 272.709 327.989 271.144 327.989H245.296C244.229 327.989 243.364 327.142 243.364 326.098V325.044C243.364 325.044 242.085 321.878 244.718 317.975C244.718 317.975 247.99 321.031 252.879 316.245L254.32 313.688L264.757 321.16L270.541 321.857C271.807 322.01 272.929 321.833 273.58 322.907Z" fill="#2F2E41"/>
<path d="M293.284 321.739L301.37 319.716L297.249 288.219L285.314 291.205L293.284 321.739Z" fill="#FFB6B6"/>
<path d="M320.943 314.631C321.303 314.983 321.785 316.29 321.911 316.773C322.299 318.257 321.384 319.767 319.868 320.146L294.824 326.409C293.79 326.667 292.738 326.056 292.473 325.044L292.207 324.023C292.207 324.023 290.168 321.265 291.732 316.846C291.732 316.846 295.674 319.014 299.201 313.193L299.952 310.366L311.952 315.077L317.733 314.351C318.998 314.192 320.041 313.749 320.943 314.631Z" fill="#2F2E41"/>
<path d="M238.079 82.165L237.683 79.3537L242.387 68.1083L255.31 66.7027L258.1 82.8018L238.079 82.165Z" fill="#FFB6B6"/>
<path opacity="0.1" d="M238.079 82.165L237.683 79.3537L242.387 68.1083L255.31 66.7027L258.1 82.8018L238.079 82.165Z" fill="black"/>
<path d="M223.002 161.585L217.258 177.048L221.566 185.482L243.105 307.775H257.424L254.592 199.538L287.618 307.775H301.791L290.394 234.68L281.874 167.208L276.707 164.083L251.72 150.34L223.002 161.585Z" fill="#2F2E41"/>
<path d="M259.618 172.128L251.002 173.533L239.515 146.826H265.361L259.618 172.128Z" fill="#E6E6E6"/>
<path d="M276.849 165.099L259.618 172.128L253.874 159.477L251.002 173.533L220.848 164.031L225.156 146.826L220.848 90.599L236.054 80.6749L238.079 79.3537L256.746 80.7593L258.383 81.6308L269.669 87.7877L272.541 134.175L276.849 165.099Z" fill="#2F2E41"/>
<path d="M258.383 81.6308L250.284 115.198L236.054 80.6749L238.079 79.3537L256.746 80.7593L258.383 81.6308Z" fill="#E6E6E6"/>
<path d="M244.541 79.3537L241.669 84.1954L244.541 85.8093L243.105 115.285L248.848 122.929L254.592 111.632L250.284 85.8093L251.72 79.3537H244.541Z" fill="#2F2E41"/>
<path d="M248.848 76.5423C256.382 76.5423 262.49 70.5636 262.49 63.1885C262.49 55.8134 256.382 49.8347 248.848 49.8347C241.315 49.8347 235.207 55.8134 235.207 63.1885C235.207 70.5636 241.315 76.5423 248.848 76.5423Z" fill="#FFB6B6"/>
<path d="M240.131 64.3599L243.078 65.6191L244.364 58.0637C244.364 58.0637 249.51 55.5452 253.369 56.8044C257.228 58.0637 263.659 56.8044 263.659 56.8044C263.659 56.8044 263.66 44.212 254.655 44.212C245.651 44.212 236.646 45.4712 236.646 49.249C236.646 53.0267 232.787 56.8044 232.787 56.8044C232.787 56.8044 227.642 64.3599 232.787 69.3969C237.933 74.4338 240.505 74.4338 240.505 74.4338L240.131 64.3599Z" fill="#2F2E41"/>
<path d="M213.662 195.484C213.512 200.914 216.253 205.392 219.784 205.484C223.314 205.577 226.296 201.25 226.445 195.818C226.535 193.648 226.093 191.49 225.156 189.522L225.493 166.505L214.456 166.58L215.295 189.263C214.251 191.179 213.691 193.312 213.662 195.484Z" fill="#FFB6B6"/>
<path d="M227.317 87.7613C227.317 87.7613 217.983 84.95 213.675 93.384C209.368 101.818 215.111 187.564 215.111 187.564H229.601L225.755 127.12L227.317 87.7613Z" fill="#E6E6E6"/>
<path d="M585.357 247.505L550.551 237.075C549.781 236.844 548.973 236.76 548.171 236.827L371.768 251.523C369.253 251.733 368.621 255.054 370.89 256.136L376.541 258.831H376.39V387.835H381.714V261.298L399.424 269.744C400.779 270.39 402.291 270.654 403.79 270.506L405.675 270.32V387.835H410.999V269.793L547.438 256.302V387.835H552.762V255.775L575.391 253.538V387.835H580.716V253.011L584.844 252.603C587.742 252.316 588.142 248.34 585.357 247.505Z" fill="#3F3D56"/>
<path d="M422.979 251.013C426.307 251.013 475.558 245.149 475.558 245.149L482.879 254.922L431.631 264.695L422.979 251.013Z" fill="white"/>
<path d="M477.033 382.825L468.476 382.81L464.462 350.493L477.091 350.515L477.033 382.825Z" fill="#A0616A"/>
<path d="M447.717 382.586C447.45 383.024 447.306 384.442 447.306 384.953C447.303 386.523 448.601 387.798 450.205 387.801L476.704 387.845C477.798 387.847 478.687 386.98 478.689 385.909L478.69 384.829C478.69 384.829 480.007 381.585 477.315 377.58C477.315 377.58 473.955 380.707 468.952 375.792L467.478 373.168L456.766 380.81L450.834 381.515C449.536 381.669 448.386 381.486 447.717 382.586Z" fill="#2F2E41"/>
<path d="M522.958 367.797L516.206 372.782L493.352 349.663L503.316 342.306L522.958 367.797Z" fill="#A0616A"/>
<path d="M499.713 384.728C499.77 385.229 500.521 386.43 500.832 386.833C501.786 388.072 503.586 388.318 504.851 387.384L525.758 371.945C526.621 371.307 526.793 370.105 526.142 369.26L525.485 368.408C525.485 368.408 524.546 365.084 519.984 363.5C519.984 363.5 519.242 367.925 512.305 366.975L509.545 365.768L505.761 378.045L501.517 382.064C500.588 382.943 499.571 383.471 499.713 384.728Z" fill="#2F2E41"/>
<path d="M505.075 200.778C505.075 208.502 498.678 214.764 490.787 214.764C482.896 214.764 476.5 208.502 476.5 200.778C476.5 193.053 482.896 186.791 490.787 186.791C498.678 186.791 505.075 193.053 505.075 200.778Z" fill="#A0616A"/>
<path d="M503.729 281.421C503.729 281.421 451.124 278.506 448.146 284.336C445.168 290.165 464.244 370.244 464.244 370.244L481.262 366.752L472.96 310.57C472.96 310.57 516.857 321.951 522.812 308.348C528.768 294.745 527.053 289.68 527.053 289.68L503.729 281.421Z" fill="#2F2E41"/>
<path d="M517.206 271.635C517.206 271.635 465.688 282.447 464.392 288.84C463.095 295.233 503.13 367.519 503.13 367.519L518.599 359.744L495.411 307.714C495.411 307.714 540.82 307.321 542.887 292.661C544.954 278 541.932 273.559 541.932 273.559L517.206 271.635Z" fill="#2F2E41"/>
<path d="M523.083 216.807H498.332L481.396 244.013C481.396 244.013 477.426 261.594 481.396 263.491C485.366 265.389 485.366 285.793 485.366 285.793L527.053 289.68C527.053 289.68 533.009 228.467 531.023 222.637C529.038 216.807 523.083 216.807 523.083 216.807Z" fill="#E06009"/>
<path d="M483.878 234.782L481.396 263.491L453.486 251.896L446.825 248.616C445.521 246.951 443.828 245.615 441.888 244.722C437.063 242.42 431.942 242.99 430.446 245.995C428.95 248.999 431.647 253.3 436.47 255.6C438.385 256.545 440.503 257.028 442.648 257.007L462.137 267.844L462.16 267.801L462.247 267.952L492.811 280.449L499.843 242.761L483.878 234.782Z" fill="#A0616A"/>
<path d="M480.9 202.718C480.9 202.718 466.012 204.661 471.967 192.03C471.967 192.03 471.059 185.183 475.483 184.72C479.907 184.257 485.863 176.484 485.863 176.484C485.863 176.484 499.516 169.683 506.585 176.484C513.654 183.285 534.497 223.123 534.497 223.123L520.602 237.697C520.602 237.697 512.248 216.199 502.529 218.689C492.811 221.179 483.878 228.604 483.878 228.604C483.878 228.604 474.015 223.772 478.45 219.561C482.885 215.349 480.9 202.718 480.9 202.718Z" fill="#2F2E41"/>
<path d="M500.751 224.094C500.751 224.094 493.803 215.349 488.84 222.151C483.878 228.952 479.907 237.697 479.907 237.697L499.758 244.498L500.751 224.094Z" fill="#E06009"/>
<path d="M576.122 385.901L553.059 314.14L553.062 314.14H553.115L553.022 314.022L553.02 314.02L551.377 308.909L551.378 308.908C553.881 306.797 555.584 303.78 555.924 300.308L545.381 243.546C546.107 236.092 540.27 229.577 532.623 229.31L508.836 229.251C502.074 229.017 496.217 233.799 495.232 240.353L494.706 243.833L487.418 292.365C487.152 294.112 487.258 295.832 487.678 297.441L482.433 298.112L480.842 298.32L474.553 299.122L474.533 299.128L473.748 299.226H472.896V320.075H472.949V386.714C472.949 387.144 473.308 387.496 473.748 387.496C474.194 387.496 474.553 387.144 474.553 386.714V320.075H483.884L493.195 386.636C493.255 387.027 493.595 387.314 493.994 387.314C494.027 387.314 494.067 387.314 494.1 387.307C494.54 387.249 494.846 386.851 494.786 386.421L485.508 320.075H530.28C534.726 320.075 538.845 318.694 542.199 316.33L559.951 386.514C560.043 386.869 560.369 387.105 560.727 387.105C560.792 387.105 560.859 387.098 560.925 387.081C561.354 386.974 561.614 386.547 561.505 386.127L543.581 315.264C543.82 315.069 544.058 314.862 544.283 314.648L551.409 314.238L574.593 386.372C574.7 386.707 575.016 386.922 575.357 386.922C575.437 386.922 575.518 386.91 575.598 386.885C576.02 386.755 576.255 386.314 576.122 385.901ZM549.854 310.022C549.914 309.99 549.967 309.95 550.02 309.918L550.192 310.45L549.854 310.022Z" fill="#E6E6E6"/>
<path d="M123.578 264.264L139.1 254.601L145.411 258.327L123.578 282.885V264.264Z" fill="#FFB6B6"/>
<path d="M102.353 226.862C102.353 226.862 92.043 229.237 96.8946 242.891C101.746 256.546 117.514 285.042 122.365 283.261C127.217 281.48 127.824 263.67 127.824 263.67C127.824 263.67 127.217 264.264 124.791 261.889C122.365 259.514 122.365 260.599 122.365 257.979C122.365 255.358 120.381 253.416 120.381 253.416L118.12 248.828C118.12 248.828 118.12 227.456 109.024 226.268C99.9268 225.081 102.353 226.862 102.353 226.862Z" fill="#E6E6E6"/>
<path d="M150.52 257.688C154.546 253.747 155.794 248.579 153.307 246.144C150.82 243.71 145.541 244.931 141.514 248.873C137.488 252.814 136.24 257.983 138.727 260.417C141.214 262.851 146.494 261.63 150.52 257.688Z" fill="#FFB6B6"/>
<path d="M62.1964 305.524L72.7878 322.685L134.51 319.11L118.075 298.374L62.1964 305.524Z" fill="#E6E6E6"/>
<path d="M80.6391 385.789C80.2796 385.789 79.9665 385.529 79.9163 385.171L61.4728 253.307C61.418 252.916 61.6977 252.555 62.0973 252.502C62.4968 252.445 62.8652 252.722 62.9201 253.113L81.3637 384.977C81.4184 385.368 81.1388 385.729 80.7392 385.782C80.7055 385.787 80.6721 385.789 80.6391 385.789Z" fill="#E6E6E6"/>
<path d="M62.1965 385.956C61.7931 385.956 61.4661 385.636 61.4661 385.241V253.235C61.4661 252.841 61.7931 252.52 62.1965 252.52C62.5999 252.52 62.9269 252.841 62.9269 253.235V385.241C62.9269 385.636 62.5999 385.956 62.1965 385.956Z" fill="#E6E6E6"/>
<path d="M154.779 385.431C154.469 385.431 154.181 385.236 154.083 384.931L110.439 249.134C110.318 248.758 110.532 248.356 110.917 248.237C111.301 248.119 111.712 248.329 111.832 248.705L155.476 384.501C155.597 384.878 155.383 385.28 154.999 385.398C154.926 385.421 154.852 385.431 154.779 385.431Z" fill="#E6E6E6"/>
<path d="M141.448 385.599C141.122 385.599 140.825 385.384 140.741 385.06L110.428 265.21C110.328 264.827 110.565 264.438 110.956 264.341C111.348 264.244 111.744 264.475 111.844 264.857L142.157 384.707C142.256 385.09 142.02 385.479 141.629 385.577C141.569 385.592 141.508 385.599 141.448 385.599Z" fill="#E6E6E6"/>
<path d="M62.1964 255.338L112.779 254.577L122.092 306.597H62.9268L62.1964 255.338Z" fill="#E6E6E6"/>
<path d="M139.93 331.83L127.182 353.801L141.983 356.991L148.154 341.364L139.93 331.83Z" fill="#FFB6B6"/>
<path d="M131.761 349.653C131.761 349.653 131.265 346.07 128.353 347.207C125.441 348.344 117.036 352.569 117.036 352.569C117.036 352.569 138.958 387.438 143.118 385.814C147.278 384.19 142.298 374.333 142.298 374.333L143.397 356.911L131.761 349.653Z" fill="#2F2E41"/>
<path d="M83.5527 289.198C83.5527 289.198 79.0043 309.68 92.9527 316.804C106.901 323.928 154.507 306.414 154.507 306.414L132.675 338.438L147.836 344.41C147.836 344.41 182.404 299.884 179.978 292.76C177.552 285.636 161.178 285.042 161.178 285.042L124.185 286.823L114.482 283.855L83.5527 289.198Z" fill="#2F2E41"/>
<path d="M121.071 341.581L101.03 357.504L113.631 365.748L125.187 353.391L121.071 341.581Z" fill="#FFB6B6"/>
<path d="M106.836 355.272C106.836 355.272 107.707 351.758 104.572 351.78C101.437 351.802 92.0375 352.744 92.0375 352.744C92.0375 352.744 99.4947 393.031 103.973 393C108.452 392.969 107.477 382.014 107.477 382.014L114.977 366.177L106.836 355.272Z" fill="#2F2E41"/>
<path d="M84.4055 281.789C84.4055 281.789 72.5556 299.247 82.8995 310.851C93.2435 322.455 144.096 323.101 144.096 323.101L111.857 345.152L123.759 356.115C123.759 356.115 172.508 326.955 172.896 319.455C173.285 311.956 158.254 305.57 158.254 305.57L123.135 294.051L115.2 287.83L84.4055 281.789Z" fill="#2F2E41"/>
<path d="M114.847 241.354C114.847 241.354 103.324 237.198 97.8664 237.198C97.3449 237.198 96.8294 237.257 96.3139 237.364C92.8208 238.089 89.6066 241.027 88.0662 242.63C87.4658 243.259 87.1202 243.681 87.1202 243.681C87.1202 243.681 87.1565 243.271 87.2293 242.553C87.5871 238.777 88.9092 226.387 91.2804 218.456C92.1294 215.624 93.1058 213.362 94.2277 212.264C96.8415 209.699 98.0484 206.624 98.6063 204.332C99.0793 202.367 99.0793 200.984 99.0793 200.984L94.6583 199.12L93.8396 193.884C93.694 194.501 93.0209 195.706 90.7588 198.016C90.5648 198.211 90.3525 198.378 90.1281 198.52C86.8654 200.527 80.2127 197.036 76.6285 194.839C78.1204 189.763 80.8252 185.121 85.7374 184.361C97.26 182.58 97.26 176.05 104.537 183.174C105.138 183.761 105.744 184.325 106.351 184.872C108.679 189.229 109.528 195.071 109.832 199.132C110.05 201.975 109.995 203.952 109.995 203.952C109.995 203.952 113.028 221.763 117.879 225.325C122.731 228.887 114.847 241.354 114.847 241.354Z" fill="#2F2E41"/>
<path d="M92.4083 212.857L84.2141 224.624L102.718 229.48V212.857H92.4083Z" fill="#FFB6B6"/>
<path opacity="0.1" d="M92.4083 212.857L84.2141 224.624L102.718 229.48V212.857H92.4083Z" fill="black"/>
<path d="M103.869 224.191L86.2817 217.066C86.2817 217.066 62.6302 227.159 64.4496 246.75C66.2689 266.341 83.2495 300.181 83.2495 300.181L117.211 285.933L113.572 247.938L103.869 224.191Z" fill="#E6E6E6"/>
<path d="M96.3283 218.111C104.898 218.111 111.844 211.31 111.844 202.921C111.844 194.533 104.898 187.732 96.3283 187.732C87.759 187.732 80.8123 194.533 80.8123 202.921C80.8123 211.31 87.759 218.111 96.3283 218.111Z" fill="#FFB6B6"/>
<path d="M117.273 197.422C114.241 200.39 111.815 203.359 111.815 203.359L110.602 198.609C110.602 198.609 110.323 198.811 109.832 199.132C107.909 200.414 102.748 203.638 98.6063 204.332C96.7627 204.641 95.1253 204.445 94.0579 203.359C91.7959 201.049 91.1227 199.844 90.9772 199.227L90.1585 204.463L85.7375 206.327C85.7375 206.327 85.7375 212.845 90.5891 217.607C90.8256 217.838 91.056 218.123 91.2804 218.456C93.5971 221.875 95.2587 230.246 96.3139 237.364C97.2479 243.693 97.6966 249.024 97.6966 249.024C97.6966 249.024 93.1058 243.396 88.0662 242.63C87.7873 242.589 87.5083 242.559 87.2293 242.553C87.1384 242.541 87.0413 242.541 86.9504 242.541C81.4923 242.541 69.9698 246.697 69.9698 246.697C69.9698 246.697 62.0859 234.23 66.9375 230.668C71.7891 227.106 74.8214 209.295 74.8214 209.295C74.8214 209.295 74.6212 201.673 76.6286 194.839C78.1205 189.763 80.8252 185.121 85.7375 184.361C97.26 182.58 97.26 176.05 104.537 183.174C105.138 183.761 105.744 184.325 106.351 184.872C113.131 190.975 120.056 194.697 117.273 197.422Z" fill="#2F2E41"/>
<path d="M49.2209 277.115H43.4585V388.525H49.2209V277.115Z" fill="#3F3D56"/>
<path d="M188.959 277.115H183.197V388.525H188.959V277.115Z" fill="#3F3D56"/>
<path d="M152.224 229.871H114.048V267.243H152.224V229.871Z" fill="#E06009"/>
<path d="M92.0431 269.607L107.565 259.944L113.875 263.67L92.0431 288.228V269.607Z" fill="#FFB6B6"/>
<path d="M70.8174 232.205C70.8174 232.205 60.5077 234.58 65.3593 248.234C70.2109 261.889 85.9786 290.385 90.8302 288.604C95.6818 286.823 96.2882 269.013 96.2882 269.013C96.2882 269.013 95.6818 269.607 93.256 267.232C90.8302 264.857 90.8302 265.942 90.8302 263.322C90.8302 260.702 88.8461 258.759 88.8461 258.759L86.5851 254.171C86.5851 254.171 86.5851 232.799 77.4883 231.612C68.3916 230.424 70.8174 232.205 70.8174 232.205Z" fill="#E6E6E6"/>
<path d="M118.984 263.031C123.011 259.09 124.259 253.922 121.772 251.487C119.285 249.053 114.005 250.275 109.979 254.216C105.953 258.157 104.705 263.326 107.192 265.76C109.678 268.194 114.958 266.973 118.984 263.031Z" fill="#FFB6B6"/>
<path d="M200.484 272.884H26.1713V285.576H200.484V272.884Z" fill="#3F3D56"/>
<path d="M377.584 171.346H351.841C349.8 171.346 348.146 172.965 348.146 174.963V185.357C348.146 187.354 349.8 188.974 351.841 188.974H377.584C379.625 188.974 381.279 187.354 381.279 185.357V174.963C381.279 172.965 379.625 171.346 377.584 171.346Z" fill="#3F3D56"/>
<path d="M431.607 181.739H405.863C403.822 181.739 402.168 183.359 402.168 185.357V185.357C402.168 187.354 403.822 188.974 405.863 188.974H431.607C433.648 188.974 435.302 187.354 435.302 185.357C435.302 183.359 433.648 181.739 431.607 181.739Z" fill="#E06009"/>
</svg>
