<?xml version="1.0" encoding="UTF-8"?>
<svg xmlns="http://www.w3.org/2000/svg" viewBox="0 0 404.94 538.68">
  <defs>
    <style>
      .cls-1 {
        fill: #82368c;
      }

      .cls-2, .cls-3 {
        fill: #fff;
      }

      .cls-4, .cls-5, .cls-6 {
        fill: none;
      }

      .cls-4, .cls-5, .cls-6, .cls-3 {
        stroke-miterlimit: 10;
      }

      .cls-4, .cls-6, .cls-3 {
        stroke-width: 2px;
      }

      .cls-4, .cls-3 {
        stroke: #6b2d73;
      }

      .cls-7 {
        fill: #f2e7d3;
      }

      .cls-5 {
        stroke: #ff7e00;
        stroke-width: 5px;
      }

      .cls-8 {
        fill: #712f79;
      }

      .cls-6 {
        stroke: #dbc69e;
      }

      .cls-9 {
        fill: #1d1e1c;
      }
    </style>
  </defs>
  <g id="Página">
    <path class="cls-7" d="M35.79,26.11l.63-1.43,1.01-2.39.36-2.66-.36-2.66c-.31-1.3-.91-2.43-1.79-3.4-.44-.75-1.04-1.35-1.79-1.79-.62-.62-1.36-1.05-2.21-1.29-.78-.45-1.62-.68-2.52-.68-1.33-.3-2.66-.24-3.99.18-.2.06-.41.12-.61.18-1.3.31-2.43.91-3.4,1.79-1.09.71-1.95,1.64-2.58,2.81-.73,1.15-1.13,2.39-1.19,3.72-.3,1.33-.24,2.66.18,3.99l1.01,2.39c.89,1.5,2.08,2.7,3.59,3.59l2.39,1.01c1.77.48,3.54.48,5.32,0,.2-.06.41-.12.61-.18l-11.29-14.69-.63,1.43c-.73,1.15-1.13,2.39-1.19,3.72-.3,1.33-.24,2.66.18,3.99.31,1.3.91,2.43,1.79,3.4.71,1.09,1.64,1.95,2.81,2.58l2.39,1.01c1.77.48,3.54.48,5.32,0l2.39-1.01c1.5-.89,2.7-2.08,3.59-3.59h0Z"/>
    <path class="cls-7" d="M21.49,14.42c-.16.05-.33.1-.49.16-.44.17-.87.37-1.3.55s-.86.35-1.28.54c-.08.04-.17.08-.25.12-.68.35-1.26.86-1.86,1.32-.39.3-.82.61-1.2.94-.03.02-.05.04-.07.07-.02.02-.03.03-.04.05-.14.15-1.47,1.88-1.58,2.05-.02.03-.04.06-.06.1-.03.05-1,2.35-1.01,2.4-.11.45-.13.93-.19,1.38-.24,1.77-.24.95,0,2.72s.03,1,.7,2.6c.13.3.3.89.55,1.26.02.04,1.55,2.01,1.57,2.03,0,0,.02.02.03.03.01.01.03.02.04.04.07.06,1.97,1.53,2.04,1.57.03.02.06.04.1.06.01,0,.03.01.04.02l1.19.5c.41.17.81.35,1.22.51.03.01.07.03.1.04.1.03.19.06.29.09s.2.05.3.07c.05,0,.11.02.16.03.45.07.96.13,1.37.18.45.06.94.13,1.41.19.21.02.43.03.64.02,1.38.05,2.66-.24,3.85-.86,1.24-.4,2.31-1.09,3.22-2.07.98-.91,1.66-1.98,2.07-3.22.63-1.19.91-2.48.86-3.85l-.36-2.66c-.48-1.69-1.33-3.16-2.57-4.41l-2.02-1.56c-1.56-.9-3.24-1.36-5.05-1.37-.24.01-.48,0-.72-.03l2.66.36c-.31-.04-.62-.11-.91-.23l2.39,1.01c-.05-.02-.1-.05-.15-.08l2.02,1.56s-.06-.05-.08-.08l1.56,2.02s-.03-.04-.04-.07l1.01,2.39s-.02-.05-.02-.08l.36,2.66s0-.04,0-.06l-.36,2.66s0-.04.02-.06l-1.01,2.39s.04-.07.07-.11l-1.56,2.02c.09-.11.21-.19.32-.28l-2.02,1.56c.37-.28.76-.51,1.19-.69l-2.39,1.01c.19-.08.39-.15.59-.21,1.3-.31,2.43-.91,3.4-1.79,1.09-.71,1.95-1.64,2.58-2.81.73-1.15,1.13-2.39,1.19-3.72.3-1.33.24-2.66-.18-3.99l-1.01-2.39c-.89-1.5-2.08-2.7-3.59-3.59l-2.39-1.01c-1.77-.48-3.54-.48-5.32,0h0Z"/>
    <path class="cls-7" d="M31.07,35.87c3.76-.26,7.5-.03,11.23.46l-2.66-.36c9.63,1.31,19.03,3.92,28.77,4.43s19.38-.83,28.5-3.69c2.46-.77,4.66-2.35,5.98-4.6s1.79-5.3,1.01-7.71c-1.62-5.01-6.96-8.66-12.3-6.98-4.03,1.27-8.15,2.19-12.34,2.77l2.66-.36c-6.51.86-13.06.85-19.57-.01l2.66.36c-11.26-1.55-22.46-5.12-33.94-4.31-2.67.19-5.13.99-7.07,2.93-1.73,1.73-3.04,4.58-2.93,7.07s.97,5.27,2.93,7.07,4.44,3.11,7.07,2.93h0Z"/>
    <path class="cls-7" d="M128,14.49c-25.09.31-50.19.29-75.28-.05-7.15-.1-14.29-.22-21.44-.38l10,10c-.01-.22,0-.43.02-.65l-.36,2.66c.06-.41.17-.78.33-1.17l-1.01,2.39c.14-.27.29-.52.46-.77l-1.56,2.02c.33-.41.69-.76,1.09-1.09l-2.02,1.56c.61-.45,1.26-.81,1.95-1.12l-2.39,1.01c3.31-1.38,7.13-1.86,10.66-2.34l-2.66.36c11.96-1.57,24.16-1,36.19-.97,12.44.03,24.88.06,37.32.09,6.97.02,13.93.03,20.9.05,5.23.01,10.24-4.61,10-10s-4.39-9.99-10-10c-15.76-.04-31.52-.07-47.27-.11-7.96-.02-15.92-.04-23.89-.06-7.44-.02-14.91-.03-22.31.88-4.57.56-9.61,1.03-13.96,2.69-2.74,1.05-5.3,2.27-7.36,4.44-2.62,2.75-4.18,6.29-4.13,10.13.07,5.49,4.53,9.88,10,10,25.09.53,50.19.74,75.28.61,7.15-.03,14.29-.1,21.44-.18,2.58-.03,5.24-1.09,7.07-2.93,1.73-1.73,3.04-4.58,2.93-7.07-.24-5.36-4.4-10.07-10-10h0Z"/>
    <path class="cls-7" d="M123.03,39.19l57.63-.05,57.63-.05c10.81,0,21.62-.02,32.43-.03,4.99,0,9.17-3.8,9.82-8.67.64-4.77-2.3-9.77-7.16-10.97-16.89-4.19-34.38-5.73-51.74-6.07s-33.5.42-50.25.52c-4.63.03-9.25,0-13.88-.1s-9.14-.07-13.62-.64l2.66.36c-.91-.13-1.78-.34-2.63-.68l2.39,1.01c-.41-.19-.78-.4-1.15-.65l2.02,1.56c-.36-.28-.66-.58-.95-.93l1.56,2.02c-.14-.19-.27-.38-.38-.59l-5.98,14.69c6.64-2.07,13.42-3.59,20.31-4.53l-2.66.36c15.18-2.01,30.6-1.46,45.88-1.39,15.27.06,30.54.13,45.81.19,8.63.04,17.26.07,25.89.11,5.23.02,10.24-4.62,10-10s-4.39-9.98-10-10c-18.18-.08-36.35-.15-54.53-.23-9.13-.04-18.26-.08-27.39-.11s-17.92-.1-26.85.54c-10.77.78-21.47,2.56-31.79,5.79-6.07,1.9-9.39,8.98-5.98,14.69,1.44,2.4,3.53,4.53,6.07,5.76,2.89,1.4,5.49,1.89,8.7,2.16,3.71.31,7.45.39,11.17.49,7.66.2,15.32.16,22.97.05,15.46-.24,30.93-.8,46.39-.34,8.71.26,17.42.85,26.06,1.99l-2.66-.36c6.46.87,12.88,2.05,19.21,3.62l2.66-19.64-57.63.05-57.63.05c-10.81,0-21.62.02-32.43.03-5.23,0-10.24,4.6-10,10s4.39,10.01,10,10h0Z"/>
    <path class="cls-7" d="M276.68,25.67c24.87.14,49.75.28,74.62.42l10.2.06c3.38.02,6.81-.12,10.16.33l-2.66-.36c1.4.22,2.75.55,4.06,1.08l-2.39-1.01c1.34.57,2.57,1.3,3.74,2.17l-2.02-1.56c1.64,1.28,3.05,2.77,4.31,4.41l-1.56-2.02c2.76,3.66,4.75,7.82,6.53,12.02l-1.01-2.39c.48,1.15.94,2.3,1.4,3.45l6.98-12.3c-1.59.28-3.19.53-4.79.75l2.66-.36c-10.84,1.42-21.72,1.07-32.53-.37l2.66.36c-25.08-3.4-49.32-11.7-74.7-13.14-7.64-.43-15.16.03-22.73,1.06-2.29.31-4.87,2.7-5.98,4.6-1.25,2.14-1.79,5.3-1.01,7.71s2.28,4.75,4.6,5.98l2.39,1.01c1.77.48,3.54.48,5.32,0l.44-.06-2.66.36c10.26-1.35,20.62-.91,30.86.45l-2.66-.36c26.2,3.53,51.53,12.48,78.12,13.31,8.5.27,16.98-.51,25.34-2,2.24-.4,4.94-2.63,5.98-4.6,1.18-2.23,1.98-5.25,1.01-7.71-3.06-7.74-6.3-15.39-11.96-21.64-3.17-3.5-7.09-5.94-11.48-7.59s-9.83-1.54-14.67-1.57l-55.47-.31-31.09-.17c-5.23-.03-10.24,4.62-10,10s4.39,9.97,10,10h0Z"/>
    <path class="cls-7" d="M370.46,22.3h-32.42c-5.23,0-10.24,4.6-10,10s4.39,10,10,10h32.42c5.23,0,10.24-4.6,10-10s-4.39-10-10-10h0Z"/>
    <path class="cls-7" d="M393.5,50.74c5.23,0,10.24-4.6,10-10s-4.39-10-10-10c-5.23,0-10.24,4.6-10,10s4.39,10,10,10h0Z"/>
    <path class="cls-7" d="M398.98,29.76c-1.63-5.9-3.84-11.63-5.89-17.39-.89-2.48-2.26-4.61-4.6-5.98-2.14-1.25-5.3-1.79-7.71-1.01s-4.75,2.28-5.98,4.6-1.91,5.19-1.01,7.71c2.06,5.76,4.26,11.49,5.89,17.39.67,2.43,2.42,4.7,4.6,5.98s5.3,1.79,7.71,1.01,4.75-2.28,5.98-4.6,1.74-5.06,1.01-7.71h0Z"/>
  </g>
  <g id="Capa">
    <path class="cls-1" d="M403.85,262.4c.09-2.87.01-5.72-.17-8.56.24-1.57.38-3.18.38-4.83v-32.28c.05-1.54-.03-3.03-.23-4.49-.07-3.93-.13-7.87-.2-11.8-.06-3.33-.18-6.68-.08-10.01.71-3.14.8-6.27.3-9.41.17-1.35.26-2.73.27-4.13-.15-3.62-.03-7.24.35-10.84.09-2.66-.21-5.2-.89-7.62.2-1.32-.07-2.62-.09-3.98-.02-1.97-.02-3.94-.02-5.91,0-3.34,0-6.69,0-10.03.37-.5.61-1.12.61-1.84,0-3.32,0-6.65,0-9.97-.01-2.66-.02-5.36-.5-7.97.36-1.16.56-2.37.49-3.61-.18-3.55-.37-7.1-.55-10.65.26-1.01.41-2.06.41-3.15-.03-5.8-.06-11.61-.09-17.41.2-.89.31-1.81.26-2.75-.17-3.35-.36-6.71-.5-10.06.09-.61.15-1.23.15-1.87-.04-1.67-.07-3.34-.11-5,.06-.51.09-1.03.09-1.55.01-.86.03-1.72.04-2.59.03-.98-.08-1.91-.31-2.81.02-.45.02-.9.05-1.35.01-.23,0-.47-.01-.71.61-1.98.79-4.09.4-6.16.29-.55.41-1.21.35-1.91-.06-.91.14-1.8.14-2.72,0-.84-.16-1.67-.1-2.51.13-.87.23-1.69.03-2.61-.04-.2-.12-.4-.2-.58-.24-1.18-1.06-2.18-2.46-2.18-.67,0-1.2.23-1.6.6-2.38,0-4.76-.01-7.14,0-1.02-.2-2.07-.28-3.11-.23-1,.04-2.01.17-3.01.33-.61-.12-1.23-.2-1.88-.2-.32,0-.64,0-.95,0-.62-.06-1.26-.07-1.91,0-9.31,0-18.62,0-27.93,0-.76-.2-1.55-.31-2.38-.31h-32.2c-.78,0-1.55.12-2.3.32-.81-.23-1.67-.35-2.56-.34-11.96.21-23.92.16-35.87-.16-.46-.01-.92.03-1.38.1-1-.36-2.07-.56-3.2-.55-8.27.06-16.53.11-24.8.17-.24,0-.49.03-.73.05-.79-.22-1.62-.35-2.49-.35h-31.52c-1.12,0-2.22.23-3.28.64-.72-.18-1.48-.28-2.26-.27-11.67.05-23.35.01-35.02-.11-.44,0-.88.04-1.32.1-.44-.06-.88-.1-1.33-.1h-29.04c-.43,0-.85.04-1.27.11-.49-.07-.98-.11-1.5-.09-8.66.3-17.33.3-25.99-.01-.9-.03-1.79.11-2.66.37-.54-.1-1.08-.16-1.64-.15-7.8.12-15.68.56-23.44-.55-.97-.14-2.06.08-3.14.5-1.56-.37-3.17-.39-4.74.12-1.6.06-3.21-.02-4.8-.02-1.85,0-3.7.03-5.55-.14-2.25-.42-4.53-.88-6.79-.62-1.12-.05-2.18.15-3.18.57-1.57-.34-3.25-.65-4.84-.53-1.79.13-3.81.2-5.63.78-.11,0-.21,0-.32,0-.57-.05-1.15-.09-1.73-.09-.89-.02-1.77-.07-2.66-.14-2.76-.94-5.52-1.07-8.28-.38-.01,0-.02,0-.03,0-1.2-.23-2.42-.37-3.68-.37l-6.93-.04c-.39-.25-.85-.41-1.33-.47-3.21-.39-6.36-1.43-9.56-2.06-.1-.1-.22-.17-.33-.25.02-.04.05-.07.07-.11.03.07.06.14.11.2.11.13.3.22.47.22.34-.02.68-.32.66-.74-.03-.61-.19-1.19-.31-1.79,0-.04-.01-.08-.02-.12.07-.38.11-.78.1-1.18-.04-1.77-.08-3.55,0-5.32.19-.38.36-.77.49-1.21.49-1.62.97-3.23,1.46-4.85,1.1-.88,1.91-2.19,2.14-3.67.03-.03.07-.05.1-.09,1.5-1.59,3.11-3.03,4.82-4.34,1.28-.5,2.57-1.03,3.88-1.54.15.05.31.08.49.08,2.12.02,4.26.11,6.38-.03.8-.05,1.61-.2,2.42-.34.36.52.9.9,1.51.82.18-.02.35-.06.52-.11,0,.01,0,.02,0,.04.76-.11,1.52-.26,2.28-.43.31.3.72.5,1.25.5h17.36c.25,0,.47-.05.68-.13.14.04.29.06.45.06,3.09.05,6.19.09,9.28.02,1.59-.04,3.27.02,4.84-.29.12-.02.23-.06.34-.1.26.16.57.26.93.26h55.26c.16.04.34.06.53.05,16.19-.87,32.39-.75,48.59-.57.31.32.74.52,1.29.51,16.25-.3,32.49-.59,48.74-.67.31.57.83,1.01,1.57,1.08,1.01.1,2-.01,2.95-.29.14.03.28.05.43.05h36.23c.32,0,.6-.07.84-.19.19.07.38.12.59.12,1.73.03,3.43-.45,5.08-.73.03.03.05.07.08.1.41.42.85.57,1.4.65,1.91.26,3.9.01,5.74-.65.05.08.1.15.17.22.18.22.39.37.64.46.24.14.49.2.76.19.18-.03.35-.05.53-.08.06-.02.11-.05.17-.08,18.07-.01,36.14-.02,54.22-.03.37,0,.69-.1.95-.27,16.1.05,32.21.11,48.31.16.2.08.42.13.67.13,1.47,0,2.09-1.48,1.86-2.72,0-.91,0-1.82,0-2.74,0-1.35-1.27-2.62-2.5-2.13-.43.17-.86.31-1.29.44-.17-.06-.36-.11-.56-.11-1.23-.02-2.44.07-3.64.23-.26-.16-.57-.27-.95-.27-12-.13-23.99-.1-35.99.08-.07-.02-.14-.04-.22-.05-1.64-.17-3.24-.11-4.85.08-.32-.35-.75-.58-1.33-.58h-56.11c-.58,0-1.02.23-1.33.58-16.38.38-32.76.33-49.14-.15-.27-.17-.59-.28-.98-.28-9.59.06-19.18.13-28.77.19l-14.12.09c-2.44.02-4.88.02-7.32.05-.49,0-.97.04-1.42.12-.43-.41-1-.64-1.69-.49-3.8.81-7.87.41-11.72.4-4.04,0-8.07,0-12.11-.01-8.07,0-16.15-.01-24.22-.02-.13,0-.26.02-.38.04-.18-.06-.38-.11-.6-.11-18.63-.21-37.26-.21-55.89,0-.38,0-.7.11-.96.29-.34-.03-.68-.02-1.02-.03-1.54-.02-3.07-.03-4.61-.03-3.13,0-6.25.05-9.37.13-.17,0-.34.04-.5.09-.12,0-.25,0-.37,0,0,0-.01,0-.02,0,0,0,0,0,0,0-2.73,0-5.45,0-8.18.01-2.95,0-5.9.07-8.83-.34-.16-.02-.31,0-.46.03-.02,0-.03-.01-.05-.01-1.27-.22-2.94-.47-4.15.15-.74-.02-1.49-.04-2.19-.04-.1,0-.2,0-.29,0-1.85-.02-3.71-.02-5.56,0-.51,0-.98.24-1.34.61-2.12.12-4.23.37-6.3.91-1.64.43-3.12,1.24-4.73,1.79-.84.29-1.66.48-2.47.89-.74.38-1.41.9-2.08,1.42-.02.01-.03.03-.05.05-1.77.15-3.44,1.38-4.31,3.1-.99.62-1.81,1.61-2.5,2.6-.62.9-1.26,1.79-1.75,2.79-1.21,2.48-1.87,5.52-1.27,8.32-.29.04-.56.28-.56.71,0,1.76,0,3.52,0,5.27-.11.48-.14.98.02,1.43.1.28.19.56.3.84-.09.23-.17.46-.26.69-.13.52-.13,1.04,0,1.56,0,.05.02.09.04.14,0,.01,0,.02.01.04,0,0,0,.01,0,.02.07.18.14.38.21.57-.03.15-.06.3-.08.46-.09.65-.19,1.32-.17,1.98.01.41.05.81.15,1.19.08,1.92.09,3.83-.02,5.75-.11,1.93-.64,4.07-.23,5.97.03.12.07.22.1.33-.17,1.93-.21,3.86-.2,5.8,0,.45.11.88.28,1.26l-.12,1.04c0,.73.04,1.45.1,2.17-.03.24-.06.48-.09.71,0,1.55.14,3.06.39,4.54-.18,1.2-.3,2.42-.3,3.67v34.43c-.3,1.54-.46,3.14-.46,4.78,0,3.51.01,7.02.02,10.54,0,3.47-.11,6.98.16,10.44.27,3.52.31,6.91.07,10.43-.25,3.52-.52,7.04-.15,10.56-.05,1.57.07,3.09.35,4.56-.06.7-.11,1.42-.11,2.14-.1,10.93-.2,21.86-.29,32.78-.04,1.2.02,2.37.17,3.5-.22,1.37-.34,2.76-.34,4.19-.02.56-.01,1.12.02,1.68.02.28.04.56.07.84.05.5.11,1,.17,1.5,0,.84-.03,1.69-.13,2.53-.04,1.05.01,2.08.13,3.08,0,.03,0,.07,0,.1-.11.96-.19,1.94-.19,2.94-.01,14.73-.02,29.46-.04,44.19,0,.16.02.32.02.49-.26,1.43-.4,2.91-.41,4.43-.03,13.53-.05,27.07-.08,40.6,0,.67.04,1.35.09,2.03-.22,1.35-.34,2.74-.31,4.15.2,11.85.41,23.71.61,35.56-.04.3-.08.64-.13,1.06-.46,1.92-.48,3.84-.09,5.75-.17,1.19-.29,2.4-.28,3.65.06,13.35.11,26.69.17,40.04,0,1.74.18,3.44.5,5.08.04,14.51.09,29.02.13,43.53-.49,1.94-.74,3.96-.72,6.04.19,14.21.37,28.41.56,42.62.01.81.07,1.63.15,2.44-.05.69-.09,1.39-.09,2.1,0,3.2,0,6.4,0,9.6,0,1.57,0,3.14,0,4.7,0,1.39-.03,2.82,0,4.25-.03.28-.07.56-.1.84.01,4.25.97,8.21,2.88,11.88,1.1,1.59,2.2,3.18,3.3,4.76,2.63,2.92,5.73,4.93,9.31,6.05.04.01.08.02.11.03.02,0,.04,0,.06.01,0,0,.02,0,.03,0,1.87.28,3.74.56,5.61.84.08.01.16.02.25.02.04,0,.08,0,.12,0,.35-.03.81-.09,1.26-.16.01,0,.03,0,.04,0,1.33.08,2.66.08,3.98-.02,4.49-.31,9.1-.97,13.43-2.43,1.18-.31,2.29-.78,3.34-1.35.32,0,.64,0,.97,0,.75.08,1.51.11,2.29.08,5.9.07,11.81.04,17.71-.1.02,0,.05,0,.07,0,2.66.34,5.32.5,7.97.32,3.01.45,6.06.68,9.17.69,8.88.14,17.76.12,26.64-.05,2.92.12,5.76-.03,8.56-.4,1.44.1,2.88.16,4.35.16,1.65.08,3.31.15,4.96.14,1.06,0,2.14-.06,3.24-.13,5.12,0,10.23.02,15.35.02,3.28.14,6.48-.06,9.6-.55,2.78.56,5.55.47,8.33-.29,2.8-.02,5.6-.03,8.4-.05,1.74.4,3.53.61,5.37.62,12.01.61,24.03.57,36.04-.09,1.36.25,2.76.38,4.18.35,8.66-.16,17.32-.32,25.98-.47.59.02,1.17.01,1.75-.01,3.1.61,6.19.61,9.29-.01.02,0,.04,0,.06,0,7.71.33,15.42.47,23.13.41,1.05.04,2.07,0,3.07-.13.59.04,1.19.07,1.79.07,4.48.42,8.94-.06,13.4-.46,1.95.51,3.95.78,6.03.79,4.91-.35,9.84.39,14.74-.12,1.58-.16,3.18-.32,4.78-.54,1.9.35,3.88.57,6.02.62.57.02,1.14.01,1.7-.01,1.85.14,3.72.14,5.66-.12.42.03.84.06,1.26.07,2.24.06,4.47-.11,6.7-.4.82.09,1.65.14,2.49.15,1.82.24,3.63.3,5.46.19,1.45.06,2.86-.04,4.24-.3,1.44.2,2.9.34,4.36.37,2.82.06,5.64-.19,8.46-.03,1.04.04,2.06,0,3.06-.12.46.05.92.11,1.38.16.4.05.79.11,1.19.14.18.03.37.04.55.03.7-.11,1.41-.21,2.11-.32,1.57.03,3.14-.14,4.71-.53.64-.03,1.26-.11,1.89-.21,2.2.46,4.8.33,6.17.36,1.01.02,2.02.04,3.02.06,1.01.02,2.2.23,3.18-.07.08-.02.14-.06.22-.09.33.18.7.29,1.11.3,1,.04,1.99.06,2.99.05.08,0,.15,0,.23,0,.36.23.79.38,1.3.38,2.26,0,3.01-2.6,2.26-4.35,0,0,0,0,0-.01.08-1.64-.16-3.27-.22-4.91.03-.06.08-.11.11-.17.44-.86.38-1.87.37-2.83-.03-3.17-.05-6.35-.08-9.52,0-.59-.17-1.14-.45-1.61.25-2.09.5-4.19.76-6.28,0-2.08-.2-4.11-.57-6.08.08-.93.13-1.86.14-2.81,0-.58,0-1.16,0-1.74.06-.83.11-1.66.11-2.51.05-1.48-.02-2.96-.16-4.44-.06-4.48-.18-8.95-.37-13.42.12-1.11.19-2.25.19-3.4,0-4.72,0-9.45,0-14.17.04-1.26-.01-2.5-.14-3.71.25-1.62.38-3.27.39-4.96-.12-1.3-.22-2.61-.31-3.92.52-7.18.63-14.38.29-21.57.05-1.57-.03-3.1-.25-4.58.37-2.83.37-5.67,0-8.5-.04-2,.01-4,.02-5.98,0-3.4,0-6.81,0-10.21,0-5.51,0-11.02,0-16.54.17-1.35.26-2.73.27-4.13.12-5.08.25-10.18,0-15.26-.09-1.94-.26-3.88-.46-5.81.41-2.08.63-4.21.64-6.41-.02-7.57-.1-15.13-.23-22.7.04-1.24-.01-2.45-.14-3.64.38-1.94.58-3.94.56-6-.04-6.96-.09-13.92-.13-20.88-.03-5.56-.08-11.03-.49-16.5.9-4.33.93-8.66.1-12.99ZM398.51,527.39s0-.01-.01-.02c0,0,0,0,.01,0,0,0,0,.01,0,.02Z"/>
  </g>
  <g id="Traçado">
    <line class="cls-6" x1="394.78" y1="14.72" x2="17.99" y2="14.27"/>
    <line class="cls-6" x1="14.89" y1="20.13" x2="396.63" y2="20.13"/>
    <line class="cls-6" x1="398.67" y1="26.08" x2="13.7" y2="26.03"/>
    <line class="cls-6" x1="13.69" y1="31.84" x2="400.88" y2="31.97"/>
    <path class="cls-4" d="M1.69,28.78S.14,495.6,1.69,519.87c1.79,28.04,41.31,14.59,41.31,14.59h360.94V36.89s-259.82-.85-361.31-.85C5.8,36.04,4.09,26.62,2.89,24.72c-1.57-2.46-1.73-5.4.29-8.91C13.45-2.01,41.71,1.23,41.71,1.23h350.67l.12,6.81,8.19,23.93,3.25,4.5"/>
    <line class="cls-3" x1="42.63" y1="36.04" x2="43" y2="534.46"/>
    <path class="cls-4" d="M13.69,33.17c-4.84-20.55,12.43-24.75,12.43-24.75h366.56"/>
    <line class="cls-3" x1="1.68" y1="30.92" x2="1.69" y2="21.14"/>
  </g>
  <g id="Rosto">
    <ellipse class="cls-5" cx="123.39" cy="259.35" rx="63.46" ry="63.27"/>
    <ellipse class="cls-5" cx="323.23" cy="258.71" rx="63.46" ry="63.27"/>
    <line class="cls-5" x1="186.85" y1="259.35" x2="259.77" y2="258.71"/>
    <line class="cls-5" x1="386.69" y1="246.69" x2="395.35" y2="246.69"/>
    <line class="cls-5" x1="59.93" y1="259.35" x2="50.6" y2="258.71"/>
    <ellipse class="cls-2" cx="122.58" cy="259.35" rx="28.19" ry="39.04"/>
    <ellipse class="cls-9" cx="122.58" cy="266.82" rx="15.51" ry="16.81"/>
    <path class="cls-8" d="M100.44,235.19s8.62-6.06,21.71-6.09c6.58-.01,14.83-.63,22.58,6.09,0,0-7.13-14.91-22.15-14.88-15.02.03-22.14,14.88-22.14,14.88Z"/>
    <ellipse class="cls-2" cx="323.23" cy="256.59" rx="28.19" ry="39.04"/>
    <ellipse class="cls-9" cx="322.11" cy="264.07" rx="15.51" ry="16.81"/>
    <path class="cls-8" d="M301.08,232.44s8.62-6.06,21.71-6.09c6.58-.01,14.83-.63,22.58,6.09,0,0-7.13-14.91-22.15-14.88-15.02.03-22.14,14.88-22.14,14.88Z"/>
    <path class="cls-2" d="M182.24,299.69s41.58,78.65,83.1,0"/>
  </g>
</svg>