<svg width="313" height="55" viewBox="0 0 313 55" fill="none" xmlns="http://www.w3.org/2000/svg">
<path d="M54.6802 32.95L55.0402 29.08H65.4502L65.7802 32.95H54.6802ZM60.1702 23.71L57.2302 30.49L57.4702 31.6L54.8602 37H49.1302L60.1702 14.68L71.2402 37H65.4802L62.9602 31.81L63.1402 30.52L60.1702 23.71ZM73.4407 16H78.5107V37H73.4407V16ZM76.6207 20.17V16H80.7307C82.5107 16 84.0007 16.28 85.2007 16.84C86.4207 17.38 87.3407 18.16 87.9607 19.18C88.5807 20.2 88.8907 21.43 88.8907 22.87C88.8907 24.27 88.5807 25.49 87.9607 26.53C87.3407 27.55 86.4207 28.34 85.2007 28.9C84.0007 29.44 82.5107 29.71 80.7307 29.71H76.6207V25.54H80.7307C81.7507 25.54 82.5507 25.31 83.1307 24.85C83.7107 24.39 84.0007 23.73 84.0007 22.87C84.0007 21.99 83.7107 21.32 83.1307 20.86C82.5507 20.4 81.7507 20.17 80.7307 20.17H76.6207ZM97.3821 27.49H102.632L109.202 37H103.262L97.3821 27.49ZM92.1321 16H97.2021V37H92.1321V16ZM95.3121 20.29V16H99.7821C101.582 16 103.082 16.29 104.282 16.87C105.482 17.45 106.392 18.26 107.012 19.3C107.632 20.32 107.942 21.51 107.942 22.87C107.942 24.21 107.632 25.4 107.012 26.44C106.392 27.46 105.482 28.26 104.282 28.84C103.082 29.42 101.582 29.71 99.7821 29.71H95.3121V25.78H99.4221C100.102 25.78 100.682 25.68 101.162 25.48C101.662 25.26 102.042 24.95 102.302 24.55C102.562 24.13 102.692 23.63 102.692 23.05C102.692 22.47 102.562 21.98 102.302 21.58C102.042 21.16 101.662 20.84 101.162 20.62C100.682 20.4 100.102 20.29 99.4221 20.29H95.3121ZM114.916 37V32.83H125.506V37H114.916ZM114.916 20.17V16H125.506V20.17H114.916ZM114.916 28V23.92H124.906V28H114.916ZM111.556 16H116.416V37H111.556V16ZM144.122 16H149.012V38.05L134.492 25.18V37H129.632V14.95L144.122 27.82V16ZM153.45 16H158.67V37H153.45V16ZM160.95 37H156.81V32.5H160.77C161.57 32.5 162.34 32.4 163.08 32.2C163.84 32 164.5 31.67 165.06 31.21C165.64 30.75 166.1 30.14 166.44 29.38C166.78 28.6 166.95 27.64 166.95 26.5C166.95 25.36 166.78 24.41 166.44 23.65C166.1 22.87 165.64 22.25 165.06 21.79C164.5 21.33 163.84 21 163.08 20.8C162.34 20.6 161.57 20.5 160.77 20.5H156.81V16H160.95C163.25 16 165.24 16.43 166.92 17.29C168.6 18.15 169.9 19.36 170.82 20.92C171.74 22.48 172.2 24.34 172.2 26.5C172.2 28.64 171.74 30.5 170.82 32.08C169.9 33.64 168.6 34.85 166.92 35.71C165.24 36.57 163.25 37 160.95 37ZM177.844 32.95L178.204 29.08H188.614L188.944 32.95H177.844ZM183.334 23.71L180.394 30.49L180.634 31.6L178.024 37H172.294L183.334 14.68L194.404 37H188.644L186.124 31.81L186.304 30.52L183.334 23.71ZM196.335 31.12V26.74H212.655V31.12H196.335ZM202.155 20.8H206.835V37.06H202.155V20.8ZM229.174 37V32.83H239.764V37H229.174ZM229.174 20.17V16H239.764V20.17H229.174ZM229.174 28V23.92H239.164V28H229.174ZM225.814 16H230.674V37H225.814V16ZM258.38 16H263.27V38.05L248.75 25.18V37H243.89V14.95L258.38 27.82V16ZM271.068 37V32.83H281.658V37H271.068ZM271.068 20.17V16H281.658V20.17H271.068ZM271.068 28V23.92H281.058V28H271.068ZM267.708 16H272.568V37H267.708V16ZM291.184 26.29L289.924 37H284.584L287.974 14.95L296.914 27.76L305.884 14.95L309.274 37H303.934L302.674 26.29L296.914 35.05L291.184 26.29Z" fill="white"/>
<g filter="url(#filter0_d_449_2120)">
<path d="M18.4007 11.9638C29.1105 -4.27578 36.2769 10.6687 32.1186 11.861C27.9603 13.0534 18.5876 41.1459 21.099 43.5999C23.6103 46.0538 7.60905 50.036 5.56368 44.3428C3.51832 38.6495 7.69099 28.2034 18.4007 11.9638Z" fill="#290A38"/>
</g>
<g filter="url(#filter1_d_449_2120)">
<path d="M25.8581 12.5669C15.1483 -3.67275 7.98193 11.2717 12.1402 12.4641C16.2985 13.6564 25.6712 41.749 23.1598 44.2029C20.6485 46.6569 36.6497 50.639 38.6951 44.9458C40.7405 39.2526 36.5678 28.8065 25.8581 12.5669Z" fill="#E06009"/>
</g>
<defs>
<filter id="filter0_d_449_2120" x="0.0299631" y="0.626918" width="38.318" height="52.8727" filterUnits="userSpaceOnUse" color-interpolation-filters="sRGB">
<feFlood flood-opacity="0" result="BackgroundImageFix"/>
<feColorMatrix in="SourceAlpha" type="matrix" values="0 0 0 0 0 0 0 0 0 0 0 0 0 0 0 0 0 0 127 0" result="hardAlpha"/>
<feMorphology radius="1.51524" operator="dilate" in="SourceAlpha" result="effect1_dropShadow_449_2120"/>
<feOffset dy="1.21219"/>
<feGaussianBlur stdDeviation="1.75767"/>
<feComposite in2="hardAlpha" operator="out"/>
<feColorMatrix type="matrix" values="0 0 0 0 0 0 0 0 0 0 0 0 0 0 0 0 0 0 0.38 0"/>
<feBlend mode="normal" in2="BackgroundImageFix" result="effect1_dropShadow_449_2120"/>
<feBlend mode="normal" in="SourceGraphic" in2="effect1_dropShadow_449_2120" result="shape"/>
</filter>
<filter id="filter1_d_449_2120" x="5.91082" y="1.22994" width="38.318" height="52.8727" filterUnits="userSpaceOnUse" color-interpolation-filters="sRGB">
<feFlood flood-opacity="0" result="BackgroundImageFix"/>
<feColorMatrix in="SourceAlpha" type="matrix" values="0 0 0 0 0 0 0 0 0 0 0 0 0 0 0 0 0 0 127 0" result="hardAlpha"/>
<feMorphology radius="1.51524" operator="dilate" in="SourceAlpha" result="effect1_dropShadow_449_2120"/>
<feOffset dy="1.21219"/>
<feGaussianBlur stdDeviation="1.75767"/>
<feComposite in2="hardAlpha" operator="out"/>
<feColorMatrix type="matrix" values="0 0 0 0 0 0 0 0 0 0 0 0 0 0 0 0 0 0 0.38 0"/>
<feBlend mode="normal" in2="BackgroundImageFix" result="effect1_dropShadow_449_2120"/>
<feBlend mode="normal" in="SourceGraphic" in2="effect1_dropShadow_449_2120" result="shape"/>
</filter>
</defs>
</svg>
