<svg width="147" height="55" viewBox="0 0 147 55" fill="none" xmlns="http://www.w3.org/2000/svg">
<g filter="url(#filter0_d_499_2233)">
<path d="M18.753 11.8914C29.4628 -4.34823 36.6292 10.5962 32.4709 11.7886C28.3126 12.9809 18.9399 41.0735 21.4513 43.5274C23.9626 45.9814 7.96134 49.9636 5.91598 44.2703C3.87062 38.5771 8.04329 28.131 18.753 11.8914Z" fill="#290A38"/>
</g>
<g filter="url(#filter1_d_499_2233)">
<path d="M26.2106 12.4943C15.5009 -3.74531 8.33447 11.1992 12.4927 12.3915C16.651 13.5838 26.0237 41.6764 23.5124 44.1304C21.001 46.5843 37.0023 50.5665 39.0476 44.8732C41.093 39.18 36.9203 28.7339 26.2106 12.4943Z" fill="#E06009"/>
</g>
<g filter="url(#filter2_dd_499_2233)">
<path d="M53.0391 14.4351L53.2461 12.2093H59.2332L59.423 14.4351H53.0391ZM56.1965 9.12088L54.5057 13.0203L54.6437 13.6587L53.1426 16.7644H49.8471L56.1965 3.92746L62.5632 16.7644H59.2505L57.8012 13.7794L57.9047 13.0375L56.1965 9.12088Z" fill="white"/>
<path d="M63.8288 4.68663H66.7447V16.7644H63.8288V4.68663ZM65.6577 7.08492V4.68663H68.0215C69.0453 4.68663 69.9022 4.84767 70.5923 5.16974C71.294 5.48031 71.8231 5.92891 72.1797 6.51554C72.5363 7.10217 72.7146 7.80958 72.7146 8.63777C72.7146 9.44295 72.5363 10.1446 72.1797 10.7427C71.8231 11.3294 71.294 11.7837 70.5923 12.1058C69.9022 12.4164 69.0453 12.5717 68.0215 12.5717H65.6577V10.1734H68.0215C68.6082 10.1734 69.0683 10.0411 69.4018 9.77653C69.7354 9.51197 69.9022 9.13238 69.9022 8.63777C69.9022 8.13166 69.7354 7.74632 69.4018 7.48176C69.0683 7.2172 68.6082 7.08492 68.0215 7.08492H65.6577Z" fill="white"/>
<path d="M77.5982 11.2949H80.6177L84.3963 16.7644H80.98L77.5982 11.2949ZM74.5788 4.68663H77.4947V16.7644H74.5788V4.68663ZM76.4077 7.15394V4.68663H78.9785C80.0138 4.68663 80.8765 4.85342 81.5666 5.18699C82.2568 5.52057 82.7802 5.98642 83.1367 6.58456C83.4933 7.17119 83.6716 7.8556 83.6716 8.63777C83.6716 9.40845 83.4933 10.0928 83.1367 10.691C82.7802 11.2776 82.2568 11.7377 81.5666 12.0713C80.8765 12.4049 80.0138 12.5717 78.9785 12.5717H76.4077V10.3114H78.7715C79.1626 10.3114 79.4962 10.2539 79.7722 10.1389C80.0598 10.0123 80.2783 9.83404 80.4279 9.60399C80.5774 9.36243 80.6522 9.07487 80.6522 8.74129C80.6522 8.40772 80.5774 8.12591 80.4279 7.89585C80.2783 7.6543 80.0598 7.47026 79.7722 7.34373C79.4962 7.2172 79.1626 7.15394 78.7715 7.15394H76.4077Z" fill="white"/>
<path d="M87.6825 16.7644V14.3661H93.7731V16.7644H87.6825ZM87.6825 7.08492V4.68663H93.7731V7.08492H87.6825ZM87.6825 11.5882V9.24166H93.428V11.5882H87.6825ZM85.75 4.68663H88.5452V16.7644H85.75V4.68663Z" fill="white"/>
<path d="M104.48 4.68663H107.292V17.3682L98.9413 9.96632V16.7644H96.1462V4.08274L104.48 11.4847V4.68663Z" fill="white"/>
<path d="M109.845 4.68663H112.847V16.7644H109.845V4.68663ZM114.158 16.7644H111.777V14.1763H114.055C114.515 14.1763 114.958 14.1188 115.383 14.0037C115.82 13.8887 116.2 13.6989 116.522 13.4344C116.856 13.1698 117.12 12.819 117.316 12.3819C117.511 11.9333 117.609 11.3811 117.609 10.7255C117.609 10.0698 117.511 9.52347 117.316 9.08637C117.12 8.63777 116.856 8.28119 116.522 8.01663C116.2 7.75207 115.82 7.56228 115.383 7.44725C114.958 7.33223 114.515 7.27471 114.055 7.27471H111.777V4.68663H114.158C115.481 4.68663 116.626 4.93394 117.592 5.42855C118.558 5.92316 119.306 6.61907 119.835 7.51627C120.364 8.41347 120.628 9.48321 120.628 10.7255C120.628 11.9563 120.364 13.026 119.835 13.9347C119.306 14.8319 118.558 15.5278 117.592 16.0224C116.626 16.517 115.481 16.7644 114.158 16.7644Z" fill="white"/>
<path d="M123.874 14.4351L124.081 12.2093H130.069L130.258 14.4351H123.874ZM127.032 9.12088L125.341 13.0203L125.479 13.6587L123.978 16.7644H120.682L127.032 3.92746L133.399 16.7644H130.086L128.636 13.7794L128.74 13.0375L127.032 9.12088Z" fill="white"/>
<path d="M134.509 13.3826V10.8635H143.895V13.3826H134.509ZM137.856 7.44725H140.548V16.7989H137.856V7.44725Z" fill="white"/>
<path d="M53.3334 48.0727V43.3312H65.3746V48.0727H53.3334ZM53.3334 28.9363V24.1949H65.3746V28.9363H53.3334ZM53.3334 37.8393V33.2002H64.6924V37.8393H53.3334ZM49.5129 24.1949H55.0389V48.0727H49.5129V24.1949Z" fill="white"/>
<path d="M86.5419 24.1949H92.102V49.2666L75.5922 34.6329V48.0727H70.0662V23.001L86.5419 37.6347V24.1949Z" fill="white"/>
<path d="M100.969 48.0727V43.3312H113.01V48.0727H100.969ZM100.969 28.9363V24.1949H113.01V28.9363H100.969ZM100.969 37.8393V33.2002H112.328V37.8393H100.969ZM97.1486 24.1949H102.675V48.0727H97.1486V24.1949Z" fill="white"/>
<path d="M123.842 35.895L122.409 48.0727H116.337L120.192 23.001L130.357 37.5665L140.556 23.001L144.411 48.0727H138.339L136.906 35.895L130.357 45.8555L123.842 35.895Z" fill="white"/>
</g>
<defs>
<filter id="filter0_d_499_2233" x="0.382258" y="0.55456" width="38.3178" height="52.8725" filterUnits="userSpaceOnUse" color-interpolation-filters="sRGB">
<feFlood flood-opacity="0" result="BackgroundImageFix"/>
<feColorMatrix in="SourceAlpha" type="matrix" values="0 0 0 0 0 0 0 0 0 0 0 0 0 0 0 0 0 0 127 0" result="hardAlpha"/>
<feMorphology radius="1.51524" operator="dilate" in="SourceAlpha" result="effect1_dropShadow_499_2233"/>
<feOffset dy="1.21219"/>
<feGaussianBlur stdDeviation="1.75767"/>
<feComposite in2="hardAlpha" operator="out"/>
<feColorMatrix type="matrix" values="0 0 0 0 0 0 0 0 0 0 0 0 0 0 0 0 0 0 0.38 0"/>
<feBlend mode="normal" in2="BackgroundImageFix" result="effect1_dropShadow_499_2233"/>
<feBlend mode="normal" in="SourceGraphic" in2="effect1_dropShadow_499_2233" result="shape"/>
</filter>
<filter id="filter1_d_499_2233" x="6.26361" y="1.15748" width="38.3178" height="52.8725" filterUnits="userSpaceOnUse" color-interpolation-filters="sRGB">
<feFlood flood-opacity="0" result="BackgroundImageFix"/>
<feColorMatrix in="SourceAlpha" type="matrix" values="0 0 0 0 0 0 0 0 0 0 0 0 0 0 0 0 0 0 127 0" result="hardAlpha"/>
<feMorphology radius="1.51524" operator="dilate" in="SourceAlpha" result="effect1_dropShadow_499_2233"/>
<feOffset dy="1.21219"/>
<feGaussianBlur stdDeviation="1.75767"/>
<feComposite in2="hardAlpha" operator="out"/>
<feColorMatrix type="matrix" values="0 0 0 0 0 0 0 0 0 0 0 0 0 0 0 0 0 0 0.38 0"/>
<feBlend mode="normal" in2="BackgroundImageFix" result="effect1_dropShadow_499_2233"/>
<feBlend mode="normal" in="SourceGraphic" in2="effect1_dropShadow_499_2233" result="shape"/>
</filter>
<filter id="filter2_dd_499_2233" x="47.2124" y="2.20207" width="99.499" height="49.9402" filterUnits="userSpaceOnUse" color-interpolation-filters="sRGB">
<feFlood flood-opacity="0" result="BackgroundImageFix"/>
<feColorMatrix in="SourceAlpha" type="matrix" values="0 0 0 0 0 0 0 0 0 0 0 0 0 0 0 0 0 0 127 0" result="hardAlpha"/>
<feMorphology radius="0.57513" operator="dilate" in="SourceAlpha" result="effect1_dropShadow_499_2233"/>
<feOffset dy="0.57513"/>
<feGaussianBlur stdDeviation="0.862694"/>
<feColorMatrix type="matrix" values="0 0 0 0 0 0 0 0 0 0 0 0 0 0 0 0 0 0 0.15 0"/>
<feBlend mode="normal" in2="BackgroundImageFix" result="effect1_dropShadow_499_2233"/>
<feColorMatrix in="SourceAlpha" type="matrix" values="0 0 0 0 0 0 0 0 0 0 0 0 0 0 0 0 0 0 127 0" result="hardAlpha"/>
<feOffset dy="0.57513"/>
<feGaussianBlur stdDeviation="0.57513"/>
<feColorMatrix type="matrix" values="0 0 0 0 0 0 0 0 0 0 0 0 0 0 0 0 0 0 0.3 0"/>
<feBlend mode="normal" in2="effect1_dropShadow_499_2233" result="effect2_dropShadow_499_2233"/>
<feBlend mode="normal" in="SourceGraphic" in2="effect2_dropShadow_499_2233" result="shape"/>
</filter>
</defs>
</svg>
