<svg width="351" height="94" viewBox="0 0 351 94" fill="none" xmlns="http://www.w3.org/2000/svg">
<g filter="url(#filter0_d_260_1077)">
<path d="M32.5167 19.8472C51.1382 -8.38919 63.5987 17.5953 56.3685 19.6685C49.1384 21.7416 32.8417 70.5872 37.2082 74.854C41.5748 79.1208 13.7527 86.0447 10.1963 76.1457C6.63997 66.2466 13.8952 48.0836 32.5167 19.8472Z" fill="#290A38"/>
</g>
<g filter="url(#filter1_d_260_1077)">
<path d="M45.4833 20.8956C26.8618 -7.34086 14.4013 18.6436 21.6314 20.7168C28.8616 22.79 45.1583 71.6356 40.7918 75.9023C36.4252 80.1691 64.2473 87.0931 67.8037 77.194C71.36 67.295 64.1048 49.132 45.4833 20.8956Z" fill="#E06009"/>
</g>
<g filter="url(#filter2_dd_260_1077)">
<path d="M91.52 51.95L91.88 48.08H102.29L102.62 51.95H91.52ZM97.01 42.71L94.07 49.49L94.31 50.6L91.7 56H85.97L97.01 33.68L108.08 56H102.32L99.8 50.81L99.98 49.52L97.01 42.71ZM110.281 35H115.351V56H110.281V35ZM113.461 39.17V35H117.571C119.351 35 120.841 35.28 122.041 35.84C123.261 36.38 124.181 37.16 124.801 38.18C125.421 39.2 125.731 40.43 125.731 41.87C125.731 43.27 125.421 44.49 124.801 45.53C124.181 46.55 123.261 47.34 122.041 47.9C120.841 48.44 119.351 48.71 117.571 48.71H113.461V44.54H117.571C118.591 44.54 119.391 44.31 119.971 43.85C120.551 43.39 120.841 42.73 120.841 41.87C120.841 40.99 120.551 40.32 119.971 39.86C119.391 39.4 118.591 39.17 117.571 39.17H113.461ZM134.222 46.49H139.472L146.042 56H140.102L134.222 46.49ZM128.972 35H134.042V56H128.972V35ZM132.152 39.29V35H136.622C138.422 35 139.922 35.29 141.122 35.87C142.322 36.45 143.232 37.26 143.852 38.3C144.472 39.32 144.782 40.51 144.782 41.87C144.782 43.21 144.472 44.4 143.852 45.44C143.232 46.46 142.322 47.26 141.122 47.84C139.922 48.42 138.422 48.71 136.622 48.71H132.152V44.78H136.262C136.942 44.78 137.522 44.68 138.002 44.48C138.502 44.26 138.882 43.95 139.142 43.55C139.402 43.13 139.532 42.63 139.532 42.05C139.532 41.47 139.402 40.98 139.142 40.58C138.882 40.16 138.502 39.84 138.002 39.62C137.522 39.4 136.942 39.29 136.262 39.29H132.152ZM151.756 56V51.83H162.346V56H151.756ZM151.756 39.17V35H162.346V39.17H151.756ZM151.756 47V42.92H161.746V47H151.756ZM148.396 35H153.256V56H148.396V35ZM180.962 35H185.852V57.05L171.332 44.18V56H166.472V33.95L180.962 46.82V35ZM190.29 35H195.51V56H190.29V35ZM197.79 56H193.65V51.5H197.61C198.41 51.5 199.18 51.4 199.92 51.2C200.68 51 201.34 50.67 201.9 50.21C202.48 49.75 202.94 49.14 203.28 48.38C203.62 47.6 203.79 46.64 203.79 45.5C203.79 44.36 203.62 43.41 203.28 42.65C202.94 41.87 202.48 41.25 201.9 40.79C201.34 40.33 200.68 40 199.92 39.8C199.18 39.6 198.41 39.5 197.61 39.5H193.65V35H197.79C200.09 35 202.08 35.43 203.76 36.29C205.44 37.15 206.74 38.36 207.66 39.92C208.58 41.48 209.04 43.34 209.04 45.5C209.04 47.64 208.58 49.5 207.66 51.08C206.74 52.64 205.44 53.85 203.76 54.71C202.08 55.57 200.09 56 197.79 56ZM214.684 51.95L215.044 48.08H225.454L225.784 51.95H214.684ZM220.174 42.71L217.234 49.49L217.474 50.6L214.864 56H209.134L220.174 33.68L231.244 56H225.484L222.964 50.81L223.144 49.52L220.174 42.71ZM233.175 50.12V45.74H249.495V50.12H233.175ZM238.995 39.8H243.675V56.06H238.995V39.8ZM266.014 56V51.83H276.604V56H266.014ZM266.014 39.17V35H276.604V39.17H266.014ZM266.014 47V42.92H276.004V47H266.014ZM262.654 35H267.514V56H262.654V35ZM295.22 35H300.11V57.05L285.59 44.18V56H280.73V33.95L295.22 46.82V35ZM307.908 56V51.83H318.498V56H307.908ZM307.908 39.17V35H318.498V39.17H307.908ZM307.908 47V42.92H317.898V47H307.908ZM304.548 35H309.408V56H304.548V35ZM328.024 45.29L326.764 56H321.424L324.814 33.95L333.754 46.76L342.724 33.95L346.114 56H340.774L339.514 45.29L333.754 54.05L328.024 45.29Z" fill="white"/>
</g>
<defs>
<filter id="filter0_d_260_1077" x="0.573754" y="0.134719" width="66.6264" height="91.9331" filterUnits="userSpaceOnUse" color-interpolation-filters="sRGB">
<feFlood flood-opacity="0" result="BackgroundImageFix"/>
<feColorMatrix in="SourceAlpha" type="matrix" values="0 0 0 0 0 0 0 0 0 0 0 0 0 0 0 0 0 0 127 0" result="hardAlpha"/>
<feMorphology radius="2.6348" operator="dilate" in="SourceAlpha" result="effect1_dropShadow_260_1077"/>
<feOffset dy="2.10784"/>
<feGaussianBlur stdDeviation="3.05637"/>
<feComposite in2="hardAlpha" operator="out"/>
<feColorMatrix type="matrix" values="0 0 0 0 0 0 0 0 0 0 0 0 0 0 0 0 0 0 0.38 0"/>
<feBlend mode="normal" in2="BackgroundImageFix" result="effect1_dropShadow_260_1077"/>
<feBlend mode="normal" in="SourceGraphic" in2="effect1_dropShadow_260_1077" result="shape"/>
</filter>
<filter id="filter1_d_260_1077" x="10.7998" y="1.18306" width="66.6264" height="91.9331" filterUnits="userSpaceOnUse" color-interpolation-filters="sRGB">
<feFlood flood-opacity="0" result="BackgroundImageFix"/>
<feColorMatrix in="SourceAlpha" type="matrix" values="0 0 0 0 0 0 0 0 0 0 0 0 0 0 0 0 0 0 127 0" result="hardAlpha"/>
<feMorphology radius="2.6348" operator="dilate" in="SourceAlpha" result="effect1_dropShadow_260_1077"/>
<feOffset dy="2.10784"/>
<feGaussianBlur stdDeviation="3.05637"/>
<feComposite in2="hardAlpha" operator="out"/>
<feColorMatrix type="matrix" values="0 0 0 0 0 0 0 0 0 0 0 0 0 0 0 0 0 0 0.38 0"/>
<feBlend mode="normal" in2="BackgroundImageFix" result="effect1_dropShadow_260_1077"/>
<feBlend mode="normal" in="SourceGraphic" in2="effect1_dropShadow_260_1077" result="shape"/>
</filter>
<filter id="filter2_dd_260_1077" x="81.9702" y="21" width="273.03" height="46" filterUnits="userSpaceOnUse" color-interpolation-filters="sRGB">
<feFlood flood-opacity="0" result="BackgroundImageFix"/>
<feColorMatrix in="SourceAlpha" type="matrix" values="0 0 0 0 0 0 0 0 0 0 0 0 0 0 0 0 0 0 127 0" result="hardAlpha"/>
<feMorphology radius="1" operator="dilate" in="SourceAlpha" result="effect1_dropShadow_260_1077"/>
<feOffset dy="1"/>
<feGaussianBlur stdDeviation="1.5"/>
<feColorMatrix type="matrix" values="0 0 0 0 0 0 0 0 0 0 0 0 0 0 0 0 0 0 0.15 0"/>
<feBlend mode="normal" in2="BackgroundImageFix" result="effect1_dropShadow_260_1077"/>
<feColorMatrix in="SourceAlpha" type="matrix" values="0 0 0 0 0 0 0 0 0 0 0 0 0 0 0 0 0 0 127 0" result="hardAlpha"/>
<feOffset dy="1"/>
<feGaussianBlur stdDeviation="1"/>
<feColorMatrix type="matrix" values="0 0 0 0 0 0 0 0 0 0 0 0 0 0 0 0 0 0 0.3 0"/>
<feBlend mode="normal" in2="effect1_dropShadow_260_1077" result="effect2_dropShadow_260_1077"/>
<feBlend mode="normal" in="SourceGraphic" in2="effect2_dropShadow_260_1077" result="shape"/>
</filter>
</defs>
</svg>
