<svg width="344" height="337" viewBox="0 0 344 337" fill="none" xmlns="http://www.w3.org/2000/svg">
<path d="M86.2853 11.2856C86.2853 8.44397 85.1564 5.71875 83.1471 3.70943C81.1378 1.70011 78.4126 0.571289 75.571 0.571289C72.7294 0.571289 70.0041 1.70011 67.9948 3.70943C65.9855 5.71875 64.8567 8.44397 64.8567 11.2856V64.857H11.2853C8.44365 64.857 5.71843 65.9858 3.70911 67.9951C1.69979 70.0045 0.570972 72.7297 0.570972 75.5713C0.570972 78.4129 1.69979 81.1381 3.70911 83.1474C5.71843 85.1568 8.44365 86.2856 11.2853 86.2856H64.8567V139.857C64.8567 142.699 65.9855 145.424 67.9948 147.433C70.0041 149.442 72.7294 150.571 75.571 150.571C78.4126 150.571 81.1378 149.442 83.1471 147.433C85.1564 145.424 86.2853 142.699 86.2853 139.857V86.2856H139.857C142.698 86.2856 145.424 85.1568 147.433 83.1474C149.442 81.1381 150.571 78.4129 150.571 75.5713C150.571 72.7297 149.442 70.0045 147.433 67.9951C145.424 65.9858 142.698 64.857 139.857 64.857H86.2853V11.2856ZM204.142 64.857C201.301 64.857 198.576 65.9858 196.566 67.9951C194.557 70.0045 193.428 72.7297 193.428 75.5713C193.428 78.4129 194.557 81.1381 196.566 83.1474C198.576 85.1568 201.301 86.2856 204.142 86.2856H332.714C335.555 86.2856 338.281 85.1568 340.29 83.1474C342.299 81.1381 343.428 78.4129 343.428 75.5713C343.428 72.7297 342.299 70.0045 340.29 67.9951C338.281 65.9858 335.555 64.857 332.714 64.857H204.142ZM204.142 250.571C201.301 250.571 198.576 251.7 196.566 253.709C194.557 255.719 193.428 258.444 193.428 261.286C193.428 264.127 194.557 266.852 196.566 268.862C198.576 270.871 201.301 272 204.142 272H332.714C335.555 272 338.281 270.871 340.29 268.862C342.299 266.852 343.428 264.127 343.428 261.286C343.428 258.444 342.299 255.719 340.29 253.709C338.281 251.7 335.555 250.571 332.714 250.571H204.142ZM268.428 229.143C274.111 229.143 279.562 226.885 283.58 222.866C287.599 218.848 289.857 213.397 289.857 207.714C289.857 202.031 287.599 196.58 283.58 192.562C279.562 188.543 274.111 186.286 268.428 186.286C262.745 186.286 257.294 188.543 253.276 192.562C249.257 196.58 247 202.031 247 207.714C247 213.397 249.257 218.848 253.276 222.866C257.294 226.885 262.745 229.143 268.428 229.143ZM289.857 314.857C289.857 320.54 287.599 325.991 283.58 330.009C279.562 334.028 274.111 336.286 268.428 336.286C262.745 336.286 257.294 334.028 253.276 330.009C249.257 325.991 247 320.54 247 314.857C247 309.174 249.257 303.723 253.276 299.705C257.294 295.686 262.745 293.428 268.428 293.428C274.111 293.428 279.562 295.686 283.58 299.705C287.599 303.723 289.857 309.174 289.857 314.857ZM3.71383 204.571C1.82126 202.54 0.790926 199.854 0.839901 197.078C0.888875 194.302 2.01333 191.654 3.97638 189.691C5.93942 187.728 8.58778 186.603 11.3635 186.554C14.1392 186.506 16.8256 187.536 18.8567 189.428L75.571 246.143L132.285 189.428C133.266 188.376 134.449 187.531 135.763 186.946C137.078 186.36 138.496 186.045 139.935 186.02C141.374 185.995 142.803 186.259 144.137 186.798C145.471 187.337 146.683 188.139 147.7 189.156C148.717 190.174 149.52 191.386 150.058 192.72C150.597 194.054 150.862 195.483 150.837 196.922C150.811 198.36 150.496 199.779 149.911 201.093C149.325 202.408 148.481 203.59 147.428 204.571L90.7138 261.286L147.428 318C149.321 320.031 150.351 322.717 150.302 325.493C150.253 328.269 149.129 330.917 147.166 332.88C145.203 334.843 142.554 335.968 139.778 336.017C137.003 336.066 134.316 335.035 132.285 333.143L75.571 276.428L18.8567 333.143C17.8758 334.195 16.6929 335.04 15.3787 335.625C14.0644 336.211 12.6456 336.526 11.207 336.551C9.7684 336.577 8.33941 336.312 7.00529 335.773C5.67118 335.234 4.45926 334.432 3.44185 333.415C2.42444 332.397 1.62238 331.185 1.0835 329.851C0.544632 328.517 0.279996 327.088 0.305378 325.65C0.330761 324.211 0.645645 322.792 1.23124 321.478C1.81684 320.164 2.66116 318.981 3.71383 318L60.4281 261.286L3.71383 204.571Z" fill="#9142EB"/>
</svg>
