<svg width="49" height="44" viewBox="0 0 49 44" fill="none" xmlns="http://www.w3.org/2000/svg">
<path d="M26.7539 3.75835V7.42501C35.5589 8.41501 41.7966 15.73 40.7136 23.7783C39.7909 30.4517 34.0546 35.75 26.7539 36.5383V40.205C37.7852 39.1967 45.808 30.25 44.7049 20.1667C43.8023 11.4583 36.2409 4.58335 26.7539 3.72168V3.75835ZM12.0521 36.19C15.0907 38.5044 18.8101 39.9459 22.7425 40.3333V36.6667C19.8891 36.3296 17.1874 35.2975 14.9203 33.6783L12.0521 36.19ZM14.9203 10.5233C17.1667 8.87335 19.8744 7.81001 22.7425 7.44335V3.77668C18.8314 4.12501 15.1008 5.50001 12.0521 7.81001L14.9203 10.5233ZM12.0922 13.0167L9.2241 10.395C6.71786 13.1777 5.17478 16.5794 4.7915 20.1667H8.8029C9.18398 17.5633 10.3072 15.0883 12.0922 13.0167ZM8.82296 23.8333H4.81156C5.2127 27.4267 6.75709 30.8183 9.24415 33.605L12.0922 30.9833C10.3209 28.911 9.19172 26.4415 8.82296 23.8333ZM20.7368 30.25L32.771 22L20.7368 13.75V30.25Z" fill="white"/>
</svg>
