<svg width="48" height="48" viewBox="0 0 48 48" fill="none" xmlns="http://www.w3.org/2000/svg">
<rect width="48" height="48" rx="24" fill="#E06009"/>
<path d="M24 11C25.7239 11 27.3772 11.6848 28.5962 12.9038C29.8152 14.1228 30.5 15.7761 30.5 17.5C30.5 19.2239 29.8152 20.8772 28.5962 22.0962C27.3772 23.3152 25.7239 24 24 24C22.2761 24 20.6228 23.3152 19.4038 22.0962C18.1848 20.8772 17.5 19.2239 17.5 17.5C17.5 15.7761 18.1848 14.1228 19.4038 12.9038C20.6228 11.6848 22.2761 11 24 11ZM24 27.25C31.1825 27.25 37 30.1588 37 33.75V37H11V33.75C11 30.1588 16.8175 27.25 24 27.25Z" fill="white"/>
</svg>
