<svg width="128" height="129" viewBox="0 0 128 129" fill="none" xmlns="http://www.w3.org/2000/svg">
<path fill-rule="evenodd" clip-rule="evenodd" d="M26.667 32.2958C25.2525 32.2958 23.896 32.8577 22.8958 33.8579C21.8956 34.858 21.3337 36.2146 21.3337 37.6291V90.9624C21.3337 92.3769 21.8956 93.7335 22.8958 94.7337C23.896 95.7339 25.2525 96.2958 26.667 96.2958H64.907C66.0089 93.1729 68.0523 90.4687 70.7555 88.556C73.4588 86.6432 76.6888 85.616 80.0003 85.616C83.3119 85.616 86.5419 86.6432 89.2451 88.556C91.9484 90.4687 93.9918 93.1729 95.0937 96.2958H101.334C102.748 96.2958 104.105 95.7339 105.105 94.7337C106.105 93.7335 106.667 92.3769 106.667 90.9624V37.6291C106.667 36.2146 106.105 34.858 105.105 33.8579C104.105 32.8577 102.748 32.2958 101.334 32.2958H95.0937C93.9918 35.4186 91.9484 38.1228 89.2451 40.0355C86.5419 41.9483 83.3119 42.9755 80.0003 42.9755C76.6888 42.9755 73.4588 41.9483 70.7555 40.0355C68.0523 38.1228 66.0089 35.4186 64.907 32.2958H26.667ZM10.667 37.6291C10.667 33.3856 12.3527 29.316 15.3533 26.3154C18.3539 23.3148 22.4235 21.6291 26.667 21.6291H69.3337C70.7481 21.6291 72.1047 22.191 73.1049 23.1912C74.1051 24.1914 74.667 25.5479 74.667 26.9624C74.667 28.3769 75.2289 29.7335 76.2291 30.7337C77.2293 31.7339 78.5858 32.2958 80.0003 32.2958C81.4148 32.2958 82.7714 31.7339 83.7716 30.7337C84.7718 29.7335 85.3337 28.3769 85.3337 26.9624C85.3337 25.5479 85.8956 24.1914 86.8957 23.1912C87.8959 22.191 89.2525 21.6291 90.667 21.6291H101.334C105.577 21.6291 109.647 23.3148 112.647 26.3154C115.648 29.316 117.334 33.3856 117.334 37.6291V90.9624C117.334 95.2059 115.648 99.2756 112.647 102.276C109.647 105.277 105.577 106.962 101.334 106.962H90.667C89.2525 106.962 87.8959 106.401 86.8957 105.4C85.8956 104.4 85.3337 103.044 85.3337 101.629C85.3337 100.215 84.7718 98.858 83.7716 97.8578C82.7714 96.8577 81.4148 96.2958 80.0003 96.2958C78.5858 96.2958 77.2293 96.8577 76.2291 97.8578C75.2289 98.858 74.667 100.215 74.667 101.629C74.667 103.044 74.1051 104.4 73.1049 105.4C72.1047 106.401 70.7481 106.962 69.3337 106.962H26.667C22.4235 106.962 18.3539 105.277 15.3533 102.276C12.3527 99.2756 10.667 95.2059 10.667 90.9624V37.6291ZM80.0003 48.2958C81.4148 48.2958 82.7714 48.8577 83.7716 49.8579C84.7718 50.858 85.3337 52.2146 85.3337 53.6291V56.2958C85.3337 57.7102 84.7718 59.0668 83.7716 60.067C82.7714 61.0672 81.4148 61.6291 80.0003 61.6291C78.5858 61.6291 77.2293 61.0672 76.2291 60.067C75.2289 59.0668 74.667 57.7102 74.667 56.2958V53.6291C74.667 52.2146 75.2289 50.858 76.2291 49.8579C77.2293 48.8577 78.5858 48.2958 80.0003 48.2958ZM85.3337 72.2958C85.3337 70.8813 84.7718 69.5247 83.7716 68.5245C82.7714 67.5243 81.4148 66.9624 80.0003 66.9624C78.5858 66.9624 77.2293 67.5243 76.2291 68.5245C75.2289 69.5247 74.667 70.8813 74.667 72.2958V74.9624C74.667 76.3769 75.2289 77.7335 76.2291 78.7337C77.2293 79.7339 78.5858 80.2958 80.0003 80.2958C81.4148 80.2958 82.7714 79.7339 83.7716 78.7337C84.7718 77.7335 85.3337 76.3769 85.3337 74.9624V72.2958Z" fill="white"/>
</svg>
