<svg width="50" height="38" viewBox="0 0 50 38" fill="none" xmlns="http://www.w3.org/2000/svg">
<path opacity="0.5" d="M5.545 4.855C5 5.925 5 7.325 5 10.125V29.625H18.385C18.8675 30.73 19.9675 31.5 21.25 31.5H28.75C29.3582 31.5002 29.9532 31.3229 30.4622 30.9898C30.9711 30.6568 31.3717 30.1824 31.615 29.625H45V10.125C45 7.325 45 5.925 44.455 4.855C43.9756 3.91423 43.2108 3.14936 42.27 2.67C41.2 2.125 39.8 2.125 37 2.125H13C10.2 2.125 8.8 2.125 7.73 2.67C6.78923 3.14936 6.02436 3.91423 5.545 4.855Z" fill="white"/>
<path d="M3.125 27.8125V8.0525C3.125 7.065 3.125 6.2125 3.1825 5.51C3.22118 4.75133 3.40982 4.00785 3.7375 3.3225C4.27695 2.26315 5.13815 1.40195 6.1975 0.8625C6.88285 0.534816 7.62633 0.346184 8.385 0.307499C9.085 0.249999 9.94 0.25 10.9275 0.25H39.075C40.0625 0.25 40.915 0.249999 41.6175 0.307499C42.36 0.367499 43.0975 0.5025 43.805 0.8625C44.865 1.4025 45.725 2.2625 46.265 3.3225C46.625 4.03 46.76 4.7675 46.82 5.51C46.8775 6.21 46.8775 7.065 46.8775 8.0525V27.8125C48.3025 28.1025 49.3775 29.3625 49.3775 30.875C49.3775 31.778 49.1996 32.6722 48.8539 33.5065C48.5083 34.3408 48.0016 35.0988 47.363 35.7372C46.7243 36.3757 45.9661 36.882 45.1317 37.2274C44.2973 37.5727 43.403 37.7503 42.5 37.75H7.5C5.67664 37.75 3.92795 37.0257 2.63864 35.7364C1.34933 34.447 0.625 32.6984 0.625 30.875C0.625 29.3625 1.7 28.1 3.125 27.8125ZM7.9 4.205C7.54688 4.38482 7.25982 4.67188 7.08 5.025C7.03 5.1175 6.9625 5.305 6.92 5.815C6.8775 6.345 6.875 7.045 6.875 8.125V27.75H18.385C18.7497 27.7502 19.1064 27.8567 19.4114 28.0565C19.7165 28.2563 19.9566 28.5408 20.1025 28.875C20.1999 29.0982 20.3604 29.2881 20.5643 29.4213C20.7681 29.5546 21.0065 29.6254 21.25 29.625H28.75C28.9935 29.6254 29.2319 29.5546 29.4357 29.4213C29.6396 29.2881 29.8001 29.0982 29.8975 28.875C30.0434 28.5408 30.2835 28.2563 30.5886 28.0565C30.8936 27.8567 31.2503 27.7502 31.615 27.75H43.125V8.125C43.125 7.045 43.125 6.345 43.08 5.815C43.0375 5.305 42.9675 5.115 42.92 5.025C42.7402 4.67188 42.4531 4.38482 42.1 4.205C42.0075 4.155 41.82 4.0875 41.31 4.045C40.5408 4.00263 39.7703 3.98762 39 4H11C9.92 4 9.22 4 8.69 4.045C8.18 4.0875 7.99 4.1575 7.9 4.205ZM4.4375 31.5C4.7275 32.925 5.9875 34 7.5 34H42.5C44.0125 34 45.275 32.925 45.5625 31.5H32.6525C31.7375 32.6425 30.33 33.375 28.75 33.375H21.25C20.5006 33.3749 19.7608 33.2064 19.0853 32.8818C18.4098 32.5573 17.8159 32.085 17.3475 31.5H4.4375Z" fill="white"/>
</svg>
