<?xml version="1.0" encoding="UTF-8"?>
<svg xmlns="http://www.w3.org/2000/svg" xmlns:xlink="http://www.w3.org/1999/xlink" viewBox="0 0 333.62 572.29">
  <defs>
    <style>
      .cls-1, .cls-2, .cls-3 {
        opacity: .75;
      }

      .cls-1, .cls-3, .cls-4 {
        fill: #7b67ab;
      }

      .cls-5 {
        stroke: #000;
      }

      .cls-5, .cls-6 {
        stroke-width: 5px;
      }

      .cls-5, .cls-6, .cls-2, .cls-7, .cls-8, .cls-3, .cls-4, .cls-9, .cls-10, .cls-11, .cls-12, .cls-13 {
        stroke-miterlimit: 10;
      }

      .cls-14 {
        clip-path: url(#clippath-6);
      }

      .cls-15 {
        clip-path: url(#clippath-4);
      }

      .cls-6, .cls-16, .cls-7 {
        fill: #fff;
      }

      .cls-6, .cls-7 {
        stroke: #fff;
      }

      .cls-17 {
        opacity: .27;
      }

      .cls-2, .cls-8, .cls-3, .cls-12 {
        stroke-width: 2px;
      }

      .cls-2, .cls-8, .cls-10, .cls-11 {
        fill: none;
      }

      .cls-2, .cls-3 {
        stroke: #6e6992;
      }

      .cls-7, .cls-4, .cls-10 {
        stroke-width: 3px;
      }

      .cls-18 {
        opacity: .47;
      }

      .cls-8, .cls-12 {
        stroke: #b7c3d4;
      }

      .cls-19 {
        opacity: .8;
      }

      .cls-20 {
        clip-path: url(#clippath-1);
      }

      .cls-4 {
        opacity: .74;
        stroke: #7b67ab;
      }

      .cls-21 {
        clip-path: url(#clippath-5);
      }

      .cls-22 {
        clip-path: url(#clippath-3);
      }

      .cls-23, .cls-13 {
        fill: #f1a903;
      }

      .cls-9 {
        fill: #c38913;
        stroke: #c38913;
      }

      .cls-24 {
        opacity: .2;
      }

      .cls-25, .cls-12 {
        fill: #dbe3f2;
      }

      .cls-26 {
        opacity: .39;
      }

      .cls-10 {
        stroke: #1d1d1b;
      }

      .cls-11, .cls-13 {
        stroke: #c88c12;
      }

      .cls-27 {
        clip-path: url(#clippath-2);
      }

      .cls-28 {
        fill: #c88c12;
      }

      .cls-29 {
        fill: #6e6992;
      }

      .cls-30 {
        clip-path: url(#clippath);
      }
    </style>
    <clipPath id="clippath">
      <path class="cls-13" d="M331.4,543.59c-.06-.15-.14-.26-.21-.4.18-.9.35-1.81.55-2.71.44-1.97-.2-3.48-1.32-4.4h1.4s-1.56-.94-4.63-2.48c-.35-.57-.83-1.07-1.47-1.39-4.99-2.53-10.03-4.7-15.37-6.36-3.6-1.12-7.19-2.23-10.79-3.34-28.12-9.22-74.79-19.45-140.69-17.66-61.26,1.66-100.99,10.21-124.91,17.95-1.76.16-3.51.42-5.23.73-1.82.33-3.58.86-5.29,1.56-1.74.41-3.25,1.21-4.54,2.39-1.74.55-3.42,1.3-5.17,1.81-1.74.41-3.25,1.21-4.54,2.39-1.12.73-2.06,1.64-2.81,2.73-1.83,1.06-2.69,1.68-2.69,1.68h1.56c-.75.59-1.34,1.36-1.55,2.27-.25,1.11-.11,2.15.31,3.04-.13,1.03-.1,2.06.09,3.08-.04.37-.07.74-.08,1.11-.04,1.26-.05,2.53-.17,3.78-.09.47-.2.93-.36,1.38-.51,1.48.08,3.26,1.15,4.33,1.19,1.19,2.65,1.39,4.22,1.15-.28.04-.56.08-.85.11.5-.06.99-.07,1.48-.04.25.06.5.12.74.2,1.3,1.03,2.77,1.81,4.37,2.1,2.75.49,5.49,1.01,8.25,1.48,2.28.39,4.59.77,6.9.85.91.03,1.81.06,2.72.11,5.54,1.09,10.94,3.1,16.68,2.59.07,0,.13-.02.2-.02,2.01.36,4.03.71,6.06.99,2.98.42,5.96.87,8.95,1.22,2.11.24,4.23.24,6.34.4,4.37.68,8.68,1.43,13.17,1.1.27-.02.54-.05.81-.08,2.13,1.33,4.49,2.03,7.19,2.19,10.85.66,21.73.73,32.59.18.18,0,.35-.03.53-.05,16.26.56,32.51,1.12,48.76,1.76,1,.22,2.05.31,3.15.21,22.76-2.03,45.62-3.23,68.42-4.76,2.11-.14,4.12-.59,5.95-1.46,3.37-.14,6.74-.51,10.11-1.01.86.3,1.83.38,2.8.24,1.54-.22,3-.59,4.43-1.05,1.73-.07,3.45-.12,5.19-.23,3.22-.2,6.34-.8,9.43-1.61,2.14.22,4.36.1,6.4,0,4.57-.24,9.14-.88,13.61-1.85.72-.16,1.35-.55,1.87-1.07,3.13,0,6.27-.09,9.38-.47,4.11-.51,8.17-1.32,12.25-2.04.31-.05.6-.16.87-.29,1.79.04,3.56-.89,4.15-3.14.8-3.06.76-6.21-.35-9.19ZM261.08,538.48c-.03.26-.04.53-.02.8-2.58.01-5.17.06-7.74.06-2.03,0-4.05,0-6.08.01-2.33-.76-4.9-.89-7.52-.21-.32.08-.64.14-.96.22-1.3,0-2.6,0-3.9,0-.62-1.72-2.28-3.1-4.17-3.01-8.24.42-16.43,1.68-24.4,3.84-.38.1-.71.27-1.03.46-7.44-.54-14.88-1.28-22.31-1.64-17.5-.85-35.01.16-52.51.07-9.53-.05-19.05-.47-28.51-1.65-2.82-.42-5.63-.89-8.44-1.36h168.72c-.6.63-1.01,1.44-1.13,2.39Z"/>
    </clipPath>
    <clipPath id="clippath-1">
      <path class="cls-13" d="M3.68,556.84v-18.98s119.11,31.23,328.15,0v18.98s-174.93,33.64-328.15,0Z"/>
    </clipPath>
    <clipPath id="clippath-2">
      <path class="cls-12" d="M308.09,58.67c61.09,179.53-72,206.16-118.9,210.03-8.8.73-15.54,7.93-15.52,16.53h0c.02,7.9,5.8,14.62,13.76,16.17,174.37,33.96,116.14,203,105.28,230.8-.93,2.38-3.14,4.06-5.75,4.35-104.07,11.52-219.83,2.07-243.27-.07-2.66-.24-4.93-1.92-5.88-4.35-10.93-28.02-68.92-196.8,105.31-230.73,7.96-1.55,13.74-8.27,13.76-16.17h0c.02-8.6-6.72-15.81-15.52-16.53-46.9-3.87-180-30.5-118.88-210.06.81-2.37,2.88-4.11,5.4-4.55,17.37-3.03,86.93-14.4,145.79-12.83,57.75,1.54,113.64,10.29,128.98,12.85,2.54.43,4.64,2.17,5.45,4.56Z"/>
    </clipPath>
    <clipPath id="clippath-3">
      <path class="cls-3" d="M163.55,282.86h2.86s1.96-9.1,10.72-16.03c4.58-3.63,36.07-6.68,36.07-6.68,0,0,104.83-17.04,103.81-109.88l-139.08,19.03c-11.52,1.79-12.65,1.05-23.26-.11L12,148.6s-1.93,83.39,91.77,108.32c0,0,9.48,2.21,22.38,4.44,9.58,1.66,21.99,2.32,28.87,7.44,2.83,2.1,8.63,7.12,8.53,14.06Z"/>
    </clipPath>
    <clipPath id="clippath-4">
      <path class="cls-3" d="M42.46,527.25s141.76,18.83,242.82,0c0,0,5.17-2.01,4.62-4.58,0,0-68.44-53.69-124.63-72.01,0,0-108.69,49.11-122.81,76.59Z"/>
    </clipPath>
    <clipPath id="clippath-5">
      <path class="cls-13" d="M1.2,50.92v-18.98s119.11,31.23,328.15,0v18.98S154.42,84.56,1.2,50.92Z"/>
    </clipPath>
    <clipPath id="clippath-6">
      <path class="cls-13" d="M156.4.71C39.9,3.87,1.2,31.94,1.2,31.94c89.44,19.04,117.78,14.2,164.07,15.42,35.13.93,164.07-15.42,164.07-15.42,0,0-56.45-34.4-172.95-31.23Z"/>
    </clipPath>
  </defs>
  <g id="Camada_2" data-name="Camada 2">
    <g>
      <path class="cls-23" d="M331.4,543.59c-.06-.15-.14-.26-.21-.4.18-.9.35-1.81.55-2.71.44-1.97-.2-3.48-1.32-4.4h1.4s-1.56-.94-4.63-2.48c-.35-.57-.83-1.07-1.47-1.39-4.99-2.53-10.03-4.7-15.37-6.36-3.6-1.12-7.19-2.23-10.79-3.34-28.12-9.22-74.79-19.45-140.69-17.66-61.26,1.66-100.99,10.21-124.91,17.95-1.76.16-3.51.42-5.23.73-1.82.33-3.58.86-5.29,1.56-1.74.41-3.25,1.21-4.54,2.39-1.74.55-3.42,1.3-5.17,1.81-1.74.41-3.25,1.21-4.54,2.39-1.12.73-2.06,1.64-2.81,2.73-1.83,1.06-2.69,1.68-2.69,1.68h1.56c-.75.59-1.34,1.36-1.55,2.27-.25,1.11-.11,2.15.31,3.04-.13,1.03-.1,2.06.09,3.08-.04.37-.07.74-.08,1.11-.04,1.26-.05,2.53-.17,3.78-.09.47-.2.93-.36,1.38-.51,1.48.08,3.26,1.15,4.33,1.19,1.19,2.65,1.39,4.22,1.15-.28.04-.56.08-.85.11.5-.06.99-.07,1.48-.04.25.06.5.12.74.2,1.3,1.03,2.77,1.81,4.37,2.1,2.75.49,5.49,1.01,8.25,1.48,2.28.39,4.59.77,6.9.85.91.03,1.81.06,2.72.11,5.54,1.09,10.94,3.1,16.68,2.59.07,0,.13-.02.2-.02,2.01.36,4.03.71,6.06.99,2.98.42,5.96.87,8.95,1.22,2.11.24,4.23.24,6.34.4,4.37.68,8.68,1.43,13.17,1.1.27-.02.54-.05.81-.08,2.13,1.33,4.49,2.03,7.19,2.19,10.85.66,21.73.73,32.59.18.18,0,.35-.03.53-.05,16.26.56,32.51,1.12,48.76,1.76,1,.22,2.05.31,3.15.21,22.76-2.03,45.62-3.23,68.42-4.76,2.11-.14,4.12-.59,5.95-1.46,3.37-.14,6.74-.51,10.11-1.01.86.3,1.83.38,2.8.24,1.54-.22,3-.59,4.43-1.05,1.73-.07,3.45-.12,5.19-.23,3.22-.2,6.34-.8,9.43-1.61,2.14.22,4.36.1,6.4,0,4.57-.24,9.14-.88,13.61-1.85.72-.16,1.35-.55,1.87-1.07,3.13,0,6.27-.09,9.38-.47,4.11-.51,8.17-1.32,12.25-2.04.31-.05.6-.16.87-.29,1.79.04,3.56-.89,4.15-3.14.8-3.06.76-6.21-.35-9.19ZM261.08,538.48c-.03.26-.04.53-.02.8-2.58.01-5.17.06-7.74.06-2.03,0-4.05,0-6.08.01-2.33-.76-4.9-.89-7.52-.21-.32.08-.64.14-.96.22-1.3,0-2.6,0-3.9,0-.62-1.72-2.28-3.1-4.17-3.01-8.24.42-16.43,1.68-24.4,3.84-.38.1-.71.27-1.03.46-7.44-.54-14.88-1.28-22.31-1.64-17.5-.85-35.01.16-52.51.07-9.53-.05-19.05-.47-28.51-1.65-2.82-.42-5.63-.89-8.44-1.36h168.72c-.6.63-1.01,1.44-1.13,2.39Z"/>
      <g class="cls-30">
        <g class="cls-26">
          <path class="cls-9" d="M353.3,535.38c-26.95,14.76-57.53,21.24-87.64,27.35-16.59,3.36-33.19,6.67-49.8,9.97-14.3,2.85-28.61,5.69-42.91,8.54"/>
          <g class="cls-19">
            <path class="cls-9" d="M178.8,569.53c14.53-8.5,30.76-11.19,47.6-12.54-.03-.16-.04-.34-.02-.5.16-.76.85-1.24,1.55-1.08,1.98.35,3.96.71,5.93,1.06,3.49-.23,6.93-.61,10.32-1.12-2.73.3-5.48.52-8.26.5-.81.08-1.59-.54-1.68-1.42-.09-.84.51-1.63,1.36-1.71,7.39-.68,15.35-2.86,22.53-.28,16.2-4.34,31.11-11.86,43.1-22.44.22-.26.56-.3.78-.04.26.22.31.59.12.86-11.74,13.5-28.57,23.06-46.79,27.8-1.11.29-2.23.56-3.34.8,3.44.42,6.91.72,10.46.83.24-.6.73-1.09,1.37-1.3l4.61-1.75c-.1-.15-.18-.33-.22-.52-.14-.74.33-1.44,1.04-1.58,3.99-.88,7.91-1.94,11.89-2.81.09-.05.18-.06.28-.05,19.01-7.33,37.49-14.75,54.21-23.71.14-.33.53-.44.82-.27.32.17.47.57.33.9.13.25.37.61.3.69-5.07,5.88-10.48,11.53-17.79,15-2.52,1.18-5.06,2.33-7.62,3.4,2.96-.06,5.89.18,8.76.94,6.74-2.87,13.1-6.56,20.22-7.79l-.46-.31c.56-.28,1.3-.06,1.59.55.33.58.09,1.29-.48,1.61-10.7,8.83-23.52,14.76-36.6,19.28-13.12,4.56-26.61,7.78-39.77,11.64-10.48,3.03-20.91,5.28-31.62,6.74-1.58.29-3.13-.81-3.42-2.43-.29-1.66.75-3.2,2.34-3.52,10.42-1.99,20.54-4.82,30.84-7.66,4.53-1.26,9.04-2.52,13.52-3.77-3.62.48-7.29.65-10.98.57-5.3,1.64-10.76,2.9-16.44,3.61-13.56,1.7-26.61,1.41-39.65,7.11-12.65,5.47-20.66,16.03-31.99,22.6-.49.32-1.13.21-1.45-.29-.33-.47-.22-1.16.27-1.49,10.66-7.88,20.02-16.82,31.99-23.54,12.69-7.11,26.11-7.61,40.09-8.97.94-.11,1.88-.21,2.81-.31-3.23-.47-6.46-1.04-9.65-1.68-11.68,1.44-23.42,1.6-35.06,4.14-9.03,1.96-17.24,6.31-26.17,8.36-1.09.44-2.32-.11-2.76-1.23-.44-1.12.09-2.42,1.18-2.86ZM298.06,555.65c-1.79,1.2-3.63,2.28-5.51,3.19,7.66-2.35,15.29-4.86,22.87-7.68-5.95.63-11.82,2.35-17.36,4.5Z"/>
            <path class="cls-9" d="M311.08,566.93c-4.74.45-9.43,1.52-13.13,4.68-.17.16-.24.42-.08.63.16.21.42.24.63.08,3.54-3.07,8.13-4.09,12.69-4.48.27-.05.44-.26.39-.52-.02-.23-.26-.4-.49-.38Z"/>
            <path class="cls-9" d="M258.46,547.41c9.69-.92,19.88-3.3,26.73-10.38.17-.23.13-.53-.06-.72-.19-.18-.5-.19-.66,0-6.79,6.82-16.91,8.09-26.23,9.41-.45.07-.76.46-.72.92.07.46.46.79.94.76Z"/>
            <path class="cls-9" d="M311.93,561.36c-9.06,2.88-18.33,4.52-26.82,8.35-4.34.63-8.64,1.3-12.77,2.64-.61.12-.99.73-.87,1.35.13.62.72,1.02,1.33.9,2.13-.44,4.32-.67,6.47-1.09-.02.21,0,.41.06.62-7.41,2.19-14.79,4.02-22.2,5.79-.42.08-.66.48-.58.87.08.42.48.68.9.61,7.76-1.5,15.36-3.61,22.98-6.16.32.09.67.09,1.01-.04,6.42-2.11,12.62-4.61,19.1-7.07,9.22-3.45,18.93-4.2,28.25-7.7,1.84-.65,3.58-1.61,5.29-2.63,1.72-.99,3.43-2.02,5.23-2.88,3.05-1.32,6.5-2.15,8.76-4.54,1.54-1.71,2.89-3.49,4.07-5.36,1.17-1.91,2.19-3.86,3.14-5.84.12-.23,0-.48-.23-.56-.21-.12-.49-.01-.57.22-.95,1.95-2.09,3.82-3.28,5.68-1.22,1.81-2.48,3.62-3.64,5.53-6.54,3.16-12.99,6.06-19.2,9.75-5.56.9-11.19-.13-16.44,1.58Z"/>
          </g>
        </g>
      </g>
      <path class="cls-11" d="M331.4,543.59c-.06-.15-.14-.26-.21-.4.18-.9.35-1.81.55-2.71.44-1.97-.2-3.48-1.32-4.4h1.4s-1.56-.94-4.63-2.48c-.35-.57-.83-1.07-1.47-1.39-4.99-2.53-10.03-4.7-15.37-6.36-3.6-1.12-7.19-2.23-10.79-3.34-28.12-9.22-74.79-19.45-140.69-17.66-61.26,1.66-100.99,10.21-124.91,17.95-1.76.16-3.51.42-5.23.73-1.82.33-3.58.86-5.29,1.56-1.74.41-3.25,1.21-4.54,2.39-1.74.55-3.42,1.3-5.17,1.81-1.74.41-3.25,1.21-4.54,2.39-1.12.73-2.06,1.64-2.81,2.73-1.83,1.06-2.69,1.68-2.69,1.68h1.56c-.75.59-1.34,1.36-1.55,2.27-.25,1.11-.11,2.15.31,3.04-.13,1.03-.1,2.06.09,3.08-.04.37-.07.74-.08,1.11-.04,1.26-.05,2.53-.17,3.78-.09.47-.2.93-.36,1.38-.51,1.48.08,3.26,1.15,4.33,1.19,1.19,2.65,1.39,4.22,1.15-.28.04-.56.08-.85.11.5-.06.99-.07,1.48-.04.25.06.5.12.74.2,1.3,1.03,2.77,1.81,4.37,2.1,2.75.49,5.49,1.01,8.25,1.48,2.28.39,4.59.77,6.9.85.91.03,1.81.06,2.72.11,5.54,1.09,10.94,3.1,16.68,2.59.07,0,.13-.02.2-.02,2.01.36,4.03.71,6.06.99,2.98.42,5.96.87,8.95,1.22,2.11.24,4.23.24,6.34.4,4.37.68,8.68,1.43,13.17,1.1.27-.02.54-.05.81-.08,2.13,1.33,4.49,2.03,7.19,2.19,10.85.66,21.73.73,32.59.18.18,0,.35-.03.53-.05,16.26.56,32.51,1.12,48.76,1.76,1,.22,2.05.31,3.15.21,22.76-2.03,45.62-3.23,68.42-4.76,2.11-.14,4.12-.59,5.95-1.46,3.37-.14,6.74-.51,10.11-1.01.86.3,1.83.38,2.8.24,1.54-.22,3-.59,4.43-1.05,1.73-.07,3.45-.12,5.19-.23,3.22-.2,6.34-.8,9.43-1.61,2.14.22,4.36.1,6.4,0,4.57-.24,9.14-.88,13.61-1.85.72-.16,1.35-.55,1.87-1.07,3.13,0,6.27-.09,9.38-.47,4.11-.51,8.17-1.32,12.25-2.04.31-.05.6-.16.87-.29,1.79.04,3.56-.89,4.15-3.14.8-3.06.76-6.21-.35-9.19ZM261.08,538.48c-.03.26-.04.53-.02.8-2.58.01-5.17.06-7.74.06-2.03,0-4.05,0-6.08.01-2.33-.76-4.9-.89-7.52-.21-.32.08-.64.14-.96.22-1.3,0-2.6,0-3.9,0-.62-1.72-2.28-3.1-4.17-3.01-8.24.42-16.43,1.68-24.4,3.84-.38.1-.71.27-1.03.46-7.44-.54-14.88-1.28-22.31-1.64-17.5-.85-35.01.16-52.51.07-9.53-.05-19.05-.47-28.51-1.65-2.82-.42-5.63-.89-8.44-1.36h168.72c-.6.63-1.01,1.44-1.13,2.39Z"/>
    </g>
    <g>
      <path class="cls-23" d="M3.68,556.84v-18.98s119.11,31.23,328.15,0v18.98s-174.93,33.64-328.15,0Z"/>
      <g class="cls-20">
        <g class="cls-26">
          <path class="cls-9" d="M357.84,535.38c-26.95,14.76-57.53,21.24-87.64,27.35-16.59,3.36-33.19,6.67-49.8,9.97-14.3,2.85-28.61,5.69-42.91,8.54"/>
          <g class="cls-19">
            <path class="cls-9" d="M183.33,569.53c14.53-8.5,30.76-11.19,47.6-12.54-.03-.16-.04-.34-.02-.5.16-.76.85-1.24,1.55-1.08,1.98.35,3.96.71,5.93,1.06,3.49-.23,6.93-.61,10.32-1.12-2.73.3-5.48.52-8.26.5-.81.08-1.59-.54-1.68-1.42-.09-.84.51-1.63,1.36-1.71,7.39-.68,15.35-2.86,22.53-.28,16.2-4.34,31.11-11.86,43.1-22.44.22-.26.56-.3.78-.04.26.22.31.59.12.86-11.74,13.5-28.57,23.06-46.79,27.8-1.11.29-2.23.56-3.34.8,3.44.42,6.91.72,10.46.83.24-.6.73-1.09,1.37-1.3l4.61-1.75c-.1-.15-.18-.33-.22-.52-.14-.74.33-1.44,1.04-1.58,3.99-.88,7.91-1.94,11.89-2.81.09-.05.18-.06.28-.05,19.01-7.33,37.49-14.75,54.21-23.71.14-.33.53-.44.82-.27.32.17.47.57.33.9.13.25.37.61.3.69-5.07,5.88-10.48,11.53-17.79,15-2.52,1.18-5.06,2.33-7.62,3.4,2.96-.06,5.89.18,8.76.94,6.74-2.87,13.1-6.56,20.22-7.79l-.46-.31c.56-.28,1.3-.06,1.59.55.33.58.09,1.29-.48,1.61-10.7,8.83-23.52,14.76-36.6,19.28-13.12,4.56-26.61,7.78-39.77,11.64-10.48,3.03-20.91,5.28-31.62,6.74-1.58.29-3.13-.81-3.42-2.43-.29-1.66.75-3.2,2.34-3.52,10.42-1.99,20.54-4.82,30.84-7.66,4.53-1.26,9.04-2.52,13.52-3.77-3.62.48-7.29.65-10.98.57-5.3,1.64-10.76,2.9-16.44,3.61-13.56,1.7-26.61,1.41-39.65,7.11-12.65,5.47-20.66,16.03-31.99,22.6-.49.32-1.13.21-1.45-.29-.33-.47-.22-1.16.27-1.49,10.66-7.88,20.02-16.82,31.99-23.54,12.69-7.11,26.11-7.61,40.09-8.97.94-.11,1.88-.21,2.81-.31-3.23-.47-6.46-1.04-9.65-1.68-11.68,1.44-23.42,1.6-35.06,4.14-9.03,1.96-17.24,6.31-26.17,8.36-1.09.44-2.32-.11-2.76-1.23-.44-1.12.09-2.42,1.18-2.86ZM302.59,555.64c-1.79,1.2-3.63,2.28-5.51,3.19,7.66-2.35,15.29-4.86,22.87-7.68-5.95.63-11.82,2.35-17.36,4.5Z"/>
            <path class="cls-9" d="M315.61,566.92c-4.74.45-9.43,1.52-13.13,4.68-.17.16-.24.42-.08.63.16.21.42.24.63.08,3.54-3.07,8.13-4.09,12.69-4.48.27-.05.44-.26.39-.52-.02-.23-.26-.4-.49-.38Z"/>
            <path class="cls-9" d="M262.99,547.41c9.69-.92,19.88-3.3,26.73-10.38.17-.23.13-.53-.06-.72-.19-.18-.5-.19-.66,0-6.79,6.82-16.91,8.09-26.23,9.41-.45.07-.76.46-.72.92.07.46.46.79.94.76Z"/>
            <path class="cls-9" d="M316.47,561.35c-9.06,2.88-18.33,4.52-26.82,8.35-4.34.63-8.64,1.3-12.77,2.64-.61.12-.99.73-.87,1.35.13.62.72,1.02,1.33.9,2.13-.44,4.32-.67,6.47-1.09-.02.21,0,.41.06.62-7.41,2.19-14.79,4.02-22.2,5.79-.42.08-.66.48-.58.87.08.42.48.68.9.61,7.76-1.5,15.36-3.61,22.98-6.16.32.09.67.09,1.01-.04,6.42-2.11,12.62-4.61,19.1-7.07,9.22-3.45,18.93-4.2,28.25-7.7,1.84-.65,3.58-1.61,5.29-2.63,1.72-.99,3.43-2.02,5.23-2.88,3.05-1.32,6.5-2.15,8.76-4.54,1.54-1.71,2.89-3.49,4.07-5.36,1.17-1.91,2.19-3.86,3.14-5.84.12-.23,0-.48-.23-.56-.21-.12-.49-.01-.57.22-.95,1.95-2.09,3.82-3.28,5.68-1.22,1.81-2.48,3.62-3.64,5.53-6.54,3.16-12.99,6.06-19.2,9.75-5.56.9-11.19-.13-16.44,1.58Z"/>
          </g>
        </g>
      </g>
      <path class="cls-11" d="M3.68,556.84v-18.98s119.11,31.23,328.15,0v18.98s-174.93,33.64-328.15,0Z"/>
    </g>
  </g>
  <g id="Camada_1" data-name="Camada 1">
    <g>
      <path class="cls-25" d="M308.09,58.67c61.09,179.53-72,206.16-118.9,210.03-8.8.73-15.54,7.93-15.52,16.53h0c.02,7.9,5.8,14.62,13.76,16.17,174.37,33.96,116.14,203,105.28,230.8-.93,2.38-3.14,4.06-5.75,4.35-104.07,11.52-219.83,2.07-243.27-.07-2.66-.24-4.93-1.92-5.88-4.35-10.93-28.02-68.92-196.8,105.31-230.73,7.96-1.55,13.74-8.27,13.76-16.17h0c.02-8.6-6.72-15.81-15.52-16.53-46.9-3.87-180-30.5-118.88-210.06.81-2.37,2.88-4.11,5.4-4.55,17.37-3.03,86.93-14.4,145.79-12.83,57.75,1.54,113.64,10.29,128.98,12.85,2.54.43,4.64,2.17,5.45,4.56Z"/>
      <g class="cls-27">
        <g class="cls-18">
          <path class="cls-16" d="M149.2,298.45c-18.57,6.15-36.26,14.55-53.4,23.92-15.98,8.74-33,17.62-45.85,30.8s-20.05,30.57-25.47,47.57c-5.68,17.8-8.7,36.41-9.63,55.06-1.06,21.17.67,42.36,4.24,63.23l5.79-1.6c-6.64-17.93-13.5-36.25-15.41-55.41s2-36.57,8.86-53.77c6.93-17.35,16-34.32,25.56-50.36,8.43-14.14,19.64-26.15,33.52-35.07,15.51-9.97,33.39-15.79,51.81-16.65l-1.51-5.59c-25.02,12.73-49.45,26.56-73.25,41.46l3.03,5.18c21.1-15.62,42.2-31.24,63.31-46.86,3.07-2.27.08-7.48-3.03-5.18-21.1,15.62-42.2,31.24-63.31,46.86-3.03,2.24-.32,7.28,3.03,5.18,23.79-14.9,48.23-28.73,73.25-41.46,2.64-1.34,1.41-5.73-1.51-5.59-33.39,1.56-65.14,18.51-84.69,45.7-5.81,8.08-10.4,16.97-15.09,25.71-4.62,8.61-9.16,17.28-13.15,26.2-7.65,17.06-13.42,35.25-13.36,54.12.06,23.31,8.17,45.55,16.15,67.12,1.35,3.64,6.44,2.21,5.79-1.6-6.03-35.25-6.45-71.99,2.92-106.71,4.65-17.23,11.33-35.75,22.98-49.56,11.32-13.42,27.33-22.03,42.42-30.49,18.46-10.36,37.46-19.77,57.59-26.44,3.65-1.21,2.09-7-1.6-5.79h0Z"/>
        </g>
        <g class="cls-18">
          <path class="cls-16" d="M158.57,277.95c-1.88-9.92-11.7-14.76-20.6-17.19-13.71-3.75-27.8-4.67-41.9-5.68-15.53-1.12-29.14-5.48-43.25-11.92-6.08-2.77-11.71-6.04-15.35-11.85s-5.12-12.61-5.82-19.3l-5.89.8c7.41,25.88,29.72,46.15,56.3,50.73,2.06.35,4.52-1.33,3.69-3.69-7.75-22.02-22.89-40.58-42.99-52.49-2.73-1.62-5.36,1.52-4.1,4.1,6.54,13.51,13.38,26.87,20.49,40.09l5.18-3.03c-9.6-13.45-19.21-26.9-28.81-40.35-2.22-3.1-7.4-.17-5.18,3.03,9.56,13.8,19.11,27.6,28.67,41.4,1.13,1.64,4.2,2.25,5.18,0,5.08-11.68-4.31-20.1-7.61-30.61l-5.48,2.31c4.78,10.96,9.57,21.92,14.35,32.89,1.35,3.09,6.65.88,5.48-2.31-5.63-15.44-17.94-26.16-28.28-38.41-6.62-7.84-12.48-16.31-18.35-24.72-5.13-7.36-10.23-14.9-13.62-23.26-7.48-18.47-5.48-40.36-2.02-59.52s9.57-38.31,15.63-57.08c1.19-3.68-4.6-5.26-5.79-1.6C9.07,79.55-.54,109.6-.18,140.69c.18,15.06,3.59,28.91,11.29,41.89s16.29,24.68,25.5,35.96c9.95,12.2,22.99,22.75,28.53,37.93l5.48-2.31c-4.78-10.96-9.57-21.92-14.35-32.89-1.36-3.12-6.49-.9-5.48,2.31,2.48,7.91,11.98,17.34,8.22,25.99h5.18c-9.56-13.8-19.11-27.6-28.67-41.4l-5.18,3.03c9.6,13.45,19.21,26.9,28.81,40.35,2.21,3.1,7.04.43,5.18-3.03-7.11-13.22-13.95-26.58-20.49-40.09l-4.1,4.1c18.71,11.09,33,28.38,40.23,48.91l3.69-3.69c-24.58-4.24-45.23-22.52-52.11-46.54-.89-3.12-6.26-2.68-5.89.8,1.17,11.22,4.41,22.86,13.59,30.19,5.08,4.05,11.2,6.47,17.12,9,6.58,2.82,13.24,5.55,20.22,7.23,14.19,3.41,28.99,2.6,43.36,4.77,10.36,1.56,30.38,3.4,32.83,16.34.72,3.79,6.5,2.18,5.79-1.6h0Z"/>
        </g>
        <g class="cls-18">
          <path class="cls-16" d="M180.59,285.4c-1.91-3.2-3.02-7.08-1.87-10.77,1.41-4.53,5.69-5.37,9.81-6.15,8.93-1.7,17.91-3.21,26.86-4.82,15.83-2.84,32.36-5.07,46.67-12.91,13.4-7.34,22.85-19.57,31.44-31.87,9.32-13.35,18.85-26.9,23.38-42.74l-5.89-.8c1.38,11.31-1.94,22.15-6.27,32.49-3.86,9.2-9.9,19.63-21.08,20.11l.8,5.89c11.87-4.28,15.89-16.59,20.09-27.36,5.86-15.01,12.45-29.79,16.91-45.3,4.51-15.68,6.17-31.69,4.48-47.95-1.75-16.8-6.19-33.13-10.69-49.36-1.03-3.72-6.82-2.14-5.79,1.6,8.32,30.04,15.32,59.79,7.16,90.7-3.66,13.86-9.2,27.12-14.54,40.4-4.1,10.18-7.57,27.3-19.21,31.5-3,1.08-2.79,6.05.8,5.89,11.92-.51,19.96-9.49,24.76-19.67,5.67-12.03,10.23-25.48,8.59-38.93-.39-3.17-4.89-4.29-5.89-.8-4.8,16.76-15.57,31.38-25.64,45.35-10.87,15.08-23.25,26.36-41.41,31.68-17.58,5.15-36.23,7.36-54.24,10.59-6.42,1.15-12.99,2.29-16.08,8.76-2.68,5.63-1.4,12.32,1.68,17.49,1.97,3.32,7.16.3,5.18-3.03h0Z"/>
        </g>
        <g class="cls-18">
          <path class="cls-16" d="M305.99,525.91c-36.24,6.93-72.68,15.74-109.46,19.15-18.16,1.68-36.4,2.11-54.63,2.04-18.38-.07-36.87-.16-55.22-1.26-10.23-.62-20.33-2.03-30.21-4.79-6.83-1.91-19.94-5-19.73-14.14l-3.8,2.89c16.81,6.36,33.72,11.98,51.73,13.53,18.88,1.63,37.95.16,56.87.22,37.53.13,75.24,2.24,112.59-2.65,20.12-2.63,39.89-7.26,58.67-15.02,2.81-1.16,2.91-6.21-.8-5.89-9.71.82-19.24,2.9-28.86,4.31-10.59,1.55-21.25,2.62-31.92,3.36-20.97,1.45-42,1.6-63.01,1.38-20.75-.22-41.5-.82-62.25-.92-19.51-.09-39.03.81-58.54.38-22-.48-44.2-3.08-64.34-12.47-3.48-1.62-6.53,3.55-3.03,5.18,35.49,16.55,75.22,13.17,113.27,12.91,42.74-.29,85.5,2.3,128.22.11,11.6-.59,23.18-1.54,34.7-3,11.94-1.51,23.76-4.24,35.74-5.25l-.8-5.89c-33.24,13.75-69.24,17.42-104.91,17.95-18.97.28-37.93-.26-56.9-.44s-36.81.88-55.18.28c-20.98-.69-40.19-6.49-59.68-13.87-1.89-.72-3.76,1.1-3.8,2.89-.35,15.14,20.8,19.48,32,21.87,19.18,4.1,39.11,3.69,58.62,4.07,39.94.77,79.14-.76,118.46-8.19,22.59-4.27,45.17-8.63,67.75-12.95,3.79-.72,2.18-6.51-1.6-5.79h0Z"/>
        </g>
      </g>
      <path class="cls-8" d="M308.09,58.67c61.09,179.53-72,206.16-118.9,210.03-8.8.73-15.54,7.93-15.52,16.53h0c.02,7.9,5.8,14.62,13.76,16.17,174.37,33.96,116.14,203,105.28,230.8-.93,2.38-3.14,4.06-5.75,4.35-104.07,11.52-219.83,2.07-243.27-.07-2.66-.24-4.93-1.92-5.88-4.35-10.93-28.02-68.92-196.8,105.31-230.73,7.96-1.55,13.74-8.27,13.76-16.17h0c.02-8.6-6.72-15.81-15.52-16.53-46.9-3.87-180-30.5-118.88-210.06.81-2.37,2.88-4.11,5.4-4.55,17.37-3.03,86.93-14.4,145.79-12.83,57.75,1.54,113.64,10.29,128.98,12.85,2.54.43,4.64,2.17,5.45,4.56Z"/>
    </g>
    <g>
      <path class="cls-1" d="M163.55,282.86h2.86s1.96-9.1,10.72-16.03c4.58-3.63,36.07-6.68,36.07-6.68,0,0,104.83-17.04,103.81-109.88l-139.08,19.03c-11.52,1.79-12.65,1.05-23.26-.11L12,148.6s-1.93,83.39,91.77,108.32c0,0,9.48,2.21,22.38,4.44,9.58,1.66,21.99,2.32,28.87,7.44,2.83,2.1,8.63,7.12,8.53,14.06Z"/>
      <g class="cls-22">
        <g class="cls-24">
          <path class="cls-29" d="M329.02,132.05c-4.54,11.84-9,23.71-13.63,35.51-4.12,10.52-9.02,20.76-16.61,29.24-12.87,14.38-30.51,23.4-48.53,29.6-21.54,7.41-44.26,11.72-66.73,15.18-24.75,3.82-49.77,5.88-74.81,6.33-28.78.52-57.57-1.19-86.1-5v12c73.51,7.39,147.96,12.82,221.42,1.98,20.61-3.04,40.99-7.45,60.96-13.36,7.42-2.2,4.34-13.28-3.19-11.57-40.9,9.28-82.9,10.98-124.7,10.83-20.71-.07-41.56.04-62.24-1.23s-39.05-6.52-57.76-14.29c-19.89-8.27-39.28-17.93-60.36-22.9-6.52-1.54-10.63,7.44-4.62,10.97,45.88,26.97,99.14,40.49,152.3,39.76,26.53-.37,53.13-4.24,78.59-11.71,26.17-7.67,52.47-18.88,74.41-35.26,25.59-19.1,42.46-45.92,58.68-72.91,3.99-6.64-6.38-12.68-10.36-6.06-13.84,23.03-27.97,46.5-48.71,64.07-19.89,16.86-44.82,28.16-69.45,36.18-48,15.62-100.17,17.88-149.43,6.93-28.14-6.26-55.12-16.76-79.98-31.37l-4.62,10.97c19.15,4.51,36.88,12.93,54.9,20.59s36.86,14.14,56.88,16.24c21.2,2.23,42.81,1.79,64.1,1.97,21.38.18,42.77-.02,64.11-1.37,24.01-1.52,47.96-4.52,71.44-9.85l-3.19-11.57c-70.47,20.86-144.62,21.51-217.38,16.4-20.64-1.45-41.24-3.37-61.82-5.44-3.25-.33-5.97,2.99-6,6-.04,3.6,2.8,5.57,6,6,52.59,7.03,105.89,6.64,158.4-.91,23.88-3.43,48.07-7.85,70.99-15.55,19.12-6.42,37.89-15.57,52.27-30.01,8.84-8.88,15.08-19.45,19.93-30.93,5.87-13.91,10.98-28.18,16.38-42.29,2.77-7.22-8.83-10.34-11.57-3.19h0Z"/>
        </g>
        <g class="cls-24">
          <path class="cls-29" d="M137.37,285.89c6.61-3.19,14.63-1.84,21.71-1.74,8.11.12,16.23-.22,24.3-1.02,16.09-1.6,31.91-4.88,47.29-9.85,7.32-2.37,4.19-13.96-3.19-11.57-16.13,5.22-32.78,8.68-49.7,9.91-8.03.58-16.06.64-24.1.4s-15.19.05-22.37,3.52-.87,13.71,6.06,10.36h0Z"/>
        </g>
      </g>
      <path class="cls-2" d="M163.55,282.86h2.86s1.96-9.1,10.72-16.03c4.58-3.63,36.07-6.68,36.07-6.68,0,0,104.83-17.04,103.81-109.88l-139.08,19.03c-11.52,1.79-12.65,1.05-23.26-.11L12,148.6s-1.93,83.39,91.77,108.32c0,0,9.48,2.21,22.38,4.44,9.58,1.66,21.99,2.32,28.87,7.44,2.83,2.1,8.63,7.12,8.53,14.06Z"/>
    </g>
    <path class="cls-16" d="M180.7,185.8c-1.51,1.74-2.37,3.9-4.47,5.03s-4.59,1.98-6.88,2.92c-1.04.43-1.84,1.21-1.84,2.41,0,1.09.78,2.13,1.84,2.41,6.38,1.69,10.68-3.83,13.51-8.67.73-1.25.14-3.43-1.49-3.67-2.11-.31-4.18-.22-6.3-.19s-4.45.04-6.67,0-4.28-.1-6.42-.2-4.28-.04-6.3-.58c-2.7-.73-4.45,3.18-1.93,4.57.69.38.97,1.16,1.28,1.86.48,1.07.93,2.08,1.7,2.98,1.45,1.72,3.68,2.79,5.72,3.63s4.27,1.37,6.53,1.6c.94.09,1.91.15,2.86.06,1.41-.13,2.11-.91,3.07-1.84,1.63-1.58,3.68-3.23,3.13-5.82s-3.15-3.34-5.42-3.54-4.53,0-6.79,0c-1.12,0-2.25-.02-3.34-.23-1.17-.22-2.24-.66-3.43-.8-2.21-.25-3.22,2.87-1.77,4.27,1.87,1.8,4.61,2.79,7.06,3.52,2.62.78,5.41,1.13,8.14.8,2.42-.29,6.58-1.01,6.65-4.14.08-3.62-4.28-3.23-6.73-3.29l.66,4.91c1.72-.47,3.44-.89,5.19-1.25,1.32-.27,2.09-1.83,1.75-3.08-.38-1.37-1.75-2.02-3.08-1.75-1.74.36-3.47.78-5.19,1.25-2.74.75-2.15,4.85.66,4.91.61.01,1.22.03,1.82.04.3,0,.61.01.91.02.74.08.62-.05-.35-.38l-.64-1.1-.03-.15.34-1.26-.17.24.9-.9c-1.82,1.4-5.22,1.23-7.35.82s-5.33-1.15-7.01-2.77l-1.77,4.27c.65.07,1.41.49,2.1.62.95.18,1.91.3,2.88.36,1.73.11,3.47.02,5.2-.02.91-.02,1.81-.02,2.72.02.34.02.71,0,1.05.08.15.03.38.19.51.17-.07-1.1-.21-1.43-.42-.97l-.26.28c-.26.28-.57.53-.86.79-.26.24-.65.51-.86.8-.39.32-.35.38.11.2.52-.09.5-.12-.06-.07-1.62-.16-3.11-.16-4.7-.59s-3.02-1.03-4.41-1.85c-1.48-.87-1.99-1.84-2.69-3.38s-1.61-2.84-3.07-3.65l-1.93,4.57c2.07.56,4.27.59,6.4.7s4.44.19,6.67.24,4.28.05,6.42.03c2.02-.02,4.19-.31,6.2,0l-1.49-3.67c-1.54,2.63-4.07,7.37-7.86,6.37v4.82c2.68-1.1,5.52-2.05,8.07-3.43,1.16-.63,2.24-1.45,3.08-2.48s1.5-2.3,2.4-3.33,1-2.53,0-3.54c-.9-.9-2.65-1.02-3.54,0h0Z"/>
    <path class="cls-10" d="M151.3,186.27s17.16,29.91,34.31,0"/>
    <line class="cls-10" x1="148.95" y1="184.9" x2="187.75" y2="184.9"/>
    <ellipse class="cls-5" cx="74.35" cy="152.64" rx="28.07" ry="30.89"/>
    <ellipse class="cls-6" cx="86.94" cy="137.48" rx="3.63" ry="2.95"/>
    <ellipse class="cls-7" cx="95.09" cy="150.28" rx="1.82" ry="1.47"/>
    <ellipse class="cls-5" cx="256.2" cy="149.49" rx="28.07" ry="30.89"/>
    <ellipse class="cls-6" cx="268.79" cy="134.33" rx="3.63" ry="2.95"/>
    <ellipse class="cls-7" cx="276.94" cy="147.12" rx="1.82" ry="1.47"/>
    <g>
      <path class="cls-1" d="M42.46,527.25s141.76,18.83,242.82,0c0,0,5.17-2.01,4.62-4.58,0,0-68.44-53.69-124.63-72.01,0,0-108.69,49.11-122.81,76.59Z"/>
      <g class="cls-15">
        <g class="cls-24">
          <path class="cls-29" d="M425.02,591.37c-50-11.24-93.88-38.69-135.78-67.12-41.1-27.88-82.1-56.37-118.99-89.74-20.86-18.87-40.39-39.32-57.32-61.81-4.59-6.09-15.01-.12-10.36,6.06,30.8,40.91,69.07,74.94,109.78,105.71,20.26,15.31,41.09,29.82,62.04,44.16s43.19,29.27,66,41.92c25.62,14.21,52.77,25.96,81.43,32.4,7.52,1.69,10.73-9.88,3.19-11.57h0Z"/>
        </g>
        <g class="cls-24">
          <path class="cls-29" d="M448.64,592.45c-57.41-18.08-110.85-45.99-161.27-78.61-49.36-31.93-95.86-67.98-142.44-103.78-26.49-20.36-53.03-40.65-80.16-60.15-6.28-4.51-12.28,5.89-6.06,10.36,48.27,34.69,94.65,71.92,142.27,107.48,47.26,35.29,95.95,69.07,148.4,96.27,30.84,15.99,62.92,29.55,96.07,39.99,7.38,2.32,10.54-9.26,3.19-11.57h0Z"/>
        </g>
      </g>
      <path class="cls-2" d="M42.46,527.25s141.76,18.83,242.82,0c0,0,5.17-2.01,4.62-4.58,0,0-68.44-53.69-124.63-72.01,0,0-108.69,49.11-122.81,76.59Z"/>
    </g>
    <line class="cls-4" x1="165.28" y1="284.42" x2="165.28" y2="450.67"/>
  </g>
  <g id="Camada_3" data-name="Camada 3">
    <g>
      <path class="cls-23" d="M1.2,50.92v-18.98s119.11,31.23,328.15,0v18.98S154.42,84.56,1.2,50.92Z"/>
      <g class="cls-21">
        <g class="cls-17">
          <path class="cls-28" d="M342.59,17.32c-24,20.76-54.84,30.64-85.26,37.59-35.22,8.04-71.07,13.86-106.87,18.58l3.03,11.18c13.72-10.54,30.28-14.98,46.85-18.89,18.31-4.32,36.72-8.21,55.15-11.97,38.22-7.79,76.49-15.32,114.74-22.97l-4.62-10.97c-64.78,34.82-138.64,45.68-210.48,56.16l3.19,11.57c42.88-17.15,85.93-34.28,130.86-45.34,7.57-1.86,4.32-13.02-3.19-11.57-80.35,15.46-160.7,30.93-241.05,46.39-7.66,1.47-4.31,12.75,3.19,11.57,78.7-12.38,157.39-24.75,236.09-37.13l66.89-10.52c2.94-.46,4.66-3.93,4.3-6.58-.43-3.2-2.88-4.81-5.89-5.2-25.72-3.35-51.54.12-76.89,4.66-25.61,4.59-51.1,9.9-76.56,15.23-50.36,10.53-100.77,21.41-151.84,27.98-29.2,3.76-58.58,6.08-88.03,6.27l1.6,11.79c53.14-10.8,106.37-21.68,160.25-28.17,53.01-6.38,106.41-7.48,159.66-10.86,30.01-1.9,59.97-4.66,89.68-9.41,7.61-1.22,4.38-12.78-3.19-11.57-53.08,8.48-106.9,10.04-160.49,12.91-53.52,2.87-106.45,8.69-159.23,18.04-30.05,5.33-59.96,11.41-89.87,17.48-6.71,1.36-5.07,11.83,1.6,11.79,103.66-.68,204.27-28.07,305.44-47.28,28.97-5.5,58.35-10.71,87.88-6.86l-1.6-11.79c-78.7,12.38-157.39,24.75-236.09,37.13l-66.89,10.52,3.19,11.57c80.35-15.46,160.7-30.93,241.05-46.39l-3.19-11.57c-44.93,11.06-87.98,28.19-130.86,45.34-7.23,2.89-4.47,12.69,3.19,11.57,72.99-10.64,147.55-22,213.35-57.37,6.26-3.37,1.78-12.25-4.62-10.97-38.89,7.77-77.8,15.41-116.65,23.36-18.9,3.87-37.79,7.84-56.54,12.37-16.36,3.95-32.89,8.92-46.42,19.31-3.99,3.07-3.68,12.06,3.03,11.18,37.42-4.93,74.9-10.85,111.69-19.38,32.02-7.42,63.73-18.5,88.93-40.3,5.85-5.06-2.67-13.52-8.49-8.49h0Z"/>
        </g>
      </g>
      <path class="cls-11" d="M1.2,50.92v-18.98s119.11,31.23,328.15,0v18.98S154.42,84.56,1.2,50.92Z"/>
    </g>
    <g>
      <path class="cls-23" d="M156.4.71C39.9,3.87,1.2,31.94,1.2,31.94c89.44,19.04,117.78,14.2,164.07,15.42,35.13.93,164.07-15.42,164.07-15.42,0,0-56.45-34.4-172.95-31.23Z"/>
      <g class="cls-14">
        <g class="cls-17">
          <path class="cls-28" d="M326.35-.69c-.05,6.15-6.23,9.92-11.12,12.41-6.36,3.25-13.2,5.51-20.02,7.58-15.06,4.57-30.34,8.48-45.6,12.3s-30.64,7.4-46.04,10.72-31.6,6.84-47.8,6.99c-7.77.07-7.67,11.55,0,12,66.16,3.84,129.61-19.01,194.42-27.98,7.62-1.05,4.37-12.62-3.19-11.57-63.77,8.82-126.14,31.34-191.23,27.55v12c17.91-.17,35.49-4.06,52.92-7.84s34.58-7.83,51.76-12.24c16.37-4.2,33.1-8.1,48.95-14.03,12.68-4.74,28.83-12.12,28.96-27.9.07-7.72-11.93-7.73-12,0h0Z"/>
        </g>
      </g>
      <path class="cls-11" d="M156.4.71C39.9,3.87,1.2,31.94,1.2,31.94c89.44,19.04,117.78,14.2,164.07,15.42,35.13.93,164.07-15.42,164.07-15.42,0,0-56.45-34.4-172.95-31.23Z"/>
    </g>
  </g>
</svg>