<?xml version="1.0" encoding="UTF-8"?>
<svg xmlns="http://www.w3.org/2000/svg" xmlns:xlink="http://www.w3.org/1999/xlink" viewBox="0 0 414.23 381.5">
  <defs>
    <style>
      .cls-1, .cls-2 {
        stroke: #fff;
      }

      .cls-1, .cls-2, .cls-3 {
        fill: #fff;
      }

      .cls-1, .cls-2, .cls-3, .cls-4, .cls-5 {
        stroke-miterlimit: 10;
      }

      .cls-1, .cls-4, .cls-5 {
        stroke-width: 5px;
      }

      .cls-6 {
        fill: #ff7e00;
        opacity: .11;
      }

      .cls-2, .cls-3 {
        stroke-width: 3px;
      }

      .cls-3, .cls-5 {
        stroke: #1d1d1b;
      }

      .cls-4 {
        fill: none;
        stroke: #662483;
      }

      .cls-7 {
        fill: #f39200;
      }

      .cls-5 {
        fill: #1d1d1b;
      }

      .cls-8 {
        clip-path: url(#clippath);
      }
    </style>
    <clipPath id="clippath">
      <path class="cls-7" d="M11.11,88.47s-4.86-52.6,12.44-63.67C28.64,21.55,304.15.73,312.19,0c6.54-.59,14.81,33.84,14.79,37.59s-48.74,8.8-48.74,8.8c0,0-4.33,86.57-2.17,106.92,2.17,20.35-8.9,161.49,56.2,122.07s54.16,34.31,52.11,40.69c-1.38,4.29-8.66,61.04-85.56,38.15S227.64,174.52,219.46,44.87c0,0-57.25,8.72-70.86,10.17,0,0-11.14,237.87-30.73,277.86-19.49,39.78-108.91,26.33-115.54-10.81-16.71-93.74,61.6-29.55,69.02-37.38,23.56-24.84,19.51-88.61,23.32-122.18,4.8-42.39,5.77-82.15-5.79-90.41,0,0-3.71-.78-77.76,16.36Z"/>
    </clipPath>
  </defs>
  <g id="Corpo">
    <g>
      <path class="cls-7" d="M11.11,88.47s-4.86-52.6,12.44-63.67C28.64,21.55,304.15.73,312.19,0c6.54-.59,14.81,33.84,14.79,37.59s-48.74,8.8-48.74,8.8c0,0-4.33,86.57-2.17,106.92,2.17,20.35-8.9,161.49,56.2,122.07s54.16,34.31,52.11,40.69c-1.38,4.29-8.66,61.04-85.56,38.15S227.64,174.52,219.46,44.87c0,0-57.25,8.72-70.86,10.17,0,0-11.14,237.87-30.73,277.86-19.49,39.78-108.91,26.33-115.54-10.81-16.71-93.74,61.6-29.55,69.02-37.38,23.56-24.84,19.51-88.61,23.32-122.18,4.8-42.39,5.77-82.15-5.79-90.41,0,0-3.71-.78-77.76,16.36Z"/>
      <g class="cls-8">
        <g>
          <path class="cls-6" d="M142.8,67.95c-1.67,6.44-2.96,12.95-3.86,19.53-1.17,6.68-2,13.4-2.51,20.16-.93,11.39-1.4,22.8-1.6,34.22-.42,23.55.36,47.14-.49,70.68-.71,19.84-2.36,39.56-6.38,59.03-1.85,8.94-4.47,17.97-7.83,26.48-2.91,7.37-6.37,14.39-10.14,21.36l.17-.29-4.22,6.86.18-.28c-1.52,2.17-3.04,4.33-4.56,6.5l.19-.27c-4.62,5.74-9.29,11.42-15.02,16.13l-5.62,4.37c-3.81,2.72-7.85,5.04-12.11,6.98-1.18.61,3.22.29,2.61.33,1.65-.1,3.29-.24,4.94-.39.87-.03,1.72-.16,2.55-.39,4.15-2.58,8.25-5.14,12.05-8.25,3.84-3.14,7.46-6.68,10.77-10.37s6.57-7.93,9.47-12.15c11.78-17.18,19.57-37.39,24.14-57.63,7.05-31.25,7.78-63.49,7.84-95.39.03-17.8.09-35.6.97-53.38.45-8.97,1.14-17.9,2.19-26.82.4-4.42,1.03-8.81,1.91-13.16.95-6.37,2.33-12.65,4.15-18.85-.41-.08-.79,0-1.16.26-1.32.6-2.62,1.23-3.9,1.89-1.29.65-2.57,1.32-3.83,2.04-.41.15-.71.41-.89.79Z"/>
          <path class="cls-6" d="M141.31,65.25c-2.21,8.65-3.88,17.4-5,26.26-1.15,9.02-1.95,18.07-2.41,27.15-1,18.27-.87,36.58-.84,54.87.02,16.15.04,32.3-.86,48.42-.42,7.95-1.1,15.87-2.04,23.77-.92,7.8-2.2,15.55-3.83,23.24l.08-.35-2.83,11.7.09-.35c-2.37,7.64-4.91,15.15-8.07,22.5-3.59,8.34-8.06,16.28-13.26,23.72-4.27,6.12-9.02,11.74-14.49,16.81-2.56,2.51-5.31,4.79-8.25,6.84-3.8,2.73-7.83,5.06-12.08,7.01-1.35.7,3.93-.38,3.12-.2,1.93-.43,3.85-.89,5.76-1.38,1.01-.21,2-.5,2.95-.89,4.07-2.5,7.89-5.32,11.48-8.47,3.68-3.23,7.1-6.71,10.26-10.45,6.65-7.8,12.18-16.54,16.8-25.68,7.86-15.55,13.17-32.47,16.49-49.54,6.13-31.47,6.23-63.68,6.49-95.61.15-18.1.34-36.23,1.63-54.29.61-8.97,1.55-17.91,2.82-26.81,1.24-8.64,3.06-17.15,5.48-25.54-.45.02-.84.19-1.18.52-1.29.9-2.55,1.84-3.8,2.8-1.26.95-2.49,1.92-3.7,2.92-.41.24-.68.57-.81,1Z"/>
          <path class="cls-6" d="M139.93,69.08c-2.15,8.65-3.79,17.4-4.93,26.24-.9,6.76-1.55,13.53-1.93,20.33-.95,13.7-1.23,27.41-1.29,41.14-.12,26.96.61,54.01-1.7,80.91-1.01,11.74-2.56,23.53-5.04,35.06-1.95,9.06-4.56,17.83-7.82,26.48-2.78,7.38-6.25,14.49-10.12,21.35-2.54,4.43-5.35,8.7-8.41,12.79-2.97,3.97-6.2,7.7-9.7,11.21l.29-.27c-1.87,1.72-3.74,3.45-5.61,5.17l.31-.25c-1.97,1.54-3.95,3.08-5.92,4.62l.32-.23-6.23,4.02.33-.21c-2.06,1.07-4.12,2.13-6.18,3.2-.4.21-.35.15,0,.35l1.05.1c1.24.02,2.48.01,3.72-.02,1.91-.03,3.82-.08,5.74-.17.7-.04,1.84.04,2.48-.38,4.3-2.64,8.34-5.63,12.12-8.97,3.84-3.4,7.4-7.06,10.68-10.99,6.83-8.12,12.48-17.21,17.18-26.71,9.6-19.42,15.25-40.68,18.39-62.04,4.08-27.77,4.24-55.88,4.52-83.88.18-17.92.41-35.86,1.71-53.74.61-8.88,1.55-17.73,2.82-26.54,1.27-8.51,3.11-16.89,5.53-25.14-.51-.02-.99.12-1.43.43-1.65.81-3.29,1.66-4.91,2.54-1.63.86-3.24,1.75-4.83,2.68-.5.2-.88.52-1.15.95Z"/>
          <path class="cls-6" d="M140.64,73.65c-2.13,8.65-3.76,17.39-4.9,26.23-1.15,9.02-1.95,18.08-2.4,27.16-.99,18.28-.85,36.59-.83,54.89.04,27.99.01,56.16-4.55,83.86-3.42,20.74-9.53,41.08-20.07,59.36-5.02,8.71-10.99,16.94-18.14,24.04-3.4,3.41-7.07,6.5-10.99,9.29-3.84,2.72-7.91,5.05-12.2,6.97.21.32.52.5.92.57,1.24.41,2.49.79,3.75,1.13,1.25.36,2.52.69,3.79.98.38.16.74.15,1.08,0,4.63-2.31,9.01-5.03,13.13-8.17,4.18-3.19,8.07-6.69,11.67-10.52,7.47-7.88,13.69-16.91,18.88-26.43,4.02-7.37,7.4-15.14,10.26-23.03,1.84-5.2,3.55-10.44,5.12-15.73,2-7.79,3.61-15.66,4.84-23.6,4.37-27.72,4.49-55.85,4.49-83.84,0-17.82-.07-35.67.94-53.46.46-8.85,1.26-17.68,2.41-26.47,1.13-8.4,2.8-16.69,5.03-24.87.08-.32-6.31.48-6.15.46-.27.04-5.87.37-6.05,1.2Z"/>
          <path class="cls-6" d="M142.77,65.34c-2.37,8.66-4.09,17.45-5.16,26.36-1.15,9.03-1.95,18.08-2.4,27.17-.74,13.72-.82,27.48-.84,41.22-.03,28.63.69,57.42-2.85,85.9-3.34,26.85-10.42,54.5-25.75,77.27-4.17,6.2-8.74,12.12-14.05,17.39-3.38,3.38-7.02,6.46-10.91,9.24-3.8,2.7-7.82,5.02-12.07,6.94-1.16.6,3.19-.14,2.49,0,1.53-.31,3.06-.65,4.58-1.01.81-.14,1.59-.38,2.34-.7,4.12-2.33,8-5,11.65-8.01,3.75-3.1,7.24-6.46,10.47-10.1,6.82-7.6,12.49-16.19,17.25-25.21,9.08-17.19,14.69-35.92,18.06-55,5.23-29.64,5.4-59.75,5.52-89.76.07-18.14.15-36.31,1.34-54.42.56-9,1.45-17.96,2.67-26.89,1.11-8.75,2.95-17.34,5.53-25.78-.36-.05-.7.06-.99.32-1.07.66-2.13,1.35-3.16,2.06-.78.53-3.46,1.85-3.73,3.01Z"/>
          <path class="cls-6" d="M140.19,63.47c-1.05,4.26-1.97,8.54-2.77,12.86-1.62,8.88-2.81,17.83-3.56,26.83-1.21,13.66-1.59,27.42-1.75,41.12-.34,29.17.76,58.41-1.73,87.52-2,23.44-6.08,47.27-15.82,68.85-3.21,7.1-6.79,14.02-11.07,20.55-2.74,4.21-5.75,8.22-9.01,12.03-7.49,8.81-16.52,15.87-27.1,21.18-.23.12-1.01.38-1.05.72-.03.24,2.1-.45,2.17-.47,1.6-.55,3.17-1.15,4.75-1.76,1.26-.49,2.73-.92,3.87-1.67,3.95-2.39,7.67-5.09,11.16-8.11,3.6-3.12,6.95-6.48,10.05-10.09,4.89-5.66,9.08-11.84,12.89-18.25,11.06-18.59,17.39-39.89,21.05-61.06,4.44-25.67,5.19-51.74,5.44-77.74.13-13.22.11-26.44.45-39.65.2-9.12.61-18.22,1.22-27.32,1.11-17.69,3.82-35.17,8.12-52.44.09-.37.08-.27-.25-.25l-.67.48c-.72.64-1.42,1.3-2.11,1.97-1.07,1.03-2.13,2.07-3.15,3.14-.43.45-1.01.95-1.15,1.58Z"/>
          <path class="cls-6" d="M138.96,62.17c-1.99,8.59-3.56,17.25-4.71,26l-1.47,13.54c-1.31,13.65-1.61,27.49-1.77,41.19-.3,25.31.61,50.68-.92,75.96-.72,11.85-1.66,23.73-3.69,35.44-1.77,10.28-3.88,20.53-7.26,30.42-2.14,6.25-4.55,12.37-7.38,18.35-4.62,10.19-10.6,19.63-17.93,28.31-6.14,7.25-13.31,13.37-21.51,18.39,1.79-1.08,3.59-2.16,5.38-3.24-3.82,2.14-7.65,4.28-11.47,6.42-1.17.66-.86.95.27.53,2.46-.91,5.02-2.28,7.25-3.67,5.82-3.61,11.31-7.47,16.28-12.25,4.4-4.23,8.32-8.92,11.9-13.85,11.35-15.64,19.25-34,23.98-52.71,7.8-30.86,8.79-62.96,9.07-94.63.17-20.1.09-40.21,1.16-60.29.49-9.12,1.22-18.19,2.32-27.25.43-4.49,1.08-8.96,1.94-13.39.97-6.47,2.3-12.87,4.01-19.19.26-1.12-2.02,1.56-1.72,1.23-.86.99-1.71,2-2.53,3.02-.47.51-.86,1.07-1.17,1.69Z"/>
          <path class="cls-6" d="M141.75,68.79c-2.16,8.64-3.81,17.37-4.95,26.21-.9,6.75-1.55,13.53-1.93,20.33-.95,13.7-1.24,27.4-1.3,41.13-.12,26.96.6,54-1.7,80.9-1.01,11.74-2.55,23.54-5.03,35.06-1.95,9.06-4.55,17.83-7.81,26.49-2.78,7.39-6.24,14.51-10.11,21.38-2.54,4.44-5.34,8.71-8.4,12.81-2.97,3.97-6.2,7.72-9.69,11.23l.29-.27c-1.87,1.73-3.74,3.45-5.6,5.18l.3-.25-5.92,4.63.31-.23-6.23,4.03.32-.21-6.19,3.21c-.39.2-.33.16.01.35l1.02.09c1.21.01,2.41,0,3.62-.04,1.86-.05,3.72-.1,5.58-.21.71-.04,1.77.02,2.4-.4,4.3-2.57,8.34-5.49,12.13-8.76,3.86-3.34,7.44-6.94,10.76-10.82,6.91-8.03,12.63-17.05,17.41-26.49,9.78-19.34,15.58-40.56,18.79-61.93,4.17-27.76,4.31-55.89,4.5-83.9.13-17.93.28-35.88,1.52-53.77.58-8.89,1.49-17.75,2.72-26.57,1.23-8.5,3.04-16.88,5.43-25.13-.5-.05-.97.07-1.41.36-1.64.73-3.26,1.49-4.87,2.28-1.62.78-3.22,1.58-4.8,2.43-.5.17-.88.47-1.15.89Z"/>
          <path class="cls-6" d="M139.51,64.72c-1.71,6.47-3.02,13.01-3.93,19.63-1.17,6.68-2.01,13.4-2.51,20.17-1.21,13.64-1.62,27.41-1.75,41.1-.12,13.2.03,26.4-.03,39.6-.06,12.1-.36,24.17-.88,36.26l.02-.34c-1.09,15.78-2.52,31.51-5.84,47-2.77,12.91-6.85,25.46-12.48,37.41-4.38,9.3-9.65,18.12-16.09,26.15-3.08,3.84-6.36,7.42-9.98,10.76-1.69,1.7-3.5,3.25-5.45,4.64-4.51,3.73-9.46,6.78-14.87,9.17-.39.24-.35.35.1.33,1.01-.15,2-.39,2.97-.72,1.88-.55,3.75-1.13,5.61-1.73.99-.27,1.94-.62,2.86-1.07,3.99-2.5,7.75-5.32,11.27-8.45,3.61-3.21,6.97-6.67,10.07-10.38,6.54-7.75,11.97-16.41,16.51-25.46,10.41-20.75,15.94-43.46,18.89-66.38,3.35-26.01,3.53-52.21,3.78-78.4.17-18.17.4-36.36,1.74-54.48.63-9,1.59-17.97,2.88-26.9,1.26-8.69,3.09-17.25,5.48-25.69-.43.05-.79.25-1.08.6-1.15.98-2.27,1.98-3.37,3.01-1.11,1.02-2.2,2.06-3.26,3.13-.37.27-.59.61-.68,1.03Z"/>
          <path class="cls-6" d="M139.85,61.86c-1.92,8.58-3.47,17.24-4.64,25.95l-1.47,13.55c-1.3,13.66-1.6,27.52-1.75,41.24-.28,25.32.65,50.69-.88,75.98-.71,11.84-1.66,23.71-3.69,35.41-1.78,10.26-3.89,20.5-7.28,30.36l-2.69,7.47c-2.63,7.22-6.15,13.99-10.58,20.32-3.13,6.91-7.19,13.17-12.18,18.8-6.14,7.2-13.31,13.27-21.5,18.23l4.52-2.75c-3.12,1.73-6.24,3.46-9.37,5.19,0,0-2.57,1.15-1.63,1.44.69-.18,1.34-.45,1.95-.8,1.21-.59,2.41-1.21,3.6-1.85,3.17-1.77,6.21-3.57,9.16-5.69,6.83-4.92,12.77-10.78,18.12-17.28,10.58-12.86,18.06-28.55,23.3-44.22,10.71-32.01,12.2-66.29,12.58-99.77.23-19.85-.05-39.71.71-59.56.35-9.15.93-18.3,1.77-27.41.58-6.78,1.48-13.51,2.7-20.2.95-6.46,2.24-12.85,3.89-19.17.22-1.01-1.77,1.18-1.52.92-.74.8-1.46,1.61-2.15,2.45-.41.41-.73.87-.98,1.39Z"/>
          <path class="cls-6" d="M140.67,71.58c-2.15,8.65-3.79,17.4-4.93,26.24-1.15,9.02-1.95,18.08-2.41,27.16-1,18.28-.86,36.59-.84,54.89.04,28,0,56.16-4.56,83.87-3.42,20.74-9.53,41.06-20.05,59.34-5.01,8.7-10.96,16.92-18.08,24.02-3.38,3.4-7.03,6.5-10.93,9.29-3.81,2.72-7.85,5.06-12.12,7,.34.31.74.46,1.23.47,1.58.28,3.17.53,4.76.74,1.59.23,3.19.43,4.79.59.46.12.9.08,1.31-.12,4.51-2.51,8.75-5.41,12.72-8.7,4.03-3.34,7.78-6.97,11.25-10.9,7.18-8.09,13.14-17.24,18.09-26.84,10.05-19.48,16.02-40.92,19.29-62.52,4.2-27.75,4.36-55.86,4.51-83.85.1-17.82.19-35.66,1.35-53.45.54-8.84,1.41-17.65,2.61-26.43,1.2-8.42,2.97-16.71,5.33-24.89-.5-.12-.99-.07-1.48.14-1.77.48-3.54.99-5.29,1.54-1.76.53-3.51,1.09-5.24,1.69-.53.1-.96.33-1.31.71Z"/>
          <path class="cls-6" d="M141.01,66.87c-1.69,6.45-2.99,12.98-3.9,19.58-1.17,6.67-2.01,13.39-2.51,20.15-.75,9.1-1.2,18.22-1.49,27.34-.78,23.82.03,47.66-.51,71.49-.45,19.88-1.75,39.75-5.43,59.32-1.58,8.38-3.5,16.66-6.2,24.74-2.53,7.57-5.7,14.82-9.1,22.03l.18-.35-3.89,7.23.2-.34c-1.41,2.31-2.83,4.61-4.24,6.92l.21-.33-4.58,6.56.23-.33c-4.6,5.76-9.27,11.45-14.97,16.18l-5.61,4.39c-3.8,2.73-7.83,5.07-12.08,7.03-1.4.72,4.14-.06,3.35.04,2.11-.28,4.21-.59,6.3-.93,1.1-.13,2.19-.35,3.25-.66,4.19-2.86,8.23-5.65,12.02-9.04,4.68-4.19,8.87-8.85,12.73-13.8,6.46-8.3,11.77-17.36,16.19-26.9,2.28-4.93,4.31-9.94,6.12-15.06,2.24-6.36,4.38-12.89,5.98-19.44,7.58-31.04,8.55-63.37,8.9-95.17.22-19.79.25-39.59,1.4-59.36.52-8.95,1.29-17.86,2.4-26.76.42-4.41,1.1-8.78,2.02-13.12,1.02-6.38,2.46-12.66,4.34-18.85-.5.02-.95.19-1.35.53-1.52.93-3.02,1.88-4.51,2.87-1.49.97-2.97,1.97-4.42,3-.47.23-.81.58-1.02,1.03Z"/>
        </g>
        <g>
          <path class="cls-6" d="M129.97,290.94c-.75,3.82-1.86,7.52-3.33,11.12-1.27,3.66-2.76,7.23-4.46,10.71-3.18,6.62-6.77,12.98-10.54,19.28l.19-.28-4.15,6.11.2-.27c-2.68,3.73-5.68,7.17-9.01,10.32-1.66,1.38-3.32,2.76-4.97,4.13-5.75,4.44-12.47,7.52-19.28,9.94-12.73,4.53-26.17,6.58-39.43,8.91-1.27.22,2.79,1.43,2.31,1.27,1.58.52,3.16,1.01,4.75,1.47.82.29,1.66.49,2.52.59,23.09-5.19,47.18-11.15,63.99-29.04,5.02-5.34,9.08-11.44,12.83-17.72,7.79-13.08,13.59-27.4,17.99-41.93-.41-.06-.8.04-1.15.3-1.3.65-2.58,1.34-3.84,2.06-1.27.7-2.53,1.43-3.76,2.19-.41.17-.7.44-.86.82Z"/>
          <path class="cls-6" d="M128.47,288.24l-2.07,7.58.12-.34c-2.24,6.07-4.61,12-7.5,17.8-2.17,4.36-4.46,8.63-6.95,12.81-5.84,9.83-12.75,18.72-22.32,25.15-16.48,11.07-36.89,13.89-56.02,17.31-.49.03-.51.14-.07.34,1.04.36,2.1.62,3.18.79,2.06.42,4.13.81,6.2,1.18,1.07.24,2.16.39,3.25.44,22.33-5.77,46.08-12.8,61.7-30.95,7.81-9.08,13.56-19.59,18.66-30.38,4.47-9.45,7.92-19.33,10.95-29.32-.44.03-.82.22-1.15.56-1.24.95-2.47,1.93-3.66,2.93-1.21.99-2.4,2.01-3.56,3.05-.4.25-.65.6-.77,1.02Z"/>
          <path class="cls-6" d="M127.1,292.06c-1.34,5.05-2.72,9.98-4.69,14.83-2.38,5.86-5.24,11.52-8.26,17.06-2.28,4.18-4.68,8.26-7.35,12.2-1.23,1.98-2.61,3.85-4.13,5.62-2.04,2.75-4.33,5.28-6.86,7.59l.29-.27c-1.76,1.46-3.51,2.93-5.27,4.39l.31-.25-5.22,3.51c-2.65,1.63-5.4,3.03-8.27,4.21-4.71,2.08-9.58,3.79-14.55,5.12-10.2,2.73-20.62,4.45-31.01,6.27.25.4.62.67,1.09.82,1.5.75,3.02,1.47,4.56,2.16,1.53.71,3.07,1.38,4.62,2.02.43.26.87.35,1.34.28,21.5-5.09,44.21-11.18,60.45-27.14,7.83-7.7,13.86-16.76,18.95-26.45,6.57-12.51,11.78-25.7,16.01-39.17-.51,0-.98.17-1.41.5-1.61.89-3.21,1.82-4.78,2.78-1.59.94-3.15,1.91-4.7,2.91-.49.22-.86.56-1.1,1.01Z"/>
          <path class="cls-6" d="M127.8,296.64c-.74,3.84-1.84,7.56-3.29,11.18-.81,2.45-1.77,4.83-2.89,7.15-2.52,5.7-5.32,11.28-8.41,16.69-5.59,9.8-12.33,19.77-21.65,26.43-17.32,12.37-38.8,15.13-59.26,18.54.03.32.2.57.5.75.82.69,1.66,1.35,2.52,1.98.62.47,2.48,2.3,3.48,2.12,10.94-1.95,21.97-3.76,32.63-6.94,10.95-3.26,22.04-8.06,30.87-15.47,8.63-7.24,15.24-16.19,20.82-25.92,3.24-5.64,6.24-11.42,8.9-17.35,1.06-2.5,2.11-5,3.17-7.49,2.02-4.52,3.66-9.17,4.92-13.96.07-.22-6.37.8-6.22.77-1.62.29-3.24.62-4.85.98-.49.03-.9.21-1.24.53Z"/>
          <path class="cls-6" d="M129.94,288.33c-1.61,4.88-3.23,9.77-4.84,14.65-1.43,3.58-3.04,7.08-4.82,10.49-2.17,4.34-4.48,8.6-6.97,12.77-5.85,9.8-12.76,18.65-22.35,25.03-16.47,10.95-36.84,13.66-55.9,17.03-1.35.24,3.2,1.09,2.52.96,1.67.3,3.34.58,5.02.83.87.18,1.75.26,2.64.25,10.16-2.4,20.36-4.8,30.16-8.45,9.66-3.6,19.36-8.49,27.05-15.48s13.76-15.64,18.83-24.82c3.01-5.44,5.83-10.99,8.29-16.7,3.12-7.24,5.6-14.72,8.02-22.22-.36-.04-.69.08-.98.35-1.04.69-2.07,1.42-3.07,2.17-.88.65-3.24,1.9-3.6,3.13Z"/>
          <path class="cls-6" d="M127.46,286.11c-1.11,5.08-2.67,10.02-4.68,14.81-1.94,4.75-4.11,9.38-6.51,13.91-3.32,6.28-6.79,12.51-10.99,18.25-3.02,4.54-6.79,8.34-11.33,11.41-6.56,6.68-14.48,11.23-23.76,13.63-12.08,4.16-24.82,6.11-37.36,8.36-1.54.28,4.03.82,3.17.74,2.05.16,4.11.3,6.17.41,1.07.11,2.14.12,3.21.03,9.98-2.65,19.99-5.36,29.55-9.32,9.28-3.85,18.52-8.92,25.84-15.91s13.19-15.62,18.06-24.68c6.61-12.3,11.62-25.02,15.53-38.42.35-1.21-2.43,1.77-2.08,1.42-1.11,1.13-2.19,2.28-3.26,3.45-.6.58-1.12,1.22-1.56,1.91Z"/>
          <path class="cls-6" d="M126.12,285.21c-.66,3.76-1.71,7.4-3.13,10.92-1.24,3.66-2.71,7.22-4.42,10.69-6.94,14.48-14.99,27.98-27.72,38.79l4.85-3.59c-3.33,2.36-6.66,4.71-9.99,7.07l5.2-3.37c-3.52,2.1-7.04,4.2-10.56,6.3l5.56-3.1-9.6,4.81c1.99-.9,3.98-1.79,5.97-2.69-6.35,2.44-12.69,4.88-19.04,7.33,2.19-.7,4.39-1.41,6.58-2.11-12.98,3.77-24.91,6.3-37.87,8.67-.42.13-.42.25.01.35.99.11,1.97.13,2.97.06,1.9-.05,3.8-.13,5.7-.24,1,0,1.98-.11,2.95-.31,16.62-4.33,33.3-8.82,47.71-18.47,7.74-5.19,14.23-12.42,19.27-20.22,3.82-5.9,7.16-12.09,10.21-18.42,2.24-4.57,4.24-9.24,6.01-14.01,1.82-4.72,3.31-9.55,4.47-14.47.3-1.12-1.99,1.66-1.65,1.26-.81,1-1.61,2.02-2.38,3.05-.45.52-.81,1.08-1.09,1.69Z"/>
          <path class="cls-6" d="M128.91,291.77c-1.34,5.04-2.73,9.95-4.69,14.79-2.38,5.87-5.23,11.53-8.25,17.09-2.27,4.18-4.68,8.26-7.35,12.21-1.23,1.98-2.61,3.86-4.13,5.63-2.04,2.75-4.33,5.29-6.86,7.61l.29-.26-5.26,4.4.3-.24c-3.36,2.5-6.92,4.67-10.69,6.5-3.71,1.8-7.53,3.33-11.46,4.6-8.03,2.65-16.32,4.28-24.61,5.89l.37-.07c-4.23.76-8.47,1.52-12.71,2.26.27.38.64.64,1.12.76,1.52.67,3.05,1.3,4.6,1.91,1.54.62,3.09,1.21,4.66,1.76.43.23.88.3,1.34.21,18.22-4.28,36.65-9.01,52.11-19.99,10.73-7.62,18.94-17.81,25.32-29.26,7.47-13.42,13.35-27.65,17.92-42.31-.5-.02-.97.12-1.4.42-1.61.8-3.21,1.64-4.79,2.51-1.59.85-3.16,1.73-4.71,2.65-.49.2-.86.51-1.12.94Z"/>
          <path class="cls-6" d="M126.75,287.38c-1.15,5.1-2.73,10.07-4.74,14.9-1.94,4.75-4.11,9.39-6.51,13.93-3.82,7.35-8,14.48-13.15,20.99-2.03,2.75-4.31,5.29-6.84,7.61-11.85,9.2-24.85,15.33-39,18.38-8.12,1.89-16.36,3.25-24.57,4.72-1.54.27,3.92,1.21,3.16,1.07,2.08.38,4.16.72,6.25,1.05,1.08.22,2.18.34,3.28.37,19.97-5.35,41.26-11.62,56.4-26.53,7.44-7.33,13.17-15.97,18.04-25.18,6.54-12.37,11.53-25.24,15.48-38.65.37-1.26-2.64,1.89-2.3,1.56-1.25,1.23-2.49,2.47-3.71,3.73-.67.63-1.27,1.32-1.8,2.07Z"/>
          <path class="cls-6" d="M127.04,284.9c-.93,4.99-2.39,9.82-4.4,14.48-1.42,3.56-3.03,7.03-4.81,10.42-1.6,3.28-3.31,6.5-5.13,9.66-5.16,10.12-12.16,18.67-20.99,25.64l4.07-2.99c-3.07,2.14-6.14,4.29-9.21,6.43l4.37-2.84-8.53,5,4.74-2.55c-3.4,1.68-6.79,3.35-10.19,5.03l5.05-2.33-10.66,4.44,5.36-2.09c-14.01,4.65-28.26,8.22-42.75,10.73-1.34.25-1.27.57.05.59,1.43-.07,2.85-.17,4.27-.31,1.42-.12,2.84-.27,4.25-.47,16.55-3.93,33.5-7.56,47.97-16.93,7.93-5.13,14.27-11.93,19.67-19.63,4.12-5.89,7.54-12.34,10.71-18.77,2.29-4.54,4.33-9.18,6.13-13.93,1.83-4.69,3.31-9.5,4.43-14.41.27-1.01-1.75,1.26-1.47.94-.7.8-1.38,1.62-2.03,2.46-.39.41-.69.88-.92,1.39Z"/>
          <path class="cls-6" d="M127.84,294.57c-.76,3.84-1.87,7.57-3.34,11.19-.82,2.44-1.78,4.83-2.89,7.15-2.51,5.7-5.32,11.27-8.4,16.68-5.57,9.79-12.28,19.74-21.56,26.42-17.2,12.37-38.55,15.34-58.9,18.87.15.38.42.66.82.84,1.19.79,2.41,1.55,3.64,2.28,1.22.75,2.46,1.46,3.72,2.14.35.27.72.38,1.13.33,10.93-2.26,21.93-4.49,32.48-8.2s21.48-9.18,29.96-16.94c8.27-7.57,14.62-16.66,19.98-26.46,6.8-12.44,12.3-25.59,16.59-39.09-.51-.09-1-.02-1.49.22-1.76.57-3.52,1.18-5.26,1.82-1.75.62-3.48,1.28-5.2,1.97-.53.12-.95.38-1.29.78Z"/>
          <path class="cls-6" d="M128.17,289.85c-.78,3.84-1.9,7.57-3.37,11.19-1.27,3.66-2.76,7.23-4.46,10.71-3.18,6.63-6.75,13-10.51,19.31l.22-.33c-1.39,2.06-2.78,4.12-4.17,6.17l.23-.32c-1.51,1.92-3.03,3.83-4.54,5.75l.25-.31c-2.14,2.6-4.53,4.93-7.18,6.99-2.37,2.13-4.94,3.99-7.71,5.59-5.22,3.17-11.08,5.7-16.9,7.56-12.04,3.86-24.53,5.91-36.94,8.12.35.38.79.61,1.32.7,1.74.58,3.5,1.13,5.26,1.64,1.76.53,3.53,1.03,5.31,1.49.49.21.99.25,1.49.13,18.86-4.84,38.03-10.37,53.41-22.9,7.23-5.89,13.01-13.03,18.06-20.86,3.97-6.16,7.21-12.81,10.3-19.45,4.37-9.38,7.84-19.2,10.88-29.08-.5.04-.94.23-1.32.59-1.48.99-2.93,2.01-4.37,3.06-1.45,1.03-2.87,2.09-4.28,3.18-.46.25-.78.61-.97,1.07Z"/>
        </g>
        <g>
          <path class="cls-6" d="M241.06,323.94c3.69,3.68,7.66,7.02,11.93,10.01,3.25,2.32,6.67,4.35,10.25,6.1,7.12,3.72,14.5,6.51,22.3,8.44,16.94,4.2,34.81,4.01,51.58-.95,16.12-4.77,30.54-13.78,42.98-24.96,6.45-5.8,12.07-12.48,17.22-19.44,3.46-4.79,6.59-9.79,9.39-14.99,2.85-5.29,5.33-10.74,7.46-16.35-.47-.16-.95-.16-1.44.01-1.75.32-3.49.68-5.22,1.07-1.74.37-3.46.78-5.18,1.22-.52.05-.96.25-1.32.59-2.28,4.94-4.86,9.71-7.76,14.3-2.09,3.4-4.4,6.65-6.91,9.74-4.79,6.16-10.07,11.76-15.97,16.86-12.03,10.39-26.26,18.34-41.8,22.01-13.99,3.3-28.48,2.86-42.42-.47-7.12-1.7-13.94-4.5-20.47-7.78-4.45-2.3-8.69-4.93-12.71-7.91-3.75-2.97-7.23-6.23-10.44-9.78-.3.35-.45.76-.45,1.25-.26,1.61-.47,3.22-.66,4.84-.2,1.62-.37,3.24-.5,4.86-.11.47-.07.91.14,1.32Z"/>
          <path class="cls-6" d="M239.39,321.41c3.67,3.69,7.63,7.03,11.89,10.02,3.25,2.31,6.67,4.35,10.25,6.1,7.12,3.73,14.49,6.52,22.29,8.45,16.94,4.21,34.8,4.03,51.57-.93,16.11-4.77,30.52-13.77,42.96-24.95,6.45-5.79,12.06-12.47,17.21-19.42,3.46-4.78,6.58-9.77,9.38-14.97,2.85-5.28,5.34-10.73,7.46-16.34.1-.23-6.78-.08-6.62-.09-1.74.06-3.48.17-5.22.3-.51-.04-.97.08-1.37.36-2.07,5.01-4.45,9.86-7.16,14.56-1.96,3.49-4.14,6.84-6.53,10.05-4.58,6.42-9.69,12.3-15.46,17.68-11.94,11.15-26.31,19.81-42.21,23.91-14.38,3.71-29.36,3.38-43.77-.02-7.3-1.72-14.29-4.6-20.97-7.97-4.52-2.35-8.84-5.04-12.94-8.06-3.85-3.01-7.42-6.33-10.68-9.97-.26.34-.36.73-.31,1.18-.08,1.48-.11,2.97-.12,4.46-.02,1.49,0,2.97.04,4.46-.06.45.04.84.29,1.18Z"/>
          <path class="cls-6" d="M238.1,325.18c3.72,3.67,7.72,7.01,12,10.01,3.25,2.31,6.66,4.34,10.24,6.09,7.12,3.72,14.48,6.5,22.28,8.43,16.91,4.19,34.75,4.02,51.5-.91,16.11-4.74,30.53-13.71,42.98-24.86,6.46-5.79,12.1-12.46,17.26-19.41,3.47-4.79,6.6-9.78,9.41-14.98,2.86-5.29,5.35-10.74,7.49-16.36-.4-.15-.81-.14-1.23.03-1.46.33-2.91.7-4.35,1.11-1.44.39-2.88.81-4.3,1.26-.45.07-.8.27-1.07.6-2.3,5.17-4.94,10.17-7.92,14.98-2.16,3.57-4.54,6.98-7.16,10.22-5,6.48-10.54,12.34-16.79,17.64-12.73,10.8-27.88,18.78-44.35,21.99-14.53,2.83-29.42,1.69-43.61-2.36-7.13-2.03-13.93-5.15-20.43-8.69-4.4-2.46-8.6-5.24-12.58-8.33-3.75-3.14-7.25-6.54-10.51-10.19-.22.45-.28.94-.18,1.46.09,1.81.21,3.63.37,5.44.14,1.81.31,3.62.52,5.42-.02.53.12,1,.41,1.42Z"/>
          <path class="cls-6" d="M239.26,329.82c3.74,3.72,7.78,7.08,12.12,10.08,4.4,3.02,9.01,5.66,13.85,7.91,7.31,3.3,14.89,5.91,22.76,7.51,17.2,3.49,35.13,2.38,51.73-3.33,17.25-5.93,32.65-16.43,45.22-29.58,6.07-6.35,11.37-13.33,16.14-20.69,4.9-7.56,8.49-15.56,11.98-23.81.44-1.04-2.42.89-2.19.75-1.24.75-2.47,1.52-3.68,2.32-.66.38-1.27.83-1.81,1.36-6.18,13.44-14.58,25.51-25.2,36.21l.23-.24-6.5,6,.26-.22-6.85,5.42.28-.2c-2.39,1.6-4.77,3.21-7.16,4.81l.31-.18c-4.82,2.71-9.59,5.33-14.69,7.49-5.94,2.52-12.27,4.19-18.61,5.29-10.8,1.89-22.11,1.88-32.87-.36-9.33-1.94-18.4-5.05-26.9-9.37-5.41-2.75-10.55-5.98-15.4-9.64s-8.87-7.96-13-12.43c-.26.48-.36,1-.3,1.56-.07,1.96-.1,3.92-.09,5.89-.01,1.96,0,3.92.07,5.89-.06.56.03,1.08.3,1.56Z"/>
          <path class="cls-6" d="M241.11,321.74c3.67,3.68,7.63,7,11.89,9.98,3.26,2.31,6.68,4.34,10.27,6.09,7.13,3.72,14.52,6.5,22.33,8.42,16.97,4.17,34.85,3.95,51.62-1.05,16.12-4.8,30.52-13.84,42.96-25.04,6.45-5.81,12.06-12.49,17.21-19.45,3.46-4.79,6.58-9.79,9.38-14.99,2.85-5.29,5.33-10.74,7.46-16.36.1-.24-6.72-.11-6.57-.12-1.73.06-3.45.15-5.17.28-.51-.04-.96.08-1.36.35-2.07,4.95-4.44,9.75-7.11,14.4-1.94,3.46-4.09,6.77-6.45,9.95-4.52,6.37-9.54,12.21-15.2,17.59-11.75,11.17-25.87,20-41.56,24.39-14.28,4-29.24,4.01-43.69.92-7.34-1.57-14.38-4.31-21.12-7.57-4.56-2.28-8.92-4.91-13.06-7.88-3.92-2.92-7.5-6.2-10.74-9.85-.28.26-.41.6-.41,1.01-.2,1.3-.37,2.61-.5,3.92-.15,1.31-.27,2.62-.34,3.93-.09.4-.03.76.18,1.07Z"/>
          <path class="cls-6" d="M238.78,320.34c3.77,3.46,7.74,6.68,11.89,9.67,3.27,2.31,6.7,4.35,10.29,6.1,7.15,3.73,14.56,6.51,22.39,8.44,17.04,4.19,34.99,3.94,51.82-1.12,16.15-4.86,30.57-13.96,43-25.24,6.43-5.83,12.03-12.54,17.16-19.53,3.44-4.8,6.55-9.81,9.34-15.02,2.83-5.29,5.31-10.75,7.42-16.36.15-.37-5.84-.9-5.7-.89-.23-.02-5.46-.87-5.77-.14-1.92,5.15-4.17,10.16-6.75,15.02-1.87,3.63-3.97,7.11-6.3,10.46-4.46,6.73-9.48,12.91-15.2,18.61-11.92,11.9-26.47,21.31-42.76,25.97-14.74,4.22-30.23,4.23-45.16.98-7.51-1.63-14.73-4.48-21.62-7.84-4.63-2.34-9.06-5.03-13.27-8.06-3.95-2.97-7.63-6.26-11.02-9.85-.24.25-.33.56-.27.93-.03,1.16-.03,2.32,0,3.48.02.77-.3,3.71.49,4.39Z"/>
          <path class="cls-6" d="M238.05,319.4c3.69,3.67,7.67,6.98,11.95,9.94,2.27,1.55,4.59,3.02,6.98,4.39,7.05,3.9,14.43,7.1,22.19,9.31,16.98,4.82,35.04,5.05,52.12.57,17.72-4.64,33.79-14.18,47.09-26.7,6.36-5.99,11.97-12.65,17.09-19.71,3.42-4.83,6.51-9.87,9.27-15.11,2.8-5.32,5.25-10.79,7.34-16.43.18-.45-4.62-1.28-4.55-1.27-.14-.03-4.45-1.16-4.69-.53-1.84,5.32-4.01,10.5-6.53,15.54l-3.98,7.35c-4.04,7.09-9.11,13.95-14.55,20.03s-11.49,11.6-18.03,16.32-13.56,8.77-20.87,11.61c-14.59,5.66-30.57,8.04-46.14,5.76-6.49-.95-12.8-2.45-19-4.61-3.75-1.19-7.39-2.68-10.9-4.47-9.6-4.35-17.86-10.36-24.76-18.03-.63-.63-.45,1.62-.45,1.56.03.98.08,1.97.15,2.95,0,.53.08,1.03.26,1.52Z"/>
          <path class="cls-6" d="M239.74,324.84c3.71,3.67,7.71,7.01,11.98,10.01,3.25,2.31,6.66,4.35,10.24,6.09,7.12,3.72,14.49,6.51,22.29,8.44,16.92,4.19,34.76,4.01,51.51-.94,16.09-4.76,30.48-13.73,42.91-24.89,6.44-5.78,12.06-12.44,17.21-19.39,3.46-4.78,6.58-9.76,9.38-14.95,2.85-5.28,5.34-10.72,7.47-16.32-.48-.14-.97-.11-1.46.09-1.75.42-3.5.87-5.24,1.35-1.74.47-3.47.97-5.19,1.51-.52.08-.96.3-1.3.67-2.33,5-4.99,9.82-7.97,14.46-2.15,3.43-4.53,6.71-7.12,9.81-4.94,6.19-10.38,11.79-16.48,16.84-12.35,10.23-26.94,17.81-42.74,20.93-14.03,2.77-28.42,1.79-42.17-1.96-7-1.91-13.68-4.88-20.07-8.28-4.36-2.38-8.51-5.08-12.45-8.11-3.68-3.08-7.1-6.41-10.28-9.99-.28.46-.39.97-.35,1.52-.13,1.93-.22,3.85-.28,5.78-.08,1.93-.12,3.86-.12,5.79-.08.55,0,1.07.25,1.54Z"/>
          <path class="cls-6" d="M237.71,320.88c3.59,3.89,7.57,7.33,11.94,10.31,3.26,2.32,6.68,4.35,10.27,6.1,7.14,3.74,14.53,6.53,22.35,8.47,17.01,4.22,34.95,4.02,51.79-.99,16.18-4.82,30.63-13.9,43.08-25.16,6.45-5.83,12.06-12.54,17.2-19.54,3.45-4.81,6.57-9.82,9.36-15.03,2.83-5.3,5.31-10.76,7.43-16.39.13-.32-5.49-.36-5.35-.36-.35,0-5.01-.4-5.34.39-2.02,5.2-4.36,10.24-7.05,15.12-1.95,3.64-4.12,7.13-6.53,10.48-4.61,6.72-9.79,12.87-15.67,18.52-12.21,11.73-27.03,20.86-43.49,25.19-14.83,3.9-30.3,3.6-45.17.1-7.47-1.76-14.63-4.71-21.46-8.15-4.59-2.39-8.98-5.12-13.16-8.18-4.07-3.02-7.73-6.47-10.99-10.34-.22.29-.29.63-.21,1.02.04,1.25.12,2.5.24,3.75.08.97-.09,3.87.78,4.7Z"/>
          <path class="cls-6" d="M239.56,318.39c5.63,5.92,5.5,6.28,12.12,10.83s13.92,8.25,21.38,11c17.73,6.54,37.36,7.99,55.82,3.91,19.04-4.21,36.97-14.34,50.95-27.85,6.27-6.05,12.01-12.58,17.05-19.7,3.41-4.83,6.5-9.86,9.26-15.09,2.8-5.31,5.25-10.78,7.35-16.41.09-.23-9.24-3.43-9.58-2.51-2.94,7.88-6.14,15.49-10.23,22.84-4,7.19-8.93,13.85-14.26,20.11-11.24,13.18-25.89,23.75-42.12,29.81-14.83,5.54-30.6,6.97-46.22,4.46-7.82-1.25-15.27-3.42-22.55-6.53-3.66-1.45-7.19-3.19-10.57-5.23-7.26-3.6-13.24-8.62-17.93-15.07-.56-.64-.57,1.41-.57,1.37-.05.89-.07,1.78-.06,2.66-.04.48,0,.94.15,1.39Z"/>
          <path class="cls-6" d="M238.98,327.8c3.74,3.69,7.77,7.04,12.08,10.05,3.26,2.31,6.69,4.34,10.27,6.08,7.14,3.71,14.54,6.49,22.36,8.41,16.96,4.17,34.79,3.94,51.56-1.06s30.44-13.75,42.87-24.88c6.45-5.78,12.08-12.43,17.24-19.37,3.47-4.78,6.61-9.77,9.42-14.96,2.86-5.28,5.37-10.73,7.51-16.34-.42-.09-.82-.01-1.21.22-1.39.57-2.76,1.16-4.11,1.8-1.37.61-2.72,1.26-4.05,1.94-.43.14-.75.39-.96.77-2.45,5.23-5.26,10.27-8.42,15.12-2.28,3.59-4.8,7-7.56,10.23-5.25,6.45-11.05,12.23-17.57,17.4-13.11,10.39-28.56,17.77-45.17,20.28-14.31,2.16-28.8.52-42.55-3.81-6.89-2.17-13.44-5.33-19.71-8.88-4.27-2.46-8.33-5.24-12.18-8.33-3.63-3.17-7.03-6.58-10.19-10.22-.25.51-.34,1.05-.26,1.64-.01,2.05,0,4.1.07,6.15.04,2.05.11,4.1.22,6.15-.05.59.06,1.13.34,1.62Z"/>
          <path class="cls-6" d="M238.98,322.85c3.69,3.69,7.66,7.04,11.92,10.04,3.25,2.31,6.66,4.35,10.23,6.1,7.11,3.72,14.47,6.51,22.26,8.45,16.91,4.21,34.74,4.05,51.49-.88,16.1-4.74,30.51-13.71,42.94-24.86,6.45-5.78,12.07-12.45,17.22-19.39,3.46-4.78,6.59-9.77,9.39-14.96,2.85-5.28,5.34-10.72,7.47-16.33-.45-.2-.93-.23-1.43-.09-1.75.19-3.5.42-5.24.68-1.74.24-3.48.52-5.22.84-.52.01-.97.18-1.34.5-2.19,5.01-4.69,9.86-7.52,14.54-2.05,3.47-4.32,6.79-6.8,9.96-4.75,6.33-10.03,12.09-15.96,17.33-12.18,10.76-26.72,18.93-42.65,22.53-14.29,3.24-29.06,2.53-43.2-1.13-7.17-1.85-14.02-4.83-20.57-8.25-4.45-2.39-8.68-5.11-12.7-8.15-3.77-3.07-7.27-6.41-10.51-10.03-.25.41-.34.87-.28,1.38-.03,1.73-.03,3.46,0,5.19.02,1.73.07,3.46.16,5.18-.05.51.05.96.32,1.37Z"/>
        </g>
        <g>
          <path class="cls-6" d="M372.07,324.45c-5.93,4.29-11.75,8.68-17.15,13.63-2.94,2.69-5.61,5.93-8.81,8.32-1.71,1.28-3.67,2.41-5.7,3.07-1.66.54-3.42.86-5.13,1.21-6.88,1.41-13.79,2.7-20.69,4.06-1.24.24,2.67,1.51,2.3,1.37,1.58.58,3.16,1.13,4.76,1.66.82.32,1.66.55,2.53.69,5.77-1.15,11.5-2.43,17.13-4.19,3.25-1.01,6.49-2.12,9.51-3.7,4.11-2.15,7.39-5.4,10.77-8.51,6.49-5.96,13.72-11.01,21-15.96-.27-.3-.63-.45-1.06-.47-1.38-.28-2.76-.52-4.15-.73-1.39-.23-2.78-.42-4.17-.57-.41-.12-.8-.08-1.15.12Z"/>
          <path class="cls-6" d="M370.59,322c-6.33,4.62-12.52,9.36-18.25,14.72-3.01,2.82-5.81,5.86-9.11,8.34l.32-.22c-3.07,1.86-6.26,2.66-9.76,3.39-6.88,1.43-13.79,2.78-20.68,4.18-.45.09-.39.05-.08.34l1.03.37c1.24.35,2.48.67,3.74.97,1.92.47,3.85.94,5.79,1.35.81.17,1.75.47,2.58.28,9.91-2.25,20.5-5.03,28.74-11.29,3.33-2.53,6.26-5.57,9.49-8.23,6.16-5.07,12.79-9.57,19.41-14.02-.41-.26-.87-.37-1.38-.32-1.74-.09-3.48-.14-5.22-.15-1.74-.03-3.48-.03-5.22,0-.51-.07-.97.03-1.39.28Z"/>
          <path class="cls-6" d="M369.22,325.72c-7.46,5.46-14.61,11.14-21.22,17.59-1.53,1.49-3.04,3.05-4.71,4.39-1.84,1.48-3.74,2.42-5.96,3.18l.37-.11-2.19.59.37-.1-2.46.55.38-.08c-7.44,1.53-14.9,2.96-22.36,4.42.24.41.59.7,1.06.88,1.48.82,2.97,1.61,4.48,2.37,1.5.78,3.02,1.52,4.55,2.23.42.28.86.39,1.33.35,7.48-1.46,14.76-3.39,21.85-6.2,3.7-1.47,7.34-3.25,10.45-5.76,2.78-2.24,5.32-4.76,8.01-7.11,5.81-5.07,12.36-9.38,18.74-13.68-.33-.36-.75-.58-1.25-.66-1.66-.52-3.33-1.01-5.01-1.47-1.67-.47-3.36-.91-5.05-1.31-.47-.19-.95-.22-1.41-.08Z"/>
          <path class="cls-6" d="M369.61,330.27c-6.31,4.58-12.46,9.28-18.15,14.63-2.97,2.79-5.72,6.1-9.14,8.36-2.63,1.74-5.43,2.46-8.5,3.09-7.34,1.51-14.77,2.66-22.13,4.01.02.32.18.57.48.75.79.7,1.61,1.38,2.45,2.02.6.47,2.41,2.34,3.4,2.18,7.37-1.19,14.74-2.47,22-4.24,3.94-.96,7.83-2.07,11.14-4.5,2.93-2.15,5.37-4.79,7.97-7.3,5.61-5.4,11.93-9.94,18.32-14.36.3-.21-3.85-2.72-3.73-2.65-.31-.19-3.46-2.48-4.12-2.01Z"/>
          <path class="cls-6" d="M371.94,321.84c-5.93,4.31-11.74,8.74-17.17,13.68-3.48,3.17-6.64,7.14-10.69,9.61-2.74,1.68-5.88,2.3-8.99,2.94-6.86,1.39-13.74,2.7-20.61,4.08-1.34.27,3.15,1.21,2.54,1.07,1.69.38,3.39.73,5.1,1.05.88.22,1.78.34,2.68.37,7.3-1.58,14.75-3.28,21.69-6.15,3.05-1.26,5.91-2.89,8.46-4.99,2.79-2.3,5.33-4.89,8.08-7.23,6.13-5.23,12.75-9.86,19.39-14.41-.31-.25-.68-.35-1.1-.3-1.38-.07-2.76-.1-4.14-.09-1.38-.01-2.76,0-4.14.07-.42-.05-.79.05-1.1.29Z"/>
          <path class="cls-6" d="M369.74,319.97c-4.5,3.29-8.94,6.61-13.19,10.23-3.39,2.89-6.6,5.97-9.79,9.09l.27-.25c-1.38,1.3-2.79,2.74-4.4,3.78-2.26,1.47-4.31,1.93-7.01,2.62-7.73,1.96-15.62,3.32-23.42,4.93-1.54.32,4.01,1.02,3.21.91,2.1.27,4.2.52,6.3.74,1.09.16,2.19.23,3.3.21,10.06-2.45,21.02-5.28,29.14-12.1,2.76-2.32,5.37-4.82,8.13-7.15,6.18-5.24,12.98-9.83,19.65-14.39.38-.26.28-.16-.04-.35h-1c-1.17.1-2.33.23-3.49.38-1.79.22-3.58.45-5.37.73-.74.12-1.66.17-2.28.62Z"/>
          <path class="cls-6" d="M369.14,318.2c-5.02,3.67-10,7.4-14.69,11.5-3.15,2.76-6.09,5.72-9.14,8.58-.94.88-1.88,1.74-2.91,2.51-2.17,1.64-4.13,2.07-6.84,2.81-7.96,2.17-16.14,3.54-24.22,5.21-.45.11-.45.23,0,.35,1.01.17,2.03.24,3.06.22,1.97.05,3.94.07,5.9.07,1.03.05,2.05,0,3.07-.15,6.69-1.69,13.35-3.51,19.69-6.26,3.09-1.34,6.03-3.05,8.63-5.21,2.78-2.32,5.4-4.83,8.15-7.19,6.24-5.35,13.05-10.08,19.79-14.76,1.14-.79-3.45.31-2.78.16-1.71.41-3.41.84-5.1,1.3-.9.19-1.77.48-2.61.85Z"/>
          <path class="cls-6" d="M371.06,325.55c-7.1,5.16-13.98,10.48-20.28,16.6-3.14,3.05-6.02,6.09-10.02,7.98l.36-.14-1.98.7.36-.12c-2.22.62-4.45,1.09-6.71,1.57l.37-.08c-6.64,1.32-13.28,2.62-19.91,3.92.26.39.62.66,1.1.81,1.5.73,3.02,1.43,4.55,2.1,1.52.69,3.06,1.34,4.62,1.96.43.25.87.34,1.34.27,7.35-1.44,14.55-3.28,21.54-6.01,3.66-1.43,7.22-3.19,10.29-5.68,2.78-2.25,5.33-4.79,8.02-7.15,5.84-5.12,12.43-9.48,18.84-13.81-.33-.34-.74-.54-1.24-.6-1.63-.45-3.27-.86-4.91-1.23-1.64-.4-3.29-.75-4.95-1.08-.47-.17-.93-.18-1.38-.02Z"/>
          <path class="cls-6" d="M368.79,321.39c-5.91,4.33-11.77,8.76-17.15,13.75-2.96,2.74-5.75,5.65-8.79,8.31l.31-.24c-3.05,2.29-6.25,3.37-9.96,4.14-7.29,1.51-14.59,2.92-21.89,4.41-.46.09-.39.06-.08.34l1.04.36c1.25.33,2.51.64,3.78.92,1.95.45,3.9.88,5.86,1.27.82.16,1.77.44,2.6.25,9-2.13,18.59-4.78,26.32-10.12,3.17-2.19,5.95-4.76,8.86-7.28,7.02-6.09,14.69-11.33,22.39-16.51-.42-.25-.89-.33-1.4-.25-1.75,0-3.5.02-5.25.08-1.75.04-3.5.12-5.25.24-.51-.04-.97.07-1.38.34Z"/>
          <path class="cls-6" d="M370.19,317.43c-7.82,5.73-15.23,11.75-22.17,18.51-5.65,5.5-7.51,6.13-18.14,8.53-5.74,1.29-11.55,2.36-17.31,3.55-.39.13-.38.25.02.35.91.12,1.81.14,2.73.06,2.56-.05,5.44.09,7.95-.53,6.18-1.52,12.39-3.07,18.38-5.23,2.7-.97,5.23-2.17,7.62-3.78,3.32-2.23,6.19-5.18,9.16-7.84,6.49-5.8,13.63-10.89,20.74-15.89,1.05-.74-3.04.32-2.41.15-1.46.4-2.91.82-4.35,1.27-.77.19-1.51.47-2.21.83Z"/>
          <path class="cls-6" d="M369.95,328.32c-6.31,4.59-12.48,9.29-18.19,14.63-2.97,2.77-5.73,6.09-9.14,8.35-2.6,1.72-5.41,2.47-8.43,3.13-7.31,1.59-14.71,2.85-22.06,4.25.13.39.4.68.79.87,1.16.83,2.35,1.63,3.55,2.4,1.19.79,2.41,1.54,3.64,2.27.34.28.71.4,1.12.37,7.46-1.29,14.84-2.91,22.05-5.22,3.87-1.24,7.69-2.73,10.93-5.23,2.84-2.19,5.33-4.78,7.97-7.2,5.66-5.19,12.07-9.59,18.37-13.93-.22-.37-.55-.63-.99-.76-1.37-.67-2.76-1.31-4.16-1.92-1.39-.62-2.8-1.22-4.22-1.77-.4-.24-.81-.31-1.23-.22Z"/>
          <path class="cls-6" d="M370.28,323.64c-6.71,4.91-13.31,9.95-19.31,15.72-3.03,2.92-5.85,6-9.47,8.19l.36-.18c-3.05,1.42-6.21,2.09-9.49,2.76-6.63,1.37-13.27,2.66-19.91,3.99.34.39.77.65,1.3.77,1.74.67,3.48,1.31,5.25,1.91,1.75.62,3.52,1.21,5.3,1.76.49.24.99.3,1.5.2,7.31-1.58,14.4-3.61,21.24-6.65,3.51-1.56,6.91-3.47,9.87-5.94,2.75-2.29,5.33-4.78,8.05-7.09,5.97-5.07,12.65-9.42,19.14-13.76-.41-.31-.88-.47-1.41-.47-1.81-.28-3.63-.53-5.45-.74-1.82-.23-3.64-.43-5.47-.58-.52-.13-1.02-.09-1.48.12Z"/>
        </g>
        <g>
          <path class="cls-6" d="M326.56,35.98c-6.25.97-12.45,1.97-18.61,3.37-5.58,1.27-11.11,2.74-16.62,4.27-8.53,2.36-16.95,4.64-25.74,5.81.19.37.5.62.92.75.91.47,1.82.93,2.75,1.35,1.15.55,2.31,1.09,3.48,1.6.8.41,1.62.72,2.48.95,8.79-.98,17.31-3.46,25.87-5.59,4.61-1.15,9.24-2.17,13.85-3.3,2.82-.71,5.64-1.37,8.48-1.98,4.08-.5,8.17-.94,12.26-1.33-.14-.39-.4-.68-.79-.87-1.17-.83-2.35-1.63-3.56-2.4-1.2-.79-2.41-1.54-3.65-2.27-.34-.28-.71-.4-1.12-.37Z"/>
          <path class="cls-6" d="M325,33.67c-6.25,1-12.48,2.02-18.66,3.41-5.57,1.25-11.1,2.74-16.6,4.27-8.55,2.37-16.97,4.61-25.78,5.81.33.4.76.66,1.29.79,1.73.7,3.47,1.37,5.22,2.01,1.75.66,3.51,1.28,5.28,1.86.49.25.98.32,1.5.23,8.64-1.05,17.09-3.48,25.55-5.45,4.61-1.07,9.24-2.07,13.84-3.15,2.8-.67,5.6-1.3,8.42-1.88,4.11-.38,8.22-.76,12.34-1.14-.27-.44-.65-.77-1.16-.97-1.6-.95-3.23-1.86-4.87-2.74-1.63-.9-3.28-1.77-4.94-2.6-.44-.31-.92-.46-1.44-.45Z"/>
          <path class="cls-6" d="M323.69,37.37c-6.24.97-12.45,1.97-18.61,3.36-5.58,1.26-11.11,2.74-16.63,4.27-8.52,2.36-16.94,4.63-25.72,5.81.19.43.51.76.95.98,1.37.97,2.75,1.91,4.16,2.83,1.4.93,2.81,1.83,4.24,2.69.38.32.81.48,1.28.48,8.61-.85,17-3.35,25.37-5.44,4.56-1.14,9.14-2.18,13.7-3.31,2.81-.71,5.64-1.38,8.48-1.99,3.97-.41,7.93-.8,11.9-1.17-.11-.45-.36-.82-.75-1.11-1.16-1.17-2.34-2.31-3.55-3.42-1.2-1.13-2.42-2.23-3.66-3.3-.32-.37-.7-.6-1.16-.67Z"/>
          <path class="cls-6" d="M323.51,40.95c-6.09,1.3-12.21,2.35-18.28,3.74-5.58,1.28-11.12,2.76-16.63,4.31-8.5,2.39-16.88,4.7-25.66,5.82-.26.03,2.65,2.95,2.57,2.87.55.5,2.12,2.41,3.08,2.32,8.67-.81,17-3.32,25.36-5.63,4.56-1.26,9.15-2.4,13.73-3.57,2.85-.75,5.71-1.44,8.59-2.08,3.96-.59,7.92-1.19,11.88-1.8.37-.06-2.11-3.32-2.03-3.22-.26-.33-1.86-2.92-2.63-2.76Z"/>
          <path class="cls-6" d="M326.56,33.46c-9.71,1.49-19.25,3.35-28.75,5.86-6.81,1.8-13.57,3.78-20.42,5.46l.34-.08c-3.98.88-7.88,1.59-11.92,2.14-1.35.18,3.04,1.54,2.5,1.36,1.7.57,3.41,1.12,5.13,1.64.88.32,1.79.54,2.72.68,6.75-.84,13.29-2.55,19.89-4.18,9.45-2.33,18.94-4.53,28.45-6.63l-.35.06c4.27-.53,8.55-.99,12.83-1.41-.21-.38-.53-.64-.96-.78-1.34-.7-2.7-1.37-4.08-2.01-1.37-.65-2.75-1.28-4.15-1.86-.39-.24-.79-.32-1.22-.24Z"/>
          <path class="cls-6" d="M324.19,31.62c-10.48,1.65-20.77,3.73-31.01,6.51-7.34,1.99-14.62,4.1-22.05,5.72l.4-.08c-2.67.55-5.37.98-8.08,1.3-.51,0-.54.11-.08.34,1.06.43,2.16.76,3.28,1.01,2.13.56,4.26,1.09,6.4,1.6,1.11.31,2.23.53,3.37.65,6.76-.91,13.33-2.61,19.97-4.17,9.44-2.22,18.91-4.32,28.4-6.32l-.41.05c4.33-.45,8.67-.87,13-1.26-.32-.41-.74-.69-1.27-.84-1.71-.76-3.44-1.49-5.18-2.19-1.73-.71-3.48-1.39-5.24-2.04-.48-.26-.98-.36-1.49-.28Z"/>
          <path class="cls-6" d="M323.81,30c-6.3.99-12.57,2.04-18.8,3.43-5.58,1.25-11.1,2.73-16.6,4.26-8.56,2.38-17,4.6-25.82,5.83-1.55.22,3.94,1.13,3.12.99,2.05.32,4.1.62,6.15.9,1.07.19,2.14.29,3.22.29,8.67-1.28,17.16-3.6,25.69-5.57,4.66-1.08,9.34-2.07,14-3.12,2.79-.64,5.59-1.24,8.41-1.78,4.26-.5,8.52-.97,12.78-1.4.48.02.52-.1.1-.34-.99-.44-2.02-.8-3.07-1.06-2-.6-4-1.17-6.01-1.71-1.04-.33-2.1-.57-3.17-.71Z"/>
          <path class="cls-6" d="M325.5,37.24c-6.26.94-12.46,1.93-18.63,3.33-5.58,1.26-11.11,2.74-16.62,4.26-8.53,2.36-16.94,4.63-25.73,5.8.21.42.55.72,1.01.92,1.42.88,2.86,1.73,4.31,2.55,1.45.84,2.91,1.64,4.39,2.42.4.3.83.43,1.3.4,8.63-.89,17.04-3.4,25.44-5.47,4.58-1.13,9.18-2.16,13.75-3.29,2.81-.71,5.64-1.37,8.48-1.99,4.01-.43,8.03-.82,12.05-1.18-.14-.44-.42-.79-.84-1.05-1.25-1.07-2.51-2.11-3.81-3.13-1.28-1.03-2.58-2.03-3.91-3-.34-.35-.75-.54-1.21-.58Z"/>
          <path class="cls-6" d="M323.29,32.96c-6.28.98-12.53,2.01-18.74,3.41-5.58,1.25-11.1,2.74-16.61,4.28-8.55,2.38-16.98,4.61-25.78,5.82.33.4.77.67,1.3.8,1.74.71,3.5,1.38,5.26,2.02,1.76.66,3.53,1.28,5.32,1.87.49.25.99.33,1.51.24,8.63-1.05,17.07-3.46,25.54-5.4,4.6-1.06,9.22-2.05,13.82-3.12,2.79-.67,5.59-1.28,8.41-1.86,4.12-.37,8.24-.72,12.36-1.06-.26-.45-.65-.78-1.15-.99-1.6-.98-3.22-1.92-4.86-2.83-1.63-.93-3.27-1.83-4.93-2.7-.44-.32-.92-.48-1.44-.47Z"/>
          <path class="cls-6" d="M325.05,29.2c-6.28,1.01-12.53,2.06-18.74,3.44-5.58,1.24-11.1,2.72-16.6,4.25-8.56,2.37-17.01,4.6-25.82,5.84-.43.08-.44.2-.03.35.95.23,1.91.36,2.88.4,1.86.17,3.72.31,5.58.43.97.11,1.94.12,2.91.04,8.69-1.34,17.18-3.65,25.73-5.68,4.68-1.11,9.39-2.14,14.09-3.19,2.8-.64,5.61-1.24,8.43-1.79,4.27-.58,8.54-1.12,12.82-1.62,1.46-.18-3.54-1.22-2.78-1.06-1.84-.37-3.69-.72-5.55-1.04-.96-.22-1.93-.34-2.92-.36Z"/>
          <path class="cls-6" d="M324.21,39.76c-6.2,1.01-12.37,2.02-18.5,3.41-5.58,1.27-11.12,2.74-16.63,4.28-8.51,2.37-16.91,4.66-25.68,5.81.09.39.32.7.69.92,1.05.91,2.13,1.79,3.23,2.65,1.09.87,2.2,1.71,3.33,2.52.3.3.65.45,1.05.45,8.63-.81,17-3.33,25.36-5.53,4.56-1.2,9.14-2.28,13.7-3.44,2.84-.74,5.68-1.42,8.54-2.06,3.95-.53,7.92-.98,11.89-1.36-.02-.39-.19-.73-.51-1-.87-1.05-1.77-2.08-2.7-3.08-.39-.42-2.8-3.73-3.77-3.57Z"/>
          <path class="cls-6" d="M324.71,35.32c-6.25.99-12.46,2-18.63,3.39-5.58,1.26-11.1,2.74-16.61,4.27-8.54,2.37-16.96,4.61-25.75,5.81.29.43.7.74,1.22.92,1.66.87,3.35,1.71,5.04,2.52,1.69.83,3.39,1.62,5.11,2.38.46.29.95.42,1.48.38,8.62-.96,17.04-3.42,25.47-5.42,4.58-1.09,9.19-2.09,13.76-3.19,2.8-.69,5.61-1.33,8.43-1.92,4.04-.36,8.08-.72,12.13-1.08-.22-.47-.57-.83-1.05-1.09-1.5-1.11-3.02-2.19-4.56-3.24-1.53-1.07-3.08-2.11-4.65-3.11-.41-.36-.87-.56-1.39-.6Z"/>
        </g>
        <g>
          <path class="cls-6" d="M270.09,69.28c-1.08,2.3-1.83,4.69-2.26,7.18-.47,1.71-.75,3.45-.85,5.21-.5,4.61-.55,9.22-.4,13.85.21,6.51.55,13.02.7,19.53.34,14.14.34,28.3.9,42.43.8,20.19,2.28,40.29,6.2,60.13,1.72,8.69,3.81,17.32,6.54,25.76l3.52,9.96c2.51,6.56,5.43,12.92,8.77,19.1.1.19,3.48-4.78,3.41-4.67.82-1.28,1.62-2.57,2.38-3.89.29-.35.42-.75.4-1.18-2.34-4.46-4.39-9.05-6.15-13.76-1.34-3.11-2.5-6.29-3.47-9.53-2.7-8.14-4.89-16.41-6.61-24.81-4.32-21.17-5.94-42.8-6.49-64.37-.29-11.15-.28-22.29-.45-33.44-.65-6.52-.77-13.04-.38-19.55.13-1.62.16-3.25.1-4.88-.03-4.25.03-8.52.58-12.75l.82-4.86c.66-3.03,1.69-5.94,3.07-8.72-.38-.14-.77-.13-1.17.05-1.38.37-2.75.77-4.1,1.2-1.36.42-2.72.87-4.06,1.35-.43.08-.76.29-.99.62Z"/>
          <path class="cls-6" d="M268.62,66.64c-1.1,2.3-1.87,4.71-2.3,7.21-.47,1.71-.75,3.45-.85,5.21-.51,4.6-.56,9.2-.43,13.82.19,6.52.48,13.03.64,19.56.33,14.14.33,28.3.88,42.43.79,20.19,2.27,40.28,6.17,60.13,1.71,8.69,3.8,17.32,6.52,25.76,1.17,3.32,2.34,6.64,3.51,9.97,2.51,6.56,5.42,12.93,8.75,19.11.37-.22.62-.54.75-.98.66-1.36,1.28-2.73,1.87-4.12.61-1.38,1.19-2.77,1.73-4.18.23-.39.3-.8.2-1.22-2.31-4.55-4.33-9.22-6.05-14.01-1.31-3.16-2.45-6.39-3.39-9.67-2.63-8.24-4.76-16.62-6.41-25.11-4.13-21.3-5.64-43.06-6.1-64.72-.24-11.19-.19-22.38-.3-33.57-.81-6.57-.87-13.11-.18-19.63.2-1.66.3-3.33.3-5.01.13-4.32.38-8.63,1.13-12.9l1.05-4.91c.78-3.07,1.9-6.02,3.35-8.84-.45-.05-.88.06-1.27.33-1.46.69-2.9,1.41-4.32,2.17-1.43.74-2.85,1.51-4.25,2.31-.45.17-.78.46-1,.86Z"/>
          <path class="cls-6" d="M267.22,70.44c-1.08,2.31-1.83,4.72-2.25,7.22-.46,1.72-.74,3.46-.84,5.23-.5,4.61-.54,9.22-.4,13.85.2,6.52.55,13.02.69,19.54.3,14.13.31,28.28.87,42.41.8,20.19,2.27,40.29,6.19,60.13,1.72,8.69,3.81,17.32,6.53,25.76l3.51,9.96c2.51,6.56,5.43,12.92,8.77,19.1.43-.29.73-.69.9-1.2.85-1.64,1.67-3.29,2.46-4.96.81-1.66,1.58-3.34,2.32-5.03.29-.46.41-.94.37-1.45-2.2-4.47-4.12-9.06-5.76-13.77-1.25-3.11-2.33-6.28-3.24-9.51-2.52-8.12-4.55-16.36-6.12-24.71-3.98-21.11-5.44-42.63-5.86-64.07-.22-11.1-.17-22.21-.25-33.31-.77-6.44-.79-12.85-.06-19.22.21-1.55.31-3.11.29-4.68.11-4.05.32-8.12.99-12.13l.96-4.59c.7-2.96,1.76-5.79,3.17-8.48-.49-.13-.98-.09-1.47.12-1.77.45-3.52.94-5.27,1.46-1.75.5-3.49,1.04-5.22,1.62-.53.09-.96.32-1.31.69Z"/>
          <path class="cls-6" d="M267.93,75.04c-1.06,2.31-1.81,4.71-2.25,7.2-.48,1.71-.76,3.45-.85,5.22-.5,4.62-.55,9.23-.4,13.86.21,6.52.62,13.01.76,19.54.29,14.13.31,28.28.87,42.41.79,20.19,2.24,40.31,6.18,60.16,1.73,8.7,3.83,17.33,6.57,25.77,1.18,3.32,2.36,6.65,3.53,9.97,2.53,6.57,5.47,12.94,8.82,19.12.13.25,5.05-5.11,4.94-4.98,1.23-1.37,2.44-2.77,3.62-4.19.4-.36.65-.79.75-1.29-2.26-4.3-4.25-8.72-5.96-13.26-1.31-3.01-2.44-6.08-3.4-9.22-2.67-7.92-4.85-15.97-6.57-24.15-4.4-20.88-6.1-42.19-6.73-63.49-.56-18.89-.15-37.86-1.32-56.72-.25-4.03-.44-8.11-.18-12.14l.48-4.63c.44-2.95,1.29-5.78,2.54-8.49.14-.37-5.82-.73-5.68-.72-.22-.01-5.46-.7-5.73.03Z"/>
          <path class="cls-6" d="M269.97,66.7c-1.12,2.31-1.91,4.72-2.37,7.24-.5,1.71-.79,3.46-.88,5.24-.51,4.63-.55,9.25-.41,13.9.2,6.53.51,13.06.68,19.6.36,14.15.35,28.32.92,42.47.45,11.26,1.03,22.52,2.16,33.73.89,8.87,2.33,17.7,4.06,26.44s3.82,17.34,6.55,25.78c1.18,3.33,2.35,6.65,3.53,9.98,2.52,6.57,5.45,12.94,8.8,19.13.1.21,2.61-4.11,2.55-4,.3-.57,2.32-3.45,1.89-4.36-2.39-4.53-4.48-9.2-6.27-13.99-1.36-3.16-2.54-6.38-3.53-9.67-2.74-8.24-4.96-16.62-6.7-25.13-4.35-21.32-5.96-43.1-6.51-64.82-.29-11.2-.27-22.4-.43-33.61-.7-6.59-.83-13.18-.38-19.76.14-1.69.19-3.38.14-5.08,0-4.41.12-8.82.74-13.2l.89-5.05c.78-3.14,1.9-6.15,3.37-9.03-.36-.1-.71-.05-1.05.17-1.19.49-2.36,1.02-3.51,1.58-.82.39-3.82,1.34-4.24,2.43Z"/>
          <path class="cls-6" d="M267.61,64.7c-1.1,2.3-1.85,4.7-2.27,7.2-.46,1.71-.74,3.45-.84,5.21-.51,4.61-.57,9.22-.44,13.86.18,6.55.46,13.09.61,19.63.34,14.15.33,28.32.89,42.47.8,20.2,2.27,40.32,6.18,60.19,1.72,8.71,3.8,17.35,6.53,25.81l3.52,9.99c2.51,6.58,5.44,12.96,8.78,19.16.31-.17.51-.44.59-.81.45-1.12.86-2.25,1.24-3.39.29-.85,1.59-3.42,1.11-4.45-2.9-6.3-5.7-12.56-8.08-19.08-2.99-8.19-5.18-16.72-7.04-25.24-3.83-17.58-5.88-35.55-6.73-53.52-.53-11.22-.76-22.46-.87-33.7-.02-5.63-.04-11.25-.06-16.88,0-7.45-.02-14.9-.03-22.35.12-4.52.28-9.03.9-13.52.82-5.91,2.25-10.89,4.7-16.52.16-.37.14-.26-.2-.29l-.77.39c-.85.54-1.69,1.1-2.51,1.68-1.27.88-2.54,1.78-3.78,2.72-.49.37-1.23.81-1.46,1.43Z"/>
          <path class="cls-6" d="M266.74,62.97c-1.3,3.45-2.33,6.53-2.98,10.13-.56,3.08-.78,7.61-.83,10.71-.05,2.84.06,5.67.16,8.51.42,11.33.65,22.67.81,34,.39,26.84.82,53.99,5.68,80.47,1.93,10.51,4.19,21.01,7.56,31.17,1.17,3.34,2.35,6.69,3.52,10.03,2.52,6.61,5.46,13.02,8.81,19.25.41.83.97-1.52.95-1.46.3-1.02.58-2.05.84-3.08.18-.54.27-1.09.26-1.65-2.44-4.67-4.57-9.47-6.39-14.4-1.38-3.24-2.58-6.54-3.58-9.92-2.77-8.42-5.01-16.98-6.76-25.67-4.33-21.56-5.91-43.61-6.44-65.56-.27-11.3-.24-22.59-.38-33.89-.66-6.68-.76-13.35-.3-20.01.13-1.8.2-3.61.21-5.41.1-4.64.32-9.27,1.04-13.86.34-1.77.68-3.54,1.02-5.31.82-3.28,1.98-6.44,3.47-9.47.47-1.1-2.39,1.37-2,1.05-1.07.91-2.13,1.84-3.17,2.79-.58.46-1.09.99-1.52,1.58Z"/>
          <path class="cls-6" d="M269.06,70.18c-1.08,2.3-1.84,4.7-2.27,7.2-.47,1.71-.75,3.45-.85,5.22-.51,4.6-.56,9.2-.43,13.82.19,6.51.54,13,.68,19.52.31,14.13.31,28.28.87,42.41.79,20.18,2.26,40.28,6.17,60.12,1.71,8.69,3.8,17.32,6.52,25.75,1.17,3.32,2.34,6.64,3.51,9.96,2.5,6.56,5.42,12.92,8.75,19.1.45-.25.79-.63,1.01-1.12,1-1.57,1.97-3.16,2.91-4.77.96-1.6,1.88-3.22,2.77-4.85.33-.43.49-.91.5-1.43-2.25-4.43-4.21-8.99-5.89-13.66-1.28-3.09-2.39-6.24-3.32-9.45-2.59-8.08-4.68-16.3-6.31-24.62-4.12-21.08-5.65-42.59-6.13-64.04-.25-11.1-.22-22.21-.34-33.31-.71-6.45-.78-12.88-.2-19.29.17-1.56.24-3.13.2-4.7.04-4.09.17-8.2.78-12.25l.89-4.65c.68-2.96,1.71-5.8,3.1-8.51-.47-.14-.95-.11-1.43.09-1.72.41-3.42.85-5.12,1.33-1.7.46-3.4.95-5.08,1.48-.51.08-.94.3-1.27.66Z"/>
          <path class="cls-6" d="M266.82,66.09c-1.11,2.31-1.87,4.72-2.28,7.23-.46,1.71-.74,3.45-.84,5.22-.51,4.6-.55,9.2-.42,13.83.19,6.53.47,13.06.63,19.59.33,14.14.32,28.3.88,42.44.79,20.19,2.26,40.3,6.17,60.15,1.71,8.7,3.8,17.33,6.52,25.78,1.17,3.33,2.34,6.65,3.51,9.98,2.51,6.57,5.43,12.95,8.76,19.14.33-.21.53-.53.61-.94.47-1.28.91-2.56,1.32-3.86.42-1.29.81-2.6,1.17-3.91.18-.38.19-.76.05-1.12-2.32-4.61-4.34-9.34-6.06-14.2-1.31-3.2-2.45-6.46-3.39-9.78-2.63-8.32-4.75-16.77-6.39-25.34-4.09-21.4-5.56-43.27-6.01-65.01-.23-11.23-.16-22.45-.26-33.68-.81-6.6-.85-13.18-.12-19.72.21-1.7.33-3.41.35-5.13.19-4.39.5-8.78,1.31-13.11l1.12-4.99c.81-3.12,1.95-6.11,3.43-8.97-.44-.02-.85.12-1.21.42-1.36.79-2.7,1.62-4.01,2.47-1.33.84-2.64,1.7-3.93,2.6-.43.2-.72.51-.89.92Z"/>
          <path class="cls-6" d="M267.39,62.72c-1.05,2.28-1.77,4.66-2.15,7.12-.42,1.72-.7,3.47-.83,5.24-.55,4.7-.63,9.38-.51,14.1.17,6.58.47,13.16.65,19.74.38,14.18.35,28.38.92,42.56.8,20.26,2.28,40.44,6.22,60.35,1.73,8.75,3.84,17.43,6.58,25.92l3.55,10.04c2.54,6.62,5.49,13.04,8.86,19.27.37.74.93-1.12.94-1.14.3-.83.58-1.67.83-2.52.18-.44.27-.89.26-1.36-2.48-4.66-4.66-9.45-6.52-14.38-1.41-3.23-2.63-6.54-3.66-9.91-2.83-8.41-5.13-16.97-6.93-25.66-4.46-21.56-6.1-43.64-6.68-65.61-.3-11.3-.3-22.61-.46-33.91-.57-6.69-.71-13.37-.4-20.05.09-1.81.13-3.62.11-5.43.02-4.7.17-9.39.82-14.05.31-1.8.63-3.61.94-5.41.71-3.24,1.76-6.36,3.15-9.36.4-1.01-2.06,1.05-1.74.8-.91.75-1.81,1.52-2.68,2.31-.5.38-.92.83-1.28,1.34Z"/>
          <path class="cls-6" d="M267.98,72.96c-1.07,2.31-1.82,4.72-2.25,7.21-.47,1.71-.76,3.46-.86,5.23-.51,4.61-.57,9.22-.43,13.86.2,6.52.58,13.02.72,19.54.29,14.13.31,28.28.86,42.41.79,20.19,2.25,40.31,6.17,60.16,1.72,8.7,3.8,17.34,6.53,25.79,1.17,3.33,2.35,6.65,3.52,9.98,2.52,6.56,5.45,12.94,8.8,19.12.49-.25.87-.63,1.13-1.13,1.17-1.6,2.3-3.22,3.41-4.87,1.12-1.63,2.22-3.28,3.28-4.95.37-.43.59-.92.64-1.47-2.2-4.36-4.13-8.84-5.79-13.43-1.26-3.04-2.36-6.15-3.28-9.31-2.56-7.98-4.64-16.08-6.27-24.3-4.15-20.94-5.72-42.28-6.23-63.59-.26-11.04-.28-22.09-.41-33.14-.53-6.35-.61-12.7-.26-19.04.12-1.5.14-3.01.06-4.51-.07-3.97-.07-7.98.38-11.93l.71-4.53c.57-2.92,1.51-5.71,2.83-8.38-.44-.22-.91-.27-1.42-.16-1.75.11-3.51.25-5.26.43-1.75.16-3.5.35-5.24.59-.52-.01-.97.13-1.36.43Z"/>
          <path class="cls-6" d="M268.31,68.27c-1.09,2.3-1.85,4.7-2.26,7.2-.46,1.71-.74,3.45-.84,5.21-.51,4.6-.55,9.19-.42,13.81.19,6.51.51,13.01.65,19.53.31,14.13.32,28.28.87,42.41.79,20.18,2.26,40.27,6.17,60.11,1.71,8.69,3.79,17.31,6.51,25.75,1.17,3.32,2.34,6.64,3.5,9.96,2.5,6.55,5.42,12.92,8.75,19.09.41-.27.69-.65.85-1.14.79-1.56,1.55-3.13,2.28-4.72.74-1.58,1.45-3.18,2.13-4.79.27-.44.37-.9.31-1.39-2.25-4.51-4.21-9.13-5.89-13.88-1.28-3.13-2.38-6.33-3.31-9.58-2.57-8.17-4.64-16.48-6.24-24.9-4.04-21.2-5.51-42.84-5.94-64.39-.22-11.15-.17-22.29-.26-33.44-.82-6.51-.85-12.99-.1-19.43.22-1.61.32-3.22.32-4.84.14-4.18.39-8.36,1.13-12.49.35-1.58.69-3.16,1.04-4.73.76-3.01,1.86-5.89,3.3-8.64-.5-.07-.97.02-1.43.28-1.68.64-3.34,1.31-4.99,2.02-1.66.69-3.3,1.41-4.93,2.16-.51.15-.91.42-1.2.83Z"/>
        </g>
        <g>
          <path class="cls-6" d="M86.16,70.17c-6.43-.8-12.89-1.07-19.37-.81-6.7.3-13.33,1.1-19.9,2.42-6.7,1.34-13.27,3.17-19.7,5.48-6.56,2.35-12.92,5.16-19.09,8.43.17.37.47.63.88.78,1.24.7,2.5,1.37,3.77,2,1.27.65,2.55,1.27,3.85,1.86.36.24.74.32,1.14.25,6.03-2.91,12.24-5.37,18.63-7.38,6.3-1.99,12.7-3.51,19.22-4.58,6.45-1.05,12.94-1.64,19.48-1.75,6.26-.05,12.48.45,18.66,1.48-.04-.42-.23-.77-.57-1.06-.95-1.12-1.93-2.21-2.93-3.28-.99-1.08-2-2.14-3.05-3.17-.26-.36-.6-.58-1.01-.65Z"/>
          <path class="cls-6" d="M84.56,67.91c-6.46-.82-12.95-1.1-19.46-.83-6.69.3-13.31,1.11-19.87,2.43-6.69,1.35-13.24,3.17-19.66,5.48-6.54,2.35-12.89,5.16-19.03,8.42.31.41.72.69,1.24.83,1.67.76,3.36,1.48,5.07,2.17,1.7.71,3.41,1.39,5.13,2.03.47.26.96.35,1.47.28,6.01-2.68,12.18-4.93,18.5-6.75,6.24-1.79,12.58-3.15,19.01-4.06,6.38-.91,12.8-1.37,19.25-1.39,6.23.1,12.41.7,18.54,1.81-.14-.52-.42-.95-.85-1.3-1.3-1.42-2.62-2.81-3.97-4.18-1.33-1.38-2.69-2.74-4.08-4.07-.34-.44-.77-.74-1.28-.89Z"/>
          <path class="cls-6" d="M83.25,71.61c-6.44-.85-12.9-1.14-19.39-.87-6.69.29-13.33,1.1-19.9,2.42-6.7,1.34-13.26,3.17-19.69,5.48-6.55,2.36-12.91,5.17-19.06,8.43-.21.1,4.92,4.09,4.81,4,1.32.98,2.66,1.93,4.02,2.86.36.33.77.51,1.23.53,5.85-2.9,11.88-5.38,18.08-7.42,6.14-2.02,12.4-3.59,18.77-4.71,6.34-1.11,12.73-1.74,19.16-1.9,6.15-.08,12.25.41,18.3,1.45.02-.45-.11-.86-.41-1.23-.78-1.38-1.59-2.75-2.43-4.1-.82-1.36-1.68-2.7-2.57-4.02-.2-.43-.5-.74-.92-.92Z"/>
          <path class="cls-6" d="M83.29,74.75c-6.39-.5-12.8-.65-19.21-.46-6.71.33-13.36,1.17-19.94,2.53-6.71,1.4-13.29,3.27-19.74,5.61-6.57,2.41-12.92,5.28-19.08,8.6-.41.2,2.38,2.99,2.32,2.93.2.21,2.23,2.72,2.86,2.41,5.93-3.25,12.07-6.06,18.41-8.4,6.26-2.3,12.66-4.13,19.19-5.48,6.45-1.33,12.96-2.14,19.54-2.44,6.26-.26,12.49.02,18.7.85.37.03-1.25-3.36-1.19-3.24-.22-.43-1.08-2.87-1.87-2.91Z"/>
          <path class="cls-6" d="M86.15,67.71c-6.46-.83-12.95-1.12-19.46-.84-6.69.29-13.32,1.1-19.89,2.41-6.7,1.34-13.26,3.16-19.69,5.46-6.56,2.35-12.92,5.15-19.07,8.41.24.35.58.58,1.03.68,1.4.56,2.8,1.08,4.23,1.56,1.41.51,2.84.98,4.28,1.41.41.2.82.24,1.23.11,6.12-2.81,12.41-5.17,18.87-7.08,6.36-1.88,12.81-3.31,19.37-4.28,6.48-.96,12.99-1.47,19.54-1.52,6.31.03,12.58.57,18.81,1.64-.12-.44-.37-.79-.77-1.06-1.17-1.1-2.37-2.16-3.6-3.21-1.21-1.06-2.44-2.09-3.7-3.09-.32-.35-.71-.56-1.16-.61Z"/>
          <path class="cls-6" d="M83.76,65.79c-6.49-.83-13-1.1-19.53-.81-6.69.3-13.32,1.11-19.89,2.45-6.68,1.36-13.23,3.19-19.65,5.51-6.54,2.36-12.88,5.18-19.02,8.44.35.37.8.6,1.33.69,1.75.57,3.52,1.1,5.29,1.59,1.77.51,3.55.99,5.33,1.44.5.21.99.24,1.49.12,6.1-2.61,12.35-4.78,18.75-6.51,6.3-1.7,12.68-2.98,19.15-3.81,6.41-.83,12.84-1.23,19.31-1.18,6.29.15,12.52.79,18.71,1.94-.19-.51-.52-.93-.98-1.26-1.44-1.34-2.91-2.66-4.4-3.95-1.48-1.31-2.98-2.58-4.5-3.83-.38-.42-.84-.69-1.38-.81Z"/>
          <path class="cls-6" d="M83.11,64.25c-6.5-.82-13.02-1.09-19.57-.8-6.7.3-13.34,1.12-19.91,2.45-6.7,1.35-13.27,3.19-19.71,5.5-6.55,2.35-12.9,5.17-19.04,8.45.36.33.8.5,1.31.53,1.7.36,3.4.68,5.11.96,1.71.31,3.42.58,5.14.81.49.15.96.13,1.41-.06,6.2-2.6,12.55-4.75,19.04-6.46,6.37-1.67,12.82-2.91,19.36-3.71,6.45-.8,12.93-1.16,19.43-1.08,6.34.17,12.62.82,18.86,1.93-.21-.48-.55-.86-1.02-1.13-1.47-1.17-2.96-2.32-4.47-3.43-1.5-1.13-3.02-2.23-4.56-3.3-.4-.37-.86-.59-1.37-.65Z"/>
          <path class="cls-6" d="M85.05,71.5c-6.44-.87-12.91-1.17-19.41-.9-6.69.29-13.32,1.1-19.89,2.41-6.69,1.34-13.26,3.16-19.68,5.47-6.55,2.35-12.91,5.16-19.06,8.42.19.42.51.74.95.95,1.36.93,2.73,1.83,4.13,2.69,1.39.89,2.79,1.74,4.21,2.56.38.31.8.46,1.26.44,5.92-2.88,12.01-5.33,18.28-7.34,6.2-1.99,12.51-3.52,18.93-4.59,6.38-1.07,12.8-1.66,19.27-1.79,6.19-.05,12.34.47,18.44,1.54-.02-.46-.21-.86-.54-1.21-.93-1.34-1.89-2.65-2.88-3.95-.97-1.31-1.97-2.59-3-3.85-.24-.42-.58-.71-1.02-.86Z"/>
          <path class="cls-6" d="M82.89,67.14c-6.48-.85-12.99-1.12-19.52-.84-6.7.3-13.33,1.12-19.9,2.45-6.7,1.36-13.26,3.19-19.68,5.51-6.55,2.37-12.9,5.19-19.05,8.46.31.41.72.69,1.24.84,1.68.77,3.37,1.51,5.08,2.22,1.7.73,3.41,1.42,5.14,2.07.47.26.96.36,1.47.29,5.97-2.63,12.1-4.84,18.37-6.62,6.2-1.76,12.48-3.09,18.86-3.99,6.34-.9,12.71-1.35,19.12-1.36,6.2.1,12.35.73,18.45,1.88-.11-.52-.37-.97-.78-1.34-1.21-1.48-2.46-2.94-3.73-4.37-1.25-1.45-2.54-2.87-3.85-4.27-.32-.46-.73-.77-1.23-.95Z"/>
          <path class="cls-6" d="M84.75,63.57c-5-.43-9.84-.84-14.85-.84-5.89,0-8.31-.08-15.08.84-6.69.9-13.3,2.25-19.82,3.98-10.11,2.69-19.44,6.98-28.81,11.52.34.29.74.42,1.21.41,1.09.15,2.19.27,3.29.37,1.37.14,2.74.26,4.12.36.95.12,1.91.15,2.87.08l9.96-3.88-.34.12c3.37-1.04,6.74-2.09,10.1-3.13l-.36.1,10.2-2.39-.37.07c3.42-.56,6.83-1.11,10.25-1.67l-.38.05,10.26-.97-.39.03c4.9-.4,9.79-.4,14.67,0,4.81.14,9.58.63,14.33,1.48.46.13.52.03.17-.3-.86-.66-1.76-1.24-2.72-1.75-1.79-1.04-3.6-2.06-5.42-3.06-.93-.56-1.89-1.04-2.9-1.43Z"/>
          <path class="cls-6" d="M83.84,73.9c-6.42-.86-12.87-1.14-19.35-.85-6.7.3-13.34,1.12-19.91,2.45-6.7,1.36-13.27,3.2-19.7,5.52-6.56,2.37-12.91,5.2-19.06,8.48-.32.16,3.75,3.78,3.64,3.69.27.23,3.38,3.49,4.14,3.12,5.88-3.08,11.95-5.73,18.21-7.93,6.19-2.17,12.5-3.88,18.95-5.11,6.39-1.22,12.84-1.94,19.34-2.17,6.24-.26,12.43.21,18.57,1.39.08-.37,0-.72-.25-1.05-.58-1.16-1.2-2.31-1.84-3.44-.29-.52-1.76-4.03-2.75-4.11Z"/>
          <path class="cls-6" d="M84.26,69.57c-6.45-.81-12.92-1.08-19.41-.83-6.69.29-13.32,1.1-19.88,2.42-6.69,1.34-13.25,3.17-19.67,5.47-6.55,2.35-12.9,5.16-19.04,8.42.27.44.65.76,1.16.96,1.6.93,3.22,1.83,4.85,2.7,1.63.89,3.27,1.74,4.93,2.56.44.31.92.45,1.44.44,5.92-2.74,12-5.06,18.25-6.94,6.18-1.86,12.46-3.29,18.83-4.27,6.35-.98,12.73-1.5,19.15-1.56,6.17.05,12.29.62,18.37,1.71-.08-.52-.32-.96-.71-1.35-1.13-1.5-2.29-2.97-3.48-4.42-1.17-1.47-2.38-2.91-3.61-4.33-.29-.46-.68-.79-1.17-.97Z"/>
        </g>
      </g>
    </g>
  </g>
  <g id="Rosto">
    <ellipse class="cls-4" cx="109.07" cy="165.86" rx="45.3" ry="53.76"/>
    <ellipse class="cls-4" cx="251.72" cy="165.31" rx="45.3" ry="53.76"/>
    <line class="cls-4" x1="154.37" y1="165.86" x2="206.42" y2="165.31"/>
    <line class="cls-4" x1="297.02" y1="155.1" x2="303.2" y2="155.1"/>
    <line class="cls-4" x1="63.78" y1="165.86" x2="57.12" y2="165.31"/>
    <ellipse class="cls-5" cx="109.07" cy="165.31" rx="22.22" ry="24.46"/>
    <ellipse class="cls-1" cx="119.04" cy="153.31" rx="2.88" ry="2.34"/>
    <ellipse class="cls-2" cx="125.49" cy="163.44" rx="1.44" ry="1.17"/>
    <ellipse class="cls-5" cx="253.05" cy="162.82" rx="22.22" ry="24.46"/>
    <ellipse class="cls-1" cx="263.01" cy="150.81" rx="2.88" ry="2.34"/>
    <ellipse class="cls-2" cx="269.46" cy="160.94" rx="1.44" ry="1.17"/>
    <path class="cls-3" d="M167.1,192.49s16.03,35.67,32.06,0"/>
  </g>
</svg>