<svg width="378" height="204" viewBox="0 0 378 204" fill="none" xmlns="http://www.w3.org/2000/svg">
<g filter="url(#filter0_d_435_2814)">
<path d="M17 32C17 22.6112 24.6112 15 34 15H344C353.389 15 361 22.6112 361 32V166C361 175.389 353.389 183 344 183H34C24.6112 183 17 175.389 17 166V32Z" fill="#290A38"/>
<path d="M72.47 35.49H77.72L84.29 45H78.35L72.47 35.49ZM67.22 24H72.29V45H67.22V24ZM70.4 28.29V24H74.87C76.67 24 78.17 24.29 79.37 24.87C80.57 25.45 81.48 26.26 82.1 27.3C82.72 28.32 83.03 29.51 83.03 30.87C83.03 32.21 82.72 33.4 82.1 34.44C81.48 35.46 80.57 36.26 79.37 36.84C78.17 37.42 76.67 37.71 74.87 37.71H70.4V33.78H74.51C75.19 33.78 75.77 33.68 76.25 33.48C76.75 33.26 77.13 32.95 77.39 32.55C77.65 32.13 77.78 31.63 77.78 31.05C77.78 30.47 77.65 29.98 77.39 29.58C77.13 29.16 76.75 28.84 76.25 28.62C75.77 28.4 75.19 28.29 74.51 28.29H70.4ZM89.7038 40.68C89.7038 41.04 89.7938 41.35 89.9738 41.61C90.1538 41.85 90.3938 42.04 90.6938 42.18C90.9938 42.3 91.3238 42.36 91.6838 42.36C92.2038 42.36 92.6838 42.25 93.1238 42.03C93.5638 41.81 93.9238 41.48 94.2038 41.04C94.4838 40.6 94.6238 40.06 94.6238 39.42L95.1038 41.22C95.1038 42.1 94.8638 42.85 94.3838 43.47C93.9038 44.07 93.2838 44.53 92.5238 44.85C91.7638 45.15 90.9438 45.3 90.0638 45.3C89.1838 45.3 88.3638 45.14 87.6038 44.82C86.8638 44.48 86.2638 43.98 85.8038 43.32C85.3638 42.66 85.1438 41.86 85.1438 40.92C85.1438 39.6 85.6138 38.56 86.5538 37.8C87.4938 37.02 88.8238 36.63 90.5438 36.63C91.3838 36.63 92.1338 36.71 92.7938 36.87C93.4738 37.03 94.0538 37.23 94.5338 37.47C95.0138 37.71 95.3738 37.96 95.6138 38.22V40.23C95.1338 39.87 94.5738 39.6 93.9338 39.42C93.3138 39.22 92.6538 39.12 91.9538 39.12C91.4138 39.12 90.9838 39.18 90.6638 39.3C90.3438 39.42 90.1038 39.6 89.9438 39.84C89.7838 40.06 89.7038 40.34 89.7038 40.68ZM87.6938 35.43L86.1638 32.4C86.9438 32.02 87.8838 31.66 88.9838 31.32C90.0838 30.98 91.2838 30.81 92.5838 30.81C93.8038 30.81 94.8938 30.99 95.8538 31.35C96.8138 31.69 97.5738 32.19 98.1338 32.85C98.6938 33.51 98.9738 34.32 98.9738 35.28V45H94.6238V36.3C94.6238 35.96 94.5638 35.67 94.4438 35.43C94.3438 35.17 94.1838 34.95 93.9638 34.77C93.7438 34.59 93.4638 34.46 93.1238 34.38C92.8038 34.3 92.4338 34.26 92.0138 34.26C91.3938 34.26 90.7838 34.33 90.1838 34.47C89.6038 34.61 89.0938 34.78 88.6538 34.98C88.2138 35.16 87.8938 35.31 87.6938 35.43ZM111.336 36.6C111.336 35.78 111.176 35.15 110.856 34.71C110.556 34.27 110.046 34.05 109.326 34.05C108.846 34.05 108.426 34.15 108.066 34.35C107.706 34.55 107.426 34.84 107.226 35.22C107.026 35.6 106.926 36.06 106.926 36.6V45H102.366V31.2H106.926V33.27C107.326 32.51 107.866 31.92 108.546 31.5C109.246 31.08 110.106 30.87 111.126 30.87C112.846 30.87 114.096 31.33 114.876 32.25C115.656 33.17 116.046 34.46 116.046 36.12V45H111.336V36.6ZM119.592 21.6H123.942V45H119.592V21.6ZM128.952 31.2H134.382L128.472 36.9L134.982 45H129.642L123.042 36.9L128.952 31.2ZM136.666 26.01C136.666 25.29 136.926 24.71 137.446 24.27C137.966 23.81 138.586 23.58 139.306 23.58C140.046 23.58 140.666 23.81 141.166 24.27C141.686 24.71 141.946 25.29 141.946 26.01C141.946 26.73 141.686 27.32 141.166 27.78C140.666 28.24 140.046 28.47 139.306 28.47C138.586 28.47 137.966 28.24 137.446 27.78C136.926 27.32 136.666 26.73 136.666 26.01ZM137.116 31.2H141.496V45H137.116V31.2ZM154.197 36.6C154.197 35.78 154.037 35.15 153.717 34.71C153.417 34.27 152.907 34.05 152.187 34.05C151.707 34.05 151.287 34.15 150.927 34.35C150.567 34.55 150.287 34.84 150.087 35.22C149.887 35.6 149.787 36.06 149.787 36.6V45H145.227V31.2H149.787V33.27C150.187 32.51 150.727 31.92 151.407 31.5C152.107 31.08 152.967 30.87 153.987 30.87C155.707 30.87 156.957 31.33 157.737 32.25C158.517 33.17 158.907 34.46 158.907 36.12V45H154.197V36.6ZM161.973 45.99H166.353C166.413 46.55 166.573 47.02 166.833 47.4C167.113 47.78 167.483 48.06 167.943 48.24C168.403 48.44 168.923 48.54 169.503 48.54C170.143 48.54 170.723 48.39 171.243 48.09C171.763 47.81 172.173 47.38 172.473 46.8C172.793 46.24 172.953 45.54 172.953 44.7V31.2H177.303V44.7C177.303 46.46 176.953 47.89 176.253 48.99C175.573 50.09 174.663 50.89 173.523 51.39C172.383 51.91 171.103 52.17 169.683 52.17C167.983 52.17 166.573 51.91 165.453 51.39C164.353 50.87 163.523 50.14 162.963 49.2C162.403 48.28 162.073 47.21 161.973 45.99ZM161.673 37.92C161.673 36.36 161.983 35.06 162.603 34.02C163.243 32.98 164.063 32.2 165.063 31.68C166.063 31.16 167.123 30.9 168.243 30.9C169.403 30.9 170.423 31.18 171.303 31.74C172.203 32.28 172.913 33.07 173.433 34.11C173.953 35.15 174.213 36.42 174.213 37.92C174.213 39.4 173.953 40.67 173.433 41.73C172.913 42.77 172.203 43.57 171.303 44.13C170.423 44.67 169.403 44.94 168.243 44.94C167.123 44.94 166.063 44.68 165.063 44.16C164.063 43.62 163.243 42.83 162.603 41.79C161.983 40.75 161.673 39.46 161.673 37.92ZM166.443 37.92C166.443 38.62 166.593 39.23 166.893 39.75C167.193 40.25 167.593 40.63 168.093 40.89C168.593 41.15 169.143 41.28 169.743 41.28C170.263 41.28 170.763 41.16 171.243 40.92C171.743 40.66 172.153 40.28 172.473 39.78C172.793 39.28 172.953 38.66 172.953 37.92C172.953 37.36 172.853 36.87 172.653 36.45C172.473 36.03 172.223 35.68 171.903 35.4C171.603 35.12 171.263 34.91 170.883 34.77C170.503 34.63 170.123 34.56 169.743 34.56C169.143 34.56 168.593 34.69 168.093 34.95C167.593 35.21 167.193 35.59 166.893 36.09C166.593 36.59 166.443 37.2 166.443 37.92ZM190.238 24H195.308V40.65H203.738V45H190.238V24ZM205.367 26.01C205.367 25.29 205.627 24.71 206.147 24.27C206.667 23.81 207.287 23.58 208.007 23.58C208.747 23.58 209.367 23.81 209.867 24.27C210.387 24.71 210.647 25.29 210.647 26.01C210.647 26.73 210.387 27.32 209.867 27.78C209.367 28.24 208.747 28.47 208.007 28.47C207.287 28.47 206.667 28.24 206.147 27.78C205.627 27.32 205.367 26.73 205.367 26.01ZM205.817 31.2H210.197V45H205.817V31.2ZM224.398 21.6H228.928V45H224.398V21.6ZM213.118 38.1C213.118 36.54 213.428 35.23 214.048 34.17C214.688 33.11 215.508 32.3 216.508 31.74C217.508 31.18 218.568 30.9 219.688 30.9C220.848 30.9 221.868 31.19 222.748 31.77C223.648 32.35 224.358 33.18 224.878 34.26C225.398 35.32 225.658 36.6 225.658 38.1C225.658 39.58 225.398 40.86 224.878 41.94C224.358 43.02 223.648 43.85 222.748 44.43C221.868 45.01 220.848 45.3 219.688 45.3C218.568 45.3 217.508 45.02 216.508 44.46C215.508 43.9 214.688 43.09 214.048 42.03C213.428 40.95 213.118 39.64 213.118 38.1ZM217.888 38.1C217.888 38.82 218.038 39.45 218.338 39.99C218.638 40.51 219.038 40.92 219.538 41.22C220.038 41.5 220.588 41.64 221.188 41.64C221.708 41.64 222.208 41.5 222.688 41.22C223.188 40.94 223.598 40.54 223.918 40.02C224.238 39.48 224.398 38.84 224.398 38.1C224.398 37.36 224.238 36.73 223.918 36.21C223.598 35.67 223.188 35.26 222.688 34.98C222.208 34.7 221.708 34.56 221.188 34.56C220.588 34.56 220.038 34.71 219.538 35.01C219.038 35.29 218.638 35.7 218.338 36.24C218.038 36.76 217.888 37.38 217.888 38.1ZM239.464 45.3C237.864 45.3 236.474 45.01 235.294 44.43C234.134 43.83 233.234 42.99 232.594 41.91C231.954 40.83 231.634 39.56 231.634 38.1C231.634 36.62 231.944 35.34 232.564 34.26C233.184 33.18 234.074 32.35 235.234 31.77C236.414 31.19 237.804 30.9 239.404 30.9C241.004 30.9 242.354 31.18 243.454 31.74C244.554 32.28 245.394 33.07 245.974 34.11C246.554 35.15 246.844 36.41 246.844 37.89C246.844 38.11 246.844 38.33 246.844 38.55C246.844 38.75 246.824 38.92 246.784 39.06H234.184V36.54H242.704L241.624 37.92C241.724 37.78 241.804 37.61 241.864 37.41C241.944 37.19 241.984 37.01 241.984 36.87C241.984 36.27 241.874 35.75 241.654 35.31C241.434 34.87 241.124 34.53 240.724 34.29C240.324 34.05 239.854 33.93 239.314 33.93C238.634 33.93 238.064 34.08 237.604 34.38C237.144 34.68 236.794 35.14 236.554 35.76C236.334 36.36 236.214 37.12 236.194 38.04C236.194 38.88 236.314 39.6 236.554 40.2C236.794 40.8 237.154 41.26 237.634 41.58C238.114 41.88 238.704 42.03 239.404 42.03C240.204 42.03 240.884 41.88 241.444 41.58C242.024 41.28 242.484 40.83 242.824 40.23L246.874 41.22C246.154 42.58 245.174 43.6 243.934 44.28C242.714 44.96 241.224 45.3 239.464 45.3ZM254.111 31.2V45H249.641V31.2H254.111ZM258.101 35.88C257.861 35.64 257.601 35.45 257.321 35.31C257.061 35.17 256.731 35.1 256.331 35.1C255.891 35.1 255.501 35.22 255.161 35.46C254.821 35.7 254.561 36.05 254.381 36.51C254.201 36.97 254.111 37.53 254.111 38.19L253.031 36.6C253.031 35.5 253.241 34.52 253.661 33.66C254.101 32.8 254.671 32.12 255.371 31.62C256.071 31.12 256.801 30.87 257.561 30.87C258.061 30.87 258.541 30.97 259.001 31.17C259.461 31.37 259.811 31.65 260.051 32.01L258.101 35.88ZM265.485 40.68C265.485 41.04 265.575 41.35 265.755 41.61C265.935 41.85 266.175 42.04 266.475 42.18C266.775 42.3 267.105 42.36 267.465 42.36C267.985 42.36 268.465 42.25 268.905 42.03C269.345 41.81 269.705 41.48 269.985 41.04C270.265 40.6 270.405 40.06 270.405 39.42L270.885 41.22C270.885 42.1 270.645 42.85 270.165 43.47C269.685 44.07 269.065 44.53 268.305 44.85C267.545 45.15 266.725 45.3 265.845 45.3C264.965 45.3 264.145 45.14 263.385 44.82C262.645 44.48 262.045 43.98 261.585 43.32C261.145 42.66 260.925 41.86 260.925 40.92C260.925 39.6 261.395 38.56 262.335 37.8C263.275 37.02 264.605 36.63 266.325 36.63C267.165 36.63 267.915 36.71 268.575 36.87C269.255 37.03 269.835 37.23 270.315 37.47C270.795 37.71 271.155 37.96 271.395 38.22V40.23C270.915 39.87 270.355 39.6 269.715 39.42C269.095 39.22 268.435 39.12 267.735 39.12C267.195 39.12 266.765 39.18 266.445 39.3C266.125 39.42 265.885 39.6 265.725 39.84C265.565 40.06 265.485 40.34 265.485 40.68ZM263.475 35.43L261.945 32.4C262.725 32.02 263.665 31.66 264.765 31.32C265.865 30.98 267.065 30.81 268.365 30.81C269.585 30.81 270.675 30.99 271.635 31.35C272.595 31.69 273.355 32.19 273.915 32.85C274.475 33.51 274.755 34.32 274.755 35.28V45H270.405V36.3C270.405 35.96 270.345 35.67 270.225 35.43C270.125 35.17 269.965 34.95 269.745 34.77C269.525 34.59 269.245 34.46 268.905 34.38C268.585 34.3 268.215 34.26 267.795 34.26C267.175 34.26 266.565 34.33 265.965 34.47C265.385 34.61 264.875 34.78 264.435 34.98C263.995 35.16 263.675 35.31 263.475 35.43ZM287.117 36.6C287.117 35.78 286.957 35.15 286.637 34.71C286.337 34.27 285.827 34.05 285.107 34.05C284.627 34.05 284.207 34.15 283.847 34.35C283.487 34.55 283.207 34.84 283.007 35.22C282.807 35.6 282.707 36.06 282.707 36.6V45H278.147V31.2H282.707V33.27C283.107 32.51 283.647 31.92 284.327 31.5C285.027 31.08 285.887 30.87 286.907 30.87C288.627 30.87 289.877 31.33 290.657 32.25C291.437 33.17 291.827 34.46 291.827 36.12V45H287.117V36.6ZM299.213 38.1C299.213 38.84 299.373 39.48 299.693 40.02C300.013 40.54 300.453 40.95 301.013 41.25C301.593 41.55 302.213 41.7 302.873 41.7C303.433 41.7 303.963 41.62 304.463 41.46C304.983 41.28 305.453 41.04 305.873 40.74C306.313 40.44 306.673 40.07 306.953 39.63V44.04C306.473 44.42 305.873 44.73 305.153 44.97C304.433 45.19 303.553 45.3 302.513 45.3C300.993 45.3 299.623 45 298.403 44.4C297.203 43.8 296.253 42.96 295.553 41.88C294.873 40.8 294.533 39.54 294.533 38.1C294.533 36.64 294.873 35.38 295.553 34.32C296.253 33.24 297.203 32.4 298.403 31.8C299.623 31.2 300.993 30.9 302.513 30.9C303.553 30.9 304.433 31.02 305.153 31.26C305.873 31.48 306.473 31.76 306.953 32.1V36.54C306.673 36.1 306.303 35.73 305.843 35.43C305.403 35.13 304.923 34.9 304.403 34.74C303.883 34.58 303.373 34.5 302.873 34.5C302.213 34.5 301.593 34.66 301.013 34.98C300.453 35.3 300.013 35.73 299.693 36.27C299.373 36.81 299.213 37.42 299.213 38.1ZM300.743 43.17L304.043 43.29L301.463 46.95C301.623 46.89 301.793 46.85 301.973 46.83C302.153 46.83 302.353 46.83 302.573 46.83C302.973 46.83 303.383 46.93 303.803 47.13C304.223 47.35 304.573 47.68 304.853 48.12C305.153 48.56 305.303 49.11 305.303 49.77C305.303 50.47 305.103 51.06 304.703 51.54C304.323 52.04 303.833 52.41 303.233 52.65C302.633 52.91 302.013 53.04 301.373 53.04C300.533 53.04 299.773 52.95 299.093 52.77C298.433 52.61 297.753 52.3 297.053 51.84L298.433 49.8C298.813 50.08 299.223 50.27 299.663 50.37C300.103 50.49 300.473 50.55 300.773 50.55C301.293 50.55 301.693 50.46 301.973 50.28C302.253 50.12 302.393 49.86 302.393 49.5C302.393 49.1 302.203 48.84 301.823 48.72C301.463 48.6 301.053 48.54 300.593 48.54C300.453 48.54 300.133 48.56 299.633 48.6C299.153 48.66 298.653 48.8 298.133 49.02L300.743 43.17ZM313.737 40.68C313.737 41.04 313.827 41.35 314.007 41.61C314.187 41.85 314.427 42.04 314.727 42.18C315.027 42.3 315.357 42.36 315.717 42.36C316.237 42.36 316.717 42.25 317.157 42.03C317.597 41.81 317.957 41.48 318.237 41.04C318.517 40.6 318.657 40.06 318.657 39.42L319.137 41.22C319.137 42.1 318.897 42.85 318.417 43.47C317.937 44.07 317.317 44.53 316.557 44.85C315.797 45.15 314.977 45.3 314.097 45.3C313.217 45.3 312.397 45.14 311.637 44.82C310.897 44.48 310.297 43.98 309.837 43.32C309.397 42.66 309.177 41.86 309.177 40.92C309.177 39.6 309.647 38.56 310.587 37.8C311.527 37.02 312.857 36.63 314.577 36.63C315.417 36.63 316.167 36.71 316.827 36.87C317.507 37.03 318.087 37.23 318.567 37.47C319.047 37.71 319.407 37.96 319.647 38.22V40.23C319.167 39.87 318.607 39.6 317.967 39.42C317.347 39.22 316.687 39.12 315.987 39.12C315.447 39.12 315.017 39.18 314.697 39.3C314.377 39.42 314.137 39.6 313.977 39.84C313.817 40.06 313.737 40.34 313.737 40.68ZM311.727 35.43L310.197 32.4C310.977 32.02 311.917 31.66 313.017 31.32C314.117 30.98 315.317 30.81 316.617 30.81C317.837 30.81 318.927 30.99 319.887 31.35C320.847 31.69 321.607 32.19 322.167 32.85C322.727 33.51 323.007 34.32 323.007 35.28V45H318.657V36.3C318.657 35.96 318.597 35.67 318.477 35.43C318.377 35.17 318.217 34.95 317.997 34.77C317.777 34.59 317.497 34.46 317.157 34.38C316.837 34.3 316.467 34.26 316.047 34.26C315.427 34.26 314.817 34.33 314.217 34.47C313.637 34.61 313.127 34.78 312.687 34.98C312.247 35.16 311.927 35.31 311.727 35.43Z" fill="white"/>
<path d="M26.04 71.06V66.65L36.12 64.61V86H31.23V69.77L26.04 71.06ZM39.8337 68.6C39.8337 67.5 40.2037 66.63 40.9437 65.99C41.6837 65.33 42.6237 65 43.7637 65C44.8837 65 45.8237 65.33 46.5837 65.99C47.3437 66.63 47.7237 67.5 47.7237 68.6C47.7237 69.68 47.3437 70.55 46.5837 71.21C45.8237 71.87 44.8837 72.2 43.7637 72.2C42.6237 72.2 41.6837 71.87 40.9437 71.21C40.2037 70.55 39.8337 69.68 39.8337 68.6ZM42.1437 68.6C42.1437 69.14 42.2937 69.56 42.5937 69.86C42.9137 70.16 43.3037 70.31 43.7637 70.31C44.2037 70.31 44.5837 70.16 44.9037 69.86C45.2237 69.56 45.3837 69.14 45.3837 68.6C45.3837 68.06 45.2237 67.64 44.9037 67.34C44.5837 67.02 44.2037 66.86 43.7637 66.86C43.3037 66.86 42.9137 67.02 42.5937 67.34C42.2937 67.64 42.1437 68.06 42.1437 68.6Z" fill="white"/>
<path d="M89.6705 70.3636H92.1023V78.4773C92.1023 79.2273 91.9337 79.8788 91.5966 80.4318C91.2633 80.9848 90.7992 81.411 90.2045 81.7102C89.6098 82.0095 88.9186 82.1591 88.1307 82.1591C87.4299 82.1591 86.7936 82.036 86.2216 81.7898C85.6534 81.5398 85.2027 81.161 84.8693 80.6534C84.536 80.142 84.3712 79.5 84.375 78.7273H86.8239C86.8314 79.0341 86.8939 79.2973 87.0114 79.517C87.1326 79.733 87.2973 79.8996 87.5057 80.017C87.7178 80.1307 87.9678 80.1875 88.2557 80.1875C88.5587 80.1875 88.8144 80.1231 89.0227 79.9943C89.2348 79.8617 89.3958 79.6686 89.5057 79.4148C89.6155 79.161 89.6705 78.8485 89.6705 78.4773V70.3636ZM99.6875 78.2841V73.2727H102.108V82H99.7841V80.4148H99.6932C99.4962 80.9261 99.1686 81.3371 98.7102 81.6477C98.2557 81.9583 97.7008 82.1136 97.0455 82.1136C96.4621 82.1136 95.9489 81.9811 95.5057 81.7159C95.0625 81.4508 94.7159 81.0739 94.4659 80.5852C94.2197 80.0966 94.0947 79.5114 94.0909 78.8295V73.2727H96.5114V78.3977C96.5152 78.9129 96.6534 79.3201 96.9261 79.6193C97.1989 79.9186 97.5644 80.0682 98.0227 80.0682C98.3144 80.0682 98.5871 80.0019 98.8409 79.8693C99.0947 79.733 99.2992 79.5322 99.4545 79.267C99.6136 79.0019 99.6913 78.6742 99.6875 78.2841ZM106.464 70.3636V82H104.044V70.3636H106.464ZM108.403 82V73.2727H110.824V82H108.403ZM109.619 72.1477C109.259 72.1477 108.951 72.0284 108.693 71.7898C108.439 71.5473 108.312 71.2576 108.312 70.9205C108.312 70.5871 108.439 70.3011 108.693 70.0625C108.951 69.8201 109.259 69.6989 109.619 69.6989C109.979 69.6989 110.286 69.8201 110.54 70.0625C110.797 70.3011 110.926 70.5871 110.926 70.9205C110.926 71.2576 110.797 71.5473 110.54 71.7898C110.286 72.0284 109.979 72.1477 109.619 72.1477ZM115.251 82.1648C114.695 82.1648 114.198 82.0682 113.763 81.875C113.327 81.678 112.982 81.3883 112.729 81.0057C112.479 80.6193 112.354 80.1383 112.354 79.5625C112.354 79.0777 112.443 78.6705 112.621 78.3409C112.799 78.0114 113.041 77.7462 113.348 77.5455C113.655 77.3447 114.003 77.1932 114.393 77.0909C114.787 76.9886 115.2 76.9167 115.632 76.875C116.14 76.822 116.549 76.7727 116.859 76.7273C117.17 76.678 117.395 76.6061 117.536 76.5114C117.676 76.4167 117.746 76.2765 117.746 76.0909V76.0568C117.746 75.697 117.632 75.4186 117.405 75.2216C117.181 75.0246 116.863 74.9261 116.45 74.9261C116.015 74.9261 115.668 75.0227 115.411 75.2159C115.153 75.4053 114.982 75.6439 114.899 75.9318L112.661 75.75C112.774 75.2197 112.998 74.7614 113.331 74.375C113.664 73.9848 114.094 73.6856 114.621 73.4773C115.151 73.2652 115.765 73.1591 116.462 73.1591C116.946 73.1591 117.411 73.2159 117.854 73.3295C118.301 73.4432 118.696 73.6193 119.041 73.858C119.39 74.0966 119.664 74.4034 119.865 74.7784C120.066 75.1496 120.166 75.5947 120.166 76.1136V82H117.871V80.7898H117.803C117.662 81.0625 117.475 81.303 117.24 81.5114C117.005 81.7159 116.723 81.8769 116.393 81.9943C116.064 82.108 115.683 82.1648 115.251 82.1648ZM115.945 80.4943C116.301 80.4943 116.615 80.4242 116.888 80.2841C117.161 80.1402 117.375 79.947 117.53 79.7045C117.685 79.4621 117.763 79.1875 117.763 78.8807V77.9545C117.687 78.0038 117.583 78.0492 117.45 78.0909C117.321 78.1288 117.176 78.1648 117.013 78.1989C116.85 78.2292 116.687 78.2576 116.524 78.2841C116.361 78.3068 116.214 78.3277 116.081 78.3466C115.797 78.3883 115.549 78.4545 115.337 78.5455C115.125 78.6364 114.96 78.7595 114.842 78.9148C114.725 79.0663 114.666 79.2557 114.666 79.483C114.666 79.8125 114.786 80.0644 115.024 80.2386C115.267 80.4091 115.573 80.4943 115.945 80.4943ZM132.357 74.4375H129.868C129.822 74.1155 129.73 73.8295 129.589 73.5795C129.449 73.3258 129.269 73.1098 129.05 72.9318C128.83 72.7538 128.576 72.6174 128.288 72.5227C128.004 72.428 127.696 72.3807 127.362 72.3807C126.76 72.3807 126.235 72.5303 125.788 72.8295C125.341 73.125 124.995 73.5568 124.749 74.125C124.502 74.6894 124.379 75.375 124.379 76.1818C124.379 77.0114 124.502 77.7083 124.749 78.2727C124.999 78.8371 125.347 79.2633 125.794 79.5511C126.241 79.839 126.758 79.983 127.345 79.983C127.675 79.983 127.98 79.9394 128.26 79.8523C128.544 79.7652 128.796 79.6383 129.016 79.4716C129.235 79.3011 129.417 79.0947 129.561 78.8523C129.709 78.6098 129.811 78.3333 129.868 78.0227L132.357 78.0341C132.292 78.5682 132.131 79.0833 131.874 79.5795C131.62 80.072 131.277 80.5133 130.845 80.9034C130.417 81.2898 129.906 81.5966 129.311 81.8239C128.72 82.0473 128.052 82.1591 127.305 82.1591C126.268 82.1591 125.339 81.9242 124.521 81.4545C123.707 80.9848 123.063 80.3049 122.589 79.4148C122.12 78.5246 121.885 77.447 121.885 76.1818C121.885 74.9129 122.124 73.8333 122.601 72.9432C123.078 72.053 123.726 71.375 124.544 70.9091C125.362 70.4394 126.283 70.2045 127.305 70.2045C127.98 70.2045 128.605 70.2992 129.18 70.4886C129.76 70.678 130.273 70.9545 130.72 71.3182C131.167 71.678 131.531 72.1193 131.811 72.642C132.095 73.1648 132.277 73.7633 132.357 74.4375ZM138.018 82.1705C137.136 82.1705 136.373 81.983 135.729 81.608C135.089 81.2292 134.594 80.7027 134.246 80.0284C133.897 79.3504 133.723 78.5644 133.723 77.6705C133.723 76.7689 133.897 75.9811 134.246 75.3068C134.594 74.6288 135.089 74.1023 135.729 73.7273C136.373 73.3485 137.136 73.1591 138.018 73.1591C138.901 73.1591 139.662 73.3485 140.303 73.7273C140.946 74.1023 141.443 74.6288 141.791 75.3068C142.14 75.9811 142.314 76.7689 142.314 77.6705C142.314 78.5644 142.14 79.3504 141.791 80.0284C141.443 80.7027 140.946 81.2292 140.303 81.608C139.662 81.983 138.901 82.1705 138.018 82.1705ZM138.03 80.2955C138.431 80.2955 138.767 80.1818 139.036 79.9545C139.304 79.7235 139.507 79.4091 139.643 79.0114C139.784 78.6136 139.854 78.161 139.854 77.6534C139.854 77.1458 139.784 76.6932 139.643 76.2955C139.507 75.8977 139.304 75.5833 139.036 75.3523C138.767 75.1212 138.431 75.0057 138.03 75.0057C137.625 75.0057 137.284 75.1212 137.007 75.3523C136.734 75.5833 136.528 75.8977 136.388 76.2955C136.251 76.6932 136.183 77.1458 136.183 77.6534C136.183 78.161 136.251 78.6136 136.388 79.0114C136.528 79.4091 136.734 79.7235 137.007 79.9545C137.284 80.1818 137.625 80.2955 138.03 80.2955ZM146.308 76.9545V82H143.888V73.2727H146.195V74.8125H146.297C146.49 74.3049 146.814 73.9034 147.268 73.608C147.723 73.3087 148.274 73.1591 148.922 73.1591C149.528 73.1591 150.056 73.2917 150.507 73.5568C150.958 73.822 151.308 74.2008 151.558 74.6932C151.808 75.1818 151.933 75.7652 151.933 76.4432V82H149.513V76.875C149.517 76.3409 149.38 75.9242 149.104 75.625C148.827 75.322 148.446 75.1705 147.962 75.1705C147.636 75.1705 147.348 75.2405 147.098 75.3807C146.852 75.5208 146.659 75.7254 146.518 75.9943C146.382 76.2595 146.312 76.5795 146.308 76.9545ZM158.483 73.2727V75.0909H153.227V73.2727H158.483ZM154.42 71.1818H156.841V79.3182C156.841 79.5417 156.875 79.7159 156.943 79.8409C157.011 79.9621 157.106 80.0473 157.227 80.0966C157.352 80.1458 157.496 80.1705 157.659 80.1705C157.773 80.1705 157.886 80.161 158 80.142C158.114 80.1193 158.201 80.1023 158.261 80.0909L158.642 81.892C158.521 81.9299 158.35 81.9735 158.131 82.0227C157.911 82.0758 157.644 82.108 157.33 82.1193C156.746 82.142 156.235 82.0644 155.795 81.8864C155.36 81.7083 155.021 81.4318 154.778 81.0568C154.536 80.6818 154.417 80.2083 154.42 79.6364V71.1818ZM160.06 82V73.2727H162.406V74.7955H162.497C162.656 74.2538 162.923 73.8447 163.298 73.5682C163.673 73.2879 164.105 73.1477 164.594 73.1477C164.715 73.1477 164.846 73.1553 164.986 73.1705C165.126 73.1856 165.249 73.2064 165.355 73.233V75.3807C165.241 75.3466 165.084 75.3163 164.884 75.2898C164.683 75.2633 164.499 75.25 164.332 75.25C163.976 75.25 163.658 75.3277 163.378 75.483C163.101 75.6345 162.882 75.8466 162.719 76.1193C162.56 76.392 162.48 76.7064 162.48 77.0625V82H160.06ZM170.178 82.1705C169.28 82.1705 168.507 81.9886 167.859 81.625C167.215 81.2576 166.719 80.7386 166.371 80.0682C166.022 79.3939 165.848 78.5966 165.848 77.6761C165.848 76.7784 166.022 75.9905 166.371 75.3125C166.719 74.6345 167.21 74.1061 167.842 73.7273C168.479 73.3485 169.225 73.1591 170.081 73.1591C170.657 73.1591 171.193 73.2519 171.689 73.4375C172.189 73.6193 172.625 73.8939 172.996 74.2614C173.371 74.6288 173.662 75.0909 173.871 75.6477C174.079 76.2008 174.183 76.8485 174.183 77.5909V78.2557H166.814V76.7557H171.905C171.905 76.4072 171.829 76.0985 171.678 75.8295C171.526 75.5606 171.316 75.3504 171.047 75.1989C170.782 75.0436 170.473 74.9659 170.121 74.9659C169.753 74.9659 169.428 75.0511 169.143 75.2216C168.863 75.3883 168.643 75.6136 168.484 75.8977C168.325 76.178 168.244 76.4905 168.24 76.8352V78.2614C168.24 78.6932 168.32 79.0663 168.479 79.3807C168.642 79.6951 168.871 79.9375 169.166 80.108C169.462 80.2784 169.812 80.3636 170.217 80.3636C170.486 80.3636 170.732 80.3258 170.956 80.25C171.179 80.1742 171.371 80.0606 171.53 79.9091C171.689 79.7576 171.81 79.572 171.893 79.3523L174.132 79.5C174.018 80.0379 173.786 80.5076 173.433 80.9091C173.085 81.3068 172.634 81.6174 172.081 81.8409C171.532 82.0606 170.897 82.1705 170.178 82.1705ZM175.763 82V73.2727H178.183V82H175.763ZM176.979 72.1477C176.619 72.1477 176.31 72.0284 176.053 71.7898C175.799 71.5473 175.672 71.2576 175.672 70.9205C175.672 70.5871 175.799 70.3011 176.053 70.0625C176.31 69.8201 176.619 69.6989 176.979 69.6989C177.339 69.6989 177.645 69.8201 177.899 70.0625C178.157 70.3011 178.286 70.5871 178.286 70.9205C178.286 71.2576 178.157 71.5473 177.899 71.7898C177.645 72.0284 177.339 72.1477 176.979 72.1477ZM180.122 82V73.2727H182.469V74.7955H182.56C182.719 74.2538 182.986 73.8447 183.361 73.5682C183.736 73.2879 184.168 73.1477 184.656 73.1477C184.777 73.1477 184.908 73.1553 185.048 73.1705C185.188 73.1856 185.312 73.2064 185.418 73.233V75.3807C185.304 75.3466 185.147 75.3163 184.946 75.2898C184.745 75.2633 184.562 75.25 184.395 75.25C184.039 75.25 183.721 75.3277 183.44 75.483C183.164 75.6345 182.944 75.8466 182.781 76.1193C182.622 76.392 182.543 76.7064 182.543 77.0625V82H180.122ZM188.908 82.1648C188.351 82.1648 187.855 82.0682 187.419 81.875C186.983 81.678 186.639 81.3883 186.385 81.0057C186.135 80.6193 186.01 80.1383 186.01 79.5625C186.01 79.0777 186.099 78.6705 186.277 78.3409C186.455 78.0114 186.697 77.7462 187.004 77.5455C187.311 77.3447 187.66 77.1932 188.05 77.0909C188.444 76.9886 188.857 76.9167 189.288 76.875C189.796 76.822 190.205 76.7727 190.516 76.7273C190.826 76.678 191.052 76.6061 191.192 76.5114C191.332 76.4167 191.402 76.2765 191.402 76.0909V76.0568C191.402 75.697 191.288 75.4186 191.061 75.2216C190.838 75.0246 190.519 74.9261 190.107 74.9261C189.671 74.9261 189.324 75.0227 189.067 75.2159C188.809 75.4053 188.639 75.6439 188.555 75.9318L186.317 75.75C186.43 75.2197 186.654 74.7614 186.987 74.375C187.321 73.9848 187.75 73.6856 188.277 73.4773C188.807 73.2652 189.421 73.1591 190.118 73.1591C190.603 73.1591 191.067 73.2159 191.51 73.3295C191.957 73.4432 192.353 73.6193 192.697 73.858C193.046 74.0966 193.321 74.4034 193.521 74.7784C193.722 75.1496 193.822 75.5947 193.822 76.1136V82H191.527V80.7898H191.459C191.319 81.0625 191.131 81.303 190.896 81.5114C190.661 81.7159 190.379 81.8769 190.05 81.9943C189.72 82.108 189.339 82.1648 188.908 82.1648ZM189.601 80.4943C189.957 80.4943 190.271 80.4242 190.544 80.2841C190.817 80.1402 191.031 79.947 191.186 79.7045C191.341 79.4621 191.419 79.1875 191.419 78.8807V77.9545C191.343 78.0038 191.239 78.0492 191.107 78.0909C190.978 78.1288 190.832 78.1648 190.669 78.1989C190.506 78.2292 190.343 78.2576 190.18 78.2841C190.018 78.3068 189.87 78.3277 189.737 78.3466C189.453 78.3883 189.205 78.4545 188.993 78.5455C188.781 78.6364 188.616 78.7595 188.499 78.9148C188.381 79.0663 188.322 79.2557 188.322 79.483C188.322 79.8125 188.442 80.0644 188.68 80.2386C188.923 80.4091 189.23 80.4943 189.601 80.4943ZM202.962 75.7614L200.746 75.8977C200.708 75.7083 200.626 75.5379 200.501 75.3864C200.376 75.2311 200.212 75.108 200.007 75.017C199.806 74.9223 199.566 74.875 199.286 74.875C198.911 74.875 198.594 74.9545 198.337 75.1136C198.079 75.2689 197.95 75.4773 197.95 75.7386C197.95 75.947 198.034 76.1231 198.2 76.267C198.367 76.411 198.653 76.5265 199.058 76.6136L200.638 76.9318C201.486 77.1061 202.119 77.3864 202.536 77.7727C202.952 78.1591 203.161 78.6667 203.161 79.2955C203.161 79.8674 202.992 80.3693 202.655 80.8011C202.321 81.233 201.863 81.5701 201.28 81.8125C200.7 82.0511 200.032 82.1705 199.274 82.1705C198.119 82.1705 197.198 81.9299 196.513 81.4489C195.831 80.964 195.431 80.3049 195.314 79.4716L197.695 79.3466C197.767 79.6989 197.941 79.9678 198.217 80.1534C198.494 80.3352 198.848 80.4261 199.28 80.4261C199.704 80.4261 200.045 80.3447 200.303 80.1818C200.564 80.0152 200.696 79.8011 200.7 79.5398C200.696 79.3201 200.604 79.1402 200.422 79C200.24 78.8561 199.96 78.7462 199.581 78.6705L198.07 78.3693C197.217 78.1989 196.583 77.9034 196.166 77.483C195.753 77.0625 195.547 76.5265 195.547 75.875C195.547 75.3144 195.698 74.8314 196.001 74.4261C196.308 74.0208 196.738 73.7083 197.291 73.4886C197.848 73.2689 198.5 73.1591 199.246 73.1591C200.348 73.1591 201.215 73.392 201.848 73.858C202.484 74.3239 202.856 74.9583 202.962 75.7614Z" fill="white"/>
<path d="M267.244 82.1591C266.396 82.1591 265.64 82.0133 264.977 81.7216C264.318 81.4261 263.797 81.0208 263.415 80.5057C263.036 79.9867 262.841 79.3883 262.83 78.7102H265.307C265.322 78.9943 265.415 79.2443 265.585 79.4602C265.759 79.6723 265.991 79.8371 266.278 79.9545C266.566 80.072 266.89 80.1307 267.25 80.1307C267.625 80.1307 267.956 80.0644 268.244 79.9318C268.532 79.7992 268.758 79.6155 268.92 79.3807C269.083 79.1458 269.165 78.875 269.165 78.5682C269.165 78.2576 269.078 77.983 268.903 77.7443C268.733 77.5019 268.487 77.3125 268.165 77.1761C267.847 77.0398 267.468 76.9716 267.028 76.9716H265.943V75.1648H267.028C267.4 75.1648 267.727 75.1004 268.011 74.9716C268.299 74.8428 268.523 74.6648 268.682 74.4375C268.841 74.2064 268.92 73.9375 268.92 73.6307C268.92 73.339 268.85 73.0833 268.71 72.8636C268.574 72.6402 268.381 72.4659 268.131 72.3409C267.884 72.2159 267.597 72.1534 267.267 72.1534C266.934 72.1534 266.629 72.214 266.352 72.3352C266.076 72.4527 265.854 72.6212 265.688 72.8409C265.521 73.0606 265.432 73.3182 265.42 73.6136H263.062C263.074 72.9432 263.265 72.3523 263.636 71.8409C264.008 71.3295 264.508 70.9299 265.136 70.642C265.769 70.3504 266.483 70.2045 267.278 70.2045C268.081 70.2045 268.784 70.3504 269.386 70.642C269.989 70.9337 270.456 71.3277 270.79 71.8239C271.127 72.3163 271.294 72.8693 271.29 73.483C271.294 74.1345 271.091 74.678 270.682 75.1136C270.277 75.5492 269.748 75.8258 269.097 75.9432V76.0341C269.953 76.1439 270.604 76.4413 271.051 76.9261C271.502 77.4072 271.725 78.0095 271.722 78.733C271.725 79.3958 271.534 79.9848 271.148 80.5C270.765 81.0152 270.237 81.4205 269.562 81.7159C268.888 82.0114 268.116 82.1591 267.244 82.1591ZM273.314 79.9545V78.017L278.172 70.3636H279.842V73.0455H278.854L275.791 77.892V77.983H282.695V79.9545H273.314ZM278.899 82V79.3636L278.945 78.5057V70.3636H281.251V82H278.899ZM288.584 82.1591C287.781 82.1591 287.065 82.0114 286.436 81.7159C285.811 81.4205 285.315 81.0133 284.947 80.4943C284.58 79.9754 284.389 79.3807 284.374 78.7102H286.76C286.786 79.161 286.976 79.5265 287.328 79.8068C287.68 80.0871 288.099 80.2273 288.584 80.2273C288.97 80.2273 289.311 80.142 289.607 79.9716C289.906 79.7973 290.139 79.5568 290.305 79.25C290.476 78.9394 290.561 78.5833 290.561 78.1818C290.561 77.7727 290.474 77.4129 290.3 77.1023C290.129 76.7917 289.893 76.5492 289.589 76.375C289.286 76.2008 288.94 76.1117 288.55 76.108C288.209 76.108 287.877 76.178 287.555 76.3182C287.237 76.4583 286.989 76.6496 286.811 76.892L284.624 76.5L285.175 70.3636H292.288V72.375H287.203L286.902 75.2898H286.97C287.175 75.0019 287.483 74.7633 287.896 74.5739C288.309 74.3845 288.771 74.2898 289.283 74.2898C289.983 74.2898 290.608 74.4545 291.158 74.7841C291.707 75.1136 292.141 75.5663 292.459 76.142C292.777 76.714 292.934 77.3731 292.93 78.1193C292.934 78.9034 292.752 79.6004 292.385 80.2102C292.021 80.8163 291.512 81.2936 290.857 81.642C290.205 81.9867 289.447 82.1591 288.584 82.1591ZM299.209 82.2557C298.232 82.2519 297.391 82.0114 296.686 81.5341C295.985 81.0568 295.446 80.3655 295.067 79.4602C294.692 78.5549 294.506 77.4659 294.51 76.1932C294.51 74.9242 294.697 73.8428 295.072 72.9489C295.451 72.0549 295.991 71.375 296.692 70.9091C297.396 70.4394 298.235 70.2045 299.209 70.2045C300.182 70.2045 301.019 70.4394 301.72 70.9091C302.425 71.3788 302.966 72.0606 303.345 72.9545C303.724 73.8447 303.911 74.9242 303.908 76.1932C303.908 77.4697 303.718 78.5606 303.339 79.4659C302.964 80.3712 302.427 81.0625 301.726 81.5398C301.025 82.017 300.186 82.2557 299.209 82.2557ZM299.209 80.2159C299.875 80.2159 300.408 79.8807 300.805 79.2102C301.203 78.5398 301.4 77.5341 301.396 76.1932C301.396 75.3106 301.305 74.5758 301.124 73.9886C300.946 73.4015 300.692 72.9602 300.362 72.6648C300.036 72.3693 299.652 72.2216 299.209 72.2216C298.546 72.2216 298.016 72.553 297.618 73.2159C297.22 73.8788 297.019 74.8712 297.016 76.1932C297.016 77.0871 297.105 77.8333 297.283 78.4318C297.464 79.0265 297.72 79.4735 298.05 79.7727C298.379 80.0682 298.766 80.2159 299.209 80.2159ZM308.037 70.3636L310.384 74.3295H310.474L312.832 70.3636H315.611L312.06 76.1818L315.69 82H312.861L310.474 78.0284H310.384L307.997 82H305.179L308.821 76.1818L305.247 70.3636H308.037ZM317.122 85.2727V73.2727H319.509V74.7386H319.616C319.723 74.5038 319.876 74.2652 320.077 74.0227C320.281 73.7765 320.546 73.572 320.872 73.4091C321.202 73.2424 321.611 73.1591 322.099 73.1591C322.736 73.1591 323.323 73.3258 323.861 73.6591C324.399 73.9886 324.829 74.4867 325.151 75.1534C325.473 75.8163 325.634 76.6477 325.634 77.6477C325.634 78.6212 325.476 79.4432 325.162 80.1136C324.851 80.7803 324.427 81.286 323.889 81.6307C323.355 81.9716 322.757 82.142 322.094 82.142C321.624 82.142 321.224 82.0644 320.895 81.9091C320.569 81.7538 320.302 81.5587 320.094 81.3239C319.885 81.0852 319.726 80.8447 319.616 80.6023H319.543V85.2727H317.122ZM319.491 77.6364C319.491 78.1553 319.563 78.608 319.707 78.9943C319.851 79.3807 320.06 79.6818 320.332 79.8977C320.605 80.1098 320.937 80.2159 321.327 80.2159C321.721 80.2159 322.054 80.108 322.327 79.892C322.599 79.6723 322.806 79.3693 322.946 78.983C323.09 78.5928 323.162 78.1439 323.162 77.6364C323.162 77.1326 323.092 76.6894 322.952 76.3068C322.812 75.9242 322.605 75.625 322.332 75.4091C322.06 75.1932 321.724 75.0852 321.327 75.0852C320.933 75.0852 320.599 75.1894 320.327 75.3977C320.058 75.6061 319.851 75.9015 319.707 76.2841C319.563 76.6667 319.491 77.1174 319.491 77.6364Z" fill="white"/>
<path d="M24.6 129L33.96 119.31C34.52 118.69 35 118.13 35.4 117.63C35.82 117.13 36.13 116.64 36.33 116.16C36.55 115.66 36.66 115.13 36.66 114.57C36.66 114.25 36.6 113.93 36.48 113.61C36.36 113.29 36.18 113.01 35.94 112.77C35.7 112.51 35.4 112.31 35.04 112.17C34.68 112.01 34.26 111.93 33.78 111.93C33.14 111.93 32.57 112.09 32.07 112.41C31.59 112.73 31.22 113.18 30.96 113.76C30.72 114.34 30.6 115.01 30.6 115.77H25.62C25.62 114.27 25.93 112.9 26.55 111.66C27.17 110.42 28.1 109.43 29.34 108.69C30.6 107.95 32.13 107.58 33.93 107.58C35.23 107.58 36.38 107.78 37.38 108.18C38.38 108.56 39.21 109.08 39.87 109.74C40.55 110.38 41.06 111.09 41.4 111.87C41.74 112.65 41.91 113.44 41.91 114.24C41.91 115.38 41.63 116.43 41.07 117.39C40.51 118.33 39.78 119.19 38.88 119.97L33.99 124.35H42.39V129H24.6ZM44.2575 111.6C44.2575 110.5 44.6275 109.63 45.3675 108.99C46.1075 108.33 47.0475 108 48.1875 108C49.3075 108 50.2475 108.33 51.0075 108.99C51.7675 109.63 52.1475 110.5 52.1475 111.6C52.1475 112.68 51.7675 113.55 51.0075 114.21C50.2475 114.87 49.3075 115.2 48.1875 115.2C47.0475 115.2 46.1075 114.87 45.3675 114.21C44.6275 113.55 44.2575 112.68 44.2575 111.6ZM46.5675 111.6C46.5675 112.14 46.7175 112.56 47.0175 112.86C47.3375 113.16 47.7275 113.31 48.1875 113.31C48.6275 113.31 49.0075 113.16 49.3275 112.86C49.6475 112.56 49.8075 112.14 49.8075 111.6C49.8075 111.06 49.6475 110.64 49.3275 110.34C49.0075 110.02 48.6275 109.86 48.1875 109.86C47.7275 109.86 47.3375 110.02 47.0175 110.34C46.7175 110.64 46.5675 111.06 46.5675 111.6Z" fill="white"/>
<path d="M91.6307 125V126.835H83.9886V125H91.6307ZM96.1349 125.159C95.2865 125.159 94.5308 125.013 93.8679 124.722C93.2088 124.426 92.688 124.021 92.3054 123.506C91.9266 122.987 91.7315 122.388 91.7202 121.71H94.1974C94.2126 121.994 94.3054 122.244 94.4759 122.46C94.6501 122.672 94.8812 122.837 95.169 122.955C95.4569 123.072 95.7808 123.131 96.1406 123.131C96.5156 123.131 96.8471 123.064 97.1349 122.932C97.4228 122.799 97.6482 122.616 97.8111 122.381C97.974 122.146 98.0554 121.875 98.0554 121.568C98.0554 121.258 97.9683 120.983 97.794 120.744C97.6236 120.502 97.3774 120.312 97.0554 120.176C96.7372 120.04 96.3584 119.972 95.919 119.972H94.8338V118.165H95.919C96.2902 118.165 96.6179 118.1 96.902 117.972C97.1899 117.843 97.4134 117.665 97.5724 117.438C97.7315 117.206 97.8111 116.938 97.8111 116.631C97.8111 116.339 97.741 116.083 97.6009 115.864C97.4645 115.64 97.2713 115.466 97.0213 115.341C96.7751 115.216 96.4872 115.153 96.1577 115.153C95.8243 115.153 95.5194 115.214 95.2429 115.335C94.9664 115.453 94.7448 115.621 94.5781 115.841C94.4115 116.061 94.3224 116.318 94.3111 116.614H91.9531C91.9645 115.943 92.1558 115.352 92.527 114.841C92.8982 114.33 93.3982 113.93 94.027 113.642C94.6596 113.35 95.3736 113.205 96.169 113.205C96.9721 113.205 97.6747 113.35 98.277 113.642C98.8793 113.934 99.3471 114.328 99.6804 114.824C100.018 115.316 100.184 115.869 100.18 116.483C100.184 117.134 99.9815 117.678 99.5724 118.114C99.1671 118.549 98.6387 118.826 97.9872 118.943V119.034C98.8433 119.144 99.4948 119.441 99.9418 119.926C100.393 120.407 100.616 121.009 100.612 121.733C100.616 122.396 100.425 122.985 100.038 123.5C99.6558 124.015 99.1274 124.42 98.4531 124.716C97.7789 125.011 97.0062 125.159 96.1349 125.159ZM102.841 125L107.665 115.455V115.375H102.045V113.364H110.21V115.403L105.381 125H102.841ZM115.99 125.159C115.187 125.159 114.471 125.011 113.842 124.716C113.217 124.42 112.721 124.013 112.354 123.494C111.986 122.975 111.795 122.381 111.78 121.71H114.166C114.193 122.161 114.382 122.527 114.734 122.807C115.087 123.087 115.505 123.227 115.99 123.227C116.376 123.227 116.717 123.142 117.013 122.972C117.312 122.797 117.545 122.557 117.712 122.25C117.882 121.939 117.967 121.583 117.967 121.182C117.967 120.773 117.88 120.413 117.706 120.102C117.536 119.792 117.299 119.549 116.996 119.375C116.693 119.201 116.346 119.112 115.956 119.108C115.615 119.108 115.284 119.178 114.962 119.318C114.643 119.458 114.395 119.65 114.217 119.892L112.03 119.5L112.581 113.364H119.695V115.375H114.609L114.308 118.29H114.376C114.581 118.002 114.89 117.763 115.303 117.574C115.715 117.384 116.178 117.29 116.689 117.29C117.39 117.29 118.015 117.455 118.564 117.784C119.113 118.114 119.547 118.566 119.865 119.142C120.183 119.714 120.34 120.373 120.337 121.119C120.34 121.903 120.159 122.6 119.791 123.21C119.428 123.816 118.918 124.294 118.263 124.642C117.611 124.987 116.854 125.159 115.99 125.159ZM122.075 125V116.273H124.422V117.795H124.513C124.672 117.254 124.939 116.845 125.314 116.568C125.689 116.288 126.121 116.148 126.609 116.148C126.731 116.148 126.861 116.155 127.001 116.17C127.142 116.186 127.265 116.206 127.371 116.233V118.381C127.257 118.347 127.1 118.316 126.899 118.29C126.698 118.263 126.515 118.25 126.348 118.25C125.992 118.25 125.674 118.328 125.393 118.483C125.117 118.634 124.897 118.847 124.734 119.119C124.575 119.392 124.496 119.706 124.496 120.062V125H122.075ZM132.159 125.17C131.277 125.17 130.513 124.983 129.869 124.608C129.229 124.229 128.735 123.703 128.386 123.028C128.038 122.35 127.864 121.564 127.864 120.67C127.864 119.769 128.038 118.981 128.386 118.307C128.735 117.629 129.229 117.102 129.869 116.727C130.513 116.348 131.277 116.159 132.159 116.159C133.042 116.159 133.803 116.348 134.443 116.727C135.087 117.102 135.583 117.629 135.932 118.307C136.28 118.981 136.455 119.769 136.455 120.67C136.455 121.564 136.28 122.35 135.932 123.028C135.583 123.703 135.087 124.229 134.443 124.608C133.803 124.983 133.042 125.17 132.159 125.17ZM132.17 123.295C132.572 123.295 132.907 123.182 133.176 122.955C133.445 122.723 133.648 122.409 133.784 122.011C133.924 121.614 133.994 121.161 133.994 120.653C133.994 120.146 133.924 119.693 133.784 119.295C133.648 118.898 133.445 118.583 133.176 118.352C132.907 118.121 132.572 118.006 132.17 118.006C131.765 118.006 131.424 118.121 131.148 118.352C130.875 118.583 130.669 118.898 130.528 119.295C130.392 119.693 130.324 120.146 130.324 120.653C130.324 121.161 130.392 121.614 130.528 122.011C130.669 122.409 130.875 122.723 131.148 122.955C131.424 123.182 131.765 123.295 132.17 123.295ZM141.244 125.142C140.581 125.142 139.981 124.972 139.443 124.631C138.909 124.286 138.485 123.78 138.17 123.114C137.86 122.443 137.705 121.621 137.705 120.648C137.705 119.648 137.866 118.816 138.188 118.153C138.509 117.487 138.938 116.989 139.472 116.659C140.009 116.326 140.598 116.159 141.239 116.159C141.727 116.159 142.134 116.242 142.46 116.409C142.79 116.572 143.055 116.777 143.256 117.023C143.46 117.265 143.616 117.504 143.722 117.739H143.795V113.364H146.21V125H143.824V123.602H143.722C143.608 123.845 143.447 124.085 143.239 124.324C143.034 124.559 142.767 124.754 142.438 124.909C142.112 125.064 141.714 125.142 141.244 125.142ZM142.011 123.216C142.402 123.216 142.731 123.11 143 122.898C143.273 122.682 143.481 122.381 143.625 121.994C143.773 121.608 143.847 121.155 143.847 120.636C143.847 120.117 143.775 119.667 143.631 119.284C143.487 118.902 143.278 118.606 143.006 118.398C142.733 118.189 142.402 118.085 142.011 118.085C141.614 118.085 141.278 118.193 141.006 118.409C140.733 118.625 140.527 118.924 140.386 119.307C140.246 119.689 140.176 120.133 140.176 120.636C140.176 121.144 140.246 121.593 140.386 121.983C140.53 122.369 140.737 122.672 141.006 122.892C141.278 123.108 141.614 123.216 142.011 123.216ZM148.2 125V116.273H150.547V117.795H150.638C150.797 117.254 151.064 116.845 151.439 116.568C151.814 116.288 152.246 116.148 152.734 116.148C152.856 116.148 152.986 116.155 153.126 116.17C153.267 116.186 153.39 116.206 153.496 116.233V118.381C153.382 118.347 153.225 118.316 153.024 118.29C152.823 118.263 152.64 118.25 152.473 118.25C152.117 118.25 151.799 118.328 151.518 118.483C151.242 118.634 151.022 118.847 150.859 119.119C150.7 119.392 150.621 119.706 150.621 120.062V125H148.2ZM154.747 125V116.273H157.168V125H154.747ZM155.963 115.148C155.603 115.148 155.295 115.028 155.037 114.79C154.783 114.547 154.656 114.258 154.656 113.92C154.656 113.587 154.783 113.301 155.037 113.062C155.295 112.82 155.603 112.699 155.963 112.699C156.323 112.699 156.63 112.82 156.884 113.062C157.141 113.301 157.27 113.587 157.27 113.92C157.27 114.258 157.141 114.547 156.884 114.79C156.63 115.028 156.323 115.148 155.963 115.148ZM163.038 128.455C162.254 128.455 161.582 128.347 161.021 128.131C160.464 127.919 160.021 127.629 159.692 127.261C159.362 126.894 159.148 126.481 159.05 126.023L161.288 125.722C161.357 125.896 161.464 126.059 161.612 126.21C161.76 126.362 161.955 126.483 162.197 126.574C162.444 126.669 162.743 126.716 163.095 126.716C163.622 126.716 164.055 126.587 164.396 126.33C164.741 126.076 164.913 125.65 164.913 125.051V123.455H164.811C164.705 123.697 164.546 123.926 164.334 124.142C164.122 124.358 163.849 124.534 163.516 124.67C163.182 124.807 162.785 124.875 162.322 124.875C161.667 124.875 161.071 124.723 160.533 124.42C159.999 124.114 159.572 123.646 159.254 123.017C158.94 122.384 158.783 121.585 158.783 120.619C158.783 119.631 158.944 118.805 159.266 118.142C159.588 117.479 160.016 116.983 160.55 116.653C161.088 116.324 161.677 116.159 162.317 116.159C162.805 116.159 163.214 116.242 163.544 116.409C163.874 116.572 164.139 116.777 164.339 117.023C164.544 117.265 164.701 117.504 164.811 117.739H164.902V116.273H167.305V125.085C167.305 125.828 167.124 126.449 166.76 126.949C166.396 127.449 165.893 127.824 165.249 128.074C164.608 128.328 163.872 128.455 163.038 128.455ZM163.089 123.057C163.48 123.057 163.809 122.96 164.078 122.767C164.351 122.57 164.559 122.29 164.703 121.926C164.851 121.559 164.925 121.119 164.925 120.608C164.925 120.097 164.853 119.653 164.709 119.278C164.565 118.9 164.357 118.606 164.084 118.398C163.811 118.189 163.48 118.085 163.089 118.085C162.692 118.085 162.357 118.193 162.084 118.409C161.811 118.621 161.605 118.917 161.464 119.295C161.324 119.674 161.254 120.112 161.254 120.608C161.254 121.112 161.324 121.547 161.464 121.915C161.608 122.278 161.815 122.561 162.084 122.761C162.357 122.958 162.692 123.057 163.089 123.057ZM173.175 125.17C172.292 125.17 171.529 124.983 170.885 124.608C170.245 124.229 169.75 123.703 169.402 123.028C169.054 122.35 168.879 121.564 168.879 120.67C168.879 119.769 169.054 118.981 169.402 118.307C169.75 117.629 170.245 117.102 170.885 116.727C171.529 116.348 172.292 116.159 173.175 116.159C174.057 116.159 174.819 116.348 175.459 116.727C176.103 117.102 176.599 117.629 176.947 118.307C177.296 118.981 177.47 119.769 177.47 120.67C177.47 121.564 177.296 122.35 176.947 123.028C176.599 123.703 176.103 124.229 175.459 124.608C174.819 124.983 174.057 125.17 173.175 125.17ZM173.186 123.295C173.588 123.295 173.923 123.182 174.192 122.955C174.461 122.723 174.663 122.409 174.8 122.011C174.94 121.614 175.01 121.161 175.01 120.653C175.01 120.146 174.94 119.693 174.8 119.295C174.663 118.898 174.461 118.583 174.192 118.352C173.923 118.121 173.588 118.006 173.186 118.006C172.781 118.006 172.44 118.121 172.163 118.352C171.891 118.583 171.684 118.898 171.544 119.295C171.408 119.693 171.339 120.146 171.339 120.653C171.339 121.161 171.408 121.614 171.544 122.011C171.684 122.409 171.891 122.723 172.163 122.955C172.44 123.182 172.781 123.295 173.186 123.295Z" fill="white"/>
<path d="M262.943 125V123.227L267.085 119.392C267.438 119.051 267.733 118.744 267.972 118.472C268.214 118.199 268.398 117.932 268.523 117.67C268.648 117.405 268.71 117.119 268.71 116.812C268.71 116.472 268.633 116.178 268.477 115.932C268.322 115.682 268.11 115.491 267.841 115.358C267.572 115.222 267.267 115.153 266.926 115.153C266.57 115.153 266.259 115.225 265.994 115.369C265.729 115.513 265.525 115.72 265.381 115.989C265.237 116.258 265.165 116.578 265.165 116.949H262.83C262.83 116.187 263.002 115.527 263.347 114.966C263.691 114.405 264.174 113.972 264.795 113.665C265.417 113.358 266.133 113.205 266.943 113.205C267.777 113.205 268.502 113.352 269.119 113.648C269.741 113.939 270.223 114.345 270.568 114.864C270.913 115.383 271.085 115.977 271.085 116.648C271.085 117.087 270.998 117.521 270.824 117.949C270.653 118.377 270.348 118.852 269.909 119.375C269.47 119.894 268.85 120.517 268.051 121.244L266.352 122.909V122.989H271.239V125H262.943ZM277.232 113.205C277.83 113.205 278.406 113.305 278.959 113.506C279.516 113.706 280.012 114.027 280.447 114.466C280.887 114.905 281.233 115.489 281.487 116.216C281.745 116.939 281.875 117.828 281.879 118.881C281.879 119.869 281.768 120.752 281.544 121.528C281.324 122.301 281.008 122.958 280.595 123.5C280.182 124.042 279.684 124.455 279.101 124.739C278.518 125.019 277.866 125.159 277.146 125.159C276.37 125.159 275.684 125.009 275.089 124.71C274.495 124.407 274.016 123.996 273.652 123.477C273.292 122.955 273.074 122.367 272.999 121.716H275.425C275.519 122.14 275.718 122.47 276.021 122.705C276.324 122.936 276.699 123.051 277.146 123.051C277.904 123.051 278.48 122.722 278.874 122.062C279.268 121.4 279.466 120.492 279.47 119.341H279.391C279.216 119.682 278.982 119.975 278.686 120.222C278.391 120.464 278.052 120.652 277.669 120.784C277.29 120.917 276.887 120.983 276.459 120.983C275.773 120.983 275.161 120.822 274.624 120.5C274.086 120.178 273.661 119.735 273.351 119.17C273.04 118.606 272.885 117.962 272.885 117.239C272.881 116.458 273.061 115.763 273.425 115.153C273.788 114.544 274.296 114.066 274.947 113.722C275.603 113.373 276.364 113.201 277.232 113.205ZM277.249 115.136C276.866 115.136 276.525 115.227 276.226 115.409C275.93 115.591 275.696 115.835 275.521 116.142C275.351 116.449 275.268 116.792 275.271 117.17C275.271 117.553 275.355 117.898 275.521 118.205C275.692 118.508 275.923 118.75 276.214 118.932C276.51 119.11 276.847 119.199 277.226 119.199C277.51 119.199 277.773 119.146 278.016 119.04C278.258 118.934 278.468 118.788 278.646 118.602C278.828 118.413 278.97 118.195 279.072 117.949C279.175 117.703 279.226 117.441 279.226 117.165C279.222 116.797 279.135 116.46 278.964 116.153C278.794 115.847 278.559 115.6 278.26 115.415C277.961 115.229 277.624 115.136 277.249 115.136ZM288.146 125.256C287.169 125.252 286.328 125.011 285.624 124.534C284.923 124.057 284.383 123.366 284.004 122.46C283.629 121.555 283.444 120.466 283.447 119.193C283.447 117.924 283.635 116.843 284.01 115.949C284.389 115.055 284.929 114.375 285.629 113.909C286.334 113.439 287.173 113.205 288.146 113.205C289.12 113.205 289.957 113.439 290.658 113.909C291.362 114.379 291.904 115.061 292.283 115.955C292.661 116.845 292.849 117.924 292.845 119.193C292.845 120.47 292.656 121.561 292.277 122.466C291.902 123.371 291.364 124.062 290.663 124.54C289.963 125.017 289.124 125.256 288.146 125.256ZM288.146 123.216C288.813 123.216 289.345 122.881 289.743 122.21C290.141 121.54 290.338 120.534 290.334 119.193C290.334 118.311 290.243 117.576 290.061 116.989C289.883 116.402 289.629 115.96 289.3 115.665C288.974 115.369 288.589 115.222 288.146 115.222C287.483 115.222 286.953 115.553 286.555 116.216C286.158 116.879 285.957 117.871 285.953 119.193C285.953 120.087 286.042 120.833 286.22 121.432C286.402 122.027 286.658 122.473 286.987 122.773C287.317 123.068 287.703 123.216 288.146 123.216ZM299.162 125.256C298.185 125.252 297.344 125.011 296.639 124.534C295.938 124.057 295.399 123.366 295.02 122.46C294.645 121.555 294.459 120.466 294.463 119.193C294.463 117.924 294.651 116.843 295.026 115.949C295.404 115.055 295.944 114.375 296.645 113.909C297.349 113.439 298.188 113.205 299.162 113.205C300.135 113.205 300.973 113.439 301.673 113.909C302.378 114.379 302.92 115.061 303.298 115.955C303.677 116.845 303.865 117.924 303.861 119.193C303.861 120.47 303.671 121.561 303.293 122.466C302.918 123.371 302.38 124.062 301.679 124.54C300.978 125.017 300.139 125.256 299.162 125.256ZM299.162 123.216C299.829 123.216 300.361 122.881 300.759 122.21C301.156 121.54 301.353 120.534 301.349 119.193C301.349 118.311 301.259 117.576 301.077 116.989C300.899 116.402 300.645 115.96 300.315 115.665C299.99 115.369 299.605 115.222 299.162 115.222C298.499 115.222 297.969 115.553 297.571 116.216C297.173 116.879 296.973 117.871 296.969 119.193C296.969 120.087 297.058 120.833 297.236 121.432C297.418 122.027 297.673 122.473 298.003 122.773C298.332 123.068 298.719 123.216 299.162 123.216ZM307.99 113.364L310.337 117.33H310.428L312.786 113.364H315.564L312.013 119.182L315.643 125H312.814L310.428 121.028H310.337L307.95 125H305.132L308.774 119.182L305.2 113.364H307.99ZM317.075 128.273V116.273H319.462V117.739H319.57C319.676 117.504 319.829 117.265 320.03 117.023C320.234 116.777 320.5 116.572 320.825 116.409C321.155 116.242 321.564 116.159 322.053 116.159C322.689 116.159 323.276 116.326 323.814 116.659C324.352 116.989 324.782 117.487 325.104 118.153C325.426 118.816 325.587 119.648 325.587 120.648C325.587 121.621 325.429 122.443 325.115 123.114C324.804 123.78 324.38 124.286 323.842 124.631C323.308 124.972 322.71 125.142 322.047 125.142C321.577 125.142 321.178 125.064 320.848 124.909C320.522 124.754 320.255 124.559 320.047 124.324C319.839 124.085 319.679 123.845 319.57 123.602H319.496V128.273H317.075ZM319.445 120.636C319.445 121.155 319.517 121.608 319.661 121.994C319.804 122.381 320.013 122.682 320.286 122.898C320.558 123.11 320.89 123.216 321.28 123.216C321.674 123.216 322.007 123.108 322.28 122.892C322.553 122.672 322.759 122.369 322.899 121.983C323.043 121.593 323.115 121.144 323.115 120.636C323.115 120.133 323.045 119.689 322.905 119.307C322.765 118.924 322.558 118.625 322.286 118.409C322.013 118.193 321.678 118.085 321.28 118.085C320.886 118.085 320.553 118.189 320.28 118.398C320.011 118.606 319.804 118.902 319.661 119.284C319.517 119.667 319.445 120.117 319.445 120.636Z" fill="white"/>
<path d="M32.25 162.83V160.55C32.83 160.55 33.35 160.48 33.81 160.34C34.29 160.18 34.7 159.97 35.04 159.71C35.4 159.45 35.67 159.15 35.85 158.81C36.03 158.47 36.12 158.11 36.12 157.73C36.12 157.33 36.03 156.97 35.85 156.65C35.67 156.33 35.41 156.09 35.07 155.93C34.73 155.75 34.29 155.66 33.75 155.66C32.95 155.66 32.29 155.89 31.77 156.35C31.25 156.81 30.99 157.41 30.99 158.15H26.34C26.34 156.91 26.64 155.8 27.24 154.82C27.86 153.82 28.73 153.04 29.85 152.48C30.97 151.9 32.27 151.61 33.75 151.61C35.33 151.61 36.67 151.87 37.77 152.39C38.87 152.91 39.7 153.61 40.26 154.49C40.84 155.37 41.13 156.35 41.13 157.43C41.13 158.63 40.73 159.63 39.93 160.43C39.15 161.23 38.09 161.83 36.75 162.23C35.41 162.63 33.91 162.83 32.25 162.83ZM33.51 173.48C32.25 173.48 31.12 173.29 30.12 172.91C29.12 172.53 28.27 172 27.57 171.32C26.89 170.64 26.36 169.87 25.98 169.01C25.62 168.15 25.44 167.26 25.44 166.34H30.42C30.42 167.02 30.57 167.59 30.87 168.05C31.17 168.51 31.57 168.85 32.07 169.07C32.59 169.29 33.13 169.4 33.69 169.4C34.29 169.4 34.81 169.31 35.25 169.13C35.71 168.95 36.07 168.66 36.33 168.26C36.59 167.86 36.72 167.37 36.72 166.79C36.72 166.35 36.63 165.95 36.45 165.59C36.27 165.23 35.99 164.92 35.61 164.66C35.25 164.38 34.79 164.17 34.23 164.03C33.67 163.89 33.01 163.82 32.25 163.82V161.24C33.63 161.24 34.89 161.36 36.03 161.6C37.19 161.82 38.2 162.18 39.06 162.68C39.92 163.16 40.58 163.78 41.04 164.54C41.5 165.3 41.73 166.21 41.73 167.27C41.73 168.49 41.4 169.57 40.74 170.51C40.08 171.43 39.14 172.16 37.92 172.7C36.7 173.22 35.23 173.48 33.51 173.48ZM43.2028 155.6C43.2028 154.5 43.5728 153.63 44.3128 152.99C45.0528 152.33 45.9928 152 47.1328 152C48.2528 152 49.1928 152.33 49.9528 152.99C50.7128 153.63 51.0928 154.5 51.0928 155.6C51.0928 156.68 50.7128 157.55 49.9528 158.21C49.1928 158.87 48.2528 159.2 47.1328 159.2C45.9928 159.2 45.0528 158.87 44.3128 158.21C43.5728 157.55 43.2028 156.68 43.2028 155.6ZM45.5128 155.6C45.5128 156.14 45.6628 156.56 45.9628 156.86C46.2828 157.16 46.6728 157.31 47.1328 157.31C47.5728 157.31 47.9528 157.16 48.2728 156.86C48.5928 156.56 48.7528 156.14 48.7528 155.6C48.7528 155.06 48.5928 154.64 48.2728 154.34C47.9528 154.02 47.5728 153.86 47.1328 153.86C46.6728 153.86 46.2828 154.02 45.9628 154.34C45.6628 154.64 45.5128 155.06 45.5128 155.6Z" fill="white"/>
<path d="M262.943 171V169.227L267.085 165.392C267.438 165.051 267.733 164.744 267.972 164.472C268.214 164.199 268.398 163.932 268.523 163.67C268.648 163.405 268.71 163.119 268.71 162.812C268.71 162.472 268.633 162.178 268.477 161.932C268.322 161.682 268.11 161.491 267.841 161.358C267.572 161.222 267.267 161.153 266.926 161.153C266.57 161.153 266.259 161.225 265.994 161.369C265.729 161.513 265.525 161.72 265.381 161.989C265.237 162.258 265.165 162.578 265.165 162.949H262.83C262.83 162.187 263.002 161.527 263.347 160.966C263.691 160.405 264.174 159.972 264.795 159.665C265.417 159.358 266.133 159.205 266.943 159.205C267.777 159.205 268.502 159.352 269.119 159.648C269.741 159.939 270.223 160.345 270.568 160.864C270.913 161.383 271.085 161.977 271.085 162.648C271.085 163.087 270.998 163.521 270.824 163.949C270.653 164.377 270.348 164.852 269.909 165.375C269.47 165.894 268.85 166.517 268.051 167.244L266.352 168.909V168.989H271.239V171H262.943ZM277.584 171.256C276.607 171.252 275.766 171.011 275.061 170.534C274.36 170.057 273.821 169.366 273.442 168.46C273.067 167.555 272.881 166.466 272.885 165.193C272.885 163.924 273.072 162.843 273.447 161.949C273.826 161.055 274.366 160.375 275.067 159.909C275.771 159.439 276.61 159.205 277.584 159.205C278.557 159.205 279.394 159.439 280.095 159.909C280.8 160.379 281.341 161.061 281.72 161.955C282.099 162.845 282.286 163.924 282.283 165.193C282.283 166.47 282.093 167.561 281.714 168.466C281.339 169.371 280.802 170.062 280.101 170.54C279.4 171.017 278.561 171.256 277.584 171.256ZM277.584 169.216C278.25 169.216 278.783 168.881 279.18 168.21C279.578 167.54 279.775 166.534 279.771 165.193C279.771 164.311 279.68 163.576 279.499 162.989C279.321 162.402 279.067 161.96 278.737 161.665C278.411 161.369 278.027 161.222 277.584 161.222C276.921 161.222 276.391 161.553 275.993 162.216C275.595 162.879 275.394 163.871 275.391 165.193C275.391 166.087 275.48 166.833 275.658 167.432C275.839 168.027 276.095 168.473 276.425 168.773C276.754 169.068 277.141 169.216 277.584 169.216ZM288.599 171.256C287.622 171.252 286.781 171.011 286.077 170.534C285.376 170.057 284.836 169.366 284.457 168.46C284.082 167.555 283.897 166.466 283.901 165.193C283.901 163.924 284.088 162.843 284.463 161.949C284.842 161.055 285.382 160.375 286.082 159.909C286.787 159.439 287.626 159.205 288.599 159.205C289.573 159.205 290.41 159.439 291.111 159.909C291.815 160.379 292.357 161.061 292.736 161.955C293.115 162.845 293.302 163.924 293.298 165.193C293.298 166.47 293.109 167.561 292.73 168.466C292.355 169.371 291.817 170.062 291.116 170.54C290.416 171.017 289.577 171.256 288.599 171.256ZM288.599 169.216C289.266 169.216 289.798 168.881 290.196 168.21C290.594 167.54 290.791 166.534 290.787 165.193C290.787 164.311 290.696 163.576 290.514 162.989C290.336 162.402 290.082 161.96 289.753 161.665C289.427 161.369 289.043 161.222 288.599 161.222C287.937 161.222 287.406 161.553 287.009 162.216C286.611 162.879 286.41 163.871 286.406 165.193C286.406 166.087 286.495 166.833 286.673 167.432C286.855 168.027 287.111 168.473 287.44 168.773C287.77 169.068 288.156 169.216 288.599 169.216ZM299.615 171.256C298.638 171.252 297.797 171.011 297.092 170.534C296.392 170.057 295.852 169.366 295.473 168.46C295.098 167.555 294.912 166.466 294.916 165.193C294.916 163.924 295.104 162.843 295.479 161.949C295.857 161.055 296.397 160.375 297.098 159.909C297.803 159.439 298.642 159.205 299.615 159.205C300.589 159.205 301.426 159.439 302.126 159.909C302.831 160.379 303.373 161.061 303.751 161.955C304.13 162.845 304.318 163.924 304.314 165.193C304.314 166.47 304.125 167.561 303.746 168.466C303.371 169.371 302.833 170.062 302.132 170.54C301.431 171.017 300.592 171.256 299.615 171.256ZM299.615 169.216C300.282 169.216 300.814 168.881 301.212 168.21C301.609 167.54 301.806 166.534 301.803 165.193C301.803 164.311 301.712 163.576 301.53 162.989C301.352 162.402 301.098 161.96 300.768 161.665C300.443 161.369 300.058 161.222 299.615 161.222C298.952 161.222 298.422 161.553 298.024 162.216C297.626 162.879 297.426 163.871 297.422 165.193C297.422 166.087 297.511 166.833 297.689 167.432C297.871 168.027 298.126 168.473 298.456 168.773C298.786 169.068 299.172 169.216 299.615 169.216ZM308.443 159.364L310.79 163.33H310.881L313.239 159.364H316.017L312.466 165.182L316.097 171H313.267L310.881 167.028H310.79L308.403 171H305.585L309.227 165.182L305.653 159.364H308.443ZM317.528 174.273V162.273H319.915V163.739H320.023C320.129 163.504 320.282 163.265 320.483 163.023C320.688 162.777 320.953 162.572 321.278 162.409C321.608 162.242 322.017 162.159 322.506 162.159C323.142 162.159 323.729 162.326 324.267 162.659C324.805 162.989 325.235 163.487 325.557 164.153C325.879 164.816 326.04 165.648 326.04 166.648C326.04 167.621 325.883 168.443 325.568 169.114C325.258 169.78 324.833 170.286 324.295 170.631C323.761 170.972 323.163 171.142 322.5 171.142C322.03 171.142 321.631 171.064 321.301 170.909C320.975 170.754 320.708 170.559 320.5 170.324C320.292 170.085 320.133 169.845 320.023 169.602H319.949V174.273H317.528ZM319.898 166.636C319.898 167.155 319.97 167.608 320.114 167.994C320.258 168.381 320.466 168.682 320.739 168.898C321.011 169.11 321.343 169.216 321.733 169.216C322.127 169.216 322.46 169.108 322.733 168.892C323.006 168.672 323.212 168.369 323.352 167.983C323.496 167.593 323.568 167.144 323.568 166.636C323.568 166.133 323.498 165.689 323.358 165.307C323.218 164.924 323.011 164.625 322.739 164.409C322.466 164.193 322.131 164.085 321.733 164.085C321.339 164.085 321.006 164.189 320.733 164.398C320.464 164.606 320.258 164.902 320.114 165.284C319.97 165.667 319.898 166.117 319.898 166.636Z" fill="white"/>
<path d="M92.7273 163.125C92.6477 162.848 92.536 162.604 92.392 162.392C92.2481 162.176 92.072 161.994 91.8636 161.847C91.6591 161.695 91.4242 161.58 91.1591 161.5C90.8977 161.42 90.608 161.381 90.2898 161.381C89.6951 161.381 89.1723 161.528 88.7216 161.824C88.2746 162.119 87.9261 162.549 87.6761 163.114C87.4261 163.674 87.3011 164.36 87.3011 165.17C87.3011 165.981 87.4242 166.67 87.6705 167.239C87.9167 167.807 88.2652 168.241 88.7159 168.54C89.1667 168.835 89.6989 168.983 90.3125 168.983C90.8693 168.983 91.3447 168.884 91.7386 168.688C92.1364 168.487 92.4394 168.205 92.6477 167.841C92.8598 167.477 92.9659 167.047 92.9659 166.551L93.4659 166.625H90.4659V164.773H95.3352V166.239C95.3352 167.261 95.1193 168.14 94.6875 168.875C94.2557 169.606 93.661 170.17 92.9034 170.568C92.1458 170.962 91.2784 171.159 90.3011 171.159C89.2102 171.159 88.2519 170.919 87.4261 170.438C86.6004 169.953 85.9564 169.265 85.4943 168.375C85.036 167.481 84.8068 166.42 84.8068 165.193C84.8068 164.25 84.9432 163.409 85.2159 162.67C85.4924 161.928 85.8788 161.299 86.375 160.784C86.8712 160.269 87.4489 159.877 88.108 159.608C88.767 159.339 89.4811 159.205 90.25 159.205C90.9091 159.205 91.5227 159.301 92.0909 159.494C92.6591 159.684 93.1629 159.953 93.6023 160.301C94.0455 160.65 94.4072 161.064 94.6875 161.545C94.9678 162.023 95.1477 162.549 95.2273 163.125H92.7273ZM99.5582 165.955V171H97.1378V159.364H99.4901V163.812H99.5923C99.7893 163.297 100.107 162.894 100.547 162.602C100.986 162.307 101.537 162.159 102.2 162.159C102.806 162.159 103.335 162.292 103.786 162.557C104.24 162.818 104.592 163.195 104.842 163.688C105.096 164.176 105.221 164.761 105.217 165.443V171H102.797V165.875C102.801 165.337 102.664 164.919 102.388 164.619C102.115 164.32 101.732 164.17 101.24 164.17C100.911 164.17 100.619 164.241 100.365 164.381C100.115 164.521 99.9181 164.725 99.7741 164.994C99.634 165.259 99.562 165.58 99.5582 165.955ZM111.065 171.17C110.183 171.17 109.42 170.983 108.776 170.608C108.135 170.229 107.641 169.703 107.293 169.028C106.944 168.35 106.77 167.564 106.77 166.67C106.77 165.769 106.944 164.981 107.293 164.307C107.641 163.629 108.135 163.102 108.776 162.727C109.42 162.348 110.183 162.159 111.065 162.159C111.948 162.159 112.709 162.348 113.349 162.727C113.993 163.102 114.49 163.629 114.838 164.307C115.187 164.981 115.361 165.769 115.361 166.67C115.361 167.564 115.187 168.35 114.838 169.028C114.49 169.703 113.993 170.229 113.349 170.608C112.709 170.983 111.948 171.17 111.065 171.17ZM111.077 169.295C111.478 169.295 111.813 169.182 112.082 168.955C112.351 168.723 112.554 168.409 112.69 168.011C112.83 167.614 112.901 167.161 112.901 166.653C112.901 166.146 112.83 165.693 112.69 165.295C112.554 164.898 112.351 164.583 112.082 164.352C111.813 164.121 111.478 164.006 111.077 164.006C110.671 164.006 110.33 164.121 110.054 164.352C109.781 164.583 109.575 164.898 109.435 165.295C109.298 165.693 109.23 166.146 109.23 166.653C109.23 167.161 109.298 167.614 109.435 168.011C109.575 168.409 109.781 168.723 110.054 168.955C110.33 169.182 110.671 169.295 111.077 169.295ZM124.196 164.761L121.98 164.898C121.942 164.708 121.861 164.538 121.736 164.386C121.611 164.231 121.446 164.108 121.241 164.017C121.041 163.922 120.8 163.875 120.52 163.875C120.145 163.875 119.829 163.955 119.571 164.114C119.313 164.269 119.185 164.477 119.185 164.739C119.185 164.947 119.268 165.123 119.435 165.267C119.601 165.411 119.887 165.527 120.293 165.614L121.872 165.932C122.721 166.106 123.353 166.386 123.77 166.773C124.187 167.159 124.395 167.667 124.395 168.295C124.395 168.867 124.226 169.369 123.889 169.801C123.556 170.233 123.098 170.57 122.514 170.812C121.935 171.051 121.266 171.17 120.509 171.17C119.353 171.17 118.433 170.93 117.747 170.449C117.065 169.964 116.666 169.305 116.548 168.472L118.929 168.347C119.001 168.699 119.175 168.968 119.452 169.153C119.728 169.335 120.082 169.426 120.514 169.426C120.938 169.426 121.279 169.345 121.537 169.182C121.798 169.015 121.931 168.801 121.935 168.54C121.931 168.32 121.838 168.14 121.656 168C121.474 167.856 121.194 167.746 120.815 167.67L119.304 167.369C118.452 167.199 117.817 166.903 117.401 166.483C116.988 166.062 116.781 165.527 116.781 164.875C116.781 164.314 116.933 163.831 117.236 163.426C117.543 163.021 117.973 162.708 118.526 162.489C119.082 162.269 119.734 162.159 120.48 162.159C121.582 162.159 122.45 162.392 123.082 162.858C123.719 163.324 124.09 163.958 124.196 164.761ZM130.561 162.273V164.091H125.305V162.273H130.561ZM126.499 160.182H128.919V168.318C128.919 168.542 128.953 168.716 129.021 168.841C129.089 168.962 129.184 169.047 129.305 169.097C129.43 169.146 129.574 169.17 129.737 169.17C129.851 169.17 129.964 169.161 130.078 169.142C130.192 169.119 130.279 169.102 130.339 169.091L130.72 170.892C130.599 170.93 130.429 170.973 130.209 171.023C129.989 171.076 129.722 171.108 129.408 171.119C128.824 171.142 128.313 171.064 127.874 170.886C127.438 170.708 127.099 170.432 126.857 170.057C126.614 169.682 126.495 169.208 126.499 168.636V160.182ZM132.371 159.364H135.405L138.609 167.182H138.746L141.95 159.364H144.984V171H142.598V163.426H142.501L139.49 170.943H137.865L134.854 163.398H134.757V171H132.371V159.364ZM149.455 171.165C148.898 171.165 148.402 171.068 147.966 170.875C147.53 170.678 147.186 170.388 146.932 170.006C146.682 169.619 146.557 169.138 146.557 168.562C146.557 168.078 146.646 167.67 146.824 167.341C147.002 167.011 147.244 166.746 147.551 166.545C147.858 166.345 148.206 166.193 148.597 166.091C148.991 165.989 149.403 165.917 149.835 165.875C150.343 165.822 150.752 165.773 151.062 165.727C151.373 165.678 151.598 165.606 151.739 165.511C151.879 165.417 151.949 165.277 151.949 165.091V165.057C151.949 164.697 151.835 164.419 151.608 164.222C151.384 164.025 151.066 163.926 150.653 163.926C150.218 163.926 149.871 164.023 149.614 164.216C149.356 164.405 149.186 164.644 149.102 164.932L146.864 164.75C146.977 164.22 147.201 163.761 147.534 163.375C147.867 162.985 148.297 162.686 148.824 162.477C149.354 162.265 149.968 162.159 150.665 162.159C151.15 162.159 151.614 162.216 152.057 162.33C152.504 162.443 152.9 162.619 153.244 162.858C153.593 163.097 153.867 163.403 154.068 163.778C154.269 164.15 154.369 164.595 154.369 165.114V171H152.074V169.79H152.006C151.866 170.062 151.678 170.303 151.443 170.511C151.208 170.716 150.926 170.877 150.597 170.994C150.267 171.108 149.886 171.165 149.455 171.165ZM150.148 169.494C150.504 169.494 150.818 169.424 151.091 169.284C151.364 169.14 151.578 168.947 151.733 168.705C151.888 168.462 151.966 168.187 151.966 167.881V166.955C151.89 167.004 151.786 167.049 151.653 167.091C151.525 167.129 151.379 167.165 151.216 167.199C151.053 167.229 150.89 167.258 150.727 167.284C150.564 167.307 150.417 167.328 150.284 167.347C150 167.388 149.752 167.455 149.54 167.545C149.328 167.636 149.163 167.759 149.045 167.915C148.928 168.066 148.869 168.256 148.869 168.483C148.869 168.812 148.989 169.064 149.227 169.239C149.47 169.409 149.777 169.494 150.148 169.494ZM158.668 165.955V171H156.247V162.273H158.554V163.812H158.656C158.849 163.305 159.173 162.903 159.628 162.608C160.082 162.309 160.634 162.159 161.281 162.159C161.887 162.159 162.416 162.292 162.866 162.557C163.317 162.822 163.668 163.201 163.918 163.693C164.168 164.182 164.293 164.765 164.293 165.443V171H161.872V165.875C161.876 165.341 161.74 164.924 161.463 164.625C161.187 164.322 160.806 164.17 160.321 164.17C159.995 164.17 159.707 164.241 159.457 164.381C159.211 164.521 159.018 164.725 158.878 164.994C158.741 165.259 158.671 165.58 158.668 165.955Z" fill="white"/>
<path d="M18 54H361M67.3645 54V183M229.03 54V183" stroke="white"/>
</g>
<defs>
<filter id="filter0_d_435_2814" x="0.4" y="0.4" width="377.2" height="203.2" filterUnits="userSpaceOnUse" color-interpolation-filters="sRGB">
<feFlood flood-opacity="0" result="BackgroundImageFix"/>
<feColorMatrix in="SourceAlpha" type="matrix" values="0 0 0 0 0 0 0 0 0 0 0 0 0 0 0 0 0 0 127 0" result="hardAlpha"/>
<feMorphology radius="5" operator="dilate" in="SourceAlpha" result="effect1_dropShadow_435_2814"/>
<feOffset dy="4"/>
<feGaussianBlur stdDeviation="5.8"/>
<feComposite in2="hardAlpha" operator="out"/>
<feColorMatrix type="matrix" values="0 0 0 0 0 0 0 0 0 0 0 0 0 0 0 0 0 0 0.38 0"/>
<feBlend mode="normal" in2="BackgroundImageFix" result="effect1_dropShadow_435_2814"/>
<feBlend mode="normal" in="SourceGraphic" in2="effect1_dropShadow_435_2814" result="shape"/>
</filter>
</defs>
</svg>
