<svg width="51" height="42" viewBox="0 0 51 42" fill="none" xmlns="http://www.w3.org/2000/svg">
<path fill-rule="evenodd" clip-rule="evenodd" d="M23.7744 0.00171442C22.8172 0.00171442 21.8992 0.362938 21.2224 1.00592C20.5456 1.6489 20.1653 2.52097 20.1653 3.43029C20.1653 4.3396 20.5456 5.21167 21.2224 5.85465C21.8992 6.49763 22.8172 6.85886 23.7744 6.85886H33.6198C36.1122 6.90496 38.4862 7.87795 40.2317 9.5688C41.9772 11.2596 42.955 13.5334 42.955 15.9017C42.955 18.27 41.9772 20.5438 40.2317 22.2346C38.4862 23.9255 36.1122 24.8985 33.6198 24.9446H17.538V19.02C17.5378 18.342 17.3261 17.6793 16.9295 17.1156C16.5329 16.5519 15.9693 16.1125 15.31 15.8531C14.6506 15.5937 13.925 15.5258 13.2251 15.658C12.5251 15.7902 11.8821 16.1167 11.3774 16.596L1.53917 25.9423C1.03232 26.4206 0.686317 27.0311 0.544973 27.6963C0.403629 28.3616 0.473307 29.0518 0.745181 29.6794C0.92082 30.0909 1.18308 30.4646 1.53195 30.8006L11.3774 40.1537C11.8821 40.6331 12.5251 40.9595 13.2251 41.0917C13.925 41.2239 14.6506 41.1561 15.31 40.8966C15.9693 40.6372 16.5329 40.1978 16.9295 39.6341C17.3261 39.0705 17.5378 38.4077 17.538 37.7297V31.8017H33.6198C35.8384 31.8327 38.0413 31.4443 40.1005 30.6591C42.1596 29.8739 44.0339 28.7077 45.6143 27.2282C47.1948 25.7487 48.4498 23.9854 49.3064 22.0409C50.1631 20.0965 50.6042 18.0096 50.6042 15.9017C50.6042 13.7938 50.1631 11.707 49.3064 9.7625C48.4498 7.81804 47.1948 6.05478 45.6143 4.57525C44.0339 3.09573 42.1596 1.92948 40.1005 1.14432C38.0413 0.359162 35.8384 -0.0292363 33.6198 0.00171442H23.7744Z" fill="white"/>
</svg>
