<svg width="69" height="65" viewBox="0 0 69 65" fill="none" xmlns="http://www.w3.org/2000/svg">
<rect width="68.4211" height="65" rx="32.5" fill="#290A38"/>
<path fill-rule="evenodd" clip-rule="evenodd" d="M32.7744 12.0017C31.8172 12.0017 30.8992 12.3629 30.2224 13.0059C29.5456 13.6489 29.1653 14.521 29.1653 15.4303C29.1653 16.3396 29.5456 17.2117 30.2224 17.8547C30.8992 18.4976 31.8172 18.8589 32.7744 18.8589H42.6198C45.1122 18.905 47.4862 19.878 49.2317 21.5688C50.9772 23.2596 51.955 25.5334 51.955 27.9017C51.955 30.27 50.9772 32.5438 49.2317 34.2346C47.4862 35.9255 45.1122 36.8985 42.6198 36.9446H26.538V31.02C26.5378 30.342 26.3261 29.6793 25.9295 29.1156C25.5329 28.5519 24.9693 28.1125 24.31 27.8531C23.6506 27.5937 22.925 27.5258 22.2251 27.658C21.5251 27.7902 20.8821 28.1167 20.3774 28.596L10.5392 37.9423C10.0323 38.4206 9.68632 39.0311 9.54497 39.6963C9.40363 40.3616 9.47331 41.0518 9.74518 41.6794C9.92082 42.0909 10.1831 42.4646 10.5319 42.8006L20.3774 52.1537C20.8821 52.6331 21.5251 52.9595 22.2251 53.0917C22.925 53.2239 23.6506 53.1561 24.31 52.8966C24.9693 52.6372 25.5329 52.1978 25.9295 51.6341C26.3261 51.0705 26.5378 50.4077 26.538 49.7297V43.8017H42.6198C44.8384 43.8327 47.0413 43.4443 49.1005 42.6591C51.1596 41.8739 53.0339 40.7077 54.6143 39.2282C56.1948 37.7487 57.4498 35.9854 58.3064 34.0409C59.1631 32.0965 59.6042 30.0096 59.6042 27.9017C59.6042 25.7938 59.1631 23.707 58.3064 21.7625C57.4498 19.818 56.1948 18.0548 54.6143 16.5753C53.0339 15.0957 51.1596 13.9295 49.1005 13.1443C47.0413 12.3592 44.8384 11.9708 42.6198 12.0017H32.7744Z" fill="white"/>
</svg>
