<svg width="78" height="93" viewBox="0 0 78 93" fill="none" xmlns="http://www.w3.org/2000/svg"><g filter="url(#filter0_d_260_1215)"><path d="M32.5166 19.7813c18.6214-28.10245 31.0819-2.2412 23.8517-.1779-7.2301 2.0633-23.5267 50.6772-19.1602 54.9237 4.3666 4.2465-23.4554 11.1376-27.0118 1.2856-3.55634-9.8521 3.6988-27.9289 22.3203-56.0314Z" fill="#290A38"/></g><g filter="url(#filter1_d_260_1215)"><path d="M45.4834 20.8248c-18.6214-28.10249-31.0819-2.2413-23.8517-.1779 7.2301 2.0633 23.5267 50.6772 19.1602 54.9237-4.3666 4.2465 23.4554 11.1376 27.0118 1.2855 3.5563-9.852-3.6988-27.9289-22.3203-56.0313Z" fill="#E06009"/></g><defs><filter id="filter0_d_260_1215" x=".574419" y=".131318" width="66.6246" height="91.5782" filterUnits="userSpaceOnUse" color-interpolation-filters="sRGB"><feFlood flood-opacity="0" result="BackgroundImageFix"/><feColorMatrix in="SourceAlpha" values="0 0 0 0 0 0 0 0 0 0 0 0 0 0 0 0 0 0 127 0" result="hardAlpha"/><feMorphology radius="2.6346" operator="dilate" in="SourceAlpha" result="effect1_dropShadow_260_1215"/><feOffset dy="2.10768"/><feGaussianBlur stdDeviation="3.05614"/><feComposite in2="hardAlpha" operator="out"/><feColorMatrix values="0 0 0 0 0 0 0 0 0 0 0 0 0 0 0 0 0 0 0.38 0"/><feBlend in2="BackgroundImageFix" result="effect1_dropShadow_260_1215"/><feBlend in="SourceGraphic" in2="effect1_dropShadow_260_1215" result="shape"/></filter><filter id="filter1_d_260_1215" x="10.801" y="1.17477" width="66.6246" height="91.5782" filterUnits="userSpaceOnUse" color-interpolation-filters="sRGB"><feFlood flood-opacity="0" result="BackgroundImageFix"/><feColorMatrix in="SourceAlpha" values="0 0 0 0 0 0 0 0 0 0 0 0 0 0 0 0 0 0 127 0" result="hardAlpha"/><feMorphology radius="2.6346" operator="dilate" in="SourceAlpha" result="effect1_dropShadow_260_1215"/><feOffset dy="2.10768"/><feGaussianBlur stdDeviation="3.05614"/><feComposite in2="hardAlpha" operator="out"/><feColorMatrix values="0 0 0 0 0 0 0 0 0 0 0 0 0 0 0 0 0 0 0.38 0"/><feBlend in2="BackgroundImageFix" result="effect1_dropShadow_260_1215"/><feBlend in="SourceGraphic" in2="effect1_dropShadow_260_1215" result="shape"/></filter></defs></svg>