<svg width="128" height="129" viewBox="0 0 128 129" fill="none" xmlns="http://www.w3.org/2000/svg">
<path fill-rule="evenodd" clip-rule="evenodd" d="M105.477 46.8984C107.403 48.8238 109.173 50.5944 110.533 52.1998C112 53.9224 113.445 55.9651 114.293 58.5678C115.504 62.2887 115.504 66.2975 114.293 70.0184C113.445 72.6264 112 74.6691 110.533 76.3918C109.173 77.9918 107.403 79.7678 105.477 81.6931L81.3974 105.773C79.6952 107.525 77.9268 109.212 76.096 110.829C74.3734 112.296 72.3254 113.741 69.7227 114.589C66.0012 115.796 61.9935 115.796 58.272 114.589C55.6694 113.741 53.632 112.296 51.8987 110.829C50.2987 109.469 48.528 107.698 46.6027 105.773L22.5227 81.6931C20.7705 79.991 19.084 78.2225 17.4667 76.3918C16 74.6691 14.5547 72.6264 13.7067 70.0184C12.4962 66.2975 12.4962 62.2887 13.7067 58.5678C14.5547 55.9651 16 53.9278 17.4667 52.1998C18.8214 50.5998 20.592 48.8238 22.5227 46.8984L46.6027 22.8184C48.528 20.8931 50.2987 19.1224 51.8987 17.7624C53.6267 16.2958 55.6694 14.8504 58.272 14.0024C61.993 12.7919 66.0018 12.7919 69.7227 14.0024C72.3307 14.8504 74.3734 16.2958 76.096 17.7624C77.696 19.1224 79.4667 20.8878 81.3974 22.8184L105.477 46.8984ZM92.9814 45.6344L99.664 52.3171C103.861 56.5091 105.957 58.6104 106.741 61.0264C107.435 63.1491 107.435 65.4424 106.741 67.5651C105.957 69.9864 103.861 72.0824 99.664 76.2744L92.9814 82.9571H84.912C84.3048 82.9495 83.7061 82.8124 83.1561 82.5548C82.6061 82.2973 82.1174 81.9253 81.7227 81.4638L71.344 70.0504C70.4142 69.0265 69.2805 68.2082 68.0158 67.6483C66.751 67.0884 65.3832 66.7992 64 66.7992C62.6169 66.7992 61.249 67.0884 59.9843 67.6483C58.7195 68.2082 57.5859 69.0265 56.656 70.0504L46.272 81.4638C45.8779 81.9246 45.3901 82.2962 44.8411 82.5537C44.292 82.8112 43.6944 82.9487 43.088 82.9571H35.0134L28.3307 76.2744C24.1387 72.0824 22.0427 69.9811 21.2587 67.5651C20.5742 65.4393 20.5742 63.1522 21.2587 61.0264C22.0427 58.6051 24.1387 56.5091 28.3307 52.3171L35.0134 45.6344H43.0934C44.208 45.6344 45.3654 46.1144 46.2774 47.1278L56.6614 58.5411C57.5912 59.5651 58.7249 60.3833 59.9896 60.9432C61.2544 61.5031 62.6222 61.7924 64.0054 61.7924C65.3885 61.7924 66.7564 61.5031 68.0211 60.9432C69.2859 60.3833 70.4196 59.5651 71.3494 58.5411L81.728 47.1278C82.1227 46.6662 82.6114 46.2942 83.1615 46.0367C83.7115 45.7792 84.3101 45.642 84.9174 45.6344H92.9814ZM85.04 37.6931H84.912C81.4347 37.6931 78.1814 39.2184 75.8454 41.7838L65.472 53.2024C65.287 53.408 65.0608 53.5724 64.8081 53.6849C64.5555 53.7974 64.282 53.8556 64.0054 53.8556C63.7288 53.8556 63.4553 53.7974 63.2026 53.6849C62.9499 53.5724 62.7238 53.408 62.5387 53.2024L52.1494 41.7891C51.008 40.511 49.6116 39.4861 48.0499 38.7806C46.4883 38.0752 44.7962 37.7047 43.0827 37.6931H42.9547L52.0214 28.6264C56.2134 24.4344 58.3147 22.3384 60.7254 21.5544C62.8587 20.8611 65.1467 20.8611 67.2694 21.5544C69.6907 22.3384 71.7867 24.4344 75.9787 28.6318L85.04 37.6931ZM84.912 90.8984H85.04L75.9734 99.9651C71.7867 104.157 69.6907 106.253 67.2694 107.037C65.1467 107.73 62.8534 107.73 60.7254 107.037C58.3094 106.253 56.2134 104.157 52.0214 99.9598L42.9547 90.8931H43.088C46.5654 90.8931 49.8134 89.3731 52.1494 86.8078L62.5334 75.3891C62.7184 75.1835 62.9446 75.0191 63.1973 74.9066C63.45 74.7941 63.7235 74.736 64 74.736C64.2766 74.736 64.5501 74.7941 64.8028 74.9066C65.0555 75.0191 65.2817 75.1835 65.4667 75.3891L75.8507 86.8024C76.9921 88.0806 78.3885 89.1054 79.9501 89.8109C81.5117 90.5164 83.2038 90.8868 84.9174 90.8984" fill="white"/>
</svg>
