<svg width="500" height="363" viewBox="0 0 500 363" fill="none" xmlns="http://www.w3.org/2000/svg">
<g clip-path="url(#clip0_464_2386)">
<path d="M318.625 271.698V359.063H99.7415C74.8027 359.063 54.5122 339.467 54.5122 315.38C54.5122 291.294 74.8027 271.698 99.7415 271.698H318.625Z" fill="#F2F2F2"/>
<path d="M324.001 358.391C324.001 359.282 323.647 360.137 323.017 360.767C322.387 361.397 321.532 361.751 320.641 361.751H95.8428C83.6336 361.751 71.9244 356.901 63.2912 348.268C54.658 339.635 49.8079 327.926 49.8079 315.716C49.8079 303.507 54.658 291.798 63.2912 283.165C71.9244 274.532 83.6336 269.681 95.8428 269.681H320.641C321.532 269.681 322.387 270.035 323.017 270.666C323.647 271.296 324.001 272.15 324.001 273.042C324.001 273.933 323.647 274.788 323.017 275.418C322.387 276.048 321.532 276.402 320.641 276.402H95.8428C85.416 276.402 75.4161 280.544 68.0432 287.917C60.6703 295.29 56.5283 305.29 56.5283 315.716C56.5283 326.143 60.6703 336.143 68.0432 343.516C75.4161 350.889 85.416 355.031 95.8428 355.031H320.641C321.532 355.031 322.387 355.385 323.017 356.015C323.647 356.646 324.001 357.5 324.001 358.391Z" fill="#E06009"/>
<path d="M318.625 291.859H83.4101C83.2318 291.859 83.0609 291.788 82.9349 291.662C82.8089 291.536 82.738 291.365 82.738 291.187C82.738 291.009 82.8089 290.838 82.9349 290.712C83.0609 290.586 83.2318 290.515 83.4101 290.515H318.625C318.803 290.515 318.974 290.586 319.1 290.712C319.226 290.838 319.297 291.009 319.297 291.187C319.297 291.365 319.226 291.536 319.1 291.662C318.974 291.788 318.803 291.859 318.625 291.859Z" fill="#CCCCCC"/>
<path d="M318.625 307.988H83.4101C83.2318 307.988 83.0609 307.917 82.9349 307.791C82.8089 307.665 82.738 307.494 82.738 307.316C82.738 307.138 82.8089 306.967 82.9349 306.841C83.0609 306.715 83.2318 306.644 83.4101 306.644H318.625C318.803 306.644 318.974 306.715 319.1 306.841C319.226 306.967 319.297 307.138 319.297 307.316C319.297 307.494 319.226 307.665 319.1 307.791C318.974 307.917 318.803 307.988 318.625 307.988Z" fill="#CCCCCC"/>
<path d="M318.625 324.117H83.4101C83.2318 324.117 83.0609 324.046 82.9349 323.92C82.8089 323.794 82.738 323.623 82.738 323.445C82.738 323.267 82.8089 323.096 82.9349 322.97C83.0609 322.844 83.2318 322.773 83.4101 322.773H318.625C318.803 322.773 318.974 322.844 319.1 322.97C319.226 323.096 319.297 323.267 319.297 323.445C319.297 323.623 319.226 323.794 319.1 323.92C318.974 324.046 318.803 324.117 318.625 324.117Z" fill="#CCCCCC"/>
<path d="M318.625 340.246H83.4101C83.2318 340.246 83.0609 340.175 82.9349 340.049C82.8089 339.923 82.738 339.752 82.738 339.574C82.738 339.396 82.8089 339.225 82.9349 339.099C83.0609 338.973 83.2318 338.902 83.4101 338.902H318.625C318.803 338.902 318.974 338.973 319.1 339.099C319.226 339.225 319.297 339.396 319.297 339.574C319.297 339.752 319.226 339.923 319.1 340.049C318.974 340.175 318.803 340.246 318.625 340.246Z" fill="#CCCCCC"/>
<path d="M487.79 288.143L432.975 356.173L262.535 218.841C243.115 203.194 239.611 175.203 254.723 156.448C269.835 137.693 297.93 135.164 317.35 150.811L487.79 288.143Z" fill="#F2F2F2"/>
<path d="M437.583 359.023C437.024 359.716 436.212 360.16 435.326 360.255C434.44 360.35 433.552 360.09 432.858 359.531L257.812 218.488C248.305 210.828 242.23 199.704 240.925 187.565C239.619 175.426 243.189 163.265 250.849 153.758C258.509 144.251 269.633 138.176 281.772 136.87C293.911 135.565 306.072 139.135 315.579 146.795L490.625 287.838C490.969 288.115 491.255 288.457 491.467 288.844C491.678 289.231 491.812 289.657 491.859 290.096C491.906 290.534 491.867 290.978 491.742 291.402C491.618 291.825 491.412 292.22 491.135 292.564C490.858 292.908 490.516 293.194 490.128 293.405C489.741 293.617 489.315 293.75 488.877 293.797C488.438 293.844 487.994 293.804 487.57 293.68C487.147 293.555 486.752 293.348 486.408 293.071L311.362 152.028C307.342 148.786 302.723 146.368 297.768 144.912C292.814 143.456 287.621 142.991 282.486 143.542C277.352 144.093 272.376 145.651 267.843 148.125C263.311 150.6 259.31 153.944 256.07 157.965C252.83 161.986 250.414 166.606 248.96 171.562C247.506 176.517 247.042 181.71 247.595 186.844C248.149 191.979 249.708 196.954 252.185 201.485C254.661 206.017 258.006 210.016 262.029 213.255L437.075 354.298C437.768 354.857 438.212 355.669 438.307 356.555C438.402 357.441 438.142 358.329 437.583 359.023Z" fill="#CCCCCC"/>
<path d="M475.14 303.842L291.983 156.263C291.914 156.208 291.857 156.14 291.815 156.062C291.773 155.985 291.746 155.9 291.737 155.812C291.727 155.724 291.735 155.635 291.76 155.551C291.785 155.466 291.826 155.387 291.881 155.318C291.937 155.25 292.005 155.193 292.083 155.15C292.16 155.108 292.245 155.081 292.333 155.072C292.421 155.062 292.509 155.07 292.594 155.095C292.679 155.12 292.758 155.161 292.826 155.217L475.984 302.796C476.053 302.851 476.11 302.919 476.152 302.997C476.195 303.074 476.221 303.159 476.231 303.247C476.24 303.335 476.232 303.424 476.208 303.509C476.183 303.593 476.141 303.672 476.086 303.741C476.031 303.81 475.962 303.867 475.885 303.909C475.807 303.952 475.722 303.978 475.634 303.988C475.546 303.997 475.458 303.989 475.373 303.964C475.288 303.939 475.209 303.898 475.14 303.842Z" fill="#CCCCCC"/>
<path d="M465.021 316.402L281.863 168.823C281.725 168.711 281.636 168.548 281.617 168.371C281.599 168.194 281.651 168.017 281.762 167.878C281.874 167.74 282.036 167.651 282.213 167.632C282.39 167.613 282.568 167.665 282.707 167.776L465.864 315.355C465.933 315.41 465.99 315.479 466.033 315.556C466.075 315.634 466.102 315.719 466.111 315.807C466.121 315.894 466.113 315.983 466.088 316.068C466.063 316.153 466.022 316.232 465.966 316.301C465.911 316.369 465.842 316.426 465.765 316.469C465.687 316.511 465.602 316.538 465.515 316.547C465.427 316.556 465.338 316.548 465.253 316.523C465.168 316.499 465.089 316.457 465.021 316.402Z" fill="#CCCCCC"/>
<path d="M454.901 328.961L271.744 181.382C271.605 181.27 271.516 181.108 271.497 180.931C271.478 180.753 271.53 180.576 271.642 180.437C271.754 180.298 271.916 180.21 272.093 180.191C272.271 180.172 272.448 180.224 272.587 180.336L455.744 327.914C455.813 327.97 455.87 328.038 455.912 328.116C455.955 328.193 455.981 328.278 455.991 328.366C456 328.454 455.992 328.542 455.967 328.627C455.943 328.712 455.901 328.791 455.846 328.859C455.791 328.928 455.722 328.985 455.645 329.028C455.567 329.07 455.482 329.096 455.395 329.106C455.307 329.115 455.218 329.107 455.133 329.083C455.049 329.058 454.97 329.016 454.901 328.961Z" fill="#CCCCCC"/>
<path d="M444.781 341.52L261.624 193.942C261.555 193.886 261.498 193.818 261.456 193.74C261.414 193.663 261.387 193.578 261.378 193.49C261.368 193.402 261.376 193.314 261.401 193.229C261.426 193.144 261.467 193.065 261.522 192.997C261.578 192.928 261.646 192.871 261.724 192.828C261.801 192.786 261.886 192.76 261.974 192.75C262.062 192.741 262.15 192.749 262.235 192.773C262.32 192.798 262.399 192.84 262.467 192.895L445.625 340.474C445.694 340.529 445.751 340.597 445.793 340.675C445.836 340.752 445.862 340.837 445.872 340.925C445.881 341.013 445.873 341.102 445.849 341.187C445.824 341.271 445.782 341.351 445.727 341.419C445.672 341.488 445.603 341.545 445.526 341.588C445.448 341.63 445.363 341.656 445.275 341.666C445.187 341.675 445.099 341.667 445.014 341.642C444.929 341.617 444.85 341.576 444.781 341.52Z" fill="#CCCCCC"/>
<path d="M499.328 362.423H0.672043C0.493806 362.423 0.322869 362.352 0.196836 362.226C0.0708038 362.1 0 361.93 0 361.751C0 361.573 0.0708038 361.402 0.196836 361.276C0.322869 361.15 0.493806 361.079 0.672043 361.079H499.328C499.506 361.079 499.677 361.15 499.803 361.276C499.929 361.402 500 361.573 500 361.751C500 361.93 499.929 362.1 499.803 362.226C499.677 362.352 499.506 362.423 499.328 362.423Z" fill="#CCCCCC"/>
<path d="M227.205 262.515L219.522 262.514L215.868 232.88L227.208 232.881L227.205 262.515Z" fill="#FFB8B8"/>
<path d="M214.034 260.319H228.851V269.648H204.705C204.705 268.423 204.946 267.21 205.415 266.078C205.884 264.946 206.571 263.918 207.437 263.051C208.303 262.185 209.332 261.498 210.464 261.029C211.596 260.56 212.809 260.319 214.034 260.319Z" fill="#2F2E41"/>
<path d="M148.714 262.515L141.031 262.514L137.377 232.88L148.716 232.881L148.714 262.515Z" fill="#FFB8B8"/>
<path d="M135.543 260.319H150.36V269.648H126.214C126.214 268.423 126.455 267.21 126.924 266.078C127.393 264.946 128.08 263.918 128.946 263.051C129.812 262.185 130.841 261.498 131.973 261.029C133.105 260.56 134.318 260.319 135.543 260.319Z" fill="#2F2E41"/>
<path d="M174.376 42.697V39.3367C174.376 33.5886 176.659 28.0759 180.724 24.0113C184.788 19.9468 190.301 17.6633 196.049 17.6633C201.797 17.6633 207.31 19.9468 211.374 24.0113C215.439 28.0759 217.722 33.5886 217.722 39.3367V42.697C217.722 46.841 216.076 50.8153 213.146 53.7455C210.216 56.6758 206.241 58.322 202.097 58.322H190.001C187.949 58.322 185.917 57.9178 184.021 57.1326C182.125 56.3474 180.403 55.1964 178.952 53.7455C177.501 52.2946 176.35 50.5721 175.565 48.6764C174.78 46.7807 174.376 44.7489 174.376 42.697Z" fill="#2F2E41"/>
<path d="M196.049 59.4782C205.165 59.4782 212.555 52.0882 212.555 42.9721C212.555 33.8561 205.165 26.4661 196.049 26.4661C186.933 26.4661 179.543 33.8561 179.543 42.9721C179.543 52.0882 186.933 59.4782 196.049 59.4782Z" fill="#FFB8B8"/>
<path d="M106.266 99.7013C106.936 99.0688 107.737 98.5909 108.611 98.3012C109.486 98.0114 110.413 97.917 111.328 98.0245C112.243 98.132 113.123 98.4387 113.907 98.9232C114.691 99.4077 115.358 100.058 115.863 100.829L130.013 98.1521L133.737 106.354L113.702 109.853C112.351 110.616 110.768 110.856 109.251 110.53C107.735 110.203 106.391 109.331 105.475 108.08C104.558 106.828 104.133 105.284 104.279 103.74C104.425 102.196 105.132 100.759 106.266 99.7013Z" fill="#FFB8B8"/>
<path d="M183.366 70.1535L160.163 85.4387L121.011 97.9409C120.492 98.1077 120.046 98.4492 119.751 98.9073C119.455 99.3653 119.328 99.9116 119.39 100.453L120.244 107.81C120.282 108.135 120.387 108.45 120.554 108.732C120.72 109.014 120.943 109.259 121.21 109.45C121.476 109.641 121.78 109.774 122.1 109.841C122.421 109.908 122.753 109.907 123.073 109.838L159.921 101.94C161.704 101.56 163.391 100.818 164.875 99.7589L190.942 81.2126C191.887 80.5366 192.641 79.6276 193.131 78.5739C193.621 77.5202 193.829 76.3577 193.737 75.1995C193.641 74.0397 193.245 72.9248 192.588 71.9644C191.931 71.004 191.035 70.2312 189.989 69.7221C188.942 69.2129 187.781 68.985 186.62 69.0606C185.459 69.1363 184.337 69.5129 183.366 70.1535Z" fill="#CCCCCC"/>
<path d="M219.659 254.105C219.07 254.105 218.493 253.934 217.999 253.611C217.505 253.289 217.116 252.83 216.879 252.29L181.657 165.26C181.575 165.071 181.437 164.912 181.261 164.804C181.086 164.696 180.882 164.644 180.676 164.656C180.471 164.668 180.274 164.742 180.112 164.869C179.949 164.996 179.83 165.169 179.77 165.366L151.034 250.093C150.913 250.487 150.712 250.853 150.444 251.167C150.177 251.48 149.848 251.736 149.477 251.918C149.107 252.1 148.704 252.204 148.292 252.225C147.88 252.245 147.468 252.181 147.081 252.036L137.445 248.422C136.922 248.228 136.464 247.893 136.12 247.453C135.776 247.013 135.561 246.487 135.499 245.933C131.164 208.169 168.966 112.848 169.349 111.89L169.455 111.625L203.915 119.247L203.987 119.326C217.735 134.324 229.036 228.924 231.162 247.735C231.241 248.415 231.087 249.101 230.724 249.681C230.361 250.261 229.811 250.7 229.165 250.925L220.66 253.933C220.338 254.047 220 254.105 219.659 254.105Z" fill="#2F2E41"/>
<path d="M189.968 122.316C181.619 122.316 172.311 120.651 169.445 113.78L169.379 113.622L169.469 113.476C171.73 109.765 174.719 103.435 173.113 102.247C169.948 99.9072 168.412 96.0577 168.548 90.8054C168.844 79.4037 176.613 69.2807 187.88 65.6156C191.025 64.6092 194.226 63.7851 197.466 63.1476C199.828 62.671 202.266 62.7235 204.605 63.3011C206.945 63.8788 209.127 64.9675 210.996 66.4888C212.888 68.0202 214.417 69.9516 215.474 72.1443C216.531 74.337 217.089 76.7366 217.109 79.1707C217.227 91.3554 215.351 108.326 205.743 119.977C205.293 120.518 204.666 120.882 203.973 121.006C199.351 121.842 194.665 122.28 189.968 122.316Z" fill="#CCCCCC"/>
<path d="M186.862 121.859C187.317 120.23 188.396 118.845 189.866 118.006C191.335 117.168 193.076 116.943 194.711 117.381C195.044 117.474 195.37 117.595 195.684 117.741L206.427 107.964L213.899 112.998L198.535 126.594C197.841 127.844 196.749 128.827 195.432 129.386C194.116 129.944 192.65 130.047 191.268 129.676C190.463 129.456 189.71 129.078 189.052 128.565C188.394 128.052 187.845 127.413 187.435 126.687C187.025 125.96 186.764 125.159 186.665 124.33C186.567 123.502 186.634 122.662 186.862 121.859Z" fill="#FFB8B8"/>
<path d="M204.726 121.984C204.029 121.984 203.353 121.743 202.813 121.301L198.577 117.839C198.223 117.55 197.94 117.186 197.748 116.772C197.556 116.358 197.459 115.907 197.466 115.451C197.473 114.995 197.584 114.546 197.789 114.139C197.993 113.731 198.288 113.375 198.65 113.098L216.42 99.4688C216.63 99.3064 216.769 99.0676 216.804 98.804C216.84 98.5405 216.77 98.2735 216.61 98.061L205.642 83.5609C204.368 81.8819 203.729 79.8061 203.838 77.7011C203.947 75.5961 204.798 73.5976 206.239 72.0594C207.756 70.4202 209.835 69.4115 212.062 69.2334C214.289 69.0553 216.501 69.7208 218.26 71.0979L218.329 71.1711L229.782 87.5705C231.021 88.5416 232.018 89.7858 232.696 91.2059C233.374 92.6261 233.715 94.1838 233.692 95.7574C233.668 97.331 233.281 98.8779 232.561 100.277C231.841 101.677 230.807 102.891 229.54 103.824L206.526 121.391C206.005 121.776 205.374 121.984 204.726 121.984Z" fill="#CCCCCC"/>
<path d="M181.428 38.3287V30.139L196.049 23.7546L209.99 30.139V38.3287C209.99 38.6851 209.848 39.027 209.596 39.2791C209.344 39.5311 209.002 39.6727 208.646 39.6727H182.772C182.416 39.6727 182.074 39.5311 181.822 39.2791C181.57 39.027 181.428 38.6851 181.428 38.3287Z" fill="#2F2E41"/>
<path d="M195.378 18.7497C193.228 11.869 197.743 3.98339 204.417 1.25982C211.092 -1.46375 219.077 0.440108 224.709 4.93985C230.341 9.4396 233.835 16.1794 235.686 23.1463C237.538 30.1132 237.889 37.378 238.231 44.5786C246.431 46.085 252.01 55.8114 249.169 63.6501C246.328 71.4888 235.814 75.3832 228.552 71.2861C221.291 67.189 219.187 56.1754 224.428 49.6908C226.908 46.6225 228.293 42.8145 228.365 38.87C228.436 34.9254 227.189 31.0699 224.822 27.914C222.454 24.7581 219.102 22.4822 215.295 21.4468C211.488 20.4114 207.444 20.6756 203.805 22.1977C199.763 23.8879 194.692 19.4966 195.378 18.7497Z" fill="#2F2E41"/>
<path d="M103.235 67.932C93.4173 67.8676 83.7219 65.7441 74.7756 61.6989C74.243 61.4615 73.791 61.0744 73.4746 60.5847C73.1582 60.095 72.991 59.5239 72.9934 58.9408V34.4664C72.9943 33.6646 73.3132 32.8959 73.8802 32.3289C74.4471 31.762 75.2158 31.4431 76.0176 31.4422H130.453C131.255 31.4431 132.024 31.762 132.591 32.329C133.157 32.8959 133.476 33.6646 133.477 34.4664V58.9409C133.48 59.5239 133.313 60.095 132.996 60.5847C132.68 61.0744 132.228 61.4616 131.695 61.6989C122.749 65.7441 113.053 67.8676 103.235 67.932Z" fill="#E06009"/>
<path d="M103.228 48.1048C102.824 48.1051 102.425 48.0248 102.053 47.8685L58.8861 29.6564C58.3294 29.4216 57.8558 29.0254 57.5264 28.5189C57.197 28.0124 57.0269 27.4189 57.038 26.8148C57.0491 26.2107 57.2408 25.6238 57.5886 25.1298C57.9363 24.6357 58.4241 24.2571 58.989 24.0428L102.156 7.66667C102.851 7.40169 103.62 7.40333 104.314 7.67126L146.903 24.0474C147.465 24.2634 147.949 24.6421 148.294 25.135C148.64 25.6279 148.83 26.2126 148.841 26.8142C148.852 27.4159 148.684 28.0073 148.357 28.5126C148.03 29.0179 147.56 29.4142 147.007 29.6508L104.417 47.8626C104.041 48.0228 103.637 48.1051 103.228 48.1048Z" fill="#E06009"/>
<path d="M78.0337 63.3642C80.2607 63.3642 82.066 61.5589 82.066 59.3319C82.066 57.105 80.2607 55.2997 78.0337 55.2997C75.8068 55.2997 74.0015 57.105 74.0015 59.3319C74.0015 61.5589 75.8068 63.3642 78.0337 63.3642Z" fill="#3F3D56"/>
<path opacity="0.2" d="M147.154 27.0657L104.564 45.2775C104.232 45.4195 103.875 45.4931 103.514 45.494C103.153 45.4949 102.795 45.423 102.463 45.2826L59.2959 27.071C58.7538 26.8478 58.3016 26.4502 58.0106 25.9413C57.8202 26.2713 57.7023 26.6381 57.6646 27.0172C57.6268 27.3964 57.6702 27.7792 57.7918 28.1403C57.9133 28.5014 58.1103 28.8325 58.3697 29.1116C58.629 29.3907 58.9447 29.6115 59.2959 29.7592L102.463 47.9708C102.795 48.1111 103.153 48.183 103.514 48.1822C103.875 48.1813 104.232 48.1077 104.564 47.9657L147.154 29.7539C147.503 29.6048 147.817 29.3834 148.075 29.1041C148.332 28.8249 148.527 28.4942 148.648 28.1339C148.768 27.7736 148.811 27.3918 148.773 27.0139C148.734 26.6359 148.617 26.2703 148.427 25.9412C148.138 26.4461 147.69 26.8414 147.154 27.0657Z" fill="black"/>
<path d="M78.3725 59.3162C78.5507 59.3162 78.7217 59.2454 78.8477 59.1194C78.9737 58.9933 79.0445 58.8224 79.0445 58.6441V36.1566L101.209 28.0819C101.388 28.0846 101.56 28.0163 101.687 27.8922C101.815 27.768 101.889 27.5981 101.891 27.4199C101.894 27.2417 101.826 27.0697 101.702 26.9418C101.577 26.8139 101.408 26.7405 101.229 26.7379L79.0645 34.8125C78.8862 34.8084 78.7088 34.8406 78.5433 34.907C78.3777 34.9735 78.2273 35.0728 78.1013 35.1991C77.9739 35.3238 77.8728 35.4728 77.8039 35.6373C77.7351 35.8018 77.6999 35.9783 77.7004 36.1566V58.6441C77.7005 58.8224 77.7713 58.9933 77.8973 59.1193C78.0233 59.2454 78.1943 59.3162 78.3725 59.3162Z" fill="#3F3D56"/>
</g>
<defs>
<clipPath id="clip0_464_2386">
<rect width="500" height="362.423" fill="white"/>
</clipPath>
</defs>
</svg>
