<svg width="498" height="334" viewBox="0 0 498 334" fill="none" xmlns="http://www.w3.org/2000/svg">
<g clip-path="url(#clip0_464_2512)">
<path d="M485.303 322.435L480.392 324.538L469.984 306.494L477.231 303.389L485.303 322.435Z" fill="#FFB6B6"/>
<path d="M444.726 327.107L439.388 327.106L436.849 306.403H444.727L444.726 327.107Z" fill="#FFB6B6"/>
<path d="M444.913 332.706L428.5 332.706V332.497C428.5 330.793 429.173 329.159 430.371 327.954C431.569 326.75 433.194 326.073 434.889 326.073L437.887 323.785L443.481 326.073L444.914 326.073L444.913 332.706Z" fill="#2F2E41"/>
<path d="M488.288 326.019L473.189 332.49L473.107 332.298C472.443 330.73 472.425 328.961 473.058 327.381C473.69 325.8 474.921 324.537 476.48 323.869L478.346 320.582L484.384 320.481L485.702 319.916L488.288 326.019Z" fill="#2F2E41"/>
<path d="M439.49 204.577L431.378 254.249L433.586 261.651L430.689 266.893L434.943 312.932L433.216 316.755L438.041 319.747H447.858L448.379 278.068L450.805 271.949V268.576L455.742 243.161L456.65 272.233L458.087 278.362L456.88 282.726L458.456 285.783L471.964 314.95H482.973L482.121 308.354C484.094 307.35 479.16 304.415 478.686 302.243L480.307 298.576L478.686 291.648L477.2 278.11L478.767 249.534L478.03 211.054C474.333 206.071 470.233 202.227 465.151 201.151L439.49 204.577Z" fill="#2F2E41"/>
<path d="M459.244 139.163C465.389 139.163 470.37 134.154 470.37 127.975C470.37 121.797 465.389 116.788 459.244 116.788C453.1 116.788 448.119 121.797 448.119 127.975C448.119 134.154 453.1 139.163 459.244 139.163Z" fill="#FFB6B6"/>
<path d="M413.375 216.313C413.237 215.685 413.237 215.034 413.375 214.405C413.514 213.777 413.788 213.187 414.178 212.677C414.568 212.166 415.065 211.748 415.633 211.452C416.201 211.155 416.827 210.988 417.466 210.961L421.948 195.979L427.129 202.22L422.079 215.49C422.053 216.574 421.632 217.61 420.897 218.402C420.162 219.194 419.163 219.688 418.091 219.789C417.018 219.891 415.945 219.593 415.076 218.952C414.207 218.312 413.602 217.373 413.375 216.313Z" fill="#FFB6B6"/>
<path d="M442.447 154.731L440.438 151.041L437.85 151.91C437.85 151.91 434.993 153.764 430.993 160.763C429.142 164 425.142 184.759 425.142 184.759L415.793 209.654L425.324 211.275L433.278 190.758L442.497 171.124L442.447 154.731Z" fill="#E06009"/>
<path d="M458.832 204.421C466.665 204.421 474.569 205.972 477.805 211.516C477.721 210.311 477.509 208.22 477.288 206.302L476.479 201.149L477.299 196.424L478.384 195.333L476.441 193.38L477.766 183.517L482.14 160.282C482.483 158.454 482.216 156.563 481.38 154.904C480.543 153.245 479.186 151.91 477.517 151.107L473.315 149.075L466.502 142.72L454.179 142.628L450.159 147.884L439.576 151.498L441.352 188.454L440.188 191.187C440.449 191.428 441 191.943 441.298 192.275C441.72 192.744 441.182 195.16 440.825 196.558L440.333 200.284L441.881 201.396L439.868 203.787L439.466 206.822C441.464 206.347 450.105 204.421 458.832 204.421Z" fill="#E06009"/>
<path d="M462.091 138.615C462.138 138.51 462.185 138.404 462.232 138.298C462.214 138.299 462.196 138.302 462.178 138.302L462.091 138.615Z" fill="#2F2E41"/>
<path d="M470.679 117.296C470.151 116.795 469.464 116.497 468.739 116.453C468.02 116.476 467.29 117.13 467.439 117.838C466.118 115.485 464.015 113.675 461.499 112.727C458.983 111.778 456.215 111.751 453.681 112.65C451.893 113.284 450.139 114.553 449.729 116.415C449.689 116.903 449.544 117.378 449.304 117.804C449.096 118.033 448.826 118.195 448.528 118.271C448.23 118.347 447.916 118.333 447.625 118.232L447.607 118.227C447.508 118.193 447.4 118.189 447.299 118.217C447.197 118.245 447.106 118.303 447.038 118.384C446.97 118.464 446.927 118.563 446.915 118.668C446.903 118.773 446.923 118.88 446.972 118.973L447.478 119.922C446.84 120.065 446.178 120.051 445.546 119.881C445.442 119.853 445.331 119.859 445.229 119.897C445.128 119.935 445.041 120.004 444.979 120.094C444.918 120.184 444.886 120.291 444.888 120.4C444.89 120.509 444.925 120.615 444.989 120.703C445.83 121.859 446.927 122.803 448.194 123.458C449.462 124.113 450.863 124.461 452.288 124.476C454.31 124.463 456.352 123.763 458.319 124.23C459.08 124.411 459.791 124.761 460.4 125.254C461.009 125.747 461.501 126.372 461.839 127.081C462.177 127.79 462.352 128.566 462.353 129.353C462.354 130.139 462.179 130.916 461.843 131.626C462.447 130.961 463.615 131.118 464.233 131.77C464.518 132.119 464.728 132.523 464.852 132.957C464.975 133.391 465.008 133.846 464.949 134.293C464.784 135.664 464.38 136.994 463.754 138.223C466.145 138.149 468.455 137.339 470.373 135.902C472.291 134.466 473.724 132.472 474.479 130.19C475.234 127.908 475.275 125.448 474.595 123.142C473.916 120.836 472.549 118.796 470.679 117.296Z" fill="#2F2E41"/>
<path d="M111.126 75.5261C126.402 75.5261 138.785 63.073 138.785 47.7113C138.785 32.3495 126.402 19.8964 111.126 19.8964C95.8498 19.8964 83.4662 32.3495 83.4662 47.7113C83.4662 63.073 95.8498 75.5261 111.126 75.5261Z" fill="#F0B800"/>
<path d="M33.386 130.452C19.5074 99.5813 20.0191 60.4509 41.5582 34.4006C48.7642 70.5235 68.4438 102.919 97.1151 125.855C108.204 134.661 121.45 143.293 124.479 157.171C126.364 165.807 123.692 174.941 119.073 182.463C114.454 189.985 108.015 196.173 101.649 202.271L100.935 204.358C73.2361 185.073 47.2646 161.323 33.386 130.452Z" fill="#F2F2F2"/>
<path d="M42.1577 34.7773C37.2008 62.0732 40.8832 91.1383 52.9317 116.146C55.5366 121.553 58.6469 126.81 62.8112 131.158C66.9773 135.509 71.9586 138.247 77.6888 139.93C82.9275 141.468 88.4632 142.431 93.2387 145.223C98.2725 148.166 101.396 153.104 102.613 158.766C104.102 165.695 103.027 172.748 101.737 179.609C100.305 187.226 98.6969 195.115 100.772 202.773C101.024 203.701 99.5776 204.039 99.3265 203.112C95.7154 189.79 102.736 176.65 101.755 163.255C101.297 157.005 98.9632 150.856 93.634 147.234C88.9739 144.068 83.2664 143.069 77.9487 141.558C72.3652 139.971 67.3507 137.547 63.0838 133.527C58.719 129.414 55.3977 124.268 52.6669 118.952C46.5081 106.963 42.4481 93.7542 40.3001 80.4551C37.8301 65.1696 37.9784 49.5718 40.7387 34.3366C40.91 33.3938 42.3278 33.8406 42.1577 34.7773Z" fill="white"/>
<path d="M48.589 108.225C44.0927 109.674 39.2307 109.469 34.8711 107.646C30.5115 105.823 26.9382 102.501 24.7895 98.273C24.3576 97.416 25.6616 96.7009 26.094 97.559C28.0877 101.5 31.4165 104.594 35.4796 106.283C39.5427 107.973 44.0725 108.146 48.2513 106.771C49.1598 106.474 49.4922 107.929 48.589 108.225Z" fill="white"/>
<path d="M74.9306 139.502C79.4235 130.911 80.5316 120.934 78.0341 111.559C77.7859 110.63 79.2321 110.291 79.48 111.219C82.0609 120.98 80.8867 131.361 76.1918 140.29C75.7437 141.141 74.4849 140.348 74.9306 139.502Z" fill="white"/>
<path d="M39.7389 65.6546C41.5947 65.4585 43.3731 64.8019 44.9143 63.7438C46.4555 62.6857 47.7112 61.2592 48.5686 59.5924C49.0058 58.7364 50.2641 59.5301 49.8298 60.3805C48.8739 62.2176 47.4852 63.7913 45.7851 64.9641C44.0849 66.137 42.125 66.8733 40.0765 67.1087C39.8853 67.1472 39.6867 67.111 39.521 67.0075C39.3554 66.9039 39.2351 66.7409 39.1847 66.5514C39.141 66.3587 39.1746 66.1564 39.2784 65.9884C39.3822 65.8205 39.5476 65.7006 39.7389 65.6546Z" fill="white"/>
<path d="M155.625 34.703C155.367 35.2453 155.109 35.7877 154.858 36.3411C151.429 43.6503 148.596 51.2276 146.387 58.9982C146.207 59.5963 146.033 60.2051 145.871 60.8071C140.748 79.5852 139.137 99.1565 141.119 118.526C141.914 126.233 143.292 133.868 145.24 141.365C147.93 151.718 151.666 162.728 150.823 173.066C150.747 174.145 150.605 175.219 150.397 176.281L103.522 205.073C103.383 205.084 103.25 205.107 103.11 205.119L101.291 206.355C101.163 205.975 101.04 205.579 100.912 205.199C100.838 204.979 100.773 204.753 100.698 204.533C100.652 204.384 100.606 204.235 100.555 204.104C100.54 204.055 100.525 204.005 100.515 203.966C100.465 203.835 100.432 203.707 100.388 203.586C99.6894 201.372 99.0049 199.15 98.3347 196.918C98.3281 196.907 98.3281 196.907 98.332 196.89C93.2683 179.873 89.5729 162.281 88.6501 144.684C88.6225 144.155 88.5879 143.615 88.5817 143.073C88.2095 135.139 88.4828 127.187 89.3988 119.298C89.9141 114.98 90.6466 110.69 91.5933 106.447C94.0603 95.4859 98.2264 84.9837 103.939 75.325C115.329 56.0721 132.716 40.6969 153.995 35.1135C154.54 34.9711 155.074 34.8347 155.625 34.703Z" fill="#F2F2F2"/>
<path d="M155.883 35.3661C135.583 54.1591 121.122 79.5955 115.769 106.858C114.612 112.752 113.948 118.832 114.67 124.826C115.392 130.822 117.729 136.024 121.297 140.837C124.559 145.237 128.402 149.357 130.544 154.478C132.801 159.875 132.339 165.709 129.921 170.967C126.961 177.401 121.88 182.381 116.743 187.078C111.038 192.293 105.031 197.619 102.104 204.989C101.749 205.882 100.392 205.277 100.746 204.385C105.839 191.561 119.312 185.321 126.548 174.032C129.924 168.764 131.742 162.441 129.655 156.323C127.831 150.973 123.871 146.721 120.53 142.294C117.022 137.647 114.469 132.675 113.47 126.882C112.447 120.955 112.876 114.836 113.878 108.938C116.139 95.6363 120.805 82.6316 127.052 70.7125C134.232 57.0124 143.689 44.6483 155.014 34.1551C155.715 33.5059 156.58 34.7211 155.883 35.3661Z" fill="white"/>
<path d="M117.044 97.904C112.587 96.3387 108.828 93.2311 106.438 89.1359C104.049 85.0408 103.185 80.2248 104 75.5481C104.169 74.6024 105.638 74.8209 105.469 75.7679C104.702 80.1214 105.507 84.6074 107.74 88.4162C109.973 92.2251 113.486 95.1058 117.645 96.5386C118.549 96.851 117.943 98.2146 117.044 97.904Z" fill="white"/>
<path d="M119.351 138.825C128.082 134.686 134.94 127.391 138.559 118.393C138.917 117.501 140.274 118.107 139.917 118.997C136.133 128.354 128.981 135.931 119.886 140.218C119.019 140.626 118.489 139.231 119.351 138.825Z" fill="white"/>
<path d="M135.465 58.5554C137.065 59.5224 138.878 60.0749 140.742 60.1631C142.606 60.2514 144.462 59.8727 146.145 59.061C147.006 58.6422 147.536 60.0378 146.68 60.4539C144.817 61.3419 142.766 61.7576 140.706 61.6647C138.647 61.5718 136.641 60.973 134.864 59.9208C134.689 59.8357 134.552 59.6866 134.482 59.5036C134.411 59.3207 134.413 59.1177 134.486 58.9359C134.566 58.7555 134.714 58.6144 134.898 58.5431C135.081 58.4719 135.285 58.4763 135.465 58.5554Z" fill="white"/>
<path d="M266.594 96.638C252.715 65.7671 253.227 26.6367 274.766 0.586426C281.972 36.7093 301.651 69.1048 330.323 92.0411C341.412 100.846 354.658 109.479 357.687 123.357C359.572 131.993 356.9 141.126 352.281 148.649C347.661 156.171 341.223 162.359 334.857 168.457L334.143 170.544C306.444 151.259 280.472 127.509 266.594 96.638Z" fill="#F2F2F2"/>
<path d="M275.365 0.963109C270.408 28.259 274.091 57.3241 286.139 82.3322C288.744 87.739 291.855 92.9956 296.019 97.3441C300.185 101.695 305.166 104.433 310.896 106.116C316.135 107.654 321.671 108.617 326.446 111.409C331.48 114.352 334.604 119.29 335.821 124.952C337.31 131.881 336.235 138.934 334.945 145.794C333.512 153.412 331.905 161.301 333.98 168.959C334.232 169.886 332.785 170.225 332.534 169.298C328.923 155.975 335.944 142.835 334.963 129.441C334.505 123.191 332.171 117.041 326.842 113.42C322.182 110.253 316.474 109.255 311.156 107.744C305.573 106.157 300.558 103.733 296.291 99.7123C291.927 95.5993 288.605 90.4538 285.875 85.1378C279.716 73.1489 275.656 59.94 273.508 46.6409C271.038 31.3554 271.186 15.7576 273.946 0.522435C274.118 -0.420458 275.535 0.0264017 275.365 0.963109Z" fill="white"/>
<path d="M281.797 74.4113C277.3 75.8604 272.438 75.655 268.079 73.8319C263.719 72.0089 260.146 68.6868 257.997 64.4589C257.565 63.6019 258.869 62.8868 259.302 63.7449C261.295 67.6856 264.624 70.7799 268.687 72.4692C272.75 74.1585 277.28 74.3316 281.459 72.9572C282.367 72.6596 282.7 74.1154 281.797 74.4113Z" fill="white"/>
<path d="M308.138 105.687C312.631 97.0972 313.739 87.1197 311.242 77.7443C310.993 76.8156 312.44 76.4772 312.688 77.4048C315.268 87.1659 314.094 97.5467 309.399 106.476C308.951 107.326 307.692 106.534 308.138 105.687Z" fill="white"/>
<path d="M272.947 31.8404C274.802 31.6443 276.581 30.9877 278.122 29.9296C279.663 28.8715 280.919 27.445 281.776 25.7782C282.213 24.9222 283.472 25.7159 283.037 26.5663C282.082 28.4034 280.693 29.9771 278.993 31.1499C277.293 32.3228 275.333 33.0591 273.284 33.2945C273.093 33.333 272.894 33.2968 272.729 33.1933C272.563 33.0897 272.443 32.9267 272.392 32.7372C272.349 32.5445 272.382 32.3422 272.486 32.1742C272.59 32.0063 272.755 31.8863 272.947 31.8404Z" fill="white"/>
<path d="M388.833 0.888794C388.575 1.43112 388.317 1.97345 388.065 2.52686C384.636 9.83611 381.804 17.4134 379.595 25.184C379.415 25.7821 379.241 26.3909 379.078 26.9929C373.956 45.771 372.344 65.3423 374.326 84.712C375.122 92.4189 376.5 100.054 378.447 107.55C381.138 117.904 384.874 128.914 384.031 139.252C383.955 140.331 383.812 141.405 383.604 142.467L336.73 171.258C336.591 171.27 336.457 171.293 336.318 171.305L334.498 172.54C334.371 172.161 334.247 171.764 334.12 171.385C334.045 171.165 333.981 170.939 333.906 170.719C333.859 170.57 333.813 170.421 333.763 170.29C333.747 170.24 333.732 170.191 333.723 170.152C333.673 170.02 333.64 169.893 333.596 169.772C332.897 167.558 332.212 165.335 331.542 163.104C331.536 163.093 331.536 163.093 331.54 163.076C326.476 146.059 322.78 128.467 321.858 110.87C321.83 110.341 321.795 109.801 321.789 109.258C321.417 101.324 321.69 93.373 322.606 85.4837C323.122 81.1655 323.854 76.8762 324.801 72.6324C327.268 61.6717 331.434 51.1695 337.146 41.5108C348.537 22.2579 365.924 6.88265 387.203 1.29932C387.747 1.15688 388.282 1.02047 388.833 0.888794Z" fill="#F0F0F0"/>
<path d="M389.091 1.55185C368.791 20.3449 354.329 45.7813 348.977 73.0437C347.82 78.9378 347.156 85.0181 347.878 91.0114C348.599 97.0073 350.937 102.21 354.505 107.023C357.767 111.422 361.61 115.543 363.752 120.664C366.009 126.061 365.547 131.895 363.128 137.153C360.169 143.587 355.088 148.567 349.95 153.264C344.246 158.479 338.239 163.804 335.311 171.175C334.957 172.068 333.6 171.463 333.954 170.571C339.047 157.747 352.52 151.506 359.755 140.217C363.132 134.95 364.95 128.627 362.863 122.509C361.038 117.159 357.079 112.906 353.738 108.48C350.23 103.832 347.677 98.8611 346.677 93.0673C345.655 87.1406 346.084 81.0214 347.086 75.1234C349.346 61.8221 354.013 48.8174 360.26 36.8983C367.439 23.1982 376.896 10.8341 388.222 0.340894C388.923 -0.308278 389.787 0.906923 389.091 1.55185Z" fill="white"/>
<path d="M350.252 64.0898C345.794 62.5245 342.035 59.4168 339.646 55.3217C337.256 51.2265 336.392 46.4106 337.208 41.7339C337.376 40.7882 338.845 41.0067 338.677 41.9537C337.91 46.3072 338.715 50.7932 340.948 54.602C343.18 58.4108 346.694 61.2916 350.853 62.7244C351.756 63.0368 351.15 64.4004 350.252 64.0898Z" fill="white"/>
<path d="M352.559 105.011C361.289 100.872 368.148 93.5765 371.767 84.5787C372.124 83.6869 373.482 84.2923 373.124 85.183C369.341 94.5393 362.188 102.117 353.094 106.404C352.227 106.812 351.697 105.417 352.559 105.011Z" fill="white"/>
<path d="M368.673 24.7412C370.272 25.7082 372.085 26.2607 373.949 26.3489C375.813 26.4372 377.67 26.0585 379.353 25.2468C380.214 24.828 380.744 26.2236 379.888 26.6397C378.025 27.5277 375.974 27.9434 373.914 27.8505C371.854 27.7576 369.849 27.1588 368.072 26.1066C367.896 26.0215 367.759 25.8723 367.689 25.6894C367.619 25.5065 367.62 25.3035 367.694 25.1217C367.774 24.9413 367.922 24.8002 368.106 24.7289C368.289 24.6576 368.493 24.662 368.673 24.7412Z" fill="white"/>
<path d="M89.7031 325.588L94.8265 329.578L114.746 333.053L136.887 277.707C136.887 277.707 150.446 235.053 188.41 243.779L310.437 241.597C310.437 241.597 347.904 237.736 354.095 255.505C355.268 258.871 386.907 333.223 386.907 333.223L409.09 330.074L406.432 266.685L353.745 143.7L262.168 137.95L167.801 144.518L89.7031 325.588Z" fill="#3F3D56"/>
<path d="M191.121 247.597C210.591 247.597 226.374 231.725 226.374 212.146C226.374 192.568 210.591 176.696 191.121 176.696C171.652 176.696 155.869 192.568 155.869 212.146C155.869 231.725 171.652 247.597 191.121 247.597Z" fill="#2F2E41"/>
<path d="M309.352 247.597C328.821 247.597 344.604 231.725 344.604 212.146C344.604 192.568 328.821 176.696 309.352 176.696C289.883 176.696 274.1 192.568 274.1 212.146C274.1 231.725 289.883 247.597 309.352 247.597Z" fill="#2F2E41"/>
<path d="M149.903 95.9783L164.418 93.1161C164.418 93.1161 273.703 77.435 342.779 95.9783L337.554 110.704L154.784 109.613L149.903 95.9783Z" fill="#E6E6E6"/>
<path d="M297.252 172.06H204.507C193.245 172.06 183.513 164.219 181.365 153.415L171.215 102.365C170.99 101.251 170.999 100.102 171.241 98.9913C171.483 97.8809 171.953 96.8335 172.62 95.9158C173.318 94.9531 174.205 94.1449 175.226 93.5414C176.248 92.938 177.382 92.5521 178.558 92.4078C227.473 86.302 275.909 86.2916 322.523 92.3761C323.682 92.5189 324.8 92.9001 325.807 93.4961C326.814 94.092 327.688 94.89 328.375 95.8402C329.038 96.7446 329.508 97.7765 329.758 98.8716C330.007 99.9668 330.029 101.102 329.824 102.206L320.454 153.1C318.432 164.086 308.674 172.06 297.252 172.06Z" fill="#E06009"/>
<path d="M108.647 104.29L109.051 96.9842C109.114 95.8461 109.45 94.7403 110.031 93.7614C110.612 92.7825 111.42 91.9596 112.386 91.3634C118.242 87.7507 134.038 79.7967 154.196 83.9662C155.612 84.2609 156.903 84.9867 157.894 86.0451C158.885 87.1034 159.528 88.443 159.735 89.8816L160.275 93.6829L108.647 104.29Z" fill="#3F3D56"/>
<path d="M392.911 104.29L341.284 93.6828L342.151 87.5759C342.251 86.8548 342.563 86.1802 343.047 85.6389C343.532 85.0977 344.166 84.7144 344.869 84.5385C368.116 78.6716 385.911 89.0904 390.811 92.4235C391.276 92.741 391.662 93.1617 391.94 93.6532C392.217 94.1447 392.379 94.6938 392.412 95.258L392.911 104.29Z" fill="#3F3D56"/>
<path d="M92.2547 330.352C91.0106 330.365 89.7887 330.019 88.734 329.356C74.9103 321.238 66.2922 306.363 63.1385 285.154C60.5335 267.636 61.6213 245.647 66.3716 219.798C74.7935 173.971 92.4451 128.164 99.6433 110.597C100.597 108.278 102.079 106.217 103.969 104.58C105.86 102.943 108.107 101.775 110.529 101.17C125.368 97.5 151.273 91.3425 158.038 91.3425C167.31 91.3425 172.326 100.119 172.376 100.208L172.404 100.28L180.546 135.785V136.298C185.037 151.581 181.7 162.621 178.107 169.192C174.207 176.324 169.16 179.885 169.11 179.92C161.186 185.986 148.276 205.529 135.428 230.916C122.076 257.297 112.178 283.328 108.952 300.55C105.002 321.629 99.2132 328.082 95.0522 329.783C94.1654 330.154 93.2151 330.347 92.2547 330.352Z" fill="#E6E6E6"/>
<path d="M294.195 167.697H206.563C201.391 167.69 196.381 165.877 192.391 162.569C188.4 159.26 185.675 154.661 184.682 149.556L175.092 99.9061C174.879 98.8071 174.892 97.6758 175.131 96.5822C175.37 95.4885 175.829 94.4557 176.48 93.5476C177.132 92.6394 177.961 91.8752 178.918 91.302C179.874 90.7289 180.937 90.359 182.042 90.2153C228.262 84.277 274.031 84.2669 318.075 90.1844C319.164 90.3335 320.211 90.7027 321.154 91.2698C322.097 91.8369 322.916 92.5902 323.562 93.4843C324.208 94.3783 324.667 95.3946 324.911 96.4718C325.156 97.5491 325.181 98.6649 324.985 99.7522L316.132 149.25C315.21 154.425 312.507 159.109 308.497 162.482C304.486 165.855 299.423 167.701 294.195 167.697Z" fill="#E6E6E6"/>
<path d="M409.305 330.352C408.344 330.348 407.393 330.155 406.506 329.783C402.345 328.082 396.556 321.629 392.607 300.55C389.38 283.328 379.482 257.297 366.131 230.916C353.282 205.529 340.372 185.986 332.438 179.913C332.398 179.885 327.351 176.324 323.451 169.192C319.858 162.621 316.521 151.581 321.013 136.298L321.019 135.724L329.163 100.242L329.182 100.208C329.232 100.119 334.249 91.3425 343.52 91.3425C350.285 91.3425 376.19 97.5 391.03 101.17C393.451 101.775 395.698 102.943 397.589 104.58C399.479 106.218 400.961 108.278 401.915 110.597C409.113 128.164 426.765 173.971 435.187 219.798C439.937 245.647 441.025 267.636 438.42 285.154C435.266 306.363 426.648 321.238 412.805 329.368C411.756 330.025 410.541 330.367 409.305 330.352Z" fill="#E6E6E6"/>
<path d="M191.121 227.417C202.803 227.417 212.273 217.894 212.273 206.147C212.273 194.4 202.803 184.877 191.121 184.877C179.44 184.877 169.97 194.4 169.97 206.147C169.97 217.894 179.44 227.417 191.121 227.417Z" fill="#3F3D56"/>
<path d="M191.121 220.327C198.909 220.327 205.222 213.979 205.222 206.147C205.222 198.316 198.909 191.967 191.121 191.967C183.334 191.967 177.021 198.316 177.021 206.147C177.021 213.979 183.334 220.327 191.121 220.327Z" fill="#2F2E41"/>
<path d="M309.352 227.417C321.034 227.417 330.504 217.894 330.504 206.147C330.504 194.4 321.034 184.877 309.352 184.877C297.671 184.877 288.201 194.4 288.201 206.147C288.201 217.894 297.671 227.417 309.352 227.417Z" fill="#3F3D56"/>
<path d="M309.352 220.327C317.14 220.327 323.453 213.979 323.453 206.147C323.453 198.316 317.14 191.967 309.352 191.967C301.564 191.967 295.251 198.316 295.251 206.147C295.251 213.979 301.564 220.327 309.352 220.327Z" fill="#2F2E41"/>
<path d="M237.221 180.514C238.119 180.514 238.848 179.781 238.848 178.878C238.848 177.974 238.119 177.241 237.221 177.241C236.322 177.241 235.594 177.974 235.594 178.878C235.594 179.781 236.322 180.514 237.221 180.514Z" fill="#2F2E41"/>
<path d="M244.271 180.514C245.17 180.514 245.898 179.781 245.898 178.878C245.898 177.974 245.17 177.241 244.271 177.241C243.372 177.241 242.644 177.974 242.644 178.878C242.644 179.781 243.372 180.514 244.271 180.514Z" fill="#2F2E41"/>
<path d="M241.017 186.513C241.916 186.513 242.644 185.781 242.644 184.877C242.644 183.973 241.916 183.241 241.017 183.241C240.118 183.241 239.39 183.973 239.39 184.877C239.39 185.781 240.118 186.513 241.017 186.513Z" fill="#2F2E41"/>
<path d="M247.525 186.513C248.424 186.513 249.152 185.781 249.152 184.877C249.152 183.973 248.424 183.241 247.525 183.241C246.626 183.241 245.898 183.973 245.898 184.877C245.898 185.781 246.626 186.513 247.525 186.513Z" fill="#2F2E41"/>
<path d="M254.033 186.513C254.932 186.513 255.66 185.781 255.66 184.877C255.66 183.973 254.932 183.241 254.033 183.241C253.135 183.241 252.406 183.973 252.406 184.877C252.406 185.781 253.135 186.513 254.033 186.513Z" fill="#2F2E41"/>
<path d="M260.541 186.513C261.44 186.513 262.168 185.781 262.168 184.877C262.168 183.973 261.44 183.241 260.541 183.241C259.643 183.241 258.914 183.973 258.914 184.877C258.914 185.781 259.643 186.513 260.541 186.513Z" fill="#2F2E41"/>
<path d="M251.321 180.514C252.22 180.514 252.949 179.781 252.949 178.878C252.949 177.974 252.22 177.241 251.321 177.241C250.423 177.241 249.694 177.974 249.694 178.878C249.694 179.781 250.423 180.514 251.321 180.514Z" fill="#2F2E41"/>
<path d="M258.372 180.514C259.27 180.514 259.999 179.781 259.999 178.878C259.999 177.974 259.27 177.241 258.372 177.241C257.473 177.241 256.745 177.974 256.745 178.878C256.745 179.781 257.473 180.514 258.372 180.514Z" fill="#2F2E41"/>
<path d="M265.422 180.514C266.321 180.514 267.049 179.781 267.049 178.878C267.049 177.974 266.321 177.241 265.422 177.241C264.524 177.241 263.795 177.974 263.795 178.878C263.795 179.781 264.524 180.514 265.422 180.514Z" fill="#2F2E41"/>
<path d="M257.83 229.326H243.729C243.081 229.326 242.461 229.068 242.003 228.607C241.545 228.147 241.288 227.523 241.288 226.872C241.288 226.221 241.545 225.597 242.003 225.137C242.461 224.676 243.081 224.418 243.729 224.418H257.83C258.477 224.418 259.098 224.676 259.555 225.137C260.013 225.597 260.27 226.221 260.27 226.872C260.27 227.523 260.013 228.147 259.555 228.607C259.098 229.068 258.477 229.326 257.83 229.326Z" fill="#2F2E41"/>
<path d="M164.462 122.64C163.552 122.638 162.669 122.327 161.956 121.758C161.244 121.189 160.742 120.395 160.533 119.505L158.371 110.272C158.126 109.223 158.306 108.119 158.87 107.202C159.434 106.286 160.337 105.632 161.381 105.385C162.424 105.138 163.522 105.318 164.434 105.884C165.346 106.451 165.997 107.358 166.244 108.407L168.406 117.64C168.545 118.237 168.548 118.859 168.415 119.458C168.281 120.057 168.015 120.618 167.636 121.099C167.257 121.58 166.774 121.968 166.224 122.235C165.675 122.502 165.072 122.641 164.462 122.64Z" fill="#3F3D56"/>
<path d="M337.639 122.095C337.028 122.095 336.426 121.957 335.876 121.69C335.327 121.423 334.844 121.034 334.465 120.553C334.086 120.072 333.819 119.511 333.686 118.913C333.553 118.314 333.555 117.692 333.695 117.094L335.857 107.862C336.104 106.813 336.755 105.905 337.667 105.339C338.578 104.772 339.677 104.593 340.72 104.84C341.763 105.087 342.666 105.74 343.231 106.657C343.795 107.573 343.975 108.677 343.73 109.727L341.568 118.959C341.359 119.85 340.857 120.644 340.144 121.213C339.431 121.782 338.549 122.092 337.639 122.095Z" fill="#3F3D56"/>
<path d="M134.625 149.892C133.294 149.892 131.995 149.48 130.905 148.712L126.366 145.517C125.512 144.915 124.815 144.115 124.333 143.185C123.852 142.255 123.6 141.222 123.6 140.173V130.387C123.602 128.422 124.379 126.538 125.761 125.149C127.143 123.759 129.016 122.977 130.97 122.975H137.923C139.877 122.977 141.75 123.759 143.132 125.149C144.514 126.538 145.291 128.422 145.293 130.387V140.269C145.291 141.291 145.052 142.298 144.594 143.21C144.135 144.121 143.471 144.912 142.655 145.52L138.472 148.619C137.358 149.446 136.009 149.892 134.625 149.892Z" fill="#3F3D56"/>
<path d="M137.923 185.695H130.97C129.016 185.693 127.143 184.911 125.761 183.522C124.379 182.132 123.602 180.248 123.6 178.283V168.497C123.6 167.448 123.852 166.415 124.333 165.485C124.815 164.555 125.512 163.755 126.366 163.153L130.905 159.958C132.017 159.174 133.346 158.762 134.703 158.779C136.061 158.795 137.379 159.24 138.472 160.051L142.655 163.15C143.471 163.758 144.135 164.549 144.594 165.461C145.052 166.372 145.291 167.379 145.293 168.401V178.283C145.291 180.248 144.514 182.132 143.132 183.522C141.75 184.911 139.877 185.693 137.923 185.695Z" fill="#3F3D56"/>
<path d="M159.616 165.243H149.885C148.842 165.242 147.815 164.989 146.89 164.505C145.965 164.021 145.17 163.32 144.571 162.461L141.394 157.896C140.615 156.778 140.204 155.442 140.221 154.077C140.237 152.711 140.68 151.386 141.486 150.287L144.568 146.081C145.172 145.259 145.959 144.592 146.866 144.131C147.772 143.67 148.774 143.429 149.789 143.427H159.616C161.571 143.429 163.444 144.211 164.826 145.601C166.208 146.99 166.985 148.874 166.987 150.839V157.831C166.985 159.796 166.208 161.68 164.826 163.069C163.444 164.459 161.571 165.241 159.616 165.243Z" fill="#3F3D56"/>
<path d="M118.466 165.243H108.734C106.78 165.241 104.907 164.459 103.525 163.069C102.143 161.68 101.366 159.796 101.364 157.831V150.839C101.366 148.874 102.143 146.99 103.525 145.601C104.907 144.211 106.78 143.429 108.734 143.427H118.561C119.577 143.429 120.578 143.67 121.485 144.131C122.392 144.592 123.178 145.259 123.782 146.081L126.865 150.287C127.671 151.386 128.113 152.711 128.13 154.077C128.146 155.442 127.736 156.778 126.957 157.896L123.779 162.461C123.181 163.32 122.386 164.021 121.461 164.505C120.536 164.989 119.508 165.242 118.466 165.243Z" fill="#3F3D56"/>
<path d="M367.383 139.064C374.272 139.064 379.857 133.448 379.857 126.52C379.857 119.592 374.272 113.976 367.383 113.976C360.494 113.976 354.909 119.592 354.909 126.52C354.909 133.448 360.494 139.064 367.383 139.064Z" fill="#3F3D56"/>
<path d="M395.042 167.97C401.932 167.97 407.516 162.354 407.516 155.426C407.516 148.498 401.932 142.882 395.042 142.882C388.153 142.882 382.569 148.498 382.569 155.426C382.569 162.354 388.153 167.97 395.042 167.97Z" fill="#3F3D56"/>
<path d="M367.383 195.239C374.272 195.239 379.857 189.623 379.857 182.695C379.857 175.767 374.272 170.151 367.383 170.151C360.494 170.151 354.909 175.767 354.909 182.695C354.909 189.623 360.494 195.239 367.383 195.239Z" fill="#3F3D56"/>
<path d="M339.723 167.424C346.613 167.424 352.197 161.808 352.197 154.881C352.197 147.953 346.613 142.337 339.723 142.337C332.834 142.337 327.25 147.953 327.25 154.881C327.25 161.808 332.834 167.424 339.723 167.424Z" fill="#3F3D56"/>
<path d="M395.042 163.607C393.433 163.607 391.861 163.127 390.523 162.228C389.185 161.329 388.142 160.051 387.527 158.557C386.911 157.062 386.75 155.417 387.064 153.83C387.377 152.243 388.152 150.785 389.29 149.641C390.428 148.497 391.877 147.718 393.455 147.402C395.033 147.087 396.669 147.249 398.156 147.868C399.642 148.487 400.913 149.535 401.807 150.881C402.7 152.226 403.178 153.808 403.178 155.426C403.175 157.595 402.317 159.674 400.792 161.208C399.267 162.742 397.199 163.604 395.042 163.607ZM395.042 148.336C393.648 148.336 392.285 148.752 391.125 149.531C389.966 150.31 389.062 151.417 388.529 152.713C387.995 154.008 387.855 155.434 388.127 156.809C388.399 158.184 389.071 159.448 390.057 160.439C391.043 161.431 392.299 162.106 393.667 162.38C395.035 162.653 396.452 162.513 397.74 161.976C399.029 161.44 400.13 160.531 400.905 159.365C401.679 158.199 402.093 156.828 402.093 155.426C402.091 153.546 401.347 151.744 400.026 150.415C398.704 149.086 396.912 148.338 395.042 148.336Z" fill="#E6E6E6"/>
<path d="M376.1 132.607L359.751 132.374L368.126 118.252L376.1 132.607ZM361.645 131.31L374.236 131.489L368.095 120.434L361.645 131.31Z" fill="#E6E6E6"/>
<path d="M346.232 161.425H333.215V148.336H346.232V161.425ZM334.3 160.334H345.147V149.427H334.3V160.334Z" fill="#E6E6E6"/>
<path d="M374.114 188.327L368.151 182.342L373.41 177.064L372.643 176.291L367.383 181.571L362.123 176.291L361.357 177.064L366.615 182.342L360.652 188.327L361.418 189.099L367.383 183.113L373.348 189.099L374.114 188.327Z" fill="#E6E6E6"/>
<path d="M134.607 40.2714C132.998 40.2714 131.425 39.7916 130.087 38.8926C128.749 37.9937 127.706 36.7161 127.091 35.2212C126.475 33.7263 126.314 32.0815 126.628 30.4945C126.942 28.9076 127.716 27.4499 128.854 26.3058C129.992 25.1617 131.441 24.3825 133.019 24.0669C134.598 23.7512 136.233 23.9132 137.72 24.5324C139.206 25.1516 140.477 26.2001 141.371 27.5455C142.265 28.8908 142.742 30.4725 142.742 32.0905C142.739 34.2595 141.881 36.3389 140.356 37.8725C138.831 39.4062 136.763 40.2689 134.607 40.2714ZM134.607 25.0004C133.212 25.0004 131.849 25.4163 130.69 26.1953C129.53 26.9744 128.626 28.0817 128.093 29.3773C127.559 30.6728 127.42 32.0984 127.692 33.4737C127.964 34.8491 128.635 36.1124 129.621 37.104C130.607 38.0955 131.863 38.7708 133.231 39.0444C134.599 39.3179 136.016 39.1775 137.305 38.6409C138.593 38.1043 139.694 37.1955 140.469 36.0296C141.244 34.8636 141.657 33.4928 141.657 32.0905C141.655 30.2108 140.911 28.4086 139.59 27.0794C138.268 25.7502 136.476 25.0025 134.607 25.0004Z" fill="#E6E6E6"/>
<path d="M116.206 26.7238L99.8574 26.4913L108.232 12.3695L116.206 26.7238ZM101.751 25.4272L114.343 25.6064L108.202 14.5511L101.751 25.4272Z" fill="#E6E6E6"/>
<path d="M92.1437 46.6205H79.1274V33.5311H92.1437V46.6205ZM80.2121 45.5297H91.059V34.6219H80.2121V45.5297Z" fill="#E6E6E6"/>
<path d="M103.916 70.9907L97.953 65.0056L103.212 59.7278L102.445 58.9556L97.185 64.2349L91.9248 58.9556L91.1585 59.7278L96.417 65.0056L90.454 70.9907L91.2203 71.763L97.185 65.7762L103.15 71.763L103.916 70.9907Z" fill="#E6E6E6"/>
<path opacity="0.2" d="M471.242 187.876L450.191 203.809L473.954 193.33L471.242 187.876Z" fill="black"/>
<path d="M81.8394 207.511L55.2646 208.601L52.0105 190.603L74.7889 183.513L81.8394 207.511Z" fill="#A0616A"/>
<path d="M72.0689 163.402L66.1416 157.332L73.4093 146.157L85.8485 125.335C85.442 124.438 85.316 123.438 85.487 122.467C85.658 121.497 86.118 120.601 86.8061 119.899C87.4943 119.197 88.3782 118.722 89.3408 118.536C90.3035 118.35 91.2996 118.462 92.1973 118.858C93.0951 119.254 93.8522 119.915 94.3685 120.752C94.8848 121.59 95.136 122.566 95.0888 123.551C95.0417 124.535 94.6984 125.482 94.1043 126.267C93.5103 127.051 92.6936 127.635 91.7622 127.942L81.4947 150.172L72.0689 163.402Z" fill="#A0616A"/>
<path d="M65.5028 177.257C64.8069 178.341 63.8153 179.2 62.6465 179.732C61.4778 180.265 60.1814 180.447 58.9123 180.258C57.7043 180.115 56.5643 179.62 55.6321 178.834C54.7 178.048 54.0163 177.006 53.665 175.835C53.4063 175.004 53.3309 174.126 53.4442 173.262C53.5576 172.399 53.8568 171.571 54.3211 170.835C58.2863 164.113 65.5995 155.236 65.6729 155.147L65.7893 155.006L78.124 157.694L65.5028 177.257Z" fill="#E06009"/>
<path d="M75.5053 326.019L82.8752 326.018L86.3809 297.432L75.5037 297.432L75.5053 326.019Z" fill="#A0616A"/>
<path d="M73.6251 323.599L88.1392 323.599H88.1398C90.5929 323.599 92.9455 324.579 94.68 326.323C96.4146 328.067 97.3892 330.433 97.3894 332.9V333.202L73.6256 333.203L73.6251 323.599Z" fill="#2F2E41"/>
<path d="M18.12 322.811L25.4069 323.918L33.1234 296.18L23.5705 294.545L18.12 322.811Z" fill="#A0616A"/>
<path d="M16.6208 320.135L30.972 322.317L30.9725 322.317C33.398 322.686 35.5785 324.008 37.0343 325.994C38.4901 327.979 39.102 330.465 38.7355 332.904L38.6905 333.203L15.1936 329.632L16.6208 320.135Z" fill="#2F2E41"/>
<path d="M54.1797 203.148L79.6698 198.784L87.5569 215.133L87.8574 321.832L73.8676 321.744L68.0196 235.385L30.7484 315.182L15.7197 313.368L48.4823 227.828C48.4823 227.828 46.6788 212.715 52.3897 205.158L54.1797 203.148Z" fill="#2F2E41"/>
<path d="M44.7166 170.937C44.3271 169.76 44.2857 168.495 44.5975 167.295C44.9094 166.095 45.561 165.012 46.4733 164.177L50.0959 160.866L60.3088 159.136L66.6945 157.968L76.9581 187.877L52.0303 199.394C49.8426 198.919 48.9688 197.715 50.2417 195.322L44.7166 170.937Z" fill="#E06009"/>
<path d="M67.5942 181.029L74.7251 176.453L84.094 185.915L101.779 202.461C102.736 202.246 103.735 202.329 104.644 202.698C105.553 203.067 106.329 203.705 106.87 204.527C107.41 205.349 107.69 206.317 107.672 207.303C107.653 208.289 107.338 209.245 106.767 210.047C106.196 210.848 105.397 211.456 104.475 211.791C103.553 212.126 102.552 212.171 101.604 211.921C100.655 211.671 99.8051 211.137 99.1651 210.391C98.525 209.644 98.1255 208.72 98.0193 207.74L78.5158 193.039L67.5942 181.029Z" fill="#A0616A"/>
<path d="M55.4722 171.702C54.5617 170.794 53.9308 169.64 53.6549 168.38C53.3789 167.121 53.4696 165.807 53.9161 164.598C54.3058 163.439 55.0233 162.42 55.9805 161.666C56.9377 160.911 58.0931 160.454 59.305 160.35C60.1671 160.268 61.0368 160.375 61.8534 160.665C62.67 160.955 63.4138 161.421 64.033 162.03C69.7526 167.322 76.8768 176.353 76.9479 176.444L77.061 176.588L71.895 188.167L55.4722 171.702Z" fill="#E06009"/>
<path d="M55.8267 155.497C62.0182 155.497 67.0374 150.449 67.0374 144.223C67.0374 137.997 62.0182 132.949 55.8267 132.949C49.6352 132.949 44.616 137.997 44.616 144.223C44.616 150.449 49.6352 155.497 55.8267 155.497Z" fill="#A0616A"/>
<path d="M46.7504 160.284C45.0119 160.284 43.275 160.177 41.5494 159.965L41.3128 159.936L39.507 150.078C38.7411 145.898 39.595 141.583 41.8934 138.017C44.1918 134.451 47.7604 131.905 51.8667 130.901C52.1407 130.831 52.4286 130.839 52.6986 130.923C52.9686 131.007 53.2103 131.164 53.3972 131.378L53.8279 131.227C55.4767 130.648 57.2227 130.402 58.9661 130.503C60.7095 130.603 62.4162 131.048 63.9888 131.811C65.5613 132.575 66.9688 133.643 68.131 134.953C69.2932 136.264 70.1873 137.792 70.7623 139.45L70.869 139.758L67.9949 140.766C67.0994 141.08 66.2848 141.591 65.6103 142.261C64.9358 142.932 64.4184 143.745 64.0957 144.642C63.773 145.539 63.6532 146.497 63.7449 147.446C63.8366 148.395 64.1376 149.312 64.6259 150.129L67.5644 155.049L67.2516 155.207C60.9093 158.495 53.8858 160.234 46.7504 160.284Z" fill="#2F2E41"/>
<path d="M431.9 207.461C432.03 206.83 432.295 206.236 432.678 205.72C433.061 205.205 433.551 204.779 434.115 204.475C434.679 204.17 435.302 203.993 435.941 203.957C436.581 203.921 437.22 204.026 437.814 204.266L448.01 192.448L450.191 200.277L440.174 210.299C439.708 211.276 438.903 212.047 437.909 212.467C436.915 212.887 435.803 212.925 434.784 212.575C433.764 212.225 432.907 211.512 432.375 210.569C431.844 209.626 431.675 208.52 431.9 207.461Z" fill="#FFB6B6"/>
<path d="M477.398 155.507L481.575 155.28L482.204 157.95C482.204 157.95 482.142 161.369 478.333 168.476C474.525 175.582 445.015 207.223 445.015 207.223L438.625 199.929L454.421 183.567L463.987 166.418L477.398 155.507Z" fill="#E06009"/>
<path d="M1.46952 333.809H497.324C497.503 333.809 497.675 333.737 497.802 333.61C497.929 333.482 498 333.309 498 333.129C498 332.948 497.929 332.775 497.802 332.648C497.675 332.52 497.503 332.449 497.324 332.449H1.46952C1.29015 332.449 1.11813 332.52 0.991304 332.648C0.864472 332.775 0.793213 332.948 0.793213 333.129C0.793213 333.309 0.864472 333.482 0.991304 333.61C1.11813 333.737 1.29015 333.809 1.46952 333.809Z" fill="#CCCCCC"/>
</g>
<defs>
<clipPath id="clip0_464_2512">
<rect width="497.207" height="333.809" fill="white" transform="translate(0.793213)"/>
</clipPath>
</defs>
</svg>
