<svg width="300" height="362" viewBox="0 0 300 362" fill="none" xmlns="http://www.w3.org/2000/svg">
<g clip-path="url(#clip0_464_2332)">
<path d="M2.14477 172.863C3.24708 174.704 4.73961 176.281 6.51724 177.482C8.29487 178.684 10.3144 179.481 12.4335 179.818C14.5526 180.155 16.7197 180.023 18.7823 179.432C20.8449 178.84 22.7528 177.804 24.3715 176.395L69.6157 202.345L67.9295 175.293L25.2233 154.799C22.6769 152.236 19.279 150.697 15.6734 150.472C12.0678 150.248 8.50514 151.353 5.66041 153.58C2.81569 155.807 0.886566 159 0.238612 162.554C-0.409343 166.107 0.268884 169.776 2.14477 172.863Z" fill="#FFB8B8"/>
<path d="M133.131 276.815C119.71 295.599 120.19 327.026 123.935 361.421H187.39L190.148 354.984L193.827 361.421H253.603C253.603 361.421 249.005 274.056 240.728 271.297C232.452 268.538 133.131 276.815 133.131 276.815Z" fill="#2F2E41"/>
<path d="M187.39 80.5585C205.166 80.5585 219.577 66.1479 219.577 48.3714C219.577 30.5949 205.166 16.1842 187.39 16.1842C169.613 16.1842 155.202 30.5949 155.202 48.3714C155.202 66.1479 169.613 80.5585 187.39 80.5585Z" fill="#FFB8B8"/>
<path d="M210.653 88.9094L216.948 100.974L260.484 120.381L249.04 231.128L244.223 242.597L246.826 252.556L240.552 259.906C246.849 265.605 247.649 271.57 244.223 277.74L224.175 282.333C224.175 282.333 112.701 292.245 122.096 274.976C132.361 256.107 134.974 200.38 112.314 170.601C93.0753 145.319 107.845 112.513 107.845 112.513L153.48 98.8755L170.264 88.9094L210.653 88.9094Z" fill="#3F3D56"/>
<path d="M201.679 1.22222C201.831 0.902196 202.074 0.634685 202.378 0.454043C202.683 0.273401 203.034 0.187873 203.388 0.208449C188.652 -0.673009 173.13 1.0445 160.802 9.16497C157.816 11.1323 155 13.4789 151.75 14.906C151.596 14.9749 151.463 15.0824 151.364 15.2178C151.264 15.3533 151.201 15.5123 151.181 15.6793C151.161 15.8462 151.185 16.0155 151.249 16.1708C151.314 16.326 151.418 16.4618 151.551 16.5651L151.908 16.845C152.048 16.9555 152.156 17.1024 152.219 17.2699C152.283 17.4374 152.299 17.6189 152.266 17.7949C152.233 17.9708 152.152 18.1344 152.033 18.2678C151.914 18.4012 151.76 18.4993 151.589 18.5515C151.41 18.6059 151.251 18.7102 151.13 18.852C151.009 18.9939 150.931 19.1674 150.905 19.3522C150.879 19.537 150.907 19.7253 150.984 19.8949C151.062 20.0646 151.186 20.2085 151.343 20.3098L154.079 22.0779C154.216 22.1653 154.33 22.286 154.409 22.4288C154.488 22.5716 154.53 22.732 154.531 22.8952C154.532 23.0584 154.492 23.2192 154.414 23.3629C154.337 23.5065 154.224 23.6284 154.088 23.7174C153.856 23.8605 153.613 23.9839 153.36 24.0863C153.203 24.1452 153.064 24.2437 152.956 24.3721C152.848 24.5005 152.775 24.6546 152.744 24.8194C152.713 24.9843 152.725 25.1544 152.778 25.3133C152.832 25.4722 152.926 25.6146 153.051 25.7267C154.235 26.7813 155.144 28.1097 155.697 29.596C156.609 31.9667 156.773 34.5487 156.927 37.0841C157.869 33.4258 161.862 31.2724 165.633 31.0536C169.404 30.8348 173.082 32.0791 176.753 32.9736C184.747 34.9162 193.049 35.2356 201.168 33.9129C198.411 39.446 200.737 46.0459 203.077 51.7678L210.653 48.5206C221.058 42.6475 213.81 67.4917 209.921 70.9024C217.863 73.6559 238.65 43.0951 231.963 31.5026C228.484 25.4724 230.954 17.6949 224.115 11.9757C220.763 8.44707 214.07 10.0154 210.653 7.08273C209.308 5.92847 211.358 2.84042 209.51 2.16743C208.896 1.94391 201.781 0.996936 201.679 1.22222Z" fill="#2F2E41"/>
<path d="M147.159 101.991C141.253 128.212 126.104 189.436 110.735 202.24C109.761 203.16 108.592 203.85 107.316 204.259C53.2941 217.419 35.9846 183.849 35.9846 183.849C35.9846 183.849 50.4617 176.795 50.8288 163.005L80.0242 172.063L105.474 114.79L109.22 111.296L109.241 111.275L147.159 101.991Z" fill="#3F3D56"/>
<path d="M262.341 344.132C263.888 342.645 265.09 340.837 265.863 338.835C266.635 336.833 266.959 334.686 266.812 332.546C266.666 330.405 266.051 328.323 265.012 326.445C263.973 324.568 262.536 322.941 260.8 321.679L275.944 271.768L249.96 279.477L239.562 325.691C237.636 328.747 236.898 332.404 237.487 335.968C238.077 339.532 239.953 342.756 242.761 345.029C245.569 347.302 249.113 348.466 252.722 348.301C256.33 348.136 259.753 346.652 262.341 344.132Z" fill="#FFB8B8"/>
<path d="M248.481 117.589L260.484 120.381C260.484 120.381 310.096 216.91 298.141 235.302C286.186 253.695 271.539 314.588 271.539 314.588C271.539 314.588 249.877 310.282 241.601 299.246L256.757 227.026L241.123 166.33L248.481 117.589Z" fill="#3F3D56"/>
<path d="M20.7608 260.931L21.1918 105.466C21.2041 102.319 22.464 99.3059 24.6951 97.0871C26.9263 94.8683 29.9465 93.6251 33.0931 93.6303L150.504 93.9558C153.65 93.9681 156.663 95.228 158.882 97.4592C161.101 99.6903 162.344 102.71 162.339 105.857L161.908 261.322C161.896 264.469 160.636 267.482 158.405 269.701C156.174 271.919 153.153 273.163 150.007 273.157L32.5963 272.832C29.4497 272.82 26.4364 271.56 24.2176 269.329C21.9988 267.097 20.7556 264.077 20.7608 260.931Z" fill="#E6E6E6"/>
<path d="M29.897 213.999L30.1741 114.052C30.1856 111.105 31.3655 108.283 33.4551 106.205C35.5446 104.127 38.3731 102.963 41.3201 102.968L142.224 103.247C145.171 103.259 147.994 104.439 150.072 106.528C152.15 108.618 153.314 111.446 153.309 114.393L152.926 252.736C152.914 255.683 151.734 258.505 149.645 260.583C147.555 262.661 144.726 263.825 141.779 263.82L79.2711 263.647C66.1446 263.596 53.5743 258.34 44.318 249.032C35.0618 239.725 29.8755 227.125 29.897 213.999Z" fill="white"/>
<path d="M130.663 146.87H51.983C50.731 146.87 49.5302 146.373 48.6449 145.487C47.7596 144.602 47.2622 143.401 47.2622 142.149C47.2622 140.897 47.7596 139.696 48.6449 138.811C49.5302 137.926 50.731 137.428 51.983 137.428H130.663C131.915 137.428 133.115 137.926 134.001 138.811C134.886 139.696 135.383 140.897 135.383 142.149C135.383 143.401 134.886 144.602 134.001 145.487C133.115 146.373 131.915 146.87 130.663 146.87Z" fill="#E06009"/>
<path d="M69.2925 125.102H51.983C50.731 125.102 49.5302 124.605 48.6449 123.719C47.7596 122.834 47.2622 121.633 47.2622 120.381C47.2622 119.129 47.7596 117.929 48.6449 117.043C49.5302 116.158 50.731 115.661 51.983 115.661H69.2925C70.5445 115.661 71.7453 116.158 72.6306 117.043C73.5159 117.929 74.0133 119.129 74.0133 120.381C74.0133 121.633 73.5159 122.834 72.6306 123.719C71.7453 124.605 70.5445 125.102 69.2925 125.102Z" fill="#E06009"/>
<path d="M130.663 168.638H51.983C50.731 168.638 49.5302 168.141 48.6449 167.255C47.7596 166.37 47.2622 165.169 47.2622 163.917C47.2622 162.665 47.7596 161.465 48.6449 160.579C49.5302 159.694 50.731 159.197 51.983 159.197H130.663C131.915 159.197 133.115 159.694 134.001 160.579C134.886 161.465 135.383 162.665 135.383 163.917C135.383 165.169 134.886 166.37 134.001 167.255C133.115 168.141 131.915 168.638 130.663 168.638Z" fill="#E06009"/>
<path d="M130.663 190.406H51.983C50.731 190.406 49.5302 189.909 48.6449 189.023C47.7596 188.138 47.2622 186.937 47.2622 185.685C47.2622 184.433 47.7596 183.233 48.6449 182.347C49.5302 181.462 50.731 180.965 51.983 180.965H130.663C131.915 180.965 133.115 181.462 134.001 182.347C134.886 183.233 135.383 184.433 135.383 185.685C135.383 186.937 134.886 188.138 134.001 189.023C133.115 189.909 131.915 190.406 130.663 190.406Z" fill="#E06009"/>
<path d="M124.296 247.764C134.67 247.764 143.08 239.354 143.08 228.98C143.08 218.606 134.67 210.196 124.296 210.196C113.922 210.196 105.512 218.606 105.512 228.98C105.512 239.354 113.922 247.764 124.296 247.764Z" fill="#E06009"/>
<path d="M121.734 238.756C121.409 238.756 121.089 238.681 120.799 238.536C120.509 238.39 120.257 238.18 120.062 237.92L114.938 231.087C114.773 230.868 114.653 230.618 114.584 230.352C114.516 230.086 114.5 229.809 114.539 229.537C114.578 229.266 114.67 229.004 114.81 228.768C114.949 228.531 115.134 228.325 115.354 228.16C115.574 227.995 115.824 227.876 116.09 227.807C116.356 227.739 116.633 227.724 116.905 227.763C117.176 227.802 117.438 227.895 117.674 228.035C117.91 228.175 118.116 228.36 118.281 228.58L121.633 233.05L130.244 220.134C130.396 219.905 130.592 219.708 130.82 219.554C131.048 219.401 131.304 219.294 131.574 219.239C131.843 219.185 132.121 219.184 132.39 219.237C132.66 219.291 132.917 219.396 133.146 219.549C133.374 219.701 133.571 219.898 133.724 220.126C133.876 220.355 133.983 220.611 134.036 220.881C134.09 221.151 134.089 221.428 134.035 221.698C133.981 221.967 133.875 222.224 133.721 222.452L123.472 237.826C123.287 238.104 123.038 238.333 122.745 238.495C122.453 238.657 122.126 238.746 121.792 238.755C121.772 238.756 121.753 238.756 121.734 238.756Z" fill="white"/>
<path d="M84.2415 57.4376C89.1662 57.4376 93.1585 53.4453 93.1585 48.5206C93.1585 43.5959 89.1662 39.6036 84.2415 39.6036C79.3167 39.6036 75.3245 43.5959 75.3245 48.5206C75.3245 53.4453 79.3167 57.4376 84.2415 57.4376Z" fill="#F2F2F2"/>
<path d="M51.7207 313.933C56.6455 313.933 60.6377 309.941 60.6377 305.016C60.6377 300.091 56.6455 296.099 51.7207 296.099C46.796 296.099 42.8037 300.091 42.8037 305.016C42.8037 309.941 46.796 313.933 51.7207 313.933Z" fill="#F2F2F2"/>
<path d="M256.812 92.0566C261.737 92.0566 265.729 88.0643 265.729 83.1396C265.729 78.2149 261.737 74.2226 256.812 74.2226C251.887 74.2226 247.895 78.2149 247.895 83.1396C247.895 88.0643 251.887 92.0566 256.812 92.0566Z" fill="#F2F2F2"/>
</g>
<defs>
<clipPath id="clip0_464_2332">
<rect width="300" height="361.421" fill="white"/>
</clipPath>
</defs>
</svg>
