<svg width="44" height="33" viewBox="0 0 44 33" fill="none" xmlns="http://www.w3.org/2000/svg">
<path fill-rule="evenodd" clip-rule="evenodd" d="M31.8177 0C33.3395 0 34.598 0.795666 35.5195 1.63167C36.4788 2.49883 37.3584 3.66483 38.1402 4.95C39.7099 7.52767 41.0761 10.8955 41.9796 14.223C42.8772 17.5248 43.3738 20.9733 43.0567 23.6848C42.7375 26.4073 41.2118 29.3333 37.8012 29.3333C34.8573 29.3333 32.5118 27.94 30.5931 26.5265L29.893 25.9967L28.9117 25.2358L28.0262 24.5612C25.9938 23.0487 24.1888 22 21.8452 22C19.5017 22 17.6967 23.0487 15.6643 24.5612L14.7787 25.2358L13.7974 25.9967L13.0994 26.5265C11.1767 27.94 8.83116 29.3333 5.88928 29.3333C2.47671 29.3333 0.950918 26.4073 0.633793 23.6848C0.318664 20.9715 0.813298 17.5248 1.71082 14.223C2.61432 10.8955 3.98055 7.52767 5.55022 4.94817C6.33206 3.66483 7.21163 2.49883 8.17098 1.62983C9.09244 0.795667 10.351 0 11.8728 0C12.8999 0 13.9032 0.2255 14.8904 0.495L16.0712 0.826834C16.268 0.883056 16.4641 0.936222 16.6595 0.986334C18.3848 1.441 20.1499 1.83333 21.8452 1.83333C23.5405 1.83333 25.3057 1.441 27.0309 0.986334L28.796 0.496833C29.7893 0.227333 30.8005 0 31.8177 0ZM31.8177 3.66667C31.0538 3.66667 30.256 3.87933 29.4821 4.11217L28.5687 4.389L28.1279 4.51367C26.3628 4.97567 24.1389 5.5 21.8452 5.5C19.5516 5.5 17.3277 4.97567 15.5626 4.51367L15.1238 4.389L14.2083 4.11217C13.4344 3.8775 12.6367 3.66667 11.8728 3.66667C11.0391 3.80967 10.2911 4.73917 9.72669 5.60083L9.41156 6.105L9.0326 6.73933C7.67236 8.97233 6.41982 12.0193 5.58213 15.1122C4.79431 18.0015 4.41136 20.7698 4.55696 22.8305L4.60882 23.3677L4.64871 23.6903L4.70854 24.0717C4.84616 24.8068 5.14334 25.6667 5.88928 25.6667C7.50881 25.6667 8.86108 24.926 10.5424 23.6977L11.3462 23.0963L12.862 21.9303L13.5481 21.417C15.6703 19.8715 18.3249 18.3333 21.8452 18.3333C25.3655 18.3333 28.0202 19.8733 30.1423 21.417L30.8304 21.9303L32.3462 23.0963L33.148 23.6977C34.8294 24.926 36.1796 25.6667 37.8012 25.6667C38.4793 25.6667 38.7864 24.9572 38.94 24.2752L39.0158 23.8755L39.0896 23.2943C39.3349 21.1933 38.956 18.2252 38.1103 15.1122C37.3404 12.2778 36.2235 9.48017 34.9949 7.31317L34.2789 6.10317L33.9638 5.60267C33.3993 4.73917 32.6514 3.80967 31.8177 3.66667ZM14.8645 7.33333C16.1869 7.33333 17.4552 7.81622 18.3903 8.67576C19.3254 9.5353 19.8507 10.7011 19.8507 11.9167C19.8507 13.1322 19.3254 14.298 18.3903 15.1576C17.4552 16.0171 16.1869 16.5 14.8645 16.5C13.5421 16.5 12.2738 16.0171 11.3387 15.1576C10.4036 14.298 9.87827 13.1322 9.87827 11.9167C9.87827 10.7011 10.4036 9.5353 11.3387 8.67576C12.2738 7.81622 13.5421 7.33333 14.8645 7.33333ZM28.826 7.33333C29.3145 7.33339 29.786 7.49825 30.151 7.79664C30.5161 8.09504 30.7493 8.50621 30.8065 8.95217L30.8204 9.16667V10.0833H31.8177C32.326 10.0839 32.815 10.2628 33.1847 10.5836C33.5543 10.9043 33.7768 11.3427 33.8065 11.8092C33.8363 12.2757 33.6712 12.735 33.3449 13.0934C33.0187 13.4517 32.5558 13.682 32.051 13.7372L31.8177 13.75H30.8204V14.6667C30.8199 15.1339 30.6252 15.5834 30.2763 15.9232C29.9273 16.263 29.4503 16.4674 28.9428 16.4948C28.4354 16.5222 27.9357 16.3704 27.5458 16.0705C27.156 15.7706 26.9055 15.3452 26.8454 14.8812L26.8315 14.6667V13.75H25.8342C25.3259 13.7495 24.8369 13.5706 24.4673 13.2498C24.0976 12.929 23.8752 12.4906 23.8454 12.0241C23.8156 11.5576 23.9807 11.0983 24.307 10.74C24.6332 10.3816 25.0961 10.1514 25.6009 10.0962L25.8342 10.0833H26.8315V9.16667C26.8315 8.68044 27.0416 8.21412 27.4156 7.8703C27.7897 7.52649 28.297 7.33333 28.826 7.33333ZM14.8645 11C14.6 11 14.3464 11.0966 14.1593 11.2685C13.9723 11.4404 13.8673 11.6736 13.8673 11.9167C13.8673 12.1598 13.9723 12.3929 14.1593 12.5648C14.3464 12.7368 14.6 12.8333 14.8645 12.8333C15.129 12.8333 15.3826 12.7368 15.5697 12.5648C15.7567 12.3929 15.8617 12.1598 15.8617 11.9167C15.8617 11.6736 15.7567 11.4404 15.5697 11.2685C15.3826 11.0966 15.129 11 14.8645 11Z" fill="white"/>
</svg>
